<svg width="40" height="40" viewBox="0 0 40 40" fill="none" xmlns="http://www.w3.org/2000/svg">
  <g clip-path="url(#clip0_18373_508)">
    <rect width="40" height="40" fill="#211A1D"/>
    <g opacity="0.5">
      <path d="M46.8388 11.9746L46.8373 12.3753L46.4443 13.6684L46.1283 14.0501L46.2898 14.5572C46.5631 14.6714 47.1196 14.9045 47.1583 14.9231C47.1971 14.9416 47.1778 15.3699 47.281 15.4839C47.1216 15.7579 47.0392 16.1186 47.0434 16.1519C47.0476 16.1853 47.4819 16.5536 47.6985 16.7335L48.5095 17.1327L49.0785 17.1848L49.591 17.2016L50.6471 16.8634L51.8176 15.7294L52.6687 15.544L52.7062 15.1454L52.8023 14.5407L53.2736 13.5339L52.6513 12.6454L52.2378 11.4278L51.9794 10.0734L51.2559 9.23347L50.7535 9.29678L50.1968 10.1418L50.0392 10.8518L49.658 11.232L48.7839 11.2347L48.2884 11.4045L47.9453 11.5194L47.4814 11.3988L47.1093 11.6963L46.8388 11.9746Z" fill="#4D2D1F"/>
      <path d="M52.4842 19.0863L52.2205 16.9935L53.4144 15.9629L54.0824 14.2075L53.6554 12.9362L52.8122 11.1834L53.5451 9.94389L54.5529 10.964L55.9771 10.3494L56.1801 9.21632L56.0108 7.87298L56.8088 7.14944L58.2763 8.28964L59.5364 9.90097L61.305 10.6868L63.6487 10.3915L65.4933 9.58548L67.1248 10.616L65.3631 12.7861L64.3772 16.1736L63.325 18.9564L60.4455 20.6444L57.6642 20.9948L55.3152 21.9534L53.677 23.6135L52.5987 26.9731L49.9982 28.0523L50.694 25.1859L50.8512 22.1994L51.383 20.4612L52.4842 19.0863Z" fill="#4D2D1F"/>
      <path d="M55.6037 23.0812L55.1334 23.9441L55.7034 23.8722L56.3163 23.1898L57.2792 22.4335L56.2375 22.5648L55.6037 23.0812Z" fill="#4D2D1F"/>
      <path d="M61.0445 21.2089L58.7216 21.7495L61.1626 22.1462L63.2923 21.1736L63.4596 19.9821L61.0445 21.2089Z" fill="#4D2D1F"/>
      <path d="M44.5861 21.4949L44.7672 21.5586L45.5978 21.627L49.9519 20.8188L51.2196 19.664L51.8643 18.3715L51.7588 17.5339L50.9639 17.6341L48.8556 17.6113L46.8762 16.8946L45.0806 15.4624L44.6281 11.871L45.6282 11.1105L46.3729 10.4975L46.9631 9.6877L46.4654 8.94285L44.838 8.84508L42.434 9.45083L40.2195 9.72986L37.4991 9.76982L33.0139 9.08037L30.2822 6.74234L25.2617 4.89458L21.2697 3.99879L19.2374 3.66362L17.3473 3.54127L16.4551 4.0142L15.9591 4.88426L17.7211 6.50808L19.313 8.38407L19.4776 9.69003L18.8235 10.4502L16.6441 12.0371L16.9017 12.3652L18.8148 12.4414L19.9111 11.986L20.491 11.5524L20.5751 12.2196L20.4429 13.2312L20.1866 14.1721L20.2613 14.4222L21.0709 12.9502L21.6397 12.0854L21.6629 12.27L22.3811 11.6747L22.4347 12.1006L21.6916 12.4971L21.1085 13.2483L20.2563 14.7257L19.3363 19.3264L17.5108 19.9458L17.0017 20.1397L18.0753 22.766L18.8148 24.0975L19.7632 22.6518H20.0524L20.6307 22.5073L24.3894 21.4953L25.8351 21.3507L25.546 21.4953L24.2449 21.6399L20.1247 22.8687L19.6187 23.2301L19.1488 25.3923L17.089 31.2471L14.7126 32.8732L13.8083 33.7082L14.2272 35.5445L15.1955 36.7059L16.2537 37.2071L18.17 36.9656L19.5535 36.1568L21.395 35.6652L22.2355 34.8959L23.1134 34.4248L23.4476 35.0172L22.3177 35.5489L21.1951 36.2528L19.1069 36.8476L20.6084 36.9756L22.1415 36.7825L27.0001 32.8823L32.7744 31.3397L31.6179 28.4346L31.5456 27.784L29.4493 28.4346V28.29L31.1842 27.7117L31.5456 27.278L31.3287 26.1215L29.5939 25.3986L29.1602 25.1095L31.4733 25.9769L31.6179 26.2661L32.7744 25.3986L32.919 24.3867L33.0636 24.5312L32.919 25.5432L32.4853 25.8323L31.7625 26.4106V26.8443L32.1962 28.5792L34.0756 31.28L39.9237 33.5901L44.8598 32.7085L46.4079 31.4896L46.161 29.5306L45.2908 27.0878L44.5861 21.4949Z" fill="#4D2D1F"/>
      <path d="M47.7198 21.8305L45.036 22.0099C45.0938 22.3024 45.2259 22.9207 45.2922 23.0539C45.375 23.2205 45.9537 23.2965 46.0888 23.1727C46.2239 23.049 47.3175 23.105 47.4878 23.0792C47.6241 23.0586 48.1969 23.2469 48.4662 23.3436C48.6325 23.5428 48.9829 23.9515 49.0545 23.9926C49.1261 24.0337 49.5926 24.1765 49.8169 24.2428L49.751 23.2577C49.7434 23.1435 49.9178 22.7495 50.006 22.5668C50.0465 22.3155 50.1315 21.784 50.1467 21.6683C50.1619 21.5526 49.8021 21.3759 49.6203 21.302L47.7198 21.8305Z" fill="#4D2D1F"/>
      <path d="M-8.39346 20.5867L-10.9864 21.3021C-10.871 21.577 -10.6172 22.156 -10.5255 22.2732C-10.4109 22.4197 -9.82878 22.3778 -9.7213 22.2295C-9.61381 22.0811 -8.53136 21.916 -8.36965 21.8566C-8.24029 21.809 -7.64135 21.8783 -7.35805 21.9188C-7.15513 22.0805 -6.72968 22.4104 -6.6513 22.4363C-6.57292 22.4621 -6.08724 22.5082 -5.8542 22.528L-6.11675 21.5764C-6.14719 21.466 -6.05557 21.045 -6.00595 20.8482C-6.01674 20.594 -6.0404 20.0563 -6.04878 19.9398C-6.05715 19.8234 -6.44511 19.7227 -6.63805 19.6868L-8.39346 20.5867Z" fill="#4D2D1F"/>
      <path d="M15.7491 6.07879C17.6049 6.34102 18.1003 8.33498 18.1161 9.29918L15.3467 11.9266L14.5177 13.4731L19.046 12.9025C19.8898 12.7962 19.8805 13.3838 19.5771 13.4557L18.6119 18.9562L16.4235 20.4722L18.2121 25.6257L17.2963 27.3995L15.1149 30.5729L9.76095 32.4877L7.39628 33.4057L4.11356 31.9591L1.3349 28.7906L-2.3569 28.2175L-4.25042 24.6346L-4.72442 20.8728L-6.29222 18.2728L-9.52771 19.7188L-11.4877 18.9274L-12.4675 16.8734L-11.9366 15.3644L-12.7752 14.4318L-13.8672 15.6077L-14.9886 15.749L-15.1174 14.7269L-12.929 13.211L-16.8393 14.2229L-16.2734 12.1903L-8.52718 10.3779L-2.04355 7.70065L8.283 5.88032C9.99843 5.83721 13.8933 5.81656 15.7491 6.07879Z" fill="#4D2D1F"/>
      <path d="M2.8767 31.9853L0.17507 29.5426L-3.04981 30.9584L-3.51118 32.7902L-2.24141 33.7118L1.90084 33.9686L3.70177 35.4433L7.18239 34.226L4.32823 33.6627L2.8767 31.9853Z" fill="#4D2D1F"/>
      <path d="M-5.65585 26.5279L-5.63812 24.723L-4.81099 24.8784L-4.20314 25.8112L-4.03501 27.1456L-5.02868 27.2708L-5.65585 26.5279Z" fill="#4D2D1F"/>
      <path d="M-4.19515 27.9184L-4.0106 27.5725L-3.26503 27.525L-2.93406 27.7117L-2.78949 28.1455L-3.51233 28.29L-4.19515 27.9184Z" fill="#4D2D1F"/>
      <path d="M7.94863 34.2795L8.13318 33.9335L8.87874 33.886L9.35032 34.0073L9.38042 34.2462L8.57744 34.8394L7.94863 34.2795Z" fill="#4D2D1F"/>
      <path d="M11.2507 42.7251L11.996 41.3281L15.0065 41.1364L16.9108 41.6262L17.0323 42.5908L13.7899 44.986L11.2507 42.7251Z" fill="#4D2D1F"/>
      <path d="M9.46591 5.08258L6.08744 5.50828L5.92109 4.18812L8.82473 2.7407L12.3874 3.77711L12.1014 5.28406L9.46591 5.08258Z" fill="#4D2D1F"/>
      <path d="M13.1943 3.19949L12.9156 4.87857L15.2884 4.94011L15.5431 4.10046L15.8901 3.30685L17.6659 2.63606L17.3603 2.27079L16.7635 1.76916L14.5206 2.05177L13.1943 3.19949Z" fill="#4D2D1F"/>
      <path d="M49.563 32.7758L49.8417 31.0967L47.4689 31.0352L47.2142 31.8749L46.8672 32.6685L45.0914 33.3393L45.397 33.7045L45.9938 34.2062L48.2367 33.9235L49.563 32.7758Z" fill="#4D2D1F"/>
      <path d="M56.7914 49.8348L56.4837 48.9339L55.4717 48.8191L54.6043 49.2528L53.8815 49.5419L52.8695 50.1202L52.6255 50.7635L53.2223 51.2652L55.4651 50.9826L56.7914 49.8348Z" fill="#4D2D1F"/>
      <path d="M51.4238 51.9996L51.5684 51.2767H50.8389L50.1227 51.5659L49.5444 51.7104L48.2433 51.855L47.9993 52.4984L48.5961 53L50.701 52.4333L51.4238 51.9996Z" fill="#4D2D1F"/>
      <path d="M45.4965 51.9996L47.2313 52.4333L45.9302 52.7224H44.7736L45.4965 51.9996Z" fill="#4D2D1F"/>
      <path d="M43.1834 51.855L43.9062 52.4333H42.6051L41.7377 52.7224V51.9996L43.1834 51.855Z" fill="#4D2D1F"/>
      <path d="M39.7137 51.2767L40.8703 51.7104L39.8583 51.855L39.1355 52.1441L39.28 51.5659L39.7137 51.2767Z" fill="#4D2D1F"/>
      <path d="M20.8253 3.2184L19.0379 2.88121L20.0206 2.44013L21.3375 2.59145L20.8253 3.2184Z" fill="#4D2D1F"/>
      <path d="M-16.941 23.0809L-11.6753 23.4156L-11.0503 24.2195L-12.1277 25.2538L-12.2471 26.3543L-11.8273 27.4652L-9.83127 27.4449L-8.28565 28.7421L-10.4939 29.5767L-12.6974 29.0482L-13.4335 29.3264L-12.9833 30.5175C-12.517 31.0092 -11.5289 32.1398 -11.3064 32.7287C-11.0838 33.3176 -11.4953 33.7127 -11.7288 33.8367L-12.7326 34.216L-14.8903 33.242L-15.5529 31.4887L-17.1139 30.7174L-18.6262 30.0347L-19.9437 28.2078L-20.7075 26.1869L-21.826 24.9272L-21.8861 23.0685L-22 21.1079L-19.9991 19.7246L-16.941 23.0809Z" fill="#4D2D1F"/>
      <path d="M70.9407 37.5428L72.1746 40.7641L72.7996 41.568L71.7222 42.6023L71.6027 43.7028L72.0226 44.8137L74.0186 44.7934L74.3597 46.2169V46.5458L73.356 46.9252L72.7996 48.0659H72.5435L72.7996 48.8372C73.2658 49.3289 72.321 49.4883 72.5435 50.0772C72.7661 50.666 72.3546 51.0612 72.1211 51.1852L71.1173 51.5645L68.9596 50.5905L68.297 48.8372L66.736 48.0659L65.3025 48.8372L63.8508 50.0772L62.4111 50.5904L60.9654 50.843L59.8089 50.9876L58.6523 50.5904L57.7849 49.1082L57.9295 47.8071L58.2186 46.2169L59.086 45.494L59.9534 44.7934L62.0239 42.2757L61.9638 40.417L61.8499 38.4564L63.8508 37.0731L70.9407 37.5428Z" fill="#4D2D1F"/>
      <path d="M-9.78079 33.4062L-11.3132 30.7275L-9.84104 30.1711L-8.29341 30.9474L-6.93009 32.3288L-6.06008 34.6308L-8.44235 35.5311L-9.78079 33.4062Z" fill="#4D2D1F"/>
      <path d="M36.6184 3.92509L34.7562 1.50633L34.6202 0.427491L38.0129 0L39.9543 1.78868L42.0525 2.30303L46.3678 1.75927L48.0172 2.48879L46.6003 3.60466L45.4816 4.68297L42.4013 5.07111L39.815 4.45964L36.6184 3.92509Z" fill="#4D2D1F"/>
      <path d="M35.5213 36.5666L29.7385 34.0729L33.0636 34.0731L34.1294 33.1962H34.5944L38.5572 34.0731L40.0285 35.2649L44.3439 34.7212L45.0628 38.033L43.1089 38.033L41.5932 38.5547H39.5692L37.7911 37.4216L35.5213 36.5666Z" fill="#4D2D1F"/>
      <path d="M40.7884 7.1491L38.7498 5.84854L40.3972 6.33316L41.6645 6.54841L43.0272 6.3767L43.9539 6.75023L46.0123 6.49087L46.4483 5.94563L48.2409 6.21005L48.5985 7.10234L46.0123 6.49087L43.9539 6.75023L40.7884 7.1491Z" fill="#4D2D1F"/>
      <path d="M-2.30995 6.61411L0.0991306 6.08863L-0.905958 5.14703L-3.93595 5.50098L-4.60138 5.40406L-5.24299 6.61412L-4.60138 7.64425L-2.30995 6.61411Z" fill="#4D2D1F"/>
      <path d="M5.03932 3.04238L6.06946 2.77054L5.88346 2.42716L5.5687 1.96932V1.51148H5.03932L3.99487 2.24116L5.03932 3.04238Z" fill="#4D2D1F"/>
    </g>
    <rect x="26.0938" y="22.125" width="0.81249" height="4.87494" fill="#FF7926"/>
    <rect x="28.125" y="20.9062" width="0.81249" height="4.87494" transform="rotate(-90 28.125 20.9062)" fill="#FF7926"/>
    <rect x="26.0938" y="14" width="0.81249" height="4.87494" fill="#FF7926"/>
    <rect x="20" y="20.9062" width="0.81249" height="4.87494" transform="rotate(-90 20 20.9062)" fill="#FF7926"/>
  </g>
  <rect x="0.5" y="0.5" width="39" height="39" stroke="#FF7926" stroke-opacity="0.4"/>
  <defs>
    <clipPath id="clip0_18373_508">
      <rect width="40" height="40" fill="white"/>
    </clipPath>
  </defs>
</svg>