<svg width="190" height="190" viewBox="0 0 190 190" fill="none" xmlns="http://www.w3.org/2000/svg">
  <mask id="mask0_247_10059" style="mask-type:alpha" maskUnits="userSpaceOnUse" x="0" y="0" width="190" height="190">
    <rect width="190" height="190" fill="url(#paint0_radial_247_10059)"/>
  </mask>
  <g mask="url(#mask0_247_10059)">
    <path d="M287.118 9.00106C287.118 9.00106 287.154 9.00106 287.163 9.00106C287.448 9.02779 287.662 9.28619 287.635 9.5713C285.416 33.6188 276.788 51.171 261.28 63.2349C245.327 75.6462 228.589 87.5942 212.412 99.1502C208.455 101.975 204.507 104.799 200.559 107.623C196.904 110.243 192.546 112.649 187.225 114.974C180.487 117.914 173.741 116.319 168.616 114.609C166.067 113.753 163.544 112.755 161.102 111.793C156.53 109.984 151.798 108.113 146.789 107.151C138.634 105.592 131.37 105.512 124.578 106.902C112.092 109.459 101.388 113.326 91.8423 118.716C89.8815 119.821 88.0099 121.157 86.4056 122.325C83.8031 124.222 82.3504 126.539 82.0741 129.23C81.7265 132.562 83.2862 136.331 86.4591 139.832L87.9742 141.507C92.4127 146.408 97.0027 151.468 101.022 156.832C103.429 160.04 105.488 163.987 107.511 169.243C110.256 176.371 107.457 182.902 104.757 189.21L104.356 190.146C103.135 193.015 101.789 195.893 100.488 198.672C96.8957 206.37 93.1792 214.327 91.6462 222.934C91.0402 226.319 90.4876 229.634 90.3093 232.922C90.1222 236.432 90.0152 240.005 89.9082 243.462C89.7656 248.095 89.6231 252.879 89.2844 257.584C88.8209 263.999 85.4163 268.739 79.4448 271.287C77.4038 272.16 75.3539 273.024 73.304 273.889C67.6534 276.268 61.8157 278.727 56.1829 281.364C41.5929 288.207 30.2649 297.678 21.5662 310.321C14.2222 320.977 4.75694 329.913 -4.38742 337.986C-12.2573 344.926 -17.3464 354.166 -19.53 365.419C-21.4997 375.603 -21.3214 386 -21.1432 396.051C-21.0986 398.447 -21.0541 400.853 -21.0451 403.25C-21.0184 407.972 -19.3696 412.935 -17.9436 416.73C-15.0737 424.366 -7.1236 428.09 0.96016 425.587C9.14196 423.056 16.2632 419.786 22.7426 415.581C32.3772 409.335 41.8692 405.611 51.7622 404.185C54.0171 403.864 56.3344 403.945 58.5804 404.025C60.1044 404.078 61.682 404.132 63.2149 404.06C73.6338 403.562 85.6035 402.475 95.8262 395.908C101.013 392.576 105.327 389.448 109.008 386.357C124.703 373.161 136.352 359.342 144.614 344.107C148.188 337.522 152.965 330.394 161.325 327.472C167.083 325.467 172.938 323.917 178.749 322.875C193.696 320.184 205.113 311.595 213.66 296.626C218.999 287.28 220.969 278.415 219.685 269.523C218.981 264.614 216.307 259.74 214.364 256.506C213.375 254.866 212.314 253.218 211.289 251.623C207.698 246.046 203.981 240.281 202.555 233.429C201.691 229.277 200.594 223.816 199.837 218.318C199.266 214.166 198.687 209.988 198.963 205.889C199.061 204.437 199.15 202.976 199.24 201.515C199.667 194.458 200.113 187.152 201.806 180.265C204.115 170.874 211.298 163.238 220.559 160.343C229.685 157.482 239.239 159.656 246.753 166.294C252.457 171.337 258.072 176.656 263.509 181.806C267.305 185.406 271.236 189.121 275.157 192.712C280.318 197.434 285.986 202.361 292.492 207.769C302.065 215.726 313.785 219.878 325.122 223.887C326.218 224.279 327.314 224.662 328.419 225.054C330.211 225.696 332.002 226.337 333.794 226.988C339.649 229.099 345.71 231.282 351.717 233.251C367.474 238.419 375.469 233.233 382.617 223.842C391.334 212.393 395.585 198.842 395.246 183.552C395.059 175.142 391.949 167.06 386.244 160.191C381.494 154.471 376.476 148.813 371.628 143.343C367.751 138.977 363.74 134.46 359.89 129.933C357.439 127.047 355.54 123.581 353.865 120.266C349.934 112.515 354.025 106.314 358.544 100.629C362.439 95.7288 366.458 91.7105 370.496 88.6812C380.629 81.0901 385.335 70.7369 385.3 56.116C385.264 41.5574 387.056 26.3573 390.781 9.6426C390.843 9.35748 391.129 9.17928 391.405 9.24165C391.69 9.30401 391.868 9.58023 391.806 9.86534C388.098 26.4999 386.307 41.6287 386.351 56.1071C386.387 71.0933 381.556 81.7138 371.129 89.5187C367.163 92.4857 363.205 96.4416 359.364 101.28C354.881 106.928 351.147 112.595 354.801 119.794C356.45 123.046 358.303 126.45 360.692 129.247C364.533 133.765 368.535 138.282 372.412 142.648C377.269 148.127 382.296 153.794 387.056 159.523C392.911 166.579 396.111 174.883 396.298 183.535C396.637 199.064 392.323 212.848 383.455 224.484C376.031 234.231 367.742 239.622 351.396 234.249C345.371 232.271 339.311 230.088 333.437 227.977C331.646 227.335 329.863 226.685 328.072 226.052C326.975 225.66 325.879 225.277 324.783 224.885C313.366 220.849 301.557 216.67 291.833 208.589C285.318 203.172 279.632 198.227 274.462 193.496C270.532 189.896 266.601 186.172 262.804 182.572C257.377 177.431 251.762 172.112 246.075 167.087C238.847 160.699 229.667 158.605 220.888 161.349C211.976 164.138 205.06 171.48 202.84 180.523C201.174 187.321 200.728 194.574 200.3 201.595C200.211 203.056 200.122 204.517 200.024 205.978C199.748 209.961 200.318 214.095 200.871 218.087C201.637 223.646 202.724 229.099 203.589 233.224C204.979 239.889 208.642 245.565 212.181 251.062C213.206 252.657 214.275 254.314 215.273 255.971C217.261 259.286 219.997 264.275 220.737 269.371C222.056 278.504 220.042 287.592 214.587 297.143C205.879 312.397 194.222 321.155 178.945 323.899C173.188 324.933 167.377 326.465 161.682 328.452C153.66 331.25 149.026 338.182 145.541 344.597C137.217 359.948 125.487 373.865 109.694 387.15C105.969 390.277 101.628 393.431 96.3967 396.781C85.9511 403.49 73.821 404.595 63.2684 405.103C61.6909 405.183 60.0955 405.121 58.5447 405.067C56.3522 404.987 54.0705 404.907 51.9137 405.219C42.1722 406.618 32.8139 410.288 23.3131 416.454C16.7445 420.713 9.53414 424.027 1.26321 426.584C-7.36422 429.248 -15.858 425.257 -18.9239 417.095C-20.3856 413.22 -22.0612 408.141 -22.0879 403.25C-22.1057 400.853 -22.1414 398.456 -22.1859 396.068C-22.3642 385.965 -22.5514 375.514 -20.555 365.214C-18.3268 353.72 -13.1218 344.294 -5.08258 337.193C4.00831 329.165 13.42 320.291 20.7017 309.724C29.5163 296.929 40.9779 287.342 55.7372 280.42C61.3878 277.764 67.2435 275.305 72.903 272.926C74.9529 272.062 76.9938 271.207 79.0437 270.334C84.7033 267.919 87.8049 263.607 88.2416 257.521C88.5803 252.844 88.7318 248.068 88.8655 243.444C88.9724 239.978 89.0794 236.396 89.2666 232.877C89.4448 229.536 90.0063 226.186 90.6213 222.764C92.181 214.024 95.9243 206.005 99.5428 198.245C100.835 195.474 102.172 192.605 103.393 189.745L103.794 188.809C106.414 182.697 109.124 176.371 106.53 169.635C104.543 164.477 102.529 160.61 100.176 157.482C96.1828 152.154 91.6106 147.112 87.1899 142.238L85.6747 140.563C82.3058 136.839 80.657 132.785 81.0313 129.149C81.3343 126.2 82.9831 123.554 85.7906 121.505C87.4127 120.32 89.32 118.957 91.3254 117.825C100.969 112.381 111.78 108.488 124.365 105.904C131.299 104.478 138.696 104.558 146.985 106.153C152.092 107.133 156.869 109.022 161.486 110.849C163.919 111.811 166.432 112.809 168.954 113.646C176.307 116.105 181.815 116.23 186.815 114.047C192.065 111.749 196.37 109.388 199.953 106.813C203.901 103.979 207.849 101.155 211.806 98.3394C227.983 86.7923 244.703 74.8443 260.648 62.4508C275.915 50.5741 284.409 33.2624 286.601 9.51785C286.628 9.24164 286.851 9.04566 287.118 9.04566V9.00106Z" fill="#FF7926" fill-opacity="0.4"/>
    <path d="M282.546 7.43331C282.689 7.43331 282.832 7.45112 282.983 7.47785C284.115 7.71841 284.837 8.82319 284.605 9.95474C284.409 10.8814 284.204 11.7991 283.999 12.7168C283.571 14.6235 283.126 16.6015 282.823 18.526C279.953 36.6574 270.603 52.2049 255.8 63.4936C241.013 74.7645 225.247 85.2067 210.006 95.3015C206.842 97.3953 203.678 99.498 200.514 101.601C193.563 106.234 186.254 108.675 179.365 108.675C179.187 108.675 178.999 108.675 178.821 108.675C174.623 108.595 170.515 107.463 166.54 106.376C165.024 105.958 163.456 105.53 161.941 105.174C159.409 104.585 156.869 103.908 154.409 103.249C149.454 101.93 144.338 100.558 139.285 99.9168C131.04 98.8654 122.092 99.9791 111.896 103.311C109.9 103.962 107.903 104.594 105.898 105.236C95.6573 108.479 85.0602 111.838 75.8178 117.71C70.9515 120.801 67.7786 124 68.0995 129.524C68.4114 134.995 71.6734 138.728 76.4595 142.666L78.7589 144.546C83.2242 148.19 87.8409 151.968 92.0833 156.048C102.805 166.366 104.962 177.815 98.8659 192.071C90.7465 211.057 85.7287 228.672 83.5272 245.912C82.3775 254.911 78.8124 261.228 72.636 265.238C70.4524 266.654 68.251 268.151 66.1208 269.594C62.1369 272.294 58.0282 275.092 53.7679 277.551C38.9551 286.14 28.9819 294.417 21.424 304.396C11.9766 316.87 3.03723 325.922 -6.7221 332.881C-14.0037 338.075 -18.9859 344.463 -21.5438 351.858C-24.9395 361.677 -25.5366 372.057 -25.8575 381.84C-26.2675 394.429 -25.5991 407.295 -25.0108 418.646C-24.8148 422.344 -24.1018 425.988 -23.3442 429.837C-23.0144 431.503 -22.6847 433.178 -22.3994 434.853L-22.1677 436.207C-20.4921 445.999 -18.7542 456.13 -24.485 465.948C-25.0732 466.946 -26.3567 467.285 -27.3549 466.697C-28.3531 466.117 -28.6917 464.834 -28.1124 463.828C-23.1481 455.328 -24.681 446.382 -26.3031 436.911L-26.5349 435.548C-26.8112 433.909 -27.132 432.278 -27.4529 430.648C-28.2105 426.816 -28.9858 422.86 -29.1997 418.86C-29.7969 407.42 -30.4743 394.465 -30.0554 381.697C-29.7256 371.585 -29.1018 360.848 -25.5189 350.486C-22.6757 342.254 -17.1766 335.179 -9.16415 329.468C0.229764 322.759 8.88393 313.983 18.0729 301.857C25.9873 291.415 36.3438 282.799 51.6557 273.916C55.7822 271.528 59.8375 268.775 63.759 266.111C65.907 264.658 68.1262 263.153 70.3455 261.709C75.497 258.368 78.3668 253.174 79.3651 245.369C81.6199 227.736 86.7358 209.765 95.0067 190.413C100.399 177.797 98.5985 168.121 89.1689 159.051C85.0513 155.086 80.4969 151.371 76.0941 147.78L73.7857 145.891C68.9016 141.882 64.3205 137.151 63.8927 129.756C63.4292 121.728 68.5184 117.371 73.554 114.172C83.2599 108.007 94.1154 104.568 104.615 101.235C106.602 100.603 108.59 99.9791 110.577 99.3287C121.379 95.7915 130.934 94.6243 139.802 95.7559C145.131 96.433 150.39 97.8408 155.479 99.195C157.912 99.8455 160.417 100.514 162.885 101.093C164.481 101.467 166.094 101.904 167.645 102.331C171.54 103.4 175.229 104.416 178.901 104.479C179.062 104.479 179.213 104.479 179.374 104.479C185.434 104.479 191.941 102.278 198.197 98.108C201.361 96.0053 204.525 93.9026 207.698 91.7999C222.885 81.7408 238.589 71.3342 253.268 60.1524C267.404 49.3805 275.96 35.1516 278.696 17.8577C279.026 15.7996 279.48 13.7503 279.926 11.7812C280.131 10.8813 280.336 9.98147 280.523 9.07268C280.728 8.08369 281.602 7.40655 282.573 7.40655L282.546 7.43331Z" fill="#FF7926" fill-opacity="0.6"/>
    <path d="M486.984 139.191C500.763 139.191 511.966 143.343 520.38 151.584C545.906 176.603 540.906 234.623 537.92 269.3C537.635 272.597 537.367 275.706 537.145 278.584C536.334 288.937 538.615 299.13 540.826 308.984C541.066 310.071 541.316 311.158 541.556 312.245C542.849 318.099 543.455 323.971 543.366 329.7C543.303 333.647 541.833 336.792 539.319 338.333C537.528 339.429 534.373 340.24 529.533 337.87C527.867 337.059 526.405 335.821 524.997 334.627C524.64 334.324 524.293 334.03 523.936 333.736C518.036 328.916 514.872 322.287 511.815 315.872C510.942 314.045 510.041 312.156 509.088 310.339C508.704 309.608 508.321 308.86 507.938 308.111C505.585 303.505 503.152 298.747 499.516 295.584C488.054 285.614 475.024 281.533 460.799 283.449C452.011 284.634 445.612 287.155 440.648 291.405C435.558 295.762 430.888 300.796 426.37 305.67C425.175 306.962 423.981 308.245 422.778 309.519C421.361 311.025 419.935 312.522 418.509 314.018C413.179 319.605 407.671 325.387 402.805 331.49C397.323 338.378 392.911 345.256 389.685 351.938C386.236 359.084 383.91 366.934 381.655 374.534L381.361 375.54C376.459 392.068 367.537 403.089 354.079 409.237C345.657 413.086 336.575 414.574 327.796 416.017L327.43 416.08C315.63 418.022 302.234 421.675 292.395 434.024C285.274 442.961 281.45 452.931 280.345 465.404C280.318 465.689 280.069 465.912 279.775 465.877C279.489 465.85 279.275 465.6 279.302 465.306C280.407 452.797 284.418 442.355 291.575 433.374C301.628 420.749 315.256 417.024 327.261 415.055L327.626 414.993C336.343 413.558 345.354 412.079 353.642 408.293C366.806 402.279 375.55 391.471 380.354 375.255L380.648 374.248C382.912 366.613 385.247 358.719 388.731 351.502C391.993 344.757 396.45 337.807 401.976 330.858C406.869 324.71 412.395 318.919 417.733 313.314C419.159 311.818 420.585 310.33 421.993 308.824C423.197 307.55 424.382 306.267 425.576 304.975C430.113 300.083 434.81 295.014 439.943 290.621C445.068 286.238 451.637 283.636 460.639 282.424C475.175 280.473 488.482 284.634 500.184 294.809C503.972 298.097 506.45 302.952 508.847 307.648C509.23 308.396 509.614 309.136 509.997 309.875C510.959 311.711 511.86 313.608 512.742 315.444C515.754 321.752 518.865 328.274 524.578 332.952C524.934 333.246 525.291 333.549 525.656 333.852C527.02 335.001 528.428 336.195 529.979 336.952C533.473 338.663 536.512 338.841 538.758 337.46C540.95 336.115 542.243 333.29 542.305 329.708C542.394 324.069 541.797 318.277 540.523 312.504C540.282 311.417 540.041 310.33 539.792 309.243C537.564 299.308 535.264 289.044 536.084 278.531C536.307 275.644 536.583 272.534 536.859 269.238C539.827 234.757 544.801 177.031 519.631 152.359C509.89 142.808 496.262 138.888 479.123 140.688C476.806 141.552 411.263 166.526 397.76 226.703C395.425 237.109 393.027 246.358 387.403 254.073C384.061 258.653 379.168 263.063 373.625 266.485C367.573 270.227 360.746 269.639 354.418 264.819C352.216 263.144 350.015 261.442 347.822 259.749C342.537 255.668 337.083 251.445 331.521 247.569C329.997 246.509 328.589 245.306 327.225 244.157C324.765 242.072 322.439 240.094 319.48 238.838C316.343 237.501 312.983 236.61 309.73 235.746C307.974 235.283 306.156 234.793 304.391 234.249C293.839 230.97 283.277 224.6 271.156 214.202C264.267 208.295 256.646 202.263 247.591 198.236C242.012 195.75 230.907 196.071 227.591 201.577C219.454 215.093 225.853 225.954 232.627 237.457C234.293 240.29 236.022 243.23 237.538 246.215C248.277 267.474 241.7 290.906 217.44 317.867C207.279 329.147 194.293 337.05 181.727 344.686C170.194 351.698 158.26 358.941 148.474 368.822C145.399 371.923 142.351 375.015 139.311 378.106C128.901 388.673 118.144 399.606 106.994 410.021C100.007 416.543 93.0637 420.606 85.7464 422.45C81.7803 423.448 77.7073 424.339 73.7768 425.186C70.3543 425.925 66.8249 426.7 63.3668 427.538C51.825 430.353 41.4239 436.162 32.5737 441.392C27.1459 444.6 22.6539 449.652 18.3046 454.543L17.6093 455.327C15.907 457.243 14.7751 459.773 13.67 462.224C13.162 463.346 12.645 464.513 12.0657 465.618C11.932 465.877 11.6111 465.975 11.3616 465.841C11.1031 465.707 11.0051 465.387 11.1388 465.137C11.7003 464.068 12.2172 462.91 12.7163 461.805C13.8482 459.283 15.0158 456.673 16.825 454.641L17.5202 453.857C21.9231 448.912 26.4685 443.789 32.0389 440.502C40.9515 435.236 51.4328 429.373 63.1173 426.531C66.5843 425.685 70.1226 424.918 73.545 424.17C77.4666 423.315 81.5308 422.432 85.4791 421.435C92.7161 419.608 99.3204 415.741 106.263 409.255C117.395 398.857 128.144 387.934 138.545 377.376C141.593 374.284 144.641 371.183 147.707 368.092C157.591 358.122 169.57 350.842 181.165 343.795C193.67 336.195 206.593 328.336 216.646 317.172C240.915 290.203 247.252 267.812 236.593 246.696C235.104 243.738 233.384 240.825 231.718 238C224.784 226.221 218.224 215.102 226.682 201.051C230.586 194.565 242.707 194.93 248.01 197.291C257.19 201.381 264.881 207.457 271.833 213.418C283.839 223.718 294.284 230.026 304.694 233.26C306.441 233.804 308.241 234.285 309.988 234.748C313.277 235.621 316.673 236.53 319.881 237.893C322.983 239.212 325.478 241.332 327.894 243.382C329.24 244.522 330.63 245.698 332.11 246.732C337.689 250.625 343.161 254.849 348.446 258.947C350.639 260.64 352.831 262.333 355.033 264.008C360.995 268.543 367.395 269.113 373.054 265.612C378.491 262.253 383.277 257.94 386.539 253.468C392.047 245.921 394.409 236.78 396.717 226.489C410.523 164.958 478.125 139.939 478.811 139.69C478.847 139.672 478.892 139.663 478.936 139.663C481.699 139.369 484.382 139.226 486.967 139.226L486.984 139.191Z" fill="#FF7926" fill-opacity="0.4"/>
    <path d="M137.244 126.833C142.707 126.833 148.028 128.954 152.582 133.124C153.527 133.988 154.472 134.843 155.417 135.699L155.631 135.895C159.169 139.093 162.823 142.408 166.192 145.909C167.297 147.059 168.492 148.172 169.543 149.152C172.796 152.182 175.853 155.033 177.52 159.22C183.376 173.966 186.531 190.128 187.449 210.077C187.556 212.394 187.627 214.71 187.707 217.036C187.859 221.803 188.019 226.73 188.465 231.586C188.955 236.967 189.882 241.511 191.281 245.494C192.716 249.565 194.463 253.584 196.156 257.468C197.395 260.32 198.661 263.224 199.802 266.147C201.094 269.452 202.556 273.194 202.877 276.829C203.759 286.987 199.436 295.878 190.024 303.238C185.88 306.472 180.586 308.085 175.283 307.63C167.787 306.971 161.566 303.265 156.272 296.279C149.552 287.414 142.485 280.705 134.668 275.778C126.914 270.895 120.025 266.343 114.133 260.15C103.937 249.441 97.9837 229.198 107.039 212.795C112.182 203.466 117.681 193.416 123.019 183.072C127.52 174.349 128.59 165.974 126.219 158.187C124.891 153.821 123.082 149.553 121.326 145.428C120.586 143.7 119.864 141.989 119.169 140.269L119.026 139.922L119.124 139.565C120.185 135.574 121.584 132.5 124.953 130.46C128.955 128.045 133.135 126.842 137.244 126.842V126.833ZM177.039 305.465C181.228 305.465 185.345 304.049 188.643 301.474C197.431 294.604 201.468 286.372 200.657 277.008C200.372 273.702 198.964 270.111 197.725 266.948C196.602 264.071 195.345 261.184 194.124 258.386C192.404 254.43 190.639 250.376 189.178 246.233C187.716 242.081 186.754 237.359 186.246 231.79C185.791 226.872 185.631 221.91 185.479 217.116C185.408 214.808 185.328 212.492 185.221 210.193C184.32 190.494 181.21 174.563 175.452 160.049C173.973 156.325 171.094 153.643 168.046 150.801C166.959 149.794 165.738 148.653 164.588 147.459C161.272 144.011 157.645 140.724 154.133 137.552L153.919 137.356C152.966 136.492 152.021 135.636 151.076 134.772C143.866 128.17 134.526 127.27 126.103 132.357C123.456 133.952 122.306 136.385 121.379 139.77C122.03 141.356 122.698 142.942 123.367 144.519C125.149 148.725 126.985 153.046 128.349 157.527C130.898 165.894 129.766 174.83 124.998 184.079C119.65 194.45 114.142 204.518 108.991 213.855C100.444 229.34 106.094 248.47 115.747 258.6C121.46 264.605 128.233 269.069 135.862 273.871C143.91 278.941 151.165 285.828 158.055 294.907C162.948 301.358 168.652 304.788 175.488 305.385C176.005 305.43 176.54 305.456 177.057 305.456L177.039 305.465Z" fill="#FF7926" fill-opacity="0.4"/>
    <path d="M394.944 9.00095C395.229 9.00095 395.47 9.23263 395.47 9.52665C395.47 9.95432 395.479 10.382 395.497 10.8186C395.523 11.763 395.55 12.7342 395.452 13.6964C395.167 16.4317 394.81 19.2116 394.463 21.9023C393.75 27.4353 393.019 33.1554 392.876 38.7775C392.707 45.3796 392.974 52.1065 393.224 58.6195C393.384 62.7359 393.554 66.9947 393.607 71.1823C393.723 79.5486 390.229 86.8457 382.948 93.4746C381.147 95.114 379.249 96.691 377.413 98.2146C374.997 100.219 372.511 102.286 370.238 104.496C364.391 110.198 363.803 116.373 368.393 123.928C372.956 131.439 379.258 137.587 385.354 143.53C386.869 145.009 388.384 146.479 389.873 147.985C402.867 161.046 407.163 176.879 402.627 195.055C398.652 211.012 392.636 223.602 384.249 233.545C373.563 246.224 363.491 248.549 349.49 241.564C348.144 240.887 346.798 240.192 345.461 239.488C342.627 238 339.695 236.468 336.709 235.238C332.618 233.545 328.411 231.932 324.338 230.382C318.482 228.137 312.422 225.82 306.602 223.219C294.383 217.757 284.276 208.91 274.508 200.347L272.556 198.637C262.939 190.235 254.205 182.751 244.695 176.389C238.09 171.97 230.622 170.598 224.178 172.629C217.85 174.625 212.984 179.588 210.105 186.992C208.946 189.976 208.536 193.344 208.144 196.596C207.894 198.654 207.636 200.784 207.19 202.833C205.132 212.295 206.112 222.185 210.194 233.055C212.164 238.303 215.506 243.168 218.741 247.881C219.624 249.164 220.506 250.456 221.361 251.739C227.36 260.8 229.338 269.514 227.583 279.145C226.112 287.235 222.493 294.203 218.919 300.654C214.668 308.325 209.16 314.74 202.538 319.72C195.069 325.343 186.451 328.024 178.955 330.1C166.281 333.602 156.433 340.507 149.686 350.611C144.312 358.656 138.724 365.383 132.583 371.165C129.178 374.373 125.675 377.581 122.28 380.681C117.699 384.869 112.957 389.208 108.421 393.591C96.9055 404.729 82.4135 410.395 62.8146 411.438C52.4047 411.99 43.6881 414.28 36.1569 418.432C23.8931 425.194 12.0037 432.625 0.506379 439.806C-8.0854 445.179 -17.0604 452.022 -14.8144 465.262C-14.7699 465.547 -14.957 465.814 -15.2422 465.867C-15.5185 465.912 -15.7948 465.725 -15.8483 465.44C-18.2012 451.558 -8.92318 444.475 -0.0462003 438.924C11.46 431.734 23.3584 424.294 35.6489 417.514C43.3227 413.282 52.1908 410.957 62.7612 410.395C82.0927 409.371 96.3707 403.793 107.69 392.843C112.235 388.442 116.986 384.102 121.576 379.906C124.962 376.805 128.465 373.607 131.861 370.399C137.939 364.67 143.483 358.006 148.804 350.023C155.693 339.696 165.738 332.657 178.67 329.076C186.076 327.026 194.588 324.38 201.905 318.874C208.403 313.983 213.821 307.674 218.001 300.137C221.531 293.766 225.105 286.879 226.549 278.949C228.251 269.603 226.326 261.139 220.488 252.309C219.641 251.026 218.759 249.743 217.877 248.46C214.606 243.702 211.228 238.775 209.214 233.411C205.051 222.346 204.062 212.269 206.165 202.601C206.602 200.606 206.852 198.503 207.101 196.463C207.502 193.148 207.921 189.718 209.124 186.608C212.119 178.893 217.217 173.716 223.857 171.622C230.595 169.502 238.402 170.918 245.265 175.516C254.828 181.913 263.59 189.415 273.233 197.844L275.185 199.554C284.9 208.063 294.935 216.866 307.021 222.265C312.814 224.858 318.857 227.166 324.703 229.402C328.777 230.961 332.992 232.574 337.101 234.276C340.131 235.532 343.081 237.073 345.942 238.57C347.27 239.265 348.607 239.96 349.953 240.637C363.429 247.364 373.135 245.119 383.447 232.886C391.726 223.067 397.671 210.611 401.611 194.814C406.049 177.013 401.851 161.51 389.133 148.733C387.644 147.236 386.138 145.766 384.623 144.296C378.482 138.309 372.128 132.116 367.502 124.489C362.68 116.551 363.34 109.771 369.507 103.765C371.807 101.529 374.32 99.4441 376.744 97.4305C378.571 95.9159 380.461 94.3477 382.243 92.7262C389.293 86.3111 392.671 79.2724 392.564 71.2179C392.511 67.0393 392.341 62.7893 392.181 58.6819C391.923 52.1599 391.664 45.4063 391.833 38.7686C391.976 33.0841 392.716 27.3373 393.429 21.7865C393.776 19.1047 394.133 16.3338 394.418 13.6074C394.507 12.7164 394.489 11.8165 394.463 10.8721C394.454 10.4355 394.436 9.98993 394.436 9.55336C394.436 9.26824 394.668 9.02771 394.962 9.02771L394.944 9.00095Z" fill="#FF7926" fill-opacity="0.4"/>
    <path d="M0.193836 9.23276C0.247312 9.23276 0.29186 9.23279 0.345335 9.25952C0.621627 9.34861 0.773155 9.63371 0.692941 9.90991C-0.430051 13.5986 -1.63324 17.3228 -2.8008 20.9313C-5.40329 29.0214 -8.10383 37.3876 -10.1181 45.7628C-14.2892 63.0389 -20.8578 78.2301 -30.1983 92.1917C-38.9861 105.316 -42.1947 120.445 -39.4942 135.956L-38.6564 140.768C-37.159 149.375 -35.6082 158.267 -34.0039 167.007C-31.651 179.748 -33.2464 191.375 -38.7276 201.559C-42.1323 207.876 -45.9112 214.113 -49.5743 220.145C-51.6955 223.646 -53.8969 227.273 -55.9914 230.863C-61.5974 240.477 -66.5707 250.028 -65.831 261.148C-65.3764 267.919 -63.9504 274.753 -62.5601 281.373C-62.3194 282.531 -62.0788 283.681 -61.8381 284.83C-60.831 289.721 -59.708 294.684 -58.6206 299.478C-57.0966 306.196 -55.5101 313.145 -54.2446 320.041C-53.1305 326.1 -54.3693 331.927 -57.8274 336.881C-62.7205 343.893 -68.4245 349.64 -75.2783 354.451C-81.7757 359.013 -89.0127 361.303 -95.8487 363.102C-96.1339 363.174 -96.4191 363.013 -96.4904 362.728C-96.5617 362.452 -96.4013 362.158 -96.1161 362.087C-89.3692 360.314 -82.2481 358.059 -75.8755 353.596C-69.1287 348.864 -63.5048 343.198 -58.683 336.284C-55.3854 331.562 -54.2089 326.011 -55.2784 320.237C-56.544 313.368 -58.1215 306.427 -59.6456 299.718C-60.7329 294.916 -61.8648 289.953 -62.872 285.053C-63.1037 283.903 -63.3443 282.745 -63.5939 281.596C-64.9843 274.949 -66.4192 268.071 -66.8827 261.228C-67.6491 249.815 -62.5957 240.112 -56.9094 230.347C-54.806 226.747 -52.6046 223.121 -50.4834 219.61C-46.8292 213.587 -43.0503 207.368 -39.6635 201.069C-34.2892 191.099 -32.7383 179.703 -35.0467 167.203C-36.6599 158.463 -38.2018 149.562 -39.708 140.955L-40.5458 136.144C-43.2998 120.364 -40.0289 104.968 -31.0895 91.6214C-21.8115 77.7667 -15.2963 62.6914 -11.1609 45.5312C-9.12877 37.1204 -6.42825 28.7363 -3.81685 20.6195C-2.65821 17.011 -1.45503 13.2867 -0.332034 9.60701C-0.260732 9.38427 -0.0557441 9.23276 0.167072 9.23276H0.193836Z" fill="#FF7926" fill-opacity="0.4"/>
    <path d="M278.108 5.36691C278.179 5.36691 278.25 5.38472 278.322 5.41145C278.589 5.52728 278.705 5.83909 278.58 6.10639L269.124 26.7415C266.307 32.8803 263.402 39.2329 259.231 44.7392C255.496 49.6752 250.488 54.2637 243.928 58.7899C219.739 75.4601 190.309 81.0465 164.721 84.3253C157.983 85.1896 151.103 85.938 144.445 86.6597C123.75 88.9139 102.351 91.2393 82.1546 97.298C75.078 99.4185 67.0209 102.35 61.0049 107.954C54.062 114.423 49.9265 124.384 49.3739 136.011C48.9283 145.331 50.7286 154.739 54.5967 163.23C56.5932 167.623 59.1868 171.882 61.6912 176.007C66.2634 183.527 70.996 191.305 72.2527 200.135C74.2402 214.034 67.324 227.568 59.5432 240.131C50.4434 254.841 41.3347 269.025 30.078 280.964C27.4756 283.726 22.7519 287.058 18.1797 290.284C13.866 293.322 9.4186 296.467 6.9498 298.997C6.1744 299.79 5.40789 300.619 4.6414 301.439C2.08348 304.183 -0.563581 307.025 -3.71865 309.003C-11.9094 314.153 -20.9022 319.258 -32.0341 325.076C-41.0537 329.79 -44.8594 336.035 -44.0038 344.722C-43.4958 349.935 -42.8362 355.218 -42.1945 360.332C-41.1784 368.538 -40.1178 377.02 -39.6366 385.404C-38.8166 399.616 -39.0484 414.691 -46.2943 428.652C-53.0412 441.652 -63.3888 448.004 -77.9253 448.067C-82.1142 448.085 -86.3031 448.076 -90.4921 448.067H-96.2051C-96.4903 448.067 -96.7309 447.826 -96.7309 447.541C-96.7309 447.256 -96.4992 447.016 -96.2051 447.016H-90.4921C-86.3031 447.024 -82.1142 447.024 -77.9342 447.016C-63.8255 446.962 -53.7809 440.796 -47.2301 428.171C-40.1 414.432 -39.8772 399.526 -40.6882 385.467C-41.1695 377.118 -42.2212 368.654 -43.2462 360.466C-43.879 355.343 -44.5385 350.05 -45.0555 344.829C-45.9467 335.786 -41.8469 329.023 -32.5243 324.15C-21.4192 318.349 -12.4441 313.253 -4.28015 308.121C-1.24986 306.214 1.35264 303.426 3.86601 300.726C4.64141 299.897 5.40788 299.069 6.19219 298.267C8.73229 295.665 13.2243 292.493 17.5736 289.428C22.1013 286.23 26.7893 282.933 29.3205 280.251C40.5148 268.383 49.5878 254.244 58.6609 239.578C66.3257 227.185 73.1618 213.847 71.2188 200.277C69.9889 191.661 65.3186 183.972 60.7999 176.55C58.2777 172.398 55.6662 168.113 53.6431 163.667C49.7126 155.024 47.8766 145.446 48.3312 135.966C48.9016 124.063 53.1529 113.852 60.2919 107.197C66.4684 101.441 74.6591 98.4562 81.8605 96.3C102.155 90.2147 123.598 87.8803 144.338 85.6261C150.987 84.9045 157.867 84.156 164.596 83.2918C190.069 80.0397 219.338 74.48 243.34 57.9346C249.81 53.4797 254.73 48.9624 258.402 44.1155C262.502 38.6984 265.389 32.3992 268.179 26.3138L277.635 5.67873C277.725 5.48272 277.912 5.37583 278.108 5.37583V5.36691Z" fill="#FF7926" fill-opacity="0.4"/>
    <path d="M490.923 150.898C497.563 150.898 503.695 152.725 509.248 156.378C527.492 168.361 535.478 197.47 536.779 218.755C537.813 235.746 535.487 252.452 533.223 268.596C531.957 277.667 530.647 287.04 529.934 296.413C529.676 299.843 529.943 303.398 530.21 306.828C530.397 309.234 530.585 311.729 530.594 314.179C530.594 315.872 529.426 318.589 527.581 318.972C526.422 319.204 525.157 318.607 523.918 317.217C522.162 315.248 520.175 312.887 518.802 310.294C509.774 293.17 494.328 283.324 471.601 280.17C459.738 278.531 448.41 281.4 439.703 288.26C432.867 293.642 426.369 299.692 420.086 305.545C417.216 308.218 414.248 310.989 411.28 313.653C410.211 314.615 409.105 315.542 408.009 316.469C406.966 317.351 405.915 318.233 404.899 319.142C395.585 327.472 388.125 337.416 382.706 348.695C380.719 352.847 378.945 357.195 377.243 361.41C375.211 366.408 373.116 371.585 370.621 376.467C363.312 390.767 353.535 399.249 340.71 402.403C338.223 403.018 335.719 403.749 333.304 404.462C330.353 405.326 327.296 406.226 324.239 406.912C310.674 409.95 299.079 417.408 290.719 428.465C282.974 438.702 278.313 451.817 277.6 465.396C277.582 465.681 277.332 465.895 277.047 465.895C276.762 465.877 276.539 465.636 276.548 465.342C277.279 451.559 282.011 438.247 289.881 427.841C298.393 416.588 310.193 408.997 324.008 405.905C327.029 405.228 330.068 404.337 333.009 403.473C335.443 402.76 337.956 402.02 340.46 401.406C352.965 398.323 362.528 390.019 369.685 376.013C372.163 371.175 374.248 366.016 376.271 361.035C377.983 356.812 379.756 352.437 381.761 348.259C387.234 336.854 394.783 326.795 404.195 318.375C405.22 317.458 406.28 316.567 407.332 315.676C408.428 314.758 409.515 313.831 410.576 312.878C413.535 310.214 416.503 307.452 419.373 304.779C425.674 298.908 432.189 292.84 439.061 287.432C448 280.393 459.604 277.444 471.752 279.128C494.836 282.326 510.531 292.359 519.738 309.795C521.048 312.281 522.902 314.491 524.702 316.513C525.38 317.279 526.405 318.153 527.367 317.939C528.615 317.68 529.551 315.48 529.542 314.179C529.533 311.764 529.346 309.296 529.159 306.908C528.891 303.434 528.615 299.852 528.882 296.341C529.595 286.942 530.906 277.551 532.18 268.463C534.426 252.363 536.752 235.71 535.727 218.826C534.444 197.782 526.592 169.039 508.668 157.26C499.373 151.148 488.383 150.319 476.004 154.792C475.54 154.961 429.676 171.979 403.17 233.082C400.861 238.401 398.089 243.587 395.398 248.612C390.558 257.664 385.745 264.382 380.229 269.799C372.154 277.747 361.592 276.687 355.754 271.653C351.583 268.062 347.813 264.828 343.883 261.62C342.582 260.56 341.289 259.482 339.988 258.413C336.664 255.659 333.232 252.808 329.712 250.224C328.607 249.414 327.582 248.487 326.592 247.587C325.282 246.402 323.936 245.182 322.43 244.264C320.166 242.874 318.214 242.758 315.746 242.607C315.113 242.571 314.453 242.526 313.767 242.464C306.976 241.84 300.015 239.542 293.09 235.639C287.216 232.325 282.198 227.968 277.35 223.754C274.516 221.294 271.592 218.746 268.509 216.43C267.653 215.788 266.806 215.138 265.96 214.487C260.166 210.041 254.186 205.453 246.78 203.751C242.136 202.682 236.887 202.103 233.232 205.934C229.73 209.605 228.464 214.461 229.552 219.994C230.808 226.373 234.079 231.737 237.323 236.682C244.961 248.336 247.323 264.275 243.963 281.569C239.525 304.387 227.653 323.169 210.532 334.449C210.06 334.752 163.268 364.965 148.812 380.45L105.488 415.394C101.183 419.252 95.9422 422.504 90.7729 424.544C85.6125 426.576 80.0688 427.841 74.7123 429.07C73.0546 429.445 71.4058 429.828 69.7658 430.22C58.4379 432.973 47.8496 437.241 37.3773 443.273C26.6376 449.456 20.3899 456.183 17.1367 465.084C17.0387 465.351 16.7357 465.494 16.4683 465.396C16.2009 465.298 16.0583 464.995 16.1563 464.727C19.4986 455.586 25.8889 448.69 36.8515 442.373C47.404 436.287 58.0903 431.984 69.5163 429.213C71.1651 428.812 72.8228 428.438 74.4806 428.055C79.8014 426.843 85.3095 425.587 90.3897 423.582C95.4521 421.586 100.577 418.405 104.819 414.61L148.108 379.701C162.6 364.172 209.489 333.887 209.962 333.584C226.842 322.456 238.553 303.915 242.938 281.382C244.855 271.528 246.557 252.684 236.459 237.27C233.161 232.236 229.828 226.774 228.535 220.207C227.377 214.327 228.74 209.142 232.484 205.221C236.503 201.007 242.092 201.604 247.029 202.735C254.65 204.491 260.728 209.15 266.61 213.659C267.457 214.309 268.304 214.96 269.15 215.592C272.261 217.935 275.202 220.493 278.045 222.961C282.849 227.139 287.822 231.461 293.607 234.721C300.407 238.553 307.216 240.807 313.865 241.422C314.542 241.484 315.193 241.52 315.817 241.564C318.33 241.716 320.496 241.849 322.992 243.373C324.578 244.344 325.968 245.6 327.314 246.821C328.286 247.703 329.293 248.612 330.353 249.387C333.901 251.989 337.341 254.849 340.683 257.611C341.975 258.68 343.268 259.758 344.569 260.818C348.517 264.035 352.287 267.269 356.467 270.868C361.949 275.591 371.886 276.562 379.524 269.06C384.952 263.714 389.712 257.076 394.48 248.166C397.18 243.132 399.943 237.956 402.234 232.681C428.927 171.141 475.21 153.99 475.674 153.821C481.021 151.887 486.12 150.925 490.941 150.925L490.923 150.898Z" fill="#FF7926" fill-opacity="0.4"/>
    <path d="M241.156 9.00138C241.201 9.00138 241.245 9.0014 241.299 9.01922C241.575 9.09941 241.744 9.38455 241.664 9.66075C237.475 24.8341 228.17 33.1291 228.072 33.2092C219.757 40.4974 209.49 43.8653 197.555 43.2149C186.985 42.6447 179.08 37.5394 175.31 28.8435C172.778 23.0076 171.762 16.3074 172.377 9.47363C172.404 9.18851 172.671 8.98356 172.948 9.00138C173.233 9.02811 173.447 9.2776 173.42 9.57162C172.823 16.2361 173.803 22.7581 176.272 28.4336C179.873 36.7464 187.457 41.6201 197.609 42.1725C209.249 42.7962 219.284 39.5263 227.377 32.4252C227.466 32.345 236.548 24.2461 240.648 9.38455C240.71 9.1529 240.924 9.00138 241.156 9.00138Z" fill="#FF7926" fill-opacity="0.4"/>
    <path d="M226.611 9.00169C226.655 9.00169 226.7 9.0017 226.753 9.01952C227.03 9.09971 227.199 9.38485 227.119 9.66105C224.694 18.455 219.463 23.1148 219.24 23.3108C214.409 27.543 208.456 29.5031 201.531 29.12C195.363 28.7903 190.755 25.8056 188.545 20.727C187.074 17.3324 186.486 13.4477 186.843 9.48285C186.869 9.19774 187.128 8.99278 187.413 9.0106C187.698 9.03733 187.912 9.28682 187.885 9.58084C187.547 13.3764 188.108 17.0918 189.507 20.3171C191.548 25.0126 195.835 27.7746 201.584 28.0864C208.215 28.4428 213.928 26.5807 218.545 22.5357C218.598 22.4911 223.768 17.8669 226.103 9.39372C226.165 9.16206 226.379 9.0106 226.611 9.0106V9.00169Z" fill="#FF7926" fill-opacity="0.4"/>
    <path d="M142.564 9.00138C142.609 9.00138 142.653 9.0014 142.707 9.01922C142.983 9.09941 143.153 9.38455 143.072 9.66075C138.883 24.8341 129.579 33.1291 129.481 33.2092C121.165 40.4974 110.889 43.8653 98.9637 43.2149C88.3933 42.6447 80.4878 37.5394 76.7177 28.8435C74.1866 23.0076 73.1705 16.3074 73.7855 9.47363C73.8122 9.18851 74.0707 8.98356 74.3559 9.00138C74.6411 9.02811 74.855 9.2776 74.8283 9.57162C74.2311 16.2361 75.2115 22.7581 77.6803 28.4336C81.281 36.7464 88.8657 41.6201 99.0172 42.1725C110.666 42.7962 120.693 39.5263 128.785 32.4252C128.874 32.345 137.956 24.2461 142.056 9.38455C142.119 9.1529 142.333 9.00138 142.564 9.00138Z" fill="#FF7926" fill-opacity="0.4"/>
    <path d="M128.028 9.00169C128.072 9.00169 128.117 9.0017 128.17 9.01952C128.447 9.09971 128.616 9.38485 128.536 9.66105C126.111 18.455 120.88 23.1148 120.657 23.3108C115.835 27.543 109.882 29.5031 102.948 29.12C96.78 28.7903 92.1721 25.8056 89.9618 20.727C88.4912 17.3324 87.903 13.4477 88.2595 9.48285C88.2862 9.19774 88.5536 8.99278 88.8299 9.0106C89.1151 9.03733 89.329 9.28682 89.3023 9.58084C88.9636 13.3764 89.5251 17.0918 90.9244 20.3171C92.9654 25.0126 97.2523 27.7746 103.001 28.0864C109.632 28.4428 115.345 26.5807 119.962 22.5357C120.015 22.4911 125.185 17.8669 127.52 9.39372C127.582 9.16206 127.796 9.0106 128.028 9.0106V9.00169Z" fill="#FF7926" fill-opacity="0.4"/>
    <path d="M154.508 177.27C155.64 177.27 156.772 177.386 157.886 177.609C164.525 178.963 170.363 184.389 174.347 192.88C176.968 198.476 178.126 204.508 177.984 211.867C177.93 214.567 177.868 217.266 177.805 219.966C177.707 224.198 177.6 228.573 177.547 232.876L177.52 235.041C177.449 240.913 177.378 246.989 177.583 252.95C177.707 256.55 177.975 260.212 178.233 263.749C178.465 266.938 178.705 270.244 178.848 273.505C178.973 276.552 177.511 278.575 174.829 279.065C174.713 279.082 174.606 279.065 174.508 279.02C174.401 279.074 174.276 279.091 174.142 279.056C173.429 278.869 172.707 278.717 171.976 278.566C170.363 278.227 168.688 277.88 167.217 277.122C163.376 275.126 159.525 272.997 155.8 270.939C151.308 268.462 146.674 265.896 142.03 263.544C133.135 259.035 126.558 254.349 121.326 248.789C113.313 240.28 111.139 230.408 114.855 219.458C119.258 206.512 127.529 194.538 139.445 183.873C144.321 179.507 149.472 177.262 154.517 177.262L154.508 177.27ZM174.499 278.076C174.499 278.076 174.588 278.04 174.632 278.031C177.378 277.532 177.868 275.322 177.796 273.549C177.663 270.306 177.422 267.019 177.19 263.829C176.932 260.274 176.664 256.603 176.54 252.986C176.335 247.007 176.406 240.913 176.477 235.032L176.504 232.867C176.549 228.555 176.656 224.18 176.763 219.948C176.825 217.249 176.896 214.549 176.941 211.858C177.074 204.668 175.951 198.779 173.402 193.335C169.57 185.147 163.982 179.934 157.681 178.643C151.923 177.466 145.854 179.551 140.132 184.666C128.358 195.206 120.176 207.029 115.836 219.806C112.199 230.506 114.24 239.755 122.075 248.076C127.226 253.547 133.714 258.162 142.493 262.608C147.155 264.969 151.807 267.535 156.299 270.021C160.016 272.07 163.866 274.2 167.689 276.187C169.026 276.882 170.559 277.202 172.173 277.532C172.921 277.684 173.67 277.844 174.401 278.04C174.436 278.04 174.463 278.058 174.49 278.076H174.499Z" fill="#FF7926" fill-opacity="0.4"/>
    <path d="M268.848 6.31069C268.91 6.31069 268.972 6.31958 269.035 6.34631C269.302 6.44432 269.445 6.74726 269.338 7.02346C256.557 40.747 225.354 66.6922 189.855 73.1072C177.324 75.3703 164.374 75.3258 151.851 75.2902C144.953 75.2634 137.823 75.2456 130.844 75.602C110.675 76.6534 90.9069 80.9033 72.0923 88.2271C58.2064 93.6354 48.3134 99.596 40.9694 106.991C31.7092 116.32 26.7092 128.508 27.6094 139.61C28.6165 152.048 36.3794 162.633 43.8838 172.861C51.3081 182.992 58.9907 193.469 60.3455 205.872C62.1993 222.934 51.6645 238.642 40.7198 253.272C36.4418 258.983 25.907 271.688 18.2154 280.963C13.6878 286.425 10.1138 290.729 8.9641 292.216C-0.884367 304.975 -13.567 313.092 -29.8147 317.021C-41.6329 319.881 -45.9199 318.999 -51.5348 307.613C-56.5972 297.34 -59.3423 286.505 -61.3566 277.257C-63.1569 269.006 -63.7274 261.959 -63.1124 255.686C-62.1676 246.108 -57.5241 237.876 -51.9983 228.868C-50.3316 226.15 -48.5669 223.442 -46.8557 220.813C-42.0963 213.516 -37.1855 205.979 -33.9502 197.577C-29.1106 184.996 -28.2462 173.128 -31.3121 161.287L-32.1766 157.982C-34.3513 149.66 -36.5973 141.062 -37.6044 132.437C-39.4315 116.792 -35.9467 102.83 -27.239 90.9446C-18.6116 79.1659 -13.2194 68.3583 -10.2604 56.936C-7.39054 45.8433 -4.07506 34.6794 -0.866513 23.8807C0.541683 19.1318 1.95881 14.3829 3.33136 9.61618C3.41157 9.33998 3.70567 9.17964 3.98196 9.25982C4.25825 9.34001 4.41865 9.63402 4.33844 9.91022C2.95698 14.668 1.54881 19.4259 0.131698 24.1748C-3.07685 34.9645 -6.39238 46.1196 -9.25333 57.1944C-12.248 68.7593 -17.7025 79.6827 -26.4012 91.5594C-34.9485 103.222 -38.3709 116.934 -36.5705 132.313C-35.5723 140.857 -33.3352 149.428 -31.1695 157.714L-30.305 161.029C-27.1855 173.093 -28.059 185.165 -32.9788 197.96C-36.2497 206.469 -41.1962 214.06 -45.9823 221.393C-47.6846 224.012 -49.4493 226.721 -51.116 229.42C-56.5705 238.312 -61.1605 246.429 -62.0785 255.793C-62.6845 261.95 -62.1141 268.9 -60.3405 277.034C-58.3352 286.22 -55.6168 296.983 -50.6079 307.149C-45.2782 317.966 -41.4458 318.759 -30.0732 316.006C-14.0661 312.13 -1.57064 304.138 8.12631 291.575C9.28495 290.069 12.8678 285.757 17.3955 280.286C25.0782 271.02 35.604 258.333 39.8642 252.639C50.6931 238.179 61.103 222.667 59.2938 205.988C57.9747 193.861 50.3811 183.499 43.0282 173.485C35.4346 163.132 27.5915 152.431 26.5577 139.699C25.6308 128.303 30.7377 115.803 40.2207 106.261C47.6717 98.7585 57.6717 92.7266 71.7001 87.256C90.6217 79.8876 110.497 75.6198 130.782 74.5595C137.787 74.1942 144.935 74.2121 151.851 74.2388C164.329 74.2744 177.226 74.319 189.659 72.0737C224.81 65.7211 255.693 40.0431 268.349 6.65813C268.429 6.4443 268.625 6.31961 268.839 6.31961L268.848 6.31069Z" fill="#FF7926" fill-opacity="0.4"/>
    <path d="M46.8605 0.00201156C47.0922 0.00201156 47.3061 0.16239 47.3685 0.394044L57.1546 39.2317C57.9924 42.5551 58.946 46.3239 61.1563 49.2107C64.757 53.8972 71.4505 56.1425 81.085 55.8574C112.894 54.9308 143.402 36.345 158.803 8.50192C158.946 8.25244 159.258 8.16336 159.516 8.29701C159.766 8.43957 159.864 8.7514 159.721 9.00978C144.142 37.1647 113.286 55.9643 81.1207 56.8998C71.1296 57.1849 64.1421 54.815 60.3275 49.8522C57.9834 46.7962 57.0031 42.9204 56.1474 39.4901L46.3614 0.652408C46.2901 0.376205 46.4594 0.0911267 46.7446 0.0198485C46.7892 0.0109387 46.8338 0.00201156 46.8694 0.00201156H46.8605Z" fill="#FF7926" fill-opacity="0.4"/>
    <path d="M22.4312 3.04075C23.3314 3.04075 24.1603 3.62884 24.4366 4.52872C31.1299 26.6962 28.6611 49.0509 17.8323 64.3311C15.613 67.4585 13.0551 70.3274 10.5774 73.0894C9.13351 74.7021 7.64513 76.3682 6.26368 78.0433C-3.1748 89.4834 -7.75589 102.091 -6.65072 113.549C-6.48138 115.331 -5.60794 121.229 -1.6329 122.414C0.470477 123.038 3.09968 122.182 6.19236 119.892C9.42765 117.496 12.2351 114.6 14.5435 111.286C16.5756 108.363 18.162 105.2 19.8465 101.859C21.6112 98.3486 23.4383 94.7134 25.8269 91.399C36.629 76.386 56.5666 71.2362 70.6129 68.6613C73.2065 68.1891 75.8268 67.7436 78.456 67.2981C92.03 65.0083 106.076 62.6383 117.511 55.3144C117.574 55.2788 117.636 55.2431 117.698 55.2075C119.499 54.2987 135.533 46.4046 144.365 49.6122L146.575 50.414C153.197 52.8019 160.042 55.2699 166.477 58.4328C179.819 64.9815 193.928 64.7588 210.898 57.7201C222.609 52.8642 231.825 47.064 239.062 39.9896C247.056 32.1757 252.555 22.0364 255.853 9.00139C256.138 7.87876 257.279 7.20166 258.402 7.48678C259.525 7.77189 260.202 8.91233 259.917 10.035C256.424 23.8362 250.559 34.617 241.994 42.9922C234.365 50.4497 224.721 56.5351 212.502 61.5958C194.338 69.1246 179.124 69.3117 164.623 62.1928C158.393 59.1367 151.655 56.7044 145.149 54.3522L142.939 53.5503C136.932 51.3763 124.213 56.6331 119.686 58.9051C107.547 66.6476 93.1173 69.08 79.1601 71.4322C76.5487 71.8688 73.9551 72.3143 71.3705 72.7865C43.5185 77.8829 33.982 87.2471 29.2316 93.8403C27.048 96.8785 25.3724 100.211 23.5988 103.73C21.9232 107.062 20.1941 110.502 17.9927 113.665C15.4258 117.353 12.3064 120.57 8.70573 123.243C4.49897 126.37 0.621985 127.439 -2.80938 126.414C-7.18548 125.114 -10.1802 120.454 -10.804 113.941C-12.0162 101.378 -7.09634 87.6747 3.05515 75.3703C4.49008 73.624 6.0052 71.9312 7.47578 70.2918C9.87328 67.6099 12.351 64.839 14.4365 61.8988C24.5167 47.6698 26.7716 26.6695 20.4526 5.73152C20.1228 4.62671 20.7467 3.45954 21.8519 3.12096C22.0569 3.0586 22.2529 3.03189 22.4579 3.03189L22.4312 3.04075Z" fill="#FF7926" fill-opacity="0.6"/>
    <g opacity="0.5">
      <path d="M185.06 4.98047H190.854V4.37456H185.06V4.98047Z" fill="#FF7926"/>
      <path d="M161.887 4.98047H167.681V4.37456H161.887V4.98047Z" fill="#FF7926"/>
      <path d="M173.474 4.98047H179.267V4.37456H173.474V4.98047Z" fill="#FF7926"/>
      <path d="M103.714 4.98047H109.507V4.37456H103.714V4.98047Z" fill="#FF7926"/>
      <path d="M92.1277 4.98047H97.9209V4.37456H92.1277V4.98047Z" fill="#FF7926"/>
      <path d="M80.5505 4.98047H86.3438V4.37456H80.5505V4.98047Z" fill="#FF7926"/>
      <path d="M138.473 4.98047H144.267V4.37456H138.473V4.98047Z" fill="#FF7926"/>
      <path d="M115.301 4.98047H121.094V4.37456H115.301V4.98047Z" fill="#FF7926"/>
      <path d="M126.887 4.98047H132.68V4.37456H126.887V4.98047Z" fill="#FF7926"/>
      <path d="M68.9641 4.98047H74.7573V4.37456H68.9641V4.98047Z" fill="#FF7926"/>
      <path d="M152.779 7.68942H153.376V4.98087H156.094V4.37496H153.376H152.779H150.06V4.98087H152.779V7.68942Z" fill="#FF7926"/>
      <path d="M152.769 54.0205H153.375V48.2292H152.769V54.0205Z" fill="#FF7926"/>
      <path d="M152.769 65.6025H153.375V59.8112H152.769V65.6025Z" fill="#FF7926"/>
      <path d="M152.769 42.4376H153.375V36.6462H152.769V42.4376Z" fill="#FF7926"/>
      <path d="M152.769 19.2725H153.375V13.4811H152.769V19.2725Z" fill="#FF7926"/>
      <path d="M152.769 30.8545H153.375V25.0631H152.769V30.8545Z" fill="#FF7926"/>
      <path d="M152.769 77.1857H153.375V71.3943H152.769V77.1857Z" fill="#FF7926"/>
      <path d="M152.769 88.7684H153.375V82.977H152.769V88.7684Z" fill="#FF7926"/>
      <path d="M22.3777 4.98047H28.1709V4.37456H22.3777V4.98047Z" fill="#FF7926"/>
      <path d="M10.7913 4.98047H16.5845V4.37456H10.7913V4.98047Z" fill="#FF7926"/>
      <path d="M45.5505 4.98047H51.3438V4.37456H45.5505V4.98047Z" fill="#FF7926"/>
      <path d="M33.9641 4.98047H39.7573V4.37456H33.9641V4.98047Z" fill="#FF7926"/>
      <path d="M-0.795166 4.98047H4.99805V4.37456H-0.795166V4.98047Z" fill="#FF7926"/>
      <path d="M59.8465 7.68945H60.4526V4.9809H63.1709V4.37499H60.4526H59.8465H57.1371V4.9809H59.8465V7.68945Z" fill="#FF7926"/>
      <path d="M59.8466 77.1857H60.4526V71.3943H59.8466V77.1857Z" fill="#FF7926"/>
      <path d="M59.8466 42.4376H60.4526V36.6462H59.8466V42.4376Z" fill="#FF7926"/>
      <path d="M59.8466 54.0205H60.4526V48.2292H59.8466V54.0205Z" fill="#FF7926"/>
      <path d="M59.8466 19.2725H60.4526V13.4811H59.8466V19.2725Z" fill="#FF7926"/>
      <path d="M59.8466 88.7684H60.4526V82.977H59.8466V88.7684Z" fill="#FF7926"/>
      <path d="M59.8466 30.8545H60.4526V25.0631H59.8466V30.8545Z" fill="#FF7926"/>
      <path d="M59.8466 65.6025H60.4526V59.8112H59.8466V65.6025Z" fill="#FF7926"/>
      <path d="M190.854 97.8744V97.322V97.2686H185.06V97.322V97.8744V97.9279H190.854V97.8744Z" fill="#FF7926"/>
      <path d="M167.681 97.8744V97.322V97.2686H161.887V97.322V97.8744V97.9279H167.681V97.8744Z" fill="#FF7926"/>
      <path d="M179.267 97.8744V97.322V97.2686H173.474V97.322V97.8744V97.9279H179.267V97.8744Z" fill="#FF7926"/>
      <path d="M86.3438 97.8744V97.322V97.2686H80.5505V97.322V97.8744V97.9279H86.3438V97.8744Z" fill="#FF7926"/>
      <path d="M74.7573 97.8744V97.322V97.2686H68.9641V97.322V97.8744V97.9279H74.7573V97.8744Z" fill="#FF7926"/>
      <path d="M121.094 97.8744V97.322V97.2686H115.301V97.322V97.8744V97.9279H121.094V97.8744Z" fill="#FF7926"/>
      <path d="M109.507 97.8744V97.322V97.2686H103.714V97.322V97.8744V97.9279H109.507V97.8744Z" fill="#FF7926"/>
      <path d="M132.68 97.8744V97.322V97.2686H126.887V97.322V97.8744V97.9279H132.68V97.8744Z" fill="#FF7926"/>
      <path d="M97.9209 97.8744V97.322V97.2686H92.1277V97.322V97.8744V97.9279H97.9209V97.8744Z" fill="#FF7926"/>
      <path d="M144.267 97.8744V97.322V97.2686H138.473V97.322V97.8744V97.9279H144.267V97.8744Z" fill="#FF7926"/>
      <path d="M152.779 100.637H153.376V97.9279H156.094V97.8745V97.3221V97.2686H153.376V94.56H152.779V97.2686H150.06V97.3221V97.8745V97.9279H152.779V100.637Z" fill="#FF7926"/>
      <path d="M152.769 181.716H153.375V175.924H152.769V181.716Z" fill="#FF7926"/>
      <path d="M152.769 170.133H153.375V164.341H152.769V170.133Z" fill="#FF7926"/>
      <path d="M152.769 158.55H153.375V152.758H152.769V158.55Z" fill="#FF7926"/>
      <path d="M152.769 146.968H153.375V141.176H152.769V146.968Z" fill="#FF7926"/>
      <path d="M152.769 123.802H153.375V118.011H152.769V123.802Z" fill="#FF7926"/>
      <path d="M152.769 112.219H153.375V106.427H152.769V112.219Z" fill="#FF7926"/>
      <path d="M152.769 135.385H153.375V129.593H152.769V135.385Z" fill="#FF7926"/>
      <path d="M4.99805 97.8744V97.322V97.2686H-0.795165V97.322V97.8744V97.9279H4.99805V97.8744Z" fill="#FF7926"/>
      <path d="M51.3438 97.8744V97.322V97.2686H45.5505V97.322V97.8744V97.9279H51.3438V97.8744Z" fill="#FF7926"/>
      <path d="M16.5845 97.8744V97.322V97.2686H10.7913V97.322V97.8744V97.9279H16.5845V97.8744Z" fill="#FF7926"/>
      <path d="M39.7573 97.8744V97.322V97.2686H33.9641V97.322V97.8744V97.9279H39.7573V97.8744Z" fill="#FF7926"/>
      <path d="M28.1709 97.8744V97.322V97.2686H22.3777V97.322V97.8744V97.9279H28.1709V97.8744Z" fill="#FF7926"/>
      <path d="M59.8465 100.637H60.4526V97.9281H63.1709V97.8747V97.3223V97.2688H60.4526V94.5602H59.8465V97.2688H57.1371V97.3223V97.8747V97.9281H59.8465V100.637Z" fill="#FF7926"/>
      <path d="M59.8466 181.716H60.4526V175.924H59.8466V181.716Z" fill="#FF7926"/>
      <path d="M59.8466 158.55H60.4526V152.758H59.8466V158.55Z" fill="#FF7926"/>
      <path d="M59.8466 135.385H60.4526V129.593H59.8466V135.385Z" fill="#FF7926"/>
      <path d="M59.8466 146.968H60.4526V141.176H59.8466V146.968Z" fill="#FF7926"/>
      <path d="M59.8466 123.802H60.4526V118.011H59.8466V123.802Z" fill="#FF7926"/>
      <path d="M59.8466 170.133H60.4526V164.341H59.8466V170.133Z" fill="#FF7926"/>
      <path d="M59.8466 112.219H60.4526V106.427H59.8466V112.219Z" fill="#FF7926"/>
      <path d="M152.779 193.601H153.376V190.883H156.094V190.821V190.277V190.215H153.376V187.506H152.779V190.215H150.06V190.277V190.821V190.883H152.779V193.601Z" fill="#FF7926"/>
      <path d="M59.8465 193.601H60.4526V190.883H63.1709V190.821V190.277V190.215H60.4526V187.506H59.8465V190.215H57.1371V190.277V190.821V190.883H59.8465V193.601Z" fill="#FF7926"/>
    </g>
  </g>
  <rect x="96.7573" y="136.343" width="1.4343" height="8.60579" fill="#FF7926"/>
  <rect x="100.343" y="134.191" width="1.4343" height="8.60579" transform="rotate(-90 100.343 134.191)" fill="#FF7926"/>
  <rect x="96.7573" y="122" width="1.4343" height="8.60579" fill="#FF7926"/>
  <rect x="86" y="134.191" width="1.4343" height="8.60579" transform="rotate(-90 86 134.191)" fill="#FF7926"/>
  <path d="M157.5 74L97.5 133.5L158.5 144.5L157.5 74Z" stroke="#FF7926" stroke-dasharray="2 2"/>
  <rect x="156.757" y="77.3428" width="1.4343" height="8.60579" fill="#FF7926"/>
  <rect x="160.343" y="75.1913" width="1.4343" height="8.60579" transform="rotate(-90 160.343 75.1913)" fill="#FF7926"/>
  <rect x="156.757" y="63" width="1.4343" height="8.60579" fill="#FF7926"/>
  <rect x="146" y="75.1913" width="1.4343" height="8.60579" transform="rotate(-90 146 75.1913)" fill="#FF7926"/>
  <rect x="157.757" y="147.343" width="1.4343" height="8.60579" fill="#FF7926"/>
  <rect x="161.343" y="145.191" width="1.4343" height="8.60579" transform="rotate(-90 161.343 145.191)" fill="#FF7926"/>
  <rect x="157.757" y="133" width="1.4343" height="8.60579" fill="#FF7926"/>
  <rect x="147" y="145.191" width="1.4343" height="8.60579" transform="rotate(-90 147 145.191)" fill="#FF7926"/>
  <defs>
    <radialGradient id="paint0_radial_247_10059" cx="0" cy="0" r="1" gradientUnits="userSpaceOnUse" gradientTransform="translate(190 190) rotate(180) scale(190)">
      <stop stop-color="#D9D9D9"/>
      <stop offset="1" stop-color="#737373" stop-opacity="0"/>
    </radialGradient>
  </defs>
</svg>