<svg width="40" height="40" viewBox="0 0 40 40" fill="none" xmlns="http://www.w3.org/2000/svg">
  <g clip-path="url(#clip0_18373_533)">
    <rect width="40" height="40" fill="#211A1D"/>
    <g opacity="0.5">
      <path d="M18.8388 23.9746L18.8373 24.3753L18.4443 25.6684L18.1283 26.0501L18.2898 26.5572C18.5631 26.6714 19.1196 26.9045 19.1583 26.9231C19.1971 26.9416 19.1778 27.3699 19.281 27.4839C19.1216 27.7579 19.0392 28.1186 19.0434 28.1519C19.0476 28.1853 19.4819 28.5536 19.6985 28.7335L20.5095 29.1327L21.0785 29.1848L21.591 29.2016L22.6471 28.8634L23.8176 27.7294L24.6687 27.544L24.7062 27.1454L24.8023 26.5407L25.2736 25.5339L24.6513 24.6454L24.2378 23.4278L23.9794 22.0734L23.2559 21.2335L22.7535 21.2968L22.1968 22.1418L22.0392 22.8518L21.658 23.232L20.7839 23.2347L20.2884 23.4045L19.9453 23.5194L19.4814 23.3988L19.1093 23.6963L18.8388 23.9746Z" fill="#4D2D1F"/>
      <path d="M24.4842 31.0863L24.2205 28.9935L25.4144 27.9629L26.0824 26.2075L25.6554 24.9362L24.8122 23.1834L25.5451 21.9439L26.5529 22.964L27.9771 22.3494L28.1801 21.2163L28.0108 19.873L28.8088 19.1494L30.2763 20.2896L31.5364 21.901L33.305 22.6868L35.6487 22.3915L37.4933 21.5855L39.1248 22.616L37.3631 24.7861L36.3772 28.1736L35.325 30.9564L32.4455 32.6444L29.6642 32.9948L27.3152 33.9534L25.677 35.6135L24.5987 38.9731L21.9982 40.0523L22.694 37.1859L22.8512 34.1994L23.383 32.4612L24.4842 31.0863Z" fill="#4D2D1F"/>
      <path d="M27.6037 35.0812L27.1334 35.9441L27.7034 35.8722L28.3163 35.1898L29.2792 34.4335L28.2375 34.5648L27.6037 35.0812Z" fill="#4D2D1F"/>
      <path d="M33.0445 33.2089L30.7216 33.7495L33.1626 34.1462L35.2923 33.1736L35.4596 31.9821L33.0445 33.2089Z" fill="#4D2D1F"/>
      <path d="M16.5861 33.4949L16.7672 33.5586L17.5978 33.627L21.9519 32.8188L23.2196 31.664L23.8643 30.3715L23.7588 29.5339L22.9639 29.6341L20.8556 29.6113L18.8762 28.8946L17.0806 27.4624L16.6281 23.871L17.6282 23.1105L18.3729 22.4975L18.9631 21.6877L18.4654 20.9428L16.838 20.8451L14.434 21.4508L12.2195 21.7299L9.49905 21.7698L5.01388 21.0804L2.28219 18.7423L-2.7383 16.8946L-6.73033 15.9988L-8.76262 15.6636L-10.6527 15.5413L-11.5449 16.0142L-12.0409 16.8843L-10.2789 18.5081L-8.68696 20.3841L-8.5224 21.69L-9.17649 22.4502L-11.3559 24.0371L-11.0983 24.3652L-9.18517 24.4414L-8.0889 23.986L-7.50902 23.5524L-7.42495 24.2196L-7.55705 25.2312L-7.81344 26.1721L-7.73866 26.4222L-6.92911 24.9502L-6.36031 24.0854L-6.33706 24.27L-5.61892 23.6747L-5.56526 24.1006L-6.30843 24.4971L-6.89154 25.2483L-7.74368 26.7257L-8.66372 31.3264L-10.4892 31.9458L-10.9983 32.1397L-9.92474 34.766L-9.18517 36.0975L-8.23676 34.6518H-7.94762L-7.36934 34.5073L-3.61056 33.4953L-2.16487 33.3507L-2.45401 33.4953L-3.75513 33.6399L-7.87534 34.8687L-8.38132 35.2301L-8.85116 37.3923L-10.911 43.2471L-13.2874 44.8732L-14.1917 45.7082L-13.7728 47.5445L-12.8045 48.7059L-11.7463 49.2071L-9.82996 48.9656L-8.44654 48.1568L-6.60496 47.6652L-5.76455 46.8959L-4.88657 46.4248L-4.55235 47.0172L-5.68227 47.5489L-6.80491 48.2528L-8.89307 48.8476L-7.3916 48.9756L-5.85851 48.7825L-0.999882 44.8823L4.77443 43.3397L3.61789 40.4346L3.54559 39.784L1.44935 40.4346V40.29L3.18417 39.7117L3.54559 39.278L3.32875 38.1215L1.59392 37.3986L1.16021 37.1095L3.47331 37.9769L3.61789 38.2661L4.77443 37.3986L4.919 36.3867L5.06357 36.5312L4.919 37.5432L4.48529 37.8323L3.76245 38.4106V38.8443L4.19616 40.5792L6.07555 43.28L11.9237 45.5901L16.8598 44.7085L18.4079 43.4896L18.161 41.5306L17.2908 39.0878L16.5861 33.4949Z" fill="#4D2D1F"/>
      <path d="M19.7198 33.8305L17.036 34.0099C17.0938 34.3024 17.2259 34.9207 17.2922 35.0539C17.375 35.2205 17.9537 35.2965 18.0888 35.1727C18.2239 35.049 19.3175 35.105 19.4878 35.0792C19.6241 35.0586 20.1969 35.2469 20.4662 35.3436C20.6325 35.5428 20.9829 35.9515 21.0545 35.9926C21.1261 36.0337 21.5926 36.1765 21.8169 36.2428L21.751 35.2577C21.7434 35.1435 21.9178 34.7495 22.006 34.5668C22.0465 34.3155 22.1315 33.784 22.1467 33.6683C22.1619 33.5526 21.8021 33.3759 21.6203 33.302L19.7198 33.8305Z" fill="#4D2D1F"/>
      <path d="M-36.3935 32.5867L-38.9864 33.3021C-38.871 33.577 -38.6172 34.156 -38.5255 34.2732C-38.4109 34.4197 -37.8288 34.3778 -37.7213 34.2295C-37.6138 34.0811 -36.5314 33.916 -36.3697 33.8566C-36.2403 33.809 -35.6414 33.8783 -35.3581 33.9188C-35.1551 34.0805 -34.7297 34.4104 -34.6513 34.4363C-34.5729 34.4621 -34.0872 34.5082 -33.8542 34.528L-34.1167 33.5764C-34.1472 33.466 -34.0556 33.045 -34.006 32.8482C-34.0167 32.594 -34.0404 32.0563 -34.0488 31.9398C-34.0571 31.8234 -34.4451 31.7227 -34.638 31.6868L-36.3935 32.5867Z" fill="#4D2D1F"/>
      <path d="M-12.2509 18.0788C-10.3951 18.341 -9.89968 20.335 -9.88394 21.2992L-12.6533 23.9266L-13.4823 25.4731L-8.95402 24.9025C-8.11021 24.7962 -8.11947 25.3838 -8.42286 25.4557L-9.38815 30.9562L-11.5765 32.4722L-9.78794 37.6257L-10.7037 39.3995L-12.8851 42.5729L-18.239 44.4877L-20.6037 45.4057L-23.8864 43.9591L-26.6651 40.7906L-30.3569 40.2175L-32.2504 36.6346L-32.7244 32.8728L-34.2922 30.2728L-37.5277 31.7188L-39.4877 30.9274L-40.4675 28.8734L-39.9366 27.3644L-40.7752 26.4318L-41.8672 27.6077L-42.9886 27.749L-43.1174 26.7269L-40.929 25.211L-44.8393 26.2229L-44.2734 24.1903L-36.5272 22.3779L-30.0436 19.7007L-19.717 17.8803C-18.0016 17.8372 -14.1067 17.8166 -12.2509 18.0788Z" fill="#4D2D1F"/>
      <path d="M-25.1233 43.9853L-27.8249 41.5426L-31.0498 42.9584L-31.5112 44.7902L-30.2414 45.7118L-26.0992 45.9686L-24.2982 47.4433L-20.8176 46.226L-23.6718 45.6627L-25.1233 43.9853Z" fill="#4D2D1F"/>
      <path d="M-33.6559 38.5279L-33.6381 36.723L-32.811 36.8784L-32.2031 37.8112L-32.035 39.1456L-33.0287 39.2708L-33.6559 38.5279Z" fill="#4D2D1F"/>
      <path d="M-32.1952 39.9184L-32.0106 39.5725L-31.265 39.525L-30.9341 39.7117L-30.7895 40.1455L-31.5123 40.29L-32.1952 39.9184Z" fill="#4D2D1F"/>
      <path d="M-20.0514 46.2795L-19.8668 45.9335L-19.1213 45.886L-18.6497 46.0073L-18.6196 46.2462L-19.4226 46.8394L-20.0514 46.2795Z" fill="#4D2D1F"/>
      <path d="M-16.7493 54.7251L-16.004 53.3281L-12.9935 53.1364L-11.0892 53.6262L-10.9677 54.5908L-14.2101 56.986L-16.7493 54.7251Z" fill="#4D2D1F"/>
      <path d="M-18.5341 17.0826L-21.9126 17.5083L-22.0789 16.1881L-19.1753 14.7407L-15.6126 15.7771L-15.8986 17.2841L-18.5341 17.0826Z" fill="#4D2D1F"/>
      <path d="M-14.8057 15.1995L-15.0844 16.8786L-12.7116 16.9401L-12.4569 16.1005L-12.1099 15.3069L-10.3341 14.6361L-10.6397 14.2708L-11.2365 13.7692L-13.4794 14.0518L-14.8057 15.1995Z" fill="#4D2D1F"/>
      <path d="M21.563 44.7758L21.8417 43.0967L19.4689 43.0352L19.2142 43.8749L18.8672 44.6685L17.0914 45.3393L17.397 45.7045L17.9938 46.2062L20.2367 45.9235L21.563 44.7758Z" fill="#4D2D1F"/>
      <path d="M28.7914 61.8348L28.4837 60.9339L27.4717 60.8191L26.6043 61.2528L25.8815 61.5419L24.8695 62.1202L24.6255 62.7635L25.2223 63.2652L27.4651 62.9826L28.7914 61.8348Z" fill="#4D2D1F"/>
      <path d="M23.4238 63.9996L23.5684 63.2767H22.8389L22.1227 63.5659L21.5444 63.7104L20.2433 63.855L19.9993 64.4984L20.5961 65L22.701 64.4333L23.4238 63.9996Z" fill="#4D2D1F"/>
      <path d="M17.4965 63.9996L19.2313 64.4333L17.9302 64.7224H16.7736L17.4965 63.9996Z" fill="#4D2D1F"/>
      <path d="M15.1834 63.855L15.9062 64.4333H14.6051L13.7377 64.7224V63.9996L15.1834 63.855Z" fill="#4D2D1F"/>
      <path d="M11.7137 63.2767L12.8703 63.7104L11.8583 63.855L11.1355 64.1441L11.28 63.5659L11.7137 63.2767Z" fill="#4D2D1F"/>
      <path d="M-7.17473 15.2184L-8.96211 14.8812L-7.9794 14.4401L-6.66248 14.5914L-7.17473 15.2184Z" fill="#4D2D1F"/>
      <path d="M-44.941 35.0809L-39.6753 35.4156L-39.0503 36.2195L-40.1277 37.2538L-40.2471 38.3543L-39.8273 39.4652L-37.8313 39.4449L-36.2856 40.7421L-38.4939 41.5767L-40.6974 41.0482L-41.4335 41.3264L-40.9833 42.5175C-40.517 43.0092 -39.5289 44.1398 -39.3064 44.7287C-39.0838 45.3176 -39.4953 45.7127 -39.7288 45.8367L-40.7326 46.216L-42.8903 45.242L-43.5529 43.4887L-45.1139 42.7174L-46.6262 42.0347L-47.9437 40.2078L-48.7075 38.1869L-49.826 36.9272L-49.8861 35.0685L-50 33.1079L-47.9991 31.7246L-44.941 35.0809Z" fill="#4D2D1F"/>
      <path d="M42.9407 49.5428L44.1746 52.7641L44.7996 53.568L43.7222 54.6023L43.6027 55.7028L44.0226 56.8137L46.0186 56.7934L46.3597 58.2169V58.5458L45.356 58.9252L44.7996 60.0659H44.5435L44.7996 60.8372C45.2658 61.3289 44.321 61.4883 44.5435 62.0772C44.7661 62.666 44.3546 63.0612 44.1211 63.1852L43.1173 63.5645L40.9596 62.5905L40.297 60.8372L38.736 60.0659L37.3025 60.8372L35.8508 62.0772L34.4111 62.5904L32.9654 62.843L31.8089 62.9876L30.6523 62.5904L29.7849 61.1082L29.9295 59.8071L30.2186 58.2169L31.086 57.494L31.9534 56.7934L34.0239 54.2757L33.9638 52.417L33.8499 50.4564L35.8508 49.0731L42.9407 49.5428Z" fill="#4D2D1F"/>
      <path d="M-37.7808 45.4062L-39.3132 42.7275L-37.841 42.1711L-36.2934 42.9474L-34.9301 44.3288L-34.0601 46.6308L-36.4424 47.5311L-37.7808 45.4062Z" fill="#4D2D1F"/>
      <path d="M8.61837 15.9251L6.75616 13.5063L6.62023 12.4275L10.0129 12L11.9543 13.7887L14.0525 14.303L18.3678 13.7593L20.0172 14.4888L18.6003 15.6047L17.4816 16.683L14.4013 17.0711L11.815 16.4596L8.61837 15.9251Z" fill="#4D2D1F"/>
      <path d="M7.52126 48.5666L1.7385 46.0729L5.06357 46.0731L6.12938 45.1962H6.59443L10.5572 46.0731L12.0285 47.2649L16.3439 46.7212L17.0628 50.033L15.1089 50.033L13.5932 50.5547H11.5692L9.79107 49.4216L7.52126 48.5666Z" fill="#4D2D1F"/>
      <path d="M12.7884 19.1491L10.7498 17.8485L12.3972 18.3332L13.6645 18.5484L15.0272 18.3767L15.9539 18.7502L18.0123 18.4909L18.4483 17.9456L20.2409 18.2101L20.5985 19.1023L18.0123 18.4909L15.9539 18.7502L12.7884 19.1491Z" fill="#4D2D1F"/>
      <path d="M-30.3099 18.6141L-27.9009 18.0886L-28.906 17.147L-31.9359 17.501L-32.6014 17.4041L-33.243 18.6141L-32.6014 19.6443L-30.3099 18.6141Z" fill="#4D2D1F"/>
      <path d="M-22.9607 15.0424L-21.9305 14.7705L-22.1165 14.4272L-22.4313 13.9693V13.5115H-22.9607L-24.0051 14.2412L-22.9607 15.0424Z" fill="#4D2D1F"/>
    </g>
    <rect x="13.0938" y="15.125" width="0.81249" height="4.87494" fill="#FF7926"/>
    <rect x="15.125" y="13.9062" width="0.81249" height="4.87494" transform="rotate(-90 15.125 13.9062)" fill="#FF7926"/>
    <rect x="13.0938" y="7" width="0.81249" height="4.87494" fill="#FF7926"/>
    <rect x="7" y="13.9062" width="0.81249" height="4.87494" transform="rotate(-90 7 13.9062)" fill="#FF7926"/>
  </g>
  <rect x="0.5" y="0.5" width="39" height="39" stroke="#FF7926" stroke-opacity="0.4"/>
  <defs>
    <clipPath id="clip0_18373_533">
      <rect width="40" height="40" fill="white"/>
    </clipPath>
  </defs>
</svg>