<svg width="342" height="197" viewBox="0 0 342 197" fill="none" xmlns="http://www.w3.org/2000/svg">
  <g clip-path="url(#clip0_19141_17618)">
    <path d="M118.423 376.932C118.423 376.932 118.385 376.932 118.375 376.932C118.068 376.903 117.838 376.625 117.866 376.317C120.257 350.403 129.551 331.488 146.258 318.488C163.445 305.113 181.476 292.237 198.903 279.784C203.166 276.74 207.419 273.697 211.673 270.653C215.609 267.83 220.305 265.238 226.037 262.732C233.295 259.563 240.564 261.282 246.085 263.125C248.831 264.047 251.548 265.123 254.179 266.16C259.104 268.109 264.203 270.125 269.599 271.162C278.384 272.842 286.209 272.929 293.526 271.431C306.977 268.675 318.509 264.508 328.792 258.699C330.904 257.509 332.92 256.068 334.649 254.811C337.452 252.765 339.017 250.269 339.315 247.369C339.689 243.778 338.009 239.717 334.591 235.944L332.959 234.139C328.177 228.858 323.233 223.404 318.902 217.624C316.31 214.168 314.092 209.914 311.912 204.249C308.955 196.568 311.97 189.53 314.879 182.732L315.311 181.724C316.627 178.632 318.077 175.531 319.478 172.535C323.348 164.24 327.352 155.666 329.003 146.391C329.656 142.742 330.251 139.17 330.443 135.627C330.645 131.844 330.76 127.994 330.875 124.269C331.029 119.276 331.183 114.12 331.547 109.05C332.047 102.137 335.714 97.0294 342.147 94.2834C344.346 93.3424 346.555 92.4111 348.763 91.4798C354.85 88.9162 361.139 86.2661 367.207 83.4241C382.925 76.0502 395.128 65.8438 404.499 52.2193C412.411 40.7359 422.608 31.1056 432.459 22.4067C440.937 14.9271 446.42 4.97038 448.772 -7.15629C450.894 -18.1308 450.702 -29.3357 450.51 -40.1662C450.462 -42.749 450.414 -45.3414 450.404 -47.9242C450.375 -53.013 448.599 -58.361 447.063 -62.4512C443.971 -70.6797 435.407 -74.6931 426.698 -71.9951C417.884 -69.2683 410.212 -65.7445 403.232 -61.2126C392.853 -54.482 382.627 -50.4686 371.97 -48.9323C369.54 -48.5867 367.044 -48.6731 364.624 -48.7595C362.983 -48.8171 361.283 -48.8747 359.632 -48.7979C348.408 -48.2602 335.513 -47.0889 324.5 -40.0126C318.912 -36.4216 314.265 -33.0515 310.299 -29.7198C293.391 -15.5 280.842 -0.608086 271.941 15.8104C268.091 22.9059 262.945 30.5871 253.939 33.7364C247.736 35.8968 241.428 37.5674 235.168 38.6908C219.066 41.5904 206.767 50.8463 197.559 66.9768C191.807 77.0487 189.685 86.6022 191.068 96.1845C191.827 101.475 194.707 106.727 196.8 110.212C197.866 111.979 199.008 113.755 200.113 115.474C203.982 121.484 207.986 127.697 209.522 135.08C210.453 139.554 211.634 145.44 212.451 151.364C213.065 155.838 213.689 160.342 213.392 164.758C213.286 166.323 213.19 167.898 213.094 169.473C212.633 177.077 212.153 184.95 210.329 192.372C207.842 202.492 200.103 210.721 190.127 213.841C180.295 216.923 170.002 214.58 161.908 207.427C155.763 201.993 149.714 196.261 143.858 190.711C139.767 186.832 135.533 182.828 131.308 178.959C125.749 173.87 119.643 168.56 112.634 162.732C102.322 154.158 89.6956 149.684 77.4825 145.363C76.3015 144.941 75.1206 144.528 73.93 144.105C72.0001 143.414 70.0702 142.723 68.1403 142.022C61.8321 139.746 55.3031 137.394 48.8317 135.272C31.8563 129.703 23.2438 135.291 15.5434 145.411C6.15311 157.749 1.57319 172.353 1.93805 188.829C2.13968 197.893 5.4906 206.602 11.6356 214.004C16.7531 220.168 22.1588 226.265 27.382 232.161C31.5586 236.865 35.8793 241.733 40.0271 246.611C42.6676 249.722 44.7127 253.457 46.5177 257.029C50.752 265.382 46.3449 272.064 41.477 278.19C37.2811 283.471 32.9509 287.801 28.6014 291.066C17.6845 299.246 12.6149 310.403 12.6533 326.159C12.6917 341.848 10.7618 358.228 6.7484 376.241C6.68119 376.548 6.37395 376.74 6.0763 376.673C5.76905 376.605 5.57701 376.308 5.64422 376C9.63844 358.074 11.5683 341.771 11.5203 326.169C11.4819 310.019 16.6859 298.574 27.9197 290.163C32.1923 286.966 36.4554 282.703 40.5936 277.489C45.4232 271.402 49.4462 265.295 45.5096 257.537C43.7333 254.033 41.7362 250.365 39.163 247.35C35.0248 242.482 30.7137 237.614 26.537 232.91C21.3042 227.005 15.889 220.898 10.7618 214.724C4.45364 207.12 1.00671 198.171 0.805082 188.848C0.440225 172.113 5.08735 157.259 14.6408 144.72C22.6389 134.216 31.5682 128.407 49.1774 134.197C55.668 136.328 62.197 138.681 68.5243 140.956C70.4542 141.647 72.3745 142.348 74.3044 143.03C75.4854 143.453 76.6664 143.865 77.8474 144.288C90.1469 148.637 102.869 153.14 113.344 161.849C120.363 167.687 126.489 173.016 132.057 178.114C136.292 181.993 140.526 186.006 144.616 189.885C150.463 195.425 156.512 201.157 162.638 206.573C170.425 213.457 180.314 215.713 189.772 212.756C199.373 209.751 206.824 201.839 209.215 192.094C211.01 184.768 211.49 176.952 211.951 169.386C212.047 167.812 212.143 166.237 212.249 164.662C212.547 160.37 211.932 155.915 211.337 151.614C210.511 145.623 209.34 139.746 208.408 135.301C206.911 128.119 202.964 122.003 199.153 116.079C198.048 114.36 196.896 112.574 195.821 110.788C193.68 107.217 190.732 101.84 189.935 96.3477C188.514 86.5062 190.684 76.7127 196.56 66.4199C205.941 49.9821 218.5 40.5439 234.956 37.5866C241.159 36.4728 247.419 34.8214 253.555 32.6803C262.196 29.6654 267.189 22.1954 270.943 15.2824C279.911 -1.26097 292.546 -16.2585 309.56 -30.5743C313.573 -33.9444 318.249 -37.3434 323.885 -40.9535C335.138 -48.1834 348.206 -49.374 359.574 -49.9213C361.274 -50.0077 362.992 -49.9405 364.663 -49.8829C367.025 -49.7965 369.483 -49.7101 371.806 -50.0461C382.301 -51.5536 392.382 -55.5094 402.618 -62.1536C409.694 -66.7431 417.461 -70.3148 426.372 -73.0705C435.666 -75.9413 444.816 -71.6399 448.119 -62.8449C449.694 -58.6683 451.499 -53.1954 451.528 -47.9242C451.547 -45.3414 451.585 -42.7586 451.633 -40.1854C451.825 -29.2973 452.027 -18.0348 449.876 -6.93546C447.476 5.45045 441.868 15.6088 433.208 23.2612C423.414 31.9121 413.275 41.4752 405.431 52.8626C395.935 66.6503 383.587 76.9815 367.687 84.4419C361.6 87.3031 355.292 89.9531 349.195 92.5167C346.987 93.448 344.788 94.3698 342.58 95.3107C336.483 97.9127 333.141 102.56 332.671 109.118C332.306 114.158 332.143 119.305 331.999 124.288C331.883 128.023 331.768 131.883 331.567 135.675C331.375 139.276 330.77 142.886 330.107 146.573C328.427 155.992 324.394 164.633 320.496 172.996C319.104 175.982 317.664 179.074 316.348 182.156L315.916 183.164C313.093 189.751 310.174 196.568 312.969 203.827C315.11 209.386 317.28 213.553 319.814 216.923C324.116 222.665 329.041 228.099 333.804 233.351L335.436 235.156C339.065 239.17 340.842 243.538 340.438 247.456C340.112 250.634 338.336 253.486 335.311 255.694C333.564 256.971 331.509 258.44 329.349 259.659C318.96 265.526 307.313 269.722 293.756 272.506C286.286 274.042 278.317 273.956 269.387 272.237C263.886 271.181 258.739 269.146 253.766 267.177C251.145 266.14 248.437 265.065 245.72 264.162C237.798 261.512 231.865 261.378 226.478 263.73C220.823 266.208 216.186 268.752 212.326 271.527C208.072 274.58 203.819 277.624 199.556 280.658C182.129 293.101 164.117 305.977 146.94 319.333C130.492 332.131 121.342 350.787 118.98 376.375C118.951 376.673 118.711 376.884 118.423 376.884V376.932Z" fill="#FF7926" fill-opacity="0.4"/>
    <path d="M123.347 378.622C123.193 378.622 123.039 378.603 122.876 378.574C121.657 378.315 120.879 377.124 121.129 375.905C121.34 374.906 121.561 373.917 121.782 372.928C122.242 370.874 122.722 368.742 123.049 366.668C126.141 347.129 136.213 330.375 152.161 318.21C168.089 306.064 185.074 294.811 201.493 283.932C204.902 281.676 208.31 279.41 211.719 277.144C219.208 272.151 227.081 269.52 234.503 269.52C234.695 269.52 234.897 269.52 235.089 269.52C239.611 269.607 244.037 270.826 248.319 271.998C249.952 272.449 251.642 272.91 253.274 273.294C256.001 273.928 258.737 274.657 261.387 275.368C266.726 276.789 272.237 278.267 277.681 278.959C286.562 280.092 296.202 278.892 307.186 275.301C309.337 274.6 311.488 273.918 313.648 273.227C324.68 269.732 336.096 266.112 346.053 259.785C351.295 256.453 354.713 253.006 354.368 247.053C354.032 241.158 350.518 237.135 345.362 232.891L342.885 230.865C338.074 226.938 333.101 222.867 328.53 218.469C316.98 207.351 314.656 195.013 321.223 179.651C329.97 159.19 335.376 140.208 337.748 121.629C338.986 111.931 342.827 105.124 349.481 100.803C351.833 99.2766 354.205 97.6635 356.499 96.1081C360.791 93.1989 365.218 90.184 369.807 87.534C385.765 78.2782 396.509 69.3584 404.651 58.6047C414.828 45.1626 424.459 35.4075 434.972 27.9088C442.817 22.3111 448.184 15.4268 450.94 7.4576C454.598 -3.12323 455.241 -14.309 455.587 -24.8514C456.028 -38.4183 455.308 -52.2828 454.675 -64.5151C454.463 -68.4997 453.695 -72.4267 452.879 -76.5746C452.524 -78.3701 452.169 -80.1751 451.861 -81.9802L451.612 -83.4396C449.807 -93.9917 447.934 -104.909 454.108 -115.489C454.742 -116.565 456.124 -116.93 457.2 -116.296C458.275 -115.672 458.64 -114.289 458.016 -113.204C452.668 -104.044 454.319 -94.4045 456.067 -84.1982L456.316 -82.7291C456.614 -80.9625 456.96 -79.2054 457.305 -77.4483C458.121 -73.3197 458.957 -69.0566 459.187 -64.7455C459.831 -52.4172 460.56 -38.4567 460.109 -24.6978C459.754 -13.8001 459.082 -2.23028 455.222 8.93624C452.159 17.808 446.235 25.4316 437.603 31.5861C427.483 38.8161 418.16 48.2735 408.261 61.3411C399.735 72.5941 388.578 81.8787 372.083 91.4514C367.637 94.0246 363.268 96.9914 359.044 99.8623C356.73 101.427 354.339 103.05 351.948 104.605C346.399 108.206 343.307 113.804 342.232 122.215C339.802 141.216 334.291 160.582 325.381 181.436C319.572 195.032 321.512 205.459 331.67 215.234C336.106 219.506 341.012 223.51 345.755 227.38L348.242 229.415C353.504 233.736 358.439 238.834 358.9 246.803C359.399 255.454 353.917 260.149 348.492 263.596C338.036 270.241 326.341 273.947 315.031 277.538C312.889 278.219 310.748 278.892 308.607 279.592C296.97 283.404 286.677 284.662 277.124 283.443C271.382 282.713 265.717 281.196 260.235 279.736C257.614 279.036 254.916 278.315 252.256 277.691C250.537 277.288 248.8 276.818 247.129 276.357C242.933 275.205 238.958 274.11 235.002 274.043C234.829 274.043 234.666 274.043 234.493 274.043C227.964 274.043 220.955 276.414 214.215 280.908C210.806 283.174 207.398 285.44 203.98 287.706C187.619 298.546 170.701 309.76 154.887 321.81C139.66 333.418 130.442 348.752 127.494 367.388C127.139 369.606 126.649 371.815 126.169 373.937C125.949 374.906 125.728 375.876 125.526 376.855C125.305 377.921 124.364 378.651 123.318 378.651L123.347 378.622Z" fill="#FF7926" fill-opacity="0.6"/>
    <path d="M124.187 118.038C118.349 118.038 112.108 116.127 107.019 114.581C106.309 114.361 105.618 114.159 104.955 113.957C90.505 109.656 80.2602 102.234 73.6255 91.2882C65.0994 77.2124 58.2056 62.0517 53.1456 46.2189C50.342 37.4527 51.0429 28.6001 55.2099 19.8916C58.724 12.5464 64.7058 9.05151 72.1661 5.23972C82.1613 0.131729 92.3772 -4.95705 102.257 -9.87301L103.563 -10.5259C106.866 -12.1678 110.178 -13.8192 113.481 -15.4707C121.556 -19.5033 127.653 -26.1475 131.609 -35.2305C133.664 -39.9641 135.353 -45.1489 136.602 -50.6505C137.466 -54.4335 138.464 -58.2549 139.434 -61.9515C142.065 -72.0042 144.792 -82.4026 145.089 -93.1659C145.224 -98.101 145.483 -103.132 145.723 -107.991C145.838 -110.324 145.954 -112.57 146.05 -114.808L148.45 -114.702C148.344 -112.455 148.239 -110.209 148.123 -107.962C147.874 -103.027 147.624 -98.0146 147.49 -93.1083C147.182 -82.0666 144.427 -71.5433 141.758 -61.3562C140.788 -57.6692 139.799 -53.867 138.944 -50.1224C137.658 -44.4768 135.93 -39.1383 133.808 -34.28C129.621 -24.6689 123.15 -17.6214 114.557 -13.3295C111.254 -11.6781 107.941 -10.0362 104.638 -8.38479L103.333 -7.73189C93.4526 -2.81593 83.2366 2.26326 73.2607 7.37125C66.2132 10.9718 60.5771 14.2555 57.3798 20.9189C53.4816 29.0514 52.8287 37.3183 55.4307 45.4795C60.4331 61.13 67.2406 76.1179 75.6707 90.0304C81.9884 100.448 91.7915 107.515 105.637 111.643C106.299 111.845 107 112.056 107.711 112.267C115.498 114.649 126.165 117.904 132.847 113.285C139.799 108.484 142.843 96.0409 145.281 86.0362C145.982 83.1653 146.645 80.4577 147.336 78.1822C148.536 74.2744 149.765 70.2322 151.042 66.1995C151.522 64.6921 151.993 63.1751 152.463 61.658L152.511 61.514C155.133 53.1031 157.84 44.4042 161.892 36.1085C169.333 20.8613 183.831 14.2459 197.859 7.85133C201.018 6.4111 204.292 4.91328 207.413 3.35784C218.224 -2.0574 227.461 -10.0266 236.39 -17.7366C247.336 -27.1845 258.521 -35.0577 268.017 -41.5099C275.89 -46.8579 282.554 -54.6927 285.396 -61.9707C289.621 -72.7531 283.543 -79.6086 276.505 -87.5394C275.833 -88.2979 275.151 -89.066 274.479 -89.8438C270.619 -94.2796 266.683 -98.8115 262.967 -103.43C261.354 -105.437 260.442 -107.712 259.568 -109.911C259.193 -110.842 258.867 -111.658 258.512 -112.426L260.682 -113.454C261.075 -112.628 261.411 -111.774 261.776 -110.871C262.612 -108.768 263.456 -106.666 264.849 -104.937C268.536 -100.348 272.453 -95.8351 276.246 -91.476C276.966 -90.6503 277.638 -89.8918 278.31 -89.1333C285.233 -81.3272 292.395 -73.2524 287.633 -61.0969C284.618 -53.3965 277.628 -45.1393 269.371 -39.532C259.933 -33.1182 248.814 -25.3026 237.965 -15.9315C228.93 -8.12554 219.578 -0.0603027 208.498 5.48936C205.339 7.0736 202.045 8.57143 198.867 10.0213C184.6 16.5311 171.119 22.6856 164.062 37.1551C160.097 45.2875 157.408 53.9 154.816 62.2245L154.768 62.3685C154.297 63.8856 153.827 65.4026 153.337 66.9196C152.06 70.9331 150.831 74.9753 149.631 78.8735C148.959 81.0818 148.306 83.7606 147.605 86.5931C145.061 96.9915 141.902 109.934 134.201 115.244C131.273 117.27 127.797 118.009 124.168 118.009L124.187 118.038Z" fill="#FF7926" fill-opacity="0.4"/>
    <path d="M105.126 376.452C104.703 360.427 108.342 343.845 116.244 325.756C120.565 315.867 128.073 308.282 139.893 301.897C161.179 290.384 177.78 274.974 189.216 256.098C190.521 253.947 190.906 252.18 190.349 250.865C189.206 248.138 184.127 246.928 180.056 245.958C179.192 245.757 178.366 245.555 177.598 245.353C165.462 242.147 156.177 235.31 149.994 225.027C135.755 201.34 117.166 182.253 96.2541 169.819C87.1135 164.394 40.7575 138.566 25.8848 163.51C19.231 174.677 19.7591 186.228 27.5459 199.852C33.4796 210.231 41.1224 220.207 50.9255 230.337C56.8784 236.491 62.1497 243.126 66.5855 250.058C73.5562 260.946 72.4617 272.199 63.4075 282.607C60.671 285.757 57.7426 288.762 54.9101 291.661C51.8473 294.801 48.6884 298.046 45.8463 301.397L44.7998 302.636C40.1335 308.128 35.3135 313.802 32.2218 319.976C29.9463 324.518 28.7557 329.952 27.6035 335.214C27.2291 336.952 26.797 338.91 26.3265 340.792C23.9741 350.317 21.7274 360.062 19.5479 369.472L18.4533 374.205C18.4149 374.359 18.4533 374.877 18.4725 375.214C18.4917 375.617 18.5205 376.001 18.5205 376.375H16.1202C16.1202 376.039 16.1009 375.703 16.0817 375.367C16.0433 374.733 16.0145 374.157 16.1202 373.668L17.2147 368.934C19.3942 359.505 21.641 349.76 24.003 340.216C24.4638 338.373 24.8863 336.424 25.2608 334.705C26.4417 329.299 27.6707 323.721 30.0711 318.91C33.2876 312.477 38.2035 306.697 42.9563 301.1L44.0124 299.861C46.9025 296.453 50.0998 293.169 53.1819 290C55.9855 287.12 58.8947 284.143 61.5831 281.042C69.8596 271.527 70.887 261.263 64.55 251.364C60.2006 244.566 55.035 238.066 49.1877 232.017C39.2501 221.734 31.4825 211.614 25.4432 201.052C17.1859 186.602 16.6674 174.283 23.8109 162.291C30.2535 151.48 42.3802 147.975 59.8549 151.883C75.5917 155.407 91.3958 164.163 97.4639 167.764C118.722 180.39 137.598 199.766 152.039 223.798C157.886 233.524 166.691 239.996 178.193 243.04C178.942 243.241 179.749 243.433 180.594 243.625C185.442 244.777 190.934 246.083 192.547 249.933C193.412 251.998 192.979 254.494 191.251 257.336C179.585 276.587 162.687 292.286 141.016 303.999C129.706 310.115 122.524 317.336 118.434 326.707C110.676 344.46 107.113 360.715 107.517 376.375L105.116 376.433L105.126 376.452Z" fill="#FF7926" fill-opacity="0.4"/>
    <path d="M21.4561 376.931C21.3697 376.931 21.2832 376.912 21.2064 376.874C20.928 376.73 20.8128 376.394 20.9568 376.115C21.12 375.798 21.2928 375.481 21.4657 375.165C21.8305 374.512 22.1762 373.888 22.3778 373.235C23.8372 368.693 25.191 364.017 26.5064 359.505C29.3677 349.663 32.3345 339.495 36.4728 329.999C45.8726 308.415 64.0194 293.792 78.7769 283.461C88.5992 276.586 90.5291 270.893 85.9108 262.462C85.5268 261.752 85.1427 261.041 84.7586 260.331C83.184 257.393 81.5614 254.359 79.5162 251.757C75.186 246.246 70.6637 240.744 66.2854 235.415C62.7232 231.085 59.0459 226.61 55.4933 222.155C47.9946 212.765 39.8909 201.186 36.5976 186.524C35.2822 180.677 36.1463 175.387 39.0364 171.623C41.84 167.965 46.3047 165.91 51.9504 165.67C54.562 165.555 57.2216 165.593 59.7852 165.622C60.7933 165.631 61.8015 165.651 62.8001 165.651C71.3454 165.679 79.9387 167.821 89.0889 172.18C103.99 179.294 115.243 190.864 125.19 202.309C132.161 210.326 136.664 220.043 141.023 229.433L141.235 229.894C143.721 235.242 146.794 240.446 149.78 245.468C151.633 248.588 153.544 251.814 155.301 255.06C159.247 262.347 159.439 268.627 155.896 274.82C152.046 281.55 145.594 284.027 139.189 285.708C135.253 286.745 131.076 287.071 127.044 287.397C125.354 287.532 123.616 287.666 121.916 287.858C112.219 288.934 109.665 291.238 108.215 300.196C107.341 305.64 106.66 311.209 105.997 316.605C105.171 323.336 104.326 330.307 103.078 337.085C100.889 349.077 99.6409 361.934 99.2761 376.394C99.2761 376.701 99.0456 376.912 98.7 376.941C98.3927 376.941 98.1431 376.672 98.1527 376.365C98.5176 361.847 99.7754 348.933 101.974 336.884C103.213 330.134 104.058 323.182 104.874 316.471C105.536 311.075 106.218 305.487 107.092 300.023C108.628 290.48 111.508 287.878 121.782 286.735C123.491 286.543 125.248 286.409 126.938 286.274C130.923 285.957 135.042 285.631 138.882 284.623C145.046 283.01 151.249 280.628 154.888 274.263C158.22 268.444 158.028 262.51 154.273 255.597C152.526 252.371 150.615 249.155 148.772 246.044C145.776 240.993 142.684 235.77 140.178 230.374L139.967 229.913C135.647 220.59 131.172 210.96 124.307 203.058C114.446 191.709 103.29 180.235 88.58 173.207C79.5931 168.915 71.1437 166.812 62.7713 166.784C61.7631 166.784 60.7549 166.764 59.7468 166.755C57.1928 166.726 54.5524 166.697 51.9696 166.803C46.6696 167.024 42.4929 168.934 39.9005 172.314C37.2217 175.809 36.4344 180.763 37.673 186.284C40.9183 200.725 48.9355 212.17 56.3479 221.464C59.9004 225.91 63.5778 230.384 67.1303 234.714C71.5086 240.043 76.0405 245.554 80.3804 251.075C82.4831 253.754 84.1346 256.836 85.7284 259.812C86.1125 260.523 86.4869 261.233 86.871 261.934C91.7869 270.893 89.6842 277.191 79.3914 284.392C64.7492 294.637 46.756 309.135 37.4713 330.46C33.3619 339.889 30.4142 350.028 27.553 359.831C26.2376 364.353 24.8742 369.039 23.4148 373.59C23.1747 374.348 22.7907 375.049 22.4162 375.722C22.253 376.019 22.0802 376.326 21.9265 376.634C21.8305 376.835 21.6289 376.941 21.4177 376.941L21.4561 376.931Z" fill="#FF7926" fill-opacity="0.4"/>
    <path d="M-96.8924 236.635C-111.736 236.635 -123.805 232.161 -132.869 223.28C-160.368 196.319 -154.981 133.794 -151.765 96.4249C-151.458 92.8724 -151.17 89.5215 -150.93 86.4202C-150.056 75.2633 -152.514 64.2792 -154.895 53.6599C-155.154 52.4886 -155.423 51.3172 -155.682 50.1458C-157.075 43.8376 -157.727 37.5102 -157.631 31.3365C-157.564 27.083 -155.98 23.6937 -153.272 22.0326C-151.342 20.8517 -147.943 19.9779 -142.73 22.5319C-140.934 23.4056 -139.36 24.7402 -137.843 26.0269C-137.459 26.3533 -137.084 26.6702 -136.7 26.987C-130.344 32.1814 -126.935 39.3249 -123.642 46.238C-122.701 48.2063 -121.731 50.2418 -120.704 52.2005C-120.291 52.9878 -119.878 53.7943 -119.465 54.6009C-116.931 59.5648 -114.309 64.692 -110.392 68.1006C-98.0446 78.8446 -84.0072 83.2421 -68.6832 81.1778C-59.2162 79.9008 -52.3223 77.1836 -46.9743 72.6037C-41.4918 67.9085 -36.4607 62.4837 -31.5927 57.2317C-30.3061 55.8395 -29.0195 54.4568 -27.7233 53.0838C-26.1967 51.4612 -24.6604 49.8481 -23.1242 48.2351C-17.3825 42.215 -11.4488 35.9836 -6.20641 29.4066C-0.301498 21.9846 4.45126 14.5723 7.92699 7.37118C11.6428 -0.329216 14.1487 -8.78812 16.5779 -16.9782L16.8948 -18.0631C22.1756 -35.8739 31.7867 -47.7509 46.2849 -54.376C55.3583 -58.5238 65.1422 -60.1272 74.5997 -61.6827L74.9933 -61.7499C87.7057 -63.843 102.137 -67.7796 112.737 -81.0873C120.408 -90.7176 124.527 -101.462 125.718 -114.904C125.747 -115.211 126.016 -115.451 126.332 -115.413C126.64 -115.384 126.87 -115.115 126.841 -114.798C125.651 -101.318 121.33 -90.0647 113.62 -80.3864C102.79 -66.7811 88.109 -62.7677 75.1758 -60.6457L74.7821 -60.5785C65.3918 -59.0327 55.6847 -57.4388 46.7554 -53.3582C32.574 -46.8772 23.155 -35.2306 17.9798 -17.7559L17.6629 -16.6709C15.2241 -8.44247 12.7085 0.0644531 8.95433 7.84165C5.44019 15.11 0.639465 22.5991 -5.31346 30.0883C-10.5847 36.7133 -16.5376 42.9543 -22.2889 48.9936C-23.8251 50.6067 -25.3614 52.2101 -26.8784 53.8327C-28.1746 55.2058 -29.4516 56.5884 -30.7382 57.9806C-35.6254 63.2518 -40.6853 68.7151 -46.2158 73.4486C-51.7366 78.1725 -58.8129 80.9762 -68.5104 82.282C-84.1704 84.3847 -98.5055 79.9008 -111.112 68.9359C-115.193 65.3929 -117.862 60.1601 -120.445 55.1002C-120.858 54.2936 -121.271 53.4967 -121.683 52.6998C-122.72 50.7219 -123.69 48.6768 -124.641 46.6989C-127.886 39.901 -131.237 32.8727 -137.391 27.8319C-137.776 27.5151 -138.16 27.1886 -138.553 26.8622C-140.022 25.6236 -141.539 24.337 -143.21 23.5209C-146.974 21.6774 -150.248 21.4854 -152.667 22.9736C-155.029 24.4234 -156.422 27.4671 -156.489 31.3269C-156.585 37.4046 -155.942 43.6456 -154.569 49.8673C-154.309 51.0387 -154.05 52.2101 -153.781 53.3815C-151.381 64.0871 -148.904 75.148 -149.787 86.4778C-150.027 89.5887 -150.325 92.9396 -150.622 96.4921C-153.82 133.65 -159.177 195.858 -132.063 222.444C-121.568 232.737 -106.888 236.962 -88.4239 235.022C-85.9275 234.091 -15.3182 207.178 -0.771957 142.33C1.74362 131.115 4.32643 121.149 10.385 112.834C13.9855 107.899 19.2567 103.146 25.2289 99.459C31.7483 95.4264 39.103 96.0601 45.92 101.254C48.2916 103.06 50.6632 104.893 53.0252 106.718C58.7188 111.115 64.5949 115.666 70.5863 119.843C72.2281 120.986 73.7451 122.282 75.2142 123.52C77.8642 125.767 80.3702 127.899 83.5579 129.252C86.9376 130.693 90.5573 131.653 94.0619 132.584C95.9534 133.083 97.9121 133.611 99.8132 134.197C111.181 137.73 122.559 144.596 135.617 155.8C143.039 162.166 151.248 168.666 161.003 173.006C167.014 175.685 178.977 175.34 182.549 169.406C191.315 154.84 184.421 143.136 177.124 130.741C175.329 127.687 173.466 124.519 171.834 121.302C160.264 98.3932 167.35 73.1413 193.485 44.0872C204.431 31.9318 218.42 23.4153 231.958 15.1868C244.383 7.63042 257.239 -0.175583 267.781 -10.8236C271.094 -14.1649 274.378 -17.4967 277.652 -20.8284C288.866 -32.2157 300.455 -43.9968 312.467 -55.2209C319.994 -62.2492 327.474 -66.6275 335.357 -68.615C339.629 -69.6903 344.017 -70.6505 348.251 -71.5626C351.938 -72.3595 355.741 -73.1949 359.466 -74.0974C371.9 -77.1315 383.105 -83.3916 392.639 -89.0277C398.486 -92.4842 403.326 -97.9283 408.011 -103.2L408.76 -104.044C410.594 -106.109 411.813 -108.836 413.004 -111.476C413.551 -112.686 414.108 -113.944 414.732 -115.134C414.876 -115.413 415.222 -115.518 415.491 -115.374C415.769 -115.23 415.875 -114.885 415.731 -114.616C415.126 -113.463 414.569 -112.215 414.031 -111.025C412.812 -108.307 411.554 -105.494 409.605 -103.305L408.856 -102.46C404.113 -97.1314 399.216 -91.6105 393.215 -88.0676C383.614 -82.3931 372.322 -76.0753 359.735 -73.0124C356 -72.1003 352.188 -71.2746 348.501 -70.468C344.276 -69.5463 339.898 -68.5958 335.645 -67.5204C327.848 -65.5521 320.734 -61.385 313.254 -54.3952C301.262 -43.1902 289.682 -31.4188 278.478 -20.0411C275.194 -16.7093 271.91 -13.368 268.607 -10.0363C257.959 0.707748 245.055 8.55216 232.563 16.1469C219.092 24.337 205.17 32.8055 194.34 44.8362C168.195 73.8999 161.368 98.0284 172.852 120.784C174.455 123.972 176.308 127.111 178.104 130.155C185.574 142.848 192.64 154.831 183.529 169.972C179.323 176.962 166.265 176.569 160.552 174.024C150.663 169.617 142.377 163.069 134.887 156.645C121.954 145.546 110.701 138.748 99.4867 135.263C97.6048 134.677 95.6653 134.159 93.7834 133.659C90.2405 132.719 86.5823 131.739 83.1258 130.27C79.7845 128.849 77.0961 126.564 74.4941 124.356C73.0442 123.127 71.5464 121.859 69.9525 120.745C63.942 116.55 58.0467 111.999 52.353 107.582C49.9911 105.758 47.6291 103.933 45.2575 102.128C38.8341 97.2411 31.9403 96.6266 25.8433 100.4C19.9864 104.02 14.8305 108.667 11.3163 113.487C5.3826 121.619 2.8382 131.47 0.35141 142.56C-14.5213 208.868 -87.3485 235.829 -88.0878 236.098C-88.1263 236.117 -88.1743 236.126 -88.2223 236.126C-91.1987 236.443 -94.0888 236.597 -96.8732 236.597L-96.8924 236.635Z" fill="#FF7926" fill-opacity="0.4"/>
    <path d="M279.881 249.952C273.995 249.952 268.263 247.667 263.357 243.173C262.339 242.242 261.321 241.32 260.304 240.398L260.073 240.187C256.261 236.74 252.325 233.168 248.695 229.395C247.505 228.156 246.218 226.956 245.085 225.9C241.581 222.636 238.287 219.563 236.492 215.05C230.184 199.16 226.785 181.743 225.796 160.245C225.681 157.749 225.604 155.252 225.517 152.746C225.354 147.61 225.181 142.3 224.701 137.067C224.173 131.268 223.175 126.371 221.667 122.079C220.121 117.691 218.239 113.361 216.415 109.175C215.081 106.102 213.717 102.972 212.488 99.823C211.096 96.2608 209.521 92.2282 209.176 88.3108C208.225 77.3651 212.882 67.7829 223.021 59.852C227.486 56.3667 233.189 54.6288 238.902 55.1185C246.977 55.829 253.679 59.8232 259.382 67.3508C266.621 76.9043 274.235 84.1342 282.656 89.4438C291.009 94.7054 298.431 99.6118 304.778 106.285C315.762 117.826 322.175 139.64 312.42 157.317C306.88 167.369 300.956 178.2 295.205 189.347C290.356 198.747 289.204 207.772 291.758 216.164C293.189 220.869 295.138 225.468 297.029 229.913C297.826 231.776 298.604 233.62 299.353 235.473L299.506 235.847L299.401 236.231C298.258 240.533 296.751 243.845 293.121 246.044C288.81 248.646 284.307 249.942 279.881 249.942V249.952ZM237.01 57.4517C232.498 57.4517 228.062 58.9783 224.509 61.7531C215.042 69.1559 210.693 78.0276 211.566 88.1188C211.874 91.6809 213.391 95.5503 214.725 98.9589C215.935 102.06 217.289 105.171 218.604 108.186C220.457 112.449 222.358 116.818 223.933 121.282C225.508 125.757 226.545 130.845 227.092 136.846C227.582 142.146 227.755 147.494 227.918 152.66C227.995 155.147 228.081 157.643 228.196 160.12C229.166 181.349 232.517 198.517 238.719 214.157C240.313 218.171 243.415 221.061 246.698 224.124C247.87 225.209 249.185 226.438 250.424 227.724C253.995 231.44 257.903 234.983 261.686 238.401L261.917 238.612C262.944 239.544 263.962 240.466 264.979 241.397C272.747 248.512 282.809 249.481 291.883 243.999C294.734 242.28 295.973 239.659 296.972 236.01C296.271 234.301 295.551 232.592 294.83 230.893C292.91 226.361 290.932 221.704 289.463 216.875C286.717 207.859 287.937 198.229 293.073 188.262C298.834 177.086 304.768 166.236 310.318 156.174C319.525 139.487 313.438 118.872 303.04 107.955C296.885 101.484 289.588 96.6737 281.369 91.4985C272.699 86.0353 264.883 78.6133 257.461 68.8294C252.19 61.8779 246.045 58.1814 238.681 57.5381C238.124 57.4901 237.548 57.4613 236.991 57.4613L237.01 57.4517Z" fill="#FF7926" fill-opacity="0.4"/>
    <path d="M2.26311 376.931C1.95586 376.931 1.69661 376.682 1.69661 376.365C1.69661 375.904 1.68701 375.443 1.66781 374.972C1.639 373.955 1.6102 372.908 1.71582 371.871C2.02307 368.924 2.40713 365.928 2.78158 363.028C3.5497 357.066 4.33702 350.902 4.49065 344.843C4.67308 337.728 4.38503 330.479 4.11619 323.46C3.94336 319.025 3.76094 314.435 3.70333 309.922C3.57851 300.907 7.3423 293.043 15.1867 285.9C17.1262 284.133 19.1713 282.433 21.1492 280.792C23.7512 278.631 26.43 276.404 28.8784 274.022C35.177 267.878 35.8107 261.224 30.8659 253.082C25.95 244.988 19.1617 238.363 12.5943 231.958C10.962 230.365 9.32981 228.78 7.72636 227.158C-6.27261 213.082 -10.9005 196.02 -6.01338 176.433C-1.73112 159.237 4.74988 145.67 13.7849 134.955C25.2971 121.292 36.1467 118.786 51.2307 126.313C52.6805 127.043 54.1303 127.792 55.5706 128.55C58.6238 130.154 61.7827 131.805 64.9992 133.13C69.4063 134.955 73.9382 136.692 78.326 138.363C84.6342 140.783 91.1633 143.279 97.433 146.083C110.597 151.968 121.485 161.503 132.008 170.73L134.111 172.573C144.471 181.627 153.88 189.693 164.125 196.548C171.24 201.31 179.286 202.789 186.228 200.6C193.045 198.449 198.287 193.101 201.388 185.122C202.636 181.906 203.078 178.276 203.501 174.772C203.769 172.554 204.048 170.259 204.528 168.051C206.746 157.854 205.69 147.196 201.292 135.483C199.17 129.827 195.57 124.585 192.084 119.506C191.134 118.123 190.183 116.731 189.262 115.348C182.8 105.584 180.668 96.1934 182.56 85.8142C184.144 77.0961 188.042 69.5877 191.892 62.6362C196.472 54.3693 202.406 47.4563 209.54 42.0891C217.586 36.0305 226.871 33.1405 234.945 30.9033C248.599 27.1299 259.208 19.6888 266.477 8.80071C272.266 0.130569 278.287 -7.11855 284.902 -13.3499C288.57 -16.8064 292.343 -20.263 296.001 -23.6043C300.936 -28.117 306.044 -32.7929 310.932 -37.5168C323.337 -49.5187 338.949 -55.6252 360.062 -56.7486C371.277 -57.3439 380.667 -59.8115 388.78 -64.2858C401.992 -71.5733 414.8 -79.5809 427.186 -87.3197C436.442 -93.1094 446.111 -100.483 443.691 -114.751C443.643 -115.058 443.845 -115.346 444.152 -115.404C444.45 -115.452 444.747 -115.25 444.805 -114.943C447.34 -99.9841 437.345 -92.3509 427.782 -86.3692C415.386 -78.6208 402.568 -70.6036 389.328 -63.2968C381.061 -58.7361 371.507 -56.2301 360.12 -55.6252C339.294 -54.5211 323.913 -48.5106 311.719 -36.7103C306.822 -31.9672 301.705 -27.2913 296.76 -22.769C293.111 -19.4277 289.338 -15.9807 285.68 -12.5242C279.131 -6.35043 273.159 0.831467 267.427 9.43439C260.005 20.5625 249.184 28.1477 235.253 32.0075C227.274 34.2158 218.104 37.0675 210.222 43.0012C203.222 48.2724 197.384 55.0703 192.881 63.1931C189.079 70.0582 185.229 77.4801 183.674 86.0254C181.84 96.0974 183.914 105.219 190.203 114.734C191.115 116.116 192.065 117.499 193.016 118.882C196.54 124.009 200.178 129.319 202.348 135.099C206.832 147.024 207.898 157.883 205.632 168.301C205.162 170.451 204.893 172.717 204.624 174.916C204.192 178.488 203.741 182.184 202.444 185.535C199.218 193.85 193.726 199.429 186.573 201.685C179.314 203.97 170.904 202.443 163.51 197.489C153.208 190.595 143.77 182.511 133.381 173.428L131.278 171.584C120.813 162.415 110.001 152.929 96.9818 147.11C90.7408 144.316 84.231 141.829 77.9324 139.419C73.5445 137.739 69.003 136.001 64.5768 134.167C61.3122 132.813 58.1341 131.152 55.0521 129.539C53.6214 128.79 52.1812 128.042 50.7314 127.312C36.214 120.063 25.7579 122.482 14.649 135.665C5.72926 146.246 -0.674954 159.669 -4.91881 176.692C-9.70035 195.876 -5.17804 212.583 8.52328 226.351C10.1267 227.964 11.7494 229.548 13.3816 231.133C19.9971 237.585 26.8429 244.258 31.8261 252.477C37.0205 261.032 36.31 268.338 29.6657 274.81C27.1886 277.22 24.4809 279.466 21.8693 281.636C19.901 283.269 17.8655 284.959 15.9452 286.706C8.35044 293.619 4.71149 301.204 4.8267 309.884C4.88431 314.387 5.06674 318.967 5.23956 323.393C5.51801 330.422 5.79645 337.699 5.61402 344.853C5.4604 350.978 4.66348 357.171 3.89536 363.153C3.5209 366.043 3.13684 369.029 2.82959 371.967C2.73358 372.927 2.75278 373.897 2.78158 374.915C2.79119 375.385 2.81039 375.865 2.81039 376.336C2.81039 376.643 2.56075 376.902 2.2439 376.902L2.26311 376.931Z" fill="#FF7926" fill-opacity="0.4"/>
    <path d="M354.419 55.657C351.942 55.657 349.368 55.4362 346.718 54.9945C337.088 53.391 327.986 49.0224 318.884 41.6196C306.651 31.6821 301.87 15.6764 307.515 3.57854C318.692 -20.3772 336.666 -29.681 364.097 -25.6868C372.239 -24.5058 380.871 -22.3263 389.752 -19.225L389.992 -19.1386C397.241 -16.6134 405.451 -13.7425 406.43 -3.66098C406.44 -3.55536 406.42 -3.44975 406.372 -3.36334C406.42 -3.25772 406.44 -3.1329 406.42 -3.00808C406.267 -2.23996 406.132 -1.45265 405.998 -0.674925C405.71 1.01493 405.412 2.7624 404.894 4.42346C399.575 21.3509 389.704 36.1276 375.571 48.3311C369.954 53.1798 362.734 55.6666 354.419 55.6666V55.657ZM352.527 -25.4467C331.97 -25.4467 317.837 -15.8837 308.533 4.05861C303.195 15.5132 307.948 31.2788 319.594 40.7459C328.543 48.0142 337.472 52.3157 346.901 53.8807C358.154 55.753 367.813 53.535 374.831 47.4669C388.802 35.4074 398.557 20.8036 403.818 4.07782C404.318 2.48397 404.606 0.774906 404.884 -0.876549C405.019 -1.66387 405.153 -2.4608 405.307 -3.23852C405.316 -3.28653 405.335 -3.33453 405.355 -3.37294C405.326 -3.43055 405.307 -3.49776 405.297 -3.56497C404.394 -12.936 396.877 -15.5572 389.608 -18.0824L389.368 -18.1688C380.554 -21.2509 371.989 -23.4016 363.915 -24.573C359.911 -25.1587 356.109 -25.4467 352.508 -25.4467H352.527Z" fill="#FF7926" fill-opacity="0.4"/>
    <path d="M184.748 -0.205307C181.397 -0.205307 178.104 -0.627777 174.954 -1.51112C167.417 -3.62344 162.952 -8.85625 160.485 -18.4865C157.729 -29.2594 160.216 -39.7058 162.636 -49.8162C163.096 -51.7365 163.557 -53.6664 163.98 -55.5771C166.697 -67.915 166.975 -78.2558 164.882 -88.1165C164.153 -91.5538 163.711 -95.0872 163.279 -98.5149C163.087 -100.061 162.895 -101.607 162.674 -103.143L157.278 -117.199C157.163 -117.487 157.307 -117.814 157.604 -117.929C157.892 -118.044 158.219 -117.9 158.334 -117.603L163.749 -103.488C163.749 -103.488 163.778 -103.412 163.778 -103.364C163.999 -101.799 164.201 -100.224 164.402 -98.6493C164.834 -95.2504 165.276 -91.7362 165.996 -88.3469C168.128 -78.323 167.849 -67.8286 165.094 -55.3274C164.671 -53.4071 164.21 -51.4772 163.749 -49.5473C161.368 -39.5714 158.91 -29.2594 161.599 -18.765C163.951 -9.57636 168.176 -4.58359 175.281 -2.59608C189.817 1.47495 207.763 -4.53558 217.94 -16.8831C219.14 -18.3425 220.331 -19.8787 221.473 -21.3574C225.554 -26.6382 229.769 -32.1014 235.924 -35.6828C241.55 -38.9473 248.262 -42.7399 255.424 -46.0716C261.339 -48.8272 265.295 -52.8214 266.869 -57.6222C268.473 -62.5189 267.647 -68.011 264.392 -73.9543C259.39 -83.1141 254.599 -92.5812 249.971 -101.731C247.916 -105.802 245.861 -109.864 243.778 -113.916C243.634 -114.194 243.749 -114.53 244.018 -114.674C244.296 -114.818 244.632 -114.703 244.776 -114.434C246.86 -110.382 248.914 -106.311 250.979 -102.24C255.607 -93.0997 260.388 -83.6422 265.381 -74.492C268.742 -68.347 269.625 -62.3941 267.935 -57.2669C266.255 -52.1589 262.088 -47.9343 255.895 -45.0442C248.77 -41.7317 242.088 -37.9583 236.481 -34.7034C230.508 -31.2373 226.361 -25.8605 222.357 -20.6661C221.205 -19.1778 220.014 -17.632 218.804 -16.163C210.557 -6.14863 197.326 -0.195717 184.767 -0.195717L184.748 -0.205307Z" fill="#FF7926" fill-opacity="0.4"/>
    <path d="M128.129 380.849C128.053 380.849 127.976 380.829 127.899 380.801C127.611 380.676 127.486 380.34 127.62 380.052L137.808 357.815C140.842 351.199 143.972 344.353 148.465 338.42C152.488 333.1 157.884 328.156 164.951 323.278C191.009 305.314 222.714 299.294 250.279 295.76C257.538 294.829 264.951 294.022 272.123 293.245C294.417 290.815 317.471 288.309 339.228 281.78C346.851 279.495 355.531 276.336 362.012 270.297C369.491 263.326 373.947 252.592 374.542 240.062C375.022 230.019 373.082 219.88 368.915 210.729C366.765 205.996 363.971 201.406 361.273 196.961C356.347 188.857 351.249 180.475 349.895 170.96C347.754 155.982 355.204 141.397 363.587 127.859C373.39 112.007 383.202 96.7215 395.329 83.8555C398.133 80.879 403.221 77.288 408.147 73.8123C412.794 70.5382 417.585 67.1489 420.245 64.4221C421.08 63.5675 421.906 62.6746 422.732 61.7912C425.487 58.834 428.339 55.7711 431.738 53.6396C440.562 48.0899 450.25 42.5883 462.242 36.3185C471.959 31.2393 476.058 24.5087 475.137 15.1472C474.589 9.53037 473.879 3.83669 473.188 -1.67456C472.093 -10.5175 470.95 -19.6581 470.432 -28.6931C469.549 -44.0075 469.798 -60.2532 477.604 -75.2987C484.873 -89.3073 496.02 -96.1531 511.68 -96.2204C516.193 -96.2396 520.705 -96.23 525.218 -96.2204H531.372C531.68 -96.2204 531.939 -95.9611 531.939 -95.6539C531.939 -95.3466 531.689 -95.0874 531.372 -95.0874H525.218C520.705 -95.097 516.193 -95.097 511.689 -95.0874C496.49 -95.0298 485.669 -88.3856 478.612 -74.7802C470.931 -59.9748 470.691 -43.9115 471.565 -28.7603C472.083 -19.7638 473.216 -10.6423 474.32 -1.81858C475.002 3.70227 475.713 9.40555 476.27 15.032C477.23 24.7775 472.813 32.0651 462.77 37.3171C450.806 43.5676 441.138 49.0597 432.343 54.5901C429.078 56.6449 426.275 59.6501 423.567 62.5594C422.732 63.4523 421.906 64.3452 421.061 65.2094C418.325 68.013 413.485 71.4311 408.8 74.7341C403.922 78.181 398.872 81.7335 396.145 84.6236C384.086 97.4128 374.311 112.65 364.537 128.454C356.28 141.81 348.915 156.183 351.009 170.806C352.334 180.091 357.365 188.377 362.233 196.375C364.95 200.85 367.763 205.468 369.943 210.259C374.177 219.572 376.155 229.894 375.665 240.11C375.051 252.938 370.471 263.941 362.78 271.113C356.126 277.316 347.302 280.532 339.544 282.856C317.682 289.414 294.581 291.929 272.238 294.358C265.075 295.136 257.663 295.943 250.414 296.874C222.973 300.378 191.442 306.37 165.585 324.2C158.614 329.001 153.314 333.868 149.358 339.092C144.942 344.929 141.831 351.718 138.825 358.275L128.638 380.512C128.542 380.724 128.341 380.839 128.129 380.839V380.849Z" fill="#FF7926" fill-opacity="0.4"/>
    <path d="M-101.137 224.017C-108.29 224.017 -114.896 222.049 -120.877 218.112C-140.532 205.198 -149.134 173.83 -150.536 150.892C-151.65 132.582 -149.144 114.58 -146.705 97.1817C-145.342 87.4073 -143.93 77.3066 -143.162 67.2058C-142.884 63.5093 -143.172 59.6783 -143.46 55.9817C-143.662 53.3893 -143.863 50.7009 -143.873 48.0605C-143.873 46.2362 -142.615 43.3077 -140.628 42.8949C-139.379 42.6452 -138.016 43.2885 -136.681 44.7864C-134.79 46.9083 -132.649 49.4527 -131.17 52.2467C-121.444 70.7008 -104.804 81.3104 -80.3206 84.7093C-67.541 86.476 -55.3376 83.3843 -45.9569 75.9912C-38.5926 70.1919 -31.5931 63.6725 -24.824 57.3643C-21.7324 54.4839 -18.5351 51.4978 -15.3378 48.627C-14.1856 47.59 -12.995 46.5914 -11.814 45.5929C-10.6907 44.6423 -9.55768 43.6918 -8.4631 42.7124C1.57043 33.735 9.60687 23.0198 15.4446 10.8643C17.5857 6.39003 19.4964 1.70451 21.3303 -2.83699C23.5194 -8.22342 25.7758 -13.8019 28.4642 -19.0635C36.3374 -34.4739 46.8702 -43.6145 60.6868 -47.0134C63.3656 -47.6759 66.0636 -48.4632 68.6656 -49.2314C71.8437 -50.1627 75.137 -51.1325 78.4303 -51.8718C93.0438 -55.1459 105.535 -63.1823 114.541 -75.0978C122.885 -86.1299 127.907 -100.263 128.675 -114.896C128.694 -115.203 128.963 -115.434 129.27 -115.434C129.577 -115.414 129.817 -115.155 129.808 -114.838C129.02 -99.9848 123.922 -85.6402 115.444 -74.4257C106.275 -62.299 93.5622 -54.1185 78.6799 -50.7868C75.425 -50.0571 72.1509 -49.0969 68.9825 -48.1656C66.3613 -47.3975 63.6536 -46.6005 60.9556 -45.938C47.4847 -42.6159 37.1823 -33.6674 29.4723 -18.5738C26.8031 -13.3602 24.5564 -7.80096 22.3768 -2.43372C20.5334 2.11738 18.6227 6.8317 16.4623 11.3348C10.567 23.6247 2.43457 34.4648 -7.70461 43.5382C-8.80878 44.5271 -9.95135 45.4873 -11.0843 46.4474C-12.2653 47.4364 -13.4367 48.4349 -14.5793 49.4623C-17.767 52.3331 -20.9642 55.3096 -24.0559 58.19C-30.8442 64.5174 -37.8629 71.056 -45.2656 76.8841C-54.8959 84.4693 -67.397 87.6474 -80.4838 85.8327C-105.352 82.3858 -122.26 71.5745 -132.178 52.7844C-133.59 50.1056 -135.587 47.7244 -137.526 45.5449C-138.256 44.7191 -139.36 43.7782 -140.397 44.0087C-141.741 44.2871 -142.749 46.6587 -142.74 48.0605C-142.73 50.6625 -142.529 53.3221 -142.327 55.8953C-142.039 59.6398 -141.741 63.4996 -142.029 67.2826C-142.797 77.4122 -144.209 87.5322 -145.582 97.3257C-148.001 114.676 -150.507 132.621 -149.403 150.816C-148.021 173.494 -139.562 204.469 -120.253 217.162C-110.239 223.748 -98.4002 224.641 -85.0637 219.821C-84.5645 219.639 -35.1552 201.3 -6.60043 135.453C-4.11365 129.721 -1.12759 124.133 1.77206 118.718C6.98566 108.963 12.1705 101.723 18.1138 95.8855C26.8127 87.3209 38.1905 88.4635 44.4794 93.8884C48.9729 97.7578 53.0344 101.243 57.2686 104.7C58.6705 105.842 60.0627 107.004 61.4645 108.156C65.0458 111.123 68.7424 114.195 72.535 116.98C73.7256 117.854 74.8297 118.852 75.8955 119.822C77.3069 121.099 78.7568 122.414 80.3794 123.403C82.8182 124.901 84.9209 125.026 87.5805 125.189C88.2622 125.228 88.9727 125.276 89.7121 125.343C97.0284 126.015 104.527 128.492 111.987 132.698C118.315 136.269 123.72 140.964 128.944 145.506C131.997 148.156 135.146 150.902 138.468 153.398C139.39 154.09 140.302 154.791 141.214 155.491C147.455 160.283 153.898 165.227 161.877 167.061C166.879 168.213 172.534 168.838 176.471 164.709C180.244 160.753 181.608 155.52 180.436 149.558C179.083 142.683 175.559 136.903 172.064 131.574C163.835 119.015 161.291 101.838 164.911 83.2019C169.692 58.6125 182.482 38.3726 200.926 26.2171C201.435 25.8906 251.843 -6.66798 267.416 -23.3554L314.089 -61.0124C318.727 -65.1698 324.372 -68.6744 329.941 -70.8731C335.5 -73.0622 341.473 -74.4257 347.243 -75.7507C349.029 -76.1539 350.805 -76.5668 352.572 -76.9893C364.775 -79.9561 376.182 -84.5552 387.464 -91.0554C399.033 -97.7189 405.764 -104.968 409.269 -114.56C409.374 -114.848 409.701 -115.002 409.989 -114.896C410.277 -114.79 410.43 -114.464 410.325 -114.176C406.724 -104.325 399.84 -96.8931 388.03 -90.0857C376.662 -83.5279 365.15 -78.8903 352.841 -75.9043C351.064 -75.4722 349.279 -75.069 347.493 -74.6561C341.761 -73.3503 335.827 -71.9965 330.354 -69.8361C324.9 -67.6854 319.379 -64.2577 314.809 -60.1674L268.175 -22.5488C252.563 -5.81345 202.049 26.822 201.54 27.1484C183.355 39.1407 170.739 59.1214 166.015 83.4035C163.951 94.0228 162.117 114.33 172.995 130.94C176.548 136.365 180.139 142.251 181.531 149.327C182.779 155.664 181.31 161.252 177.278 165.477C172.947 170.019 166.927 169.375 161.608 168.156C153.399 166.264 146.85 161.243 140.513 156.384C139.601 155.684 138.689 154.983 137.777 154.301C134.426 151.776 131.258 149.02 128.195 146.36C123.02 141.857 117.662 137.201 111.431 133.686C104.105 129.558 96.7691 127.129 89.6064 126.466C88.8767 126.399 88.1758 126.361 87.5037 126.313C84.7961 126.149 82.4629 126.005 79.7745 124.363C78.0654 123.317 76.5676 121.963 75.1178 120.648C74.0712 119.697 72.9863 118.718 71.8437 117.882C68.0223 115.079 64.3161 111.997 60.7156 109.02C59.3233 107.868 57.9312 106.706 56.5293 105.564C52.2759 102.098 48.2144 98.6123 43.7113 94.7333C37.8064 89.6445 27.1008 88.5979 18.8723 96.6824C13.025 102.443 7.8978 109.596 2.76102 119.198C-0.148239 124.623 -3.12469 130.201 -5.59227 135.885C-34.3487 202.203 -84.2092 220.686 -84.7085 220.868C-90.4694 222.951 -95.9614 223.988 -101.156 223.988L-101.137 224.017Z" fill="#FF7926" fill-opacity="0.4"/>
    <path d="M263.789 162.752C262.618 162.752 261.523 162.531 260.938 161.974C259.363 160.495 257.923 157.039 258.508 154.965C259.411 151.758 260.736 149.002 262.445 146.756C263.165 145.805 266.938 141.071 270.645 140.803C270.942 140.783 271.24 140.793 271.528 140.831C273.275 141.071 275.695 142.761 276.06 144.518C277.241 150.164 273.506 159.362 267.467 162.06C266.535 162.473 265.114 162.761 263.789 162.761V162.752ZM270.971 141.744C270.885 141.744 270.798 141.744 270.712 141.753C268.158 141.936 265.076 144.874 263.203 147.332C261.571 149.482 260.294 152.132 259.43 155.224C258.95 156.914 260.246 160.015 261.59 161.273C262.368 162.003 265.335 161.945 267.073 161.177C272.738 158.652 276.233 150.01 275.119 144.71C274.85 143.424 272.795 141.964 271.403 141.772C271.259 141.753 271.115 141.744 270.971 141.744Z" fill="#FF7926" fill-opacity="0.4"/>
    <path d="M112.594 89.8959C109.281 89.8959 105.815 88.8974 102.407 86.9195C96.5786 83.5302 92.8148 77.4332 91.5378 69.2815C90.7793 64.4712 89.3391 48.3311 102.455 42.6278C102.608 42.5606 102.781 42.5702 102.925 42.6278C103.012 42.5894 103.117 42.5606 103.223 42.5702C104.337 42.6662 105.537 42.6662 106.699 42.6566C109.329 42.647 112.056 42.6374 114.169 43.8088C127.582 51.2788 131.624 58.8447 129.627 72.7093C128.571 79.9968 124.836 85.6905 119.373 88.3405C117.251 89.3679 114.965 89.8767 112.603 89.8767L112.594 89.8959ZM102.916 43.6552C102.916 43.6552 102.906 43.6552 102.896 43.6552C90.5297 49.0416 91.9219 64.4904 92.6516 69.0991C93.5061 74.5432 95.9929 81.8787 102.973 85.9401C108.484 89.1374 114.13 89.6367 118.873 87.3419C123.991 84.8647 127.505 79.4783 128.504 72.5652C130.424 59.2672 126.526 51.9989 113.612 44.8074C111.759 43.78 109.195 43.7896 106.699 43.7992C105.508 43.7992 104.279 43.8088 103.108 43.7032C103.04 43.7032 102.973 43.6744 102.916 43.6456V43.6552Z" fill="#FF7926" fill-opacity="0.4"/>
    <path d="M112.376 83.2515C108.199 83.2515 103.773 81.0143 100.739 76.9625C97.8101 73.0451 96.9748 67.6299 98.5206 62.4739C99.9801 57.6251 103.206 53.9765 107.392 52.4691C107.536 52.4115 107.7 52.4307 107.834 52.4883C107.901 52.4499 107.978 52.4307 108.065 52.4307C114.181 52.2675 118.981 55.0135 122.304 60.6112C126.346 67.4282 124.416 77.3946 118.242 81.5232C116.485 82.6946 114.469 83.2515 112.376 83.2515ZM107.844 53.4965C107.844 53.4965 107.805 53.5157 107.786 53.5157C103.945 54.8983 100.959 58.278 99.6152 62.7811C98.175 67.5915 98.9335 72.6322 101.651 76.2712C105.837 81.8688 112.856 83.7603 117.618 80.5727C123.321 76.7609 125.098 67.5146 121.334 61.1776C118.242 55.9544 113.797 53.3813 108.103 53.5541C108.007 53.5541 107.921 53.5349 107.844 53.4965Z" fill="#FF7926" fill-opacity="0.4"/>
    <path d="M353.69 36.5969C353.354 36.5969 353.018 36.5873 352.691 36.5681C344.703 36.0784 337.626 33.486 331.664 28.8677C324.271 23.1452 320.949 16.3473 321.803 8.64695C322.523 2.08914 326.172 -3.70056 332.634 -8.55891C336.513 -11.4778 340.968 -12.6779 345.279 -13.8397C346.066 -14.051 346.853 -14.2622 347.641 -14.483C347.785 -14.5214 347.919 -14.5022 348.044 -14.4446C348.226 -14.531 348.466 -14.5022 348.687 -14.5022C356.09 -14.5022 363.301 -12.5627 370.732 -8.56851C378.212 -4.55509 382.062 1.58986 381.572 8.73336C380.871 18.9589 375.245 27.6291 365.711 33.1499C361.908 35.3487 357.501 36.6065 353.699 36.6065L353.69 36.5969ZM348.034 -13.4365C348.034 -13.4365 347.977 -13.4077 347.938 -13.3981C347.151 -13.1772 346.354 -12.9564 345.567 -12.7452C341.169 -11.5546 337.012 -10.4408 333.306 -7.64677C327.094 -2.97085 323.599 2.55001 322.917 8.78137C322.12 16.0593 325.288 22.5211 332.346 27.9843C338.126 32.4586 344.991 34.9742 352.758 35.4447C356.503 35.6751 361.236 34.4173 365.125 32.161C374.323 26.8322 379.758 18.4789 380.43 8.63735C380.881 1.96432 377.242 -3.79658 370.185 -7.58916C362.792 -11.5546 355.658 -13.4461 348.284 -13.3885C348.178 -13.3981 348.111 -13.4077 348.034 -13.4461V-13.4365Z" fill="#FF7926" fill-opacity="0.4"/>
    <path d="M261.284 195.598C260.065 195.598 258.846 195.473 257.645 195.233C250.492 193.774 244.203 187.926 239.911 178.776C237.089 172.746 235.84 166.246 235.994 158.315C236.052 155.406 236.119 152.497 236.186 149.588C236.292 145.027 236.407 140.313 236.464 135.675L236.493 133.342C236.57 127.015 236.647 120.466 236.426 114.043C236.292 110.164 236.004 106.218 235.725 102.406C235.476 98.9686 235.216 95.4065 235.063 91.8923C234.928 88.6086 236.503 86.4291 239.393 85.901C239.518 85.8818 239.633 85.901 239.739 85.949C239.854 85.8914 239.988 85.8722 240.132 85.9106C240.9 86.1122 241.678 86.2755 242.465 86.4387C244.203 86.8035 246.008 87.178 247.593 87.9941C251.731 90.1449 255.879 92.4396 259.892 94.6576C264.731 97.3268 269.724 100.092 274.726 102.627C284.309 107.485 291.395 112.536 297.031 118.527C305.662 127.696 308.005 138.335 304.001 150.135C299.258 164.086 290.348 176.99 277.511 188.483C272.259 193.188 266.709 195.608 261.275 195.608L261.284 195.598ZM239.748 86.9668C239.748 86.9668 239.652 87.0052 239.604 87.0148C236.647 87.5525 236.119 89.9336 236.196 91.8443C236.34 95.3393 236.599 98.8822 236.849 102.32C237.127 106.151 237.415 110.106 237.549 114.005C237.77 120.447 237.693 127.015 237.617 133.352L237.588 135.685C237.54 140.332 237.425 145.046 237.309 149.607C237.242 152.516 237.165 155.425 237.117 158.325C236.973 166.073 238.183 172.42 240.929 178.286C245.058 187.11 251.078 192.727 257.866 194.119C264.069 195.387 270.607 193.14 276.771 187.629C289.455 176.27 298.269 163.529 302.945 149.76C306.863 138.229 304.664 128.263 296.224 119.295C290.674 113.4 283.685 108.426 274.227 103.635C269.206 101.091 264.194 98.3253 259.354 95.6465C255.351 93.4382 251.203 91.1434 247.084 89.0023C245.643 88.2534 243.992 87.9077 242.254 87.5525C241.448 87.3892 240.641 87.2164 239.854 87.0052C239.815 87.0052 239.787 86.986 239.758 86.9668H239.748Z" fill="#FF7926" fill-opacity="0.4"/>
    <path d="M347.232 71.124C341.98 71.124 336.728 70.2311 331.486 68.4356C313.444 62.2619 299.397 50.3176 293.896 36.4819C289.633 25.7474 290.526 14.0816 296.488 2.76148C301.615 -6.98403 309.412 -14.6268 317.055 -21.4343C327.866 -31.0549 340.703 -35.7309 356.305 -35.7309C360.28 -35.7309 364.486 -35.414 368.826 -34.7995C375.393 -33.8586 382.258 -34.5211 388.883 -35.1644H388.979C390.535 -35.3276 392.09 -35.4716 393.626 -35.606C399.743 -36.1149 405.139 -38.7457 410.352 -41.2805C413.501 -42.8168 416.468 -44.257 419.627 -45.3131L419.838 -45.3804H420.059C420.126 -45.3612 420.194 -45.3708 420.261 -45.3804C427.03 -46.2733 431.187 -44.4298 433.329 -39.5619C434.442 -37.0367 435.095 -33.9546 435.23 -30.6325C435.777 -17.1616 432.388 -5.47659 425.138 4.08649C420.847 9.75136 416.363 15.3874 412.032 20.8315C407.933 25.9779 403.698 31.3067 399.637 36.6355C398.322 38.3638 397.025 40.1401 395.883 41.7147C390.842 48.6278 386.08 55.1568 379.157 60.0055C368.605 67.4083 357.918 71.124 347.222 71.124H347.232ZM356.315 -33.3305C341.327 -33.3305 329.008 -28.8562 318.658 -19.6388C311.178 -12.9753 303.564 -5.5246 298.62 3.88485C292.916 14.7153 292.081 25.3922 296.133 35.5985C301.375 48.791 314.885 60.2264 332.263 66.1697C347.405 71.3545 362.719 68.618 377.784 58.0468C384.371 53.4189 389.027 47.0531 393.943 40.3033C395.095 38.7286 396.401 36.9332 397.726 35.1857C401.807 29.8377 406.051 24.4992 410.151 19.3432C414.471 13.9088 418.946 8.29193 423.228 2.64626C430.122 -6.45594 433.357 -17.6225 432.829 -30.5269C432.704 -33.5513 432.119 -36.3358 431.13 -38.5825C429.44 -42.4327 426.281 -43.7481 420.578 -42.9896C420.453 -42.9704 420.319 -42.9608 420.194 -42.9608C417.246 -41.9622 414.414 -40.5796 411.408 -39.1202C405.984 -36.4798 400.386 -33.753 393.818 -33.2057C392.282 -33.0809 390.746 -32.9272 389.2 -32.7832H389.104C382.335 -32.1207 375.336 -31.439 368.48 -32.4184C364.255 -33.0232 360.156 -33.3305 356.305 -33.3305H356.315Z" fill="#FF7926" fill-opacity="0.4"/>
    <path d="M113.698 252.468C110.875 252.468 108.273 251.364 105.93 250.24C97.5385 246.189 90.1646 239.88 84.0005 231.508L82.3682 229.3C76.1657 220.917 69.7518 212.257 67.5531 201.282C65.9785 193.409 66.3241 191.585 73.8901 188.33C74.0437 188.263 74.2165 188.272 74.3606 188.34C74.4566 188.292 74.5718 188.272 74.6966 188.292C75.6664 188.445 76.6457 188.56 77.6251 188.685C79.7758 188.945 82.0034 189.223 84.1061 189.857C92.421 192.353 99.1804 197.595 105.949 203.222C119.123 214.158 125.316 226.851 124.884 242.031C124.759 246.342 122.579 249.434 118.201 251.469C116.645 252.19 115.148 252.487 113.698 252.487V252.468ZM74.3702 189.348C74.3702 189.348 74.351 189.348 74.351 189.357C67.3803 192.363 67.1595 193.496 68.6669 201.052C70.8176 211.786 77.1546 220.341 83.29 228.618L84.9222 230.826C90.9711 239.055 98.2106 245.248 106.439 249.213C109.742 250.807 113.611 252.343 117.74 250.423C121.686 248.589 123.664 245.824 123.77 241.974C124.192 227.168 118.134 214.763 105.249 204.067C98.5755 198.527 91.9121 193.352 83.7988 190.913C81.7825 190.308 79.6126 190.039 77.5003 189.789C76.5113 189.665 75.5128 189.549 74.5334 189.396C74.4758 189.396 74.4278 189.367 74.3798 189.348H74.3702Z" fill="#FF7926" fill-opacity="0.4"/>
    <path d="M138.11 379.831C138.042 379.831 137.975 379.821 137.908 379.792C137.62 379.687 137.466 379.36 137.581 379.062C151.35 342.721 184.965 314.761 223.207 307.848C236.707 305.41 250.658 305.458 264.148 305.496C271.58 305.525 279.261 305.544 286.779 305.16C308.507 304.027 329.803 299.447 350.072 291.555C365.031 285.726 375.689 279.303 383.6 271.334C393.576 261.281 398.963 248.146 397.993 236.183C396.908 222.779 388.545 211.373 380.461 200.35C372.463 189.433 364.186 178.142 362.727 164.777C360.73 146.39 372.078 129.462 383.869 113.697C388.478 107.542 399.827 93.8504 408.113 83.8553C412.99 77.9696 416.841 73.332 418.079 71.7286C428.689 57.9793 442.352 49.2323 459.855 44.9981C472.587 41.916 477.205 42.8665 483.254 55.1372C488.708 66.2077 491.665 77.8832 493.835 87.8495C495.774 96.7405 496.389 104.335 495.726 111.095C494.709 121.416 489.706 130.288 483.753 139.995C481.958 142.924 480.057 145.842 478.213 148.675C473.086 156.539 467.796 164.661 464.31 173.716C459.097 187.273 458.165 200.062 461.468 212.822L462.4 216.385C464.742 225.352 467.162 234.618 468.247 243.912C470.215 260.772 466.461 275.818 457.08 288.626C447.786 301.319 441.977 312.966 438.79 325.275C435.698 337.229 432.126 349.259 428.67 360.897C427.153 366.014 425.626 371.132 424.147 376.268C424.061 376.566 423.744 376.739 423.446 376.653C423.149 376.566 422.976 376.249 423.062 375.952C424.551 370.824 426.068 365.697 427.594 360.58C431.051 348.952 434.623 336.931 437.705 324.997C440.931 312.534 446.807 300.762 456.178 287.964C465.386 275.395 469.073 260.619 467.133 244.046C466.058 234.839 463.648 225.602 461.315 216.673L460.383 213.101C457.023 200.1 457.964 187.09 463.264 173.303C466.788 164.133 472.116 155.953 477.272 148.051C479.106 145.228 481.007 142.309 482.803 139.4C488.679 129.818 493.624 121.071 494.613 110.979C495.266 104.345 494.651 96.8557 492.74 88.0895C490.58 78.1904 487.652 66.5918 482.255 55.6365C476.514 43.9803 472.385 43.1258 460.134 46.0926C442.889 50.2693 429.428 58.8818 418.982 72.4199C417.734 74.0426 413.874 78.6897 408.996 84.585C400.72 94.5705 389.38 108.243 384.791 114.378C373.125 129.962 361.91 146.678 363.86 164.652C365.281 177.719 373.461 188.886 381.382 199.678C389.563 210.835 398.012 222.366 399.126 236.087C400.124 248.367 394.623 261.838 384.407 272.121C376.38 280.206 365.607 286.706 350.494 292.601C330.11 300.542 308.699 305.141 286.846 306.283C279.299 306.677 271.599 306.658 264.148 306.629C250.706 306.59 236.813 306.542 223.419 308.962C185.55 315.808 152.281 343.479 138.647 379.456C138.561 379.687 138.35 379.821 138.119 379.821L138.11 379.831Z" fill="#FF7926" fill-opacity="0.4"/>
    <g opacity="0.5">
      <path d="M62.9381 190.807H62.2852V197.048H62.9381V190.807Z" fill="#FF7926"/>
      <path d="M163.051 190.807H162.398V197.048H163.051V190.807Z" fill="#FF7926"/>
      <path d="M263.153 190.807H262.5V197.048H263.153V190.807Z" fill="#FF7926"/>
      <path d="M46.8828 180.994V181.58V181.647H53.1238V181.58V180.994V180.927H46.8828V180.994Z" fill="#FF7926"/>
      <path d="M-3.04297 180.994V181.58V181.647H3.198V181.58V180.994V180.927H-3.04297V180.994Z" fill="#FF7926"/>
      <path d="M34.3984 180.994V181.58V181.647H40.6394V181.58V180.994V180.927H34.3984V180.994Z" fill="#FF7926"/>
      <path d="M21.9219 180.994V181.58V181.647H28.1628V181.58V180.994V180.927H21.9219V180.994Z" fill="#FF7926"/>
      <path d="M9.4375 180.994V181.58V181.647H15.6785V181.58V180.994V180.927H9.4375V180.994Z" fill="#FF7926"/>
      <path d="M109.539 180.994V181.58V181.647H115.78V181.58V180.994V180.927H109.539V180.994Z" fill="#FF7926"/>
      <path d="M122.02 180.994V181.58V181.647H128.26V181.58V180.994V180.927H122.02V180.994Z" fill="#FF7926"/>
      <path d="M72.1055 180.994V181.58V181.647H78.3464V181.58V180.994V180.927H72.1055V180.994Z" fill="#FF7926"/>
      <path d="M97.0547 180.994V181.58V181.647H103.296V181.58V180.994V180.927H97.0547V180.994Z" fill="#FF7926"/>
      <path d="M146.988 180.994V181.58V181.647H153.229V181.58V180.994V180.927H146.988V180.994Z" fill="#FF7926"/>
      <path d="M134.504 180.994V181.58V181.647H140.745V181.58V180.994V180.927H134.504V180.994Z" fill="#FF7926"/>
      <path d="M84.5898 180.994V181.58V181.647H90.8212V181.58V180.994V180.927H84.5898V180.994Z" fill="#FF7926"/>
      <path d="M62.935 177.998H62.2821V180.927H59.3633V180.994V181.579V181.647H62.2821V184.565H62.935V181.647H65.8635V181.579V180.994V180.927H62.935V177.998Z" fill="#FF7926"/>
      <path d="M62.9381 140.553H62.2852V146.794H62.9381V140.553Z" fill="#FF7926"/>
      <path d="M62.9381 153.035H62.2852V159.276H62.9381V153.035Z" fill="#FF7926"/>
      <path d="M62.9381 115.599H62.2852V121.84H62.9381V115.599Z" fill="#FF7926"/>
      <path d="M62.9381 90.6338H62.2852V96.8748H62.9381V90.6338Z" fill="#FF7926"/>
      <path d="M62.9381 103.116H62.2852V109.357H62.9381V103.116Z" fill="#FF7926"/>
      <path d="M62.9381 165.517H62.2852V171.758H62.9381V165.517Z" fill="#FF7926"/>
      <path d="M62.9381 128.081H62.2852V134.322H62.9381V128.081Z" fill="#FF7926"/>
      <path d="M172.211 180.994V181.58V181.647H178.452V181.58V180.994V180.927H172.211V180.994Z" fill="#FF7926"/>
      <path d="M184.695 180.994V181.58V181.647H190.936V181.58V180.994V180.927H184.695V180.994Z" fill="#FF7926"/>
      <path d="M222.125 180.994V181.58V181.647H228.366V181.58V180.994V180.927H222.125V180.994Z" fill="#FF7926"/>
      <path d="M234.609 180.994V181.58V181.647H240.85V181.58V180.994V180.927H234.609V180.994Z" fill="#FF7926"/>
      <path d="M247.09 180.994V181.58V181.647H253.331V181.58V180.994V180.927H247.09V180.994Z" fill="#FF7926"/>
      <path d="M209.656 180.994V181.58V181.647H215.897V181.58V180.994V180.927H209.656V180.994Z" fill="#FF7926"/>
      <path d="M197.172 180.994V181.58V181.647H203.413V181.58V180.994V180.927H197.172V180.994Z" fill="#FF7926"/>
      <path d="M163.041 177.998H162.397V180.927H159.469V180.994V181.579V181.647H162.397V184.565H163.041V181.647H165.969V181.579V180.994V180.927H163.041V177.998Z" fill="#FF7926"/>
      <path d="M163.051 115.599H162.398V121.84H163.051V115.599Z" fill="#FF7926"/>
      <path d="M163.047 153.035H162.395V159.276H163.047V153.035Z" fill="#FF7926"/>
      <path d="M163.047 140.553H162.395V146.794H163.047V140.553Z" fill="#FF7926"/>
      <path d="M163.051 103.116H162.398V109.357H163.051V103.116Z" fill="#FF7926"/>
      <path d="M163.047 165.517H162.395V171.758H163.047V165.517Z" fill="#FF7926"/>
      <path d="M163.051 128.081H162.398V134.322H163.051V128.081Z" fill="#FF7926"/>
      <path d="M163.051 90.6338H162.398V96.8748H163.051V90.6338Z" fill="#FF7926"/>
      <path d="M272.316 180.994V181.58V181.647H278.557V181.58V180.994V180.927H272.316V180.994Z" fill="#FF7926"/>
      <path d="M334.715 180.994V181.58V181.647H340.956V181.58V180.994V180.927H334.715V180.994Z" fill="#FF7926"/>
      <path d="M284.801 180.994V181.58V181.647H291.042V181.58V180.994V180.927H284.801V180.994Z" fill="#FF7926"/>
      <path d="M322.242 180.994V181.58V181.647H328.483V181.58V180.994V180.927H322.242V180.994Z" fill="#FF7926"/>
      <path d="M309.762 180.994V181.58V181.647H316.003V181.58V180.994V180.927H309.762V180.994Z" fill="#FF7926"/>
      <path d="M297.277 180.994V181.58V181.647H303.518V181.58V180.994V180.927H297.277V180.994Z" fill="#FF7926"/>
      <path d="M263.146 177.998H262.503V180.927H259.574V180.994V181.579V181.647H262.503V184.565H263.146V181.647H266.074V181.579V180.994V180.927H263.146V177.998Z" fill="#FF7926"/>
      <path d="M263.153 103.116H262.5V109.357H263.153V103.116Z" fill="#FF7926"/>
      <path d="M263.153 140.553H262.5V146.794H263.153V140.553Z" fill="#FF7926"/>
      <path d="M263.153 128.081H262.5V134.322H263.153V128.081Z" fill="#FF7926"/>
      <path d="M263.153 153.035H262.5V159.276H263.153V153.035Z" fill="#FF7926"/>
      <path d="M263.153 165.517H262.5V171.758H263.153V165.517Z" fill="#FF7926"/>
      <path d="M263.153 115.599H262.5V121.84H263.153V115.599Z" fill="#FF7926"/>
      <path d="M263.153 90.6338H262.5V96.8748H263.153V90.6338Z" fill="#FF7926"/>
      <path d="M-3.04297 80.8213V81.407V81.4646H3.198V81.407V80.8213V80.7637H-3.04297V80.8213Z" fill="#FF7926"/>
      <path d="M46.8828 80.8213V81.407V81.4646H53.1238V81.407V80.8213V80.7637H46.8828V80.8213Z" fill="#FF7926"/>
      <path d="M9.4375 80.8213V81.407V81.4646H15.6785V81.407V80.8213V80.7637H9.4375V80.8213Z" fill="#FF7926"/>
      <path d="M21.9219 80.8213V81.407V81.4646H28.1628V81.407V80.8213V80.7637H21.9219V80.8213Z" fill="#FF7926"/>
      <path d="M34.3984 80.8213V81.407V81.4646H40.6394V81.407V80.8213V80.7637H34.3984V80.8213Z" fill="#FF7926"/>
      <path d="M109.539 80.8213V81.407V81.4646H115.78V81.407V80.8213V80.7637H109.539V80.8213Z" fill="#FF7926"/>
      <path d="M97.0547 80.8213V81.407V81.4646H103.296V81.407V80.8213V80.7637H97.0547V80.8213Z" fill="#FF7926"/>
      <path d="M134.504 80.8213V81.407V81.4646H140.745V81.407V80.8213V80.7637H134.504V80.8213Z" fill="#FF7926"/>
      <path d="M84.5898 80.8213V81.407V81.4646H90.8212V81.407V80.8213V80.7637H84.5898V80.8213Z" fill="#FF7926"/>
      <path d="M72.1055 80.8213V81.407V81.4646H78.3464V81.407V80.8213V80.7637H72.1055V80.8213Z" fill="#FF7926"/>
      <path d="M146.984 80.8213V81.407V81.4646H153.225V81.407V80.8213V80.7637H146.984V80.8213Z" fill="#FF7926"/>
      <path d="M122.027 80.8213V81.407V81.4646H128.268V81.407V80.8213V80.7637H122.027V80.8213Z" fill="#FF7926"/>
      <path d="M62.935 77.8359H62.2821V80.7644H59.3633V80.822V81.4077V81.4653H62.2821V84.3938H62.935V81.4653H65.8635V81.4077V80.822V80.7644H62.935V77.8359Z" fill="#FF7926"/>
      <path d="M62.9381 15.4365H62.2852V21.6775H62.9381V15.4365Z" fill="#FF7926"/>
      <path d="M62.9381 40.4004H62.2852V46.6414H62.9381V40.4004Z" fill="#FF7926"/>
      <path d="M62.9381 52.8721H62.2852V59.113H62.9381V52.8721Z" fill="#FF7926"/>
      <path d="M62.9381 27.918H62.2852V34.1589H62.9381V27.918Z" fill="#FF7926"/>
      <path d="M62.9381 65.3535H62.2852V71.5945H62.9381V65.3535Z" fill="#FF7926"/>
      <path d="M62.9381 2.95508H62.2852V9.19604H62.9381V2.95508Z" fill="#FF7926"/>
      <path d="M222.125 80.8213V81.407V81.4646H228.366V81.407V80.8213V80.7637H222.125V80.8213Z" fill="#FF7926"/>
      <path d="M234.609 80.8213V81.407V81.4646H240.85V81.407V80.8213V80.7637H234.609V80.8213Z" fill="#FF7926"/>
      <path d="M184.695 80.8213V81.407V81.4646H190.936V81.407V80.8213V80.7637H184.695V80.8213Z" fill="#FF7926"/>
      <path d="M247.09 80.8213V81.407V81.4646H253.331V81.407V80.8213V80.7637H247.09V80.8213Z" fill="#FF7926"/>
      <path d="M197.172 80.8213V81.407V81.4646H203.413V81.407V80.8213V80.7637H197.172V80.8213Z" fill="#FF7926"/>
      <path d="M172.211 80.8213V81.407V81.4646H178.452V81.407V80.8213V80.7637H172.211V80.8213Z" fill="#FF7926"/>
      <path d="M209.656 80.8213V81.407V81.4646H215.897V81.407V80.8213V80.7637H209.656V80.8213Z" fill="#FF7926"/>
      <path d="M163.041 77.8359H162.397V80.7644H159.469V80.822V81.4077V81.4653H162.397V84.3938H163.041V81.4653H165.969V81.4077V80.822V80.7644H163.041V77.8359Z" fill="#FF7926"/>
      <path d="M163.051 52.8721H162.398V59.113H163.051V52.8721Z" fill="#FF7926"/>
      <path d="M163.047 40.4004H162.395V46.6414H163.047V40.4004Z" fill="#FF7926"/>
      <path d="M163.047 65.3535H162.395V71.5945H163.047V65.3535Z" fill="#FF7926"/>
      <path d="M163.047 2.95508H162.395V9.19604H163.047V2.95508Z" fill="#FF7926"/>
      <path d="M163.047 27.918H162.395V34.1589H163.047V27.918Z" fill="#FF7926"/>
      <path d="M163.047 15.4365H162.395V21.6775H163.047V15.4365Z" fill="#FF7926"/>
      <path d="M322.242 80.8213V81.407V81.4646H328.483V81.407V80.8213V80.7637H322.242V80.8213Z" fill="#FF7926"/>
      <path d="M309.762 80.8213V81.407V81.4646H316.003V81.407V80.8213V80.7637H309.762V80.8213Z" fill="#FF7926"/>
      <path d="M297.277 80.8213V81.407V81.4646H303.518V81.407V80.8213V80.7637H297.277V80.8213Z" fill="#FF7926"/>
      <path d="M334.715 80.8213V81.407V81.4646H340.956V81.407V80.8213V80.7637H334.715V80.8213Z" fill="#FF7926"/>
      <path d="M272.316 80.8213V81.407V81.4646H278.557V81.407V80.8213V80.7637H272.316V80.8213Z" fill="#FF7926"/>
      <path d="M284.801 80.8213V81.407V81.4646H291.042V81.407V80.8213V80.7637H284.801V80.8213Z" fill="#FF7926"/>
      <path d="M263.146 77.8359H262.503V80.7644H259.574V80.822V81.4077V81.4653H262.503V84.3938H263.146V81.4653H266.074V81.4077V80.822V80.7644H263.146V77.8359Z" fill="#FF7926"/>
      <path d="M263.153 2.95508H262.5V9.19604H263.153V2.95508Z" fill="#FF7926"/>
      <path d="M263.153 15.4365H262.5V21.6775H263.153V15.4365Z" fill="#FF7926"/>
      <path d="M263.153 40.4004H262.5V46.6414H263.153V40.4004Z" fill="#FF7926"/>
      <path d="M263.153 65.3535H262.5V71.5945H263.153V65.3535Z" fill="#FF7926"/>
      <path d="M263.153 27.918H262.5V34.1589H263.153V27.918Z" fill="#FF7926"/>
      <path d="M263.153 52.8721H262.5V59.113H263.153V52.8721Z" fill="#FF7926"/>
    </g>
    <rect x="288.117" y="151.694" width="2.04648" height="12.2789" fill="#FF7926"/>
    <rect x="293.23" y="148.625" width="2.04648" height="12.2789" transform="rotate(-90 293.23 148.625)" fill="#FF7926"/>
    <rect x="288.117" y="131.229" width="2.04648" height="12.2789" fill="#FF7926"/>
    <rect x="272.766" y="148.625" width="2.04648" height="12.2789" transform="rotate(-90 272.766 148.625)" fill="#FF7926"/>
  </g>
  <defs>
    <clipPath id="clip0_19141_17618">
      <path d="M0 3C0 1.34315 1.34315 0 3 0H339C340.657 0 342 1.34315 342 3V197H0V3Z" fill="white"/>
    </clipPath>
  </defs>
</svg>