<svg width="40" height="40" viewBox="0 0 40 40" fill="none" xmlns="http://www.w3.org/2000/svg">
  <g clip-path="url(#clip0_18373_558)">
    <rect width="40" height="40" fill="#211A1D"/>
    <g opacity="0.5">
      <path d="M3.52843 -16.992L3.52665 -16.5233L3.06698 -15.0105L2.69731 -14.564L2.88615 -13.9708C3.20595 -13.8372 3.85687 -13.5645 3.9022 -13.5428C3.94753 -13.5211 3.92496 -13.0201 4.04571 -12.8868C3.8592 -12.5662 3.76279 -12.1443 3.7677 -12.1053C3.77261 -12.0663 4.2807 -11.6355 4.53413 -11.4249L5.48284 -10.9579L6.14841 -10.8971L6.74793 -10.8774L7.98345 -11.273L9.35265 -12.5995L10.3483 -12.8164L10.3922 -13.2828L10.5046 -13.9901L11.056 -15.1678L10.3279 -16.2072L9.84424 -17.6316L9.54192 -19.216L8.69557 -20.1986L8.10785 -20.1245L7.45662 -19.136L7.27227 -18.3054L6.82632 -17.8607L5.80376 -17.8576L5.22414 -17.6588L4.82276 -17.5245L4.28018 -17.6656L3.84489 -17.3175L3.52843 -16.992Z" fill="#4D2D1F"/>
      <path d="M10.1324 -8.6726L9.82395 -11.1209L11.2206 -12.3264L12.002 -14.3799L11.5026 -15.8671L10.5161 -17.9176L11.3736 -19.3675L12.5525 -18.1742L14.2185 -18.8931L14.456 -20.2186L14.258 -21.7901L15.1914 -22.6365L16.9081 -21.3027L18.3822 -19.4177L20.4511 -18.4985L23.1928 -18.8439L25.3507 -19.7868L27.2592 -18.5813L25.1984 -16.0427L24.0451 -12.0799L22.8142 -8.82454L19.4457 -6.84997L16.1921 -6.44001L13.4442 -5.3187L11.5278 -3.37671L10.2664 0.553436L7.22426 1.81593L8.03831 -1.53728L8.22218 -5.03087L8.84427 -7.06427L10.1324 -8.6726Z" fill="#4D2D1F"/>
      <path d="M13.7817 -3.99938L13.2315 -2.98995L13.8983 -3.07397L14.6152 -3.87229L15.7417 -4.75702L14.5231 -4.60347L13.7817 -3.99938Z" fill="#4D2D1F"/>
      <path d="M20.1464 -6.18964L17.4291 -5.55716L20.2846 -5.09313L22.7759 -6.23088L22.9716 -7.62474L20.1464 -6.18964Z" fill="#4D2D1F"/>
      <path d="M0.893181 -5.85502L1.105 -5.7805L2.07664 -5.70049L7.17017 -6.64595L8.65317 -7.99681L9.40733 -9.50887L9.28387 -10.4886L8.35395 -10.3714L5.88766 -10.3981L3.57211 -11.2365L1.47163 -12.9119L0.942253 -17.1131L2.11223 -18.0028L2.98343 -18.7199L3.6738 -19.6672L3.09166 -20.5386L1.18787 -20.6529L-1.62439 -19.9443L-4.21489 -19.6179L-7.39733 -19.5712L-12.6441 -20.3777L-15.8397 -23.1127L-21.7127 -25.2743L-26.3826 -26.3222L-28.76 -26.7143L-30.9711 -26.8574L-32.0148 -26.3041L-32.595 -25.2863L-30.5338 -23.3868L-28.6715 -21.1922L-28.479 -19.6645L-29.2442 -18.7752L-31.7937 -16.9188L-31.4923 -16.5351L-29.2543 -16.4459L-27.9719 -16.9787L-27.2936 -17.4859L-27.1952 -16.7054L-27.3498 -15.5219L-27.6497 -14.4214L-27.5622 -14.1287L-26.6152 -15.8507L-25.9498 -16.8623L-25.9226 -16.6465L-25.0825 -17.3427L-25.0197 -16.8446L-25.8891 -16.3808L-26.5712 -15.502L-27.5681 -13.7737L-28.6443 -8.39174L-30.7798 -7.66718L-31.3754 -7.44031L-30.1195 -4.36806L-29.2543 -2.81044L-28.1449 -4.50162H-27.8066L-27.1302 -4.67074L-22.7331 -5.85457L-21.0419 -6.02369L-21.3802 -5.85457L-22.9022 -5.68545L-27.7221 -4.24795L-28.314 -3.82515L-28.8636 -1.2958L-31.2733 5.55317L-34.0532 7.45545L-35.111 8.43221L-34.621 10.5804L-33.4883 11.939L-32.2504 12.5253L-30.0086 12.2428L-28.3903 11.2966L-26.236 10.7215L-25.2529 9.82167L-24.2258 9.27052L-23.8348 9.96351L-25.1566 10.5855L-26.4699 11.4089L-28.9126 12.1047L-27.1562 12.2545L-25.3628 12.0285L-19.6791 7.46614L-12.9242 5.66154L-14.2772 2.2631L-14.3618 1.50207L-16.814 2.2631V2.09399L-14.7845 1.41751L-14.3618 0.91016L-14.6154 -0.442785L-16.6448 -1.28838L-17.1522 -1.62662L-14.4463 -0.611904L-14.2772 -0.273668L-12.9242 -1.28838L-12.7551 -2.4722L-12.586 -2.30309L-12.7551 -1.11926L-13.2625 -0.781025L-14.1081 -0.104549V0.402805L-13.6007 2.43222L-11.4022 5.59167L-4.56097 8.29405L1.21339 7.2628L3.02432 5.83689L2.73557 3.54528L1.71759 0.687662L0.893181 -5.85502Z" fill="#4D2D1F"/>
      <path d="M4.55904 -5.4624L1.41946 -5.25254C1.48707 -4.91038 1.64165 -4.18711 1.71917 -4.03126C1.81606 -3.83644 2.49299 -3.7475 2.65105 -3.89226C2.80912 -4.03702 4.08836 -3.97156 4.28764 -4.00166C4.44707 -4.02574 5.11711 -3.80549 5.43221 -3.69236C5.62671 -3.45933 6.03665 -2.98126 6.12038 -2.93318C6.20412 -2.8851 6.74982 -2.71805 7.01221 -2.64053L6.9352 -3.79282C6.92626 -3.92642 7.13029 -4.38738 7.23342 -4.60116C7.28087 -4.89509 7.38022 -5.51679 7.39801 -5.65218C7.41579 -5.78756 6.99492 -5.99427 6.78226 -6.0807L4.55904 -5.4624Z" fill="#4D2D1F"/>
      <path d="M-61.0829 -6.91743L-64.1162 -6.0806C-63.9812 -5.75903 -63.6843 -5.08161 -63.577 -4.94452C-63.4429 -4.77317 -62.762 -4.82214 -62.6362 -4.99573C-62.5105 -5.16932 -61.2442 -5.3624 -61.0551 -5.43195C-60.9037 -5.48759 -60.2031 -5.40656 -59.8717 -5.35909C-59.6343 -5.16994 -59.1366 -4.78406 -59.0449 -4.75379C-58.9532 -4.72353 -58.3851 -4.66961 -58.1125 -4.64643L-58.4196 -5.75971C-58.4552 -5.88878 -58.348 -6.38135 -58.29 -6.6115C-58.3026 -6.90896 -58.3303 -7.53795 -58.3401 -7.67414C-58.3499 -7.81034 -58.8037 -7.9282 -59.0294 -7.97011L-61.0829 -6.91743Z" fill="#4D2D1F"/>
      <path d="M-32.8407 -23.889C-30.6698 -23.5822 -30.0902 -21.2496 -30.0718 -20.1217L-33.3114 -17.0481L-34.2812 -15.239L-28.9839 -15.9065C-27.9969 -16.0308 -28.0077 -15.3435 -28.3626 -15.2594L-29.4918 -8.82478L-32.0518 -7.05144L-29.9595 -1.02277L-31.0307 1.0522L-33.5826 4.7645L-39.8457 7.00445L-42.6119 8.07839L-46.4521 6.38611L-49.7026 2.67954L-54.0213 2.00912L-56.2363 -2.18218L-56.7908 -6.58271L-58.6249 -9.62429L-62.4098 -7.93278L-64.7026 -8.85847L-65.8488 -11.2613L-65.2278 -13.0265L-66.2087 -14.1175L-67.4862 -12.742L-68.798 -12.5767L-68.9487 -13.7723L-66.3887 -15.5456L-70.963 -14.3619L-70.301 -16.7396L-61.2393 -18.8598L-53.6547 -21.9917L-41.5746 -24.1211C-39.5679 -24.1716 -35.0117 -24.1957 -32.8407 -23.889Z" fill="#4D2D1F"/>
      <path d="M-47.899 6.4168L-51.0593 3.55922L-54.8319 5.21544L-55.3716 7.35838L-53.8862 8.43643L-49.0405 8.7368L-46.9338 10.4619L-42.8621 9.03794L-46.2009 8.37901L-47.899 6.4168Z" fill="#4D2D1F"/>
      <path d="M-57.8804 0.0325928L-57.8597 -2.0787L-56.8921 -1.89697L-56.181 -0.805708L-55.9843 0.755238L-57.1467 0.901705L-57.8804 0.0325928Z" fill="#4D2D1F"/>
      <path d="M-56.1717 1.65931L-55.9558 1.2546L-55.0836 1.19906L-54.6964 1.41751L-54.5273 1.92487L-55.3729 2.09399L-56.1717 1.65931Z" fill="#4D2D1F"/>
      <path d="M-41.9658 9.10051L-41.7499 8.6958L-40.8777 8.64027L-40.326 8.78215L-40.2908 9.0616L-41.2302 9.75551L-41.9658 9.10051Z" fill="#4D2D1F"/>
      <path d="M-38.1029 18.9803L-37.2311 17.3461L-33.7093 17.1218L-31.4818 17.6948L-31.3396 18.8232L-35.1326 21.6252L-38.1029 18.9803Z" fill="#4D2D1F"/>
      <path d="M-40.1908 -25.0543L-44.143 -24.5563L-44.3376 -26.1007L-40.9409 -27.7939L-36.7732 -26.5815L-37.1077 -24.8187L-40.1908 -25.0543Z" fill="#4D2D1F"/>
      <path d="M-35.8293 -27.2572L-36.1553 -25.293L-33.3797 -25.221L-33.0817 -26.2032L-32.6757 -27.1316L-30.5984 -27.9163L-30.9559 -28.3436L-31.654 -28.9304L-34.2777 -28.5998L-35.8293 -27.2572Z" fill="#4D2D1F"/>
      <path d="M6.71516 7.34153L7.04123 5.37733L4.26557 5.30534L3.96759 6.28757L3.56162 7.21594L1.48434 8.00064L1.84183 8.42794L2.53994 9.01475L5.16366 8.68415L6.71516 7.34153Z" fill="#4D2D1F"/>
      <path d="M15.1711 27.2974L14.8111 26.2434L13.6273 26.1091L12.6126 26.6165L11.767 26.9547L10.5832 27.6312L10.2978 28.3838L10.9959 28.9706L13.6196 28.64L15.1711 27.2974Z" fill="#4D2D1F"/>
      <path d="M8.89201 29.8297L9.06113 28.9841H8.20781L7.36994 29.3223L6.69347 29.4915L5.17142 29.6606L4.88598 30.4132L5.58409 31L8.04642 30.3371L8.89201 29.8297Z" fill="#4D2D1F"/>
      <path d="M1.95816 29.8297L3.98758 30.3371L2.46552 30.6753H1.11256L1.95816 29.8297Z" fill="#4D2D1F"/>
      <path d="M-0.747734 29.6606L0.0978546 30.3371H-1.4242L-2.43891 30.6753V29.8297L-0.747734 29.6606Z" fill="#4D2D1F"/>
      <path d="M-4.80657 28.9841L-3.45362 29.4915L-4.63745 29.6606L-5.48304 29.9988L-5.31393 29.3223L-4.80657 28.9841Z" fill="#4D2D1F"/>
      <path d="M-26.9025 -27.2351L-28.9934 -27.6295L-27.8438 -28.1455L-26.3033 -27.9685L-26.9025 -27.2351Z" fill="#4D2D1F"/>
      <path d="M-71.082 -3.99969L-64.9221 -3.60811L-64.1909 -2.66775L-65.4513 -1.45779L-65.591 -0.170412L-65.0999 1.12906L-62.7649 1.1054L-60.9568 2.62284L-63.5401 3.59917L-66.1177 2.98092L-66.9788 3.30636L-66.4521 4.69976C-65.9067 5.27494 -64.7508 6.5975 -64.4904 7.28638C-64.2301 7.97525 -64.7115 8.4375 -64.9847 8.58251L-66.1589 9.0263L-68.683 7.88683L-69.4581 5.83586L-71.2842 4.93358L-73.0532 4.13498L-74.5946 1.99783L-75.4881 -0.366261L-76.7965 -1.83993L-76.8668 -4.01416L-77 -6.30774L-74.6593 -7.92598L-71.082 -3.99969Z" fill="#4D2D1F"/>
      <path d="M31.723 12.9179L33.1665 16.6864L33.8976 17.6267L32.6372 18.8367L32.4976 20.1241L32.9887 21.4235L35.3237 21.3999L35.7227 23.065V23.4498L34.5485 23.8936L33.8976 25.228H33.5981L33.8976 26.1303C34.443 26.7055 33.3378 26.892 33.5981 27.5808C33.8585 28.2697 33.3771 28.732 33.1039 28.877L31.9297 29.3208L29.4056 28.1813L28.6304 26.1303L26.8043 25.228L25.1274 26.1303L23.4292 27.5808L21.7451 28.1813L20.0539 28.4767L18.7009 28.6459L17.348 28.1813L16.3333 26.4473L16.5024 24.9253L16.8406 23.065L17.8553 22.2194L18.87 21.3999L21.2921 18.4545L21.2218 16.2803L21.0886 13.9867L23.4292 12.3685L31.723 12.9179Z" fill="#4D2D1F"/>
      <path d="M-62.7058 8.07896L-64.4985 4.94536L-62.7763 4.29448L-60.9659 5.20267L-59.3711 6.8186L-58.3533 9.51147L-61.1401 10.5647L-62.7058 8.07896Z" fill="#4D2D1F"/>
      <path d="M-8.42757 -26.4084L-10.606 -29.2379L-10.765 -30.4999L-6.79623 -31L-4.52511 -28.9076L-2.0707 -28.3059L2.97746 -28.942L4.90689 -28.0886L3.24947 -26.7832L1.94077 -25.5218L-1.66268 -25.0678L-4.6881 -25.7831L-8.42757 -26.4084Z" fill="#4D2D1F"/>
      <path d="M-9.71098 11.776L-16.4757 8.85884L-12.586 8.85905L-11.3392 7.83332H-10.7952L-6.15949 8.85905L-4.43833 10.2533L0.609825 9.61724L1.45083 13.4915L-0.834877 13.4915L-2.60801 14.1017H-4.97566L-7.05573 12.7762L-9.71098 11.776Z" fill="#4D2D1F"/>
      <path d="M-3.54943 -22.6369L-5.93416 -24.1583L-4.0071 -23.5914L-2.52459 -23.3396L-0.930435 -23.5405L0.153664 -23.1035L2.5615 -23.4069L3.07156 -24.0447L5.16862 -23.7354L5.58692 -22.6916L2.5615 -23.4069L0.153664 -23.1035L-3.54943 -22.6369Z" fill="#4D2D1F"/>
      <path d="M-53.9664 -23.2627L-51.1482 -23.8775L-52.324 -24.9789L-55.8685 -24.5649L-56.6469 -24.6783L-57.3975 -23.2627L-56.6469 -22.0577L-53.9664 -23.2627Z" fill="#4D2D1F"/>
      <path d="M-45.3691 -27.441L-44.164 -27.759L-44.3816 -28.1607L-44.7498 -28.6963V-29.2319H-45.3691L-46.5909 -28.3783L-45.3691 -27.441Z" fill="#4D2D1F"/>
    </g>
    <rect x="20.0938" y="22.125" width="0.81249" height="4.87494" fill="#FF7926"/>
    <rect x="22.125" y="20.9062" width="0.81249" height="4.87494" transform="rotate(-90 22.125 20.9062)" fill="#FF7926"/>
    <rect x="20.0938" y="14" width="0.81249" height="4.87494" fill="#FF7926"/>
    <rect x="14" y="20.9062" width="0.81249" height="4.87494" transform="rotate(-90 14 20.9062)" fill="#FF7926"/>
  </g>
  <rect x="0.5" y="0.5" width="39" height="39" stroke="#FF7926" stroke-opacity="0.4"/>
  <defs>
    <clipPath id="clip0_18373_558">
      <rect width="40" height="40" fill="white"/>
    </clipPath>
  </defs>
</svg>