<svg width="40" height="40" viewBox="0 0 40 40" fill="none" xmlns="http://www.w3.org/2000/svg">
  <g clip-path="url(#clip0_18373_487)">
    <rect width="40" height="40" fill="#211A1D"/>
    <g opacity="0.5">
      <path d="M66.8388 11.9746L66.8373 12.3753L66.4443 13.6684L66.1283 14.0501L66.2898 14.5572C66.5631 14.6714 67.1196 14.9045 67.1583 14.9231C67.1971 14.9416 67.1778 15.3699 67.281 15.4839C67.1216 15.7579 67.0392 16.1186 67.0434 16.1519C67.0476 16.1853 67.4819 16.5536 67.6985 16.7335L68.5095 17.1327L69.0785 17.1848L69.591 17.2016L70.6471 16.8634L71.8176 15.7294L72.6687 15.544L72.7062 15.1454L72.8023 14.5407L73.2736 13.5339L72.6513 12.6454L72.2378 11.4278L71.9794 10.0734L71.2559 9.23347L70.7535 9.29678L70.1968 10.1418L70.0392 10.8518L69.658 11.232L68.7839 11.2347L68.2884 11.4045L67.9453 11.5194L67.4814 11.3988L67.1093 11.6963L66.8388 11.9746Z" fill="#4D2D1F"/>
      <path d="M72.4842 19.0863L72.2205 16.9935L73.4144 15.9629L74.0824 14.2075L73.6554 12.9362L72.8122 11.1834L73.5451 9.94389L74.5529 10.964L75.9771 10.3494L76.1801 9.21632L76.0108 7.87298L76.8088 7.14944L78.2763 8.28964L79.5364 9.90097L81.305 10.6868L83.6487 10.3915L85.4933 9.58548L87.1248 10.616L85.3631 12.7861L84.3772 16.1736L83.325 18.9564L80.4455 20.6444L77.6642 20.9948L75.3152 21.9534L73.677 23.6135L72.5987 26.9731L69.9982 28.0523L70.694 25.1859L70.8512 22.1994L71.383 20.4612L72.4842 19.0863Z" fill="#4D2D1F"/>
      <path d="M75.6037 23.0812L75.1334 23.9441L75.7034 23.8722L76.3163 23.1898L77.2792 22.4335L76.2375 22.5648L75.6037 23.0812Z" fill="#4D2D1F"/>
      <path d="M81.0445 21.2089L78.7216 21.7495L81.1626 22.1462L83.2923 21.1736L83.4596 19.9821L81.0445 21.2089Z" fill="#4D2D1F"/>
      <path d="M64.5861 21.4949L64.7672 21.5586L65.5978 21.627L69.9519 20.8188L71.2196 19.664L71.8643 18.3715L71.7588 17.5339L70.9639 17.6341L68.8556 17.6113L66.8762 16.8946L65.0806 15.4624L64.6281 11.871L65.6282 11.1105L66.3729 10.4975L66.9631 9.6877L66.4654 8.94285L64.838 8.84508L62.434 9.45083L60.2195 9.72986L57.4991 9.76982L53.0139 9.08037L50.2822 6.74234L45.2617 4.89458L41.2697 3.99879L39.2374 3.66362L37.3473 3.54127L36.4551 4.0142L35.9591 4.88426L37.7211 6.50808L39.313 8.38407L39.4776 9.69003L38.8235 10.4502L36.6441 12.0371L36.9017 12.3652L38.8148 12.4414L39.9111 11.986L40.491 11.5524L40.5751 12.2196L40.4429 13.2312L40.1866 14.1721L40.2613 14.4222L41.0709 12.9502L41.6397 12.0854L41.6629 12.27L42.3811 11.6747L42.4347 12.1006L41.6916 12.4971L41.1085 13.2483L40.2563 14.7257L39.3363 19.3264L37.5108 19.9458L37.0017 20.1397L38.0753 22.766L38.8148 24.0975L39.7632 22.6518H40.0524L40.6307 22.5073L44.3894 21.4953L45.8351 21.3507L45.546 21.4953L44.2449 21.6399L40.1247 22.8687L39.6187 23.2301L39.1488 25.3923L37.089 31.2471L34.7126 32.8732L33.8083 33.7082L34.2272 35.5445L35.1955 36.7059L36.2537 37.2071L38.17 36.9656L39.5535 36.1568L41.395 35.6652L42.2355 34.8959L43.1134 34.4248L43.4476 35.0172L42.3177 35.5489L41.1951 36.2528L39.1069 36.8476L40.6084 36.9756L42.1415 36.7825L47.0001 32.8823L52.7744 31.3397L51.6179 28.4346L51.5456 27.784L49.4493 28.4346V28.29L51.1842 27.7117L51.5456 27.278L51.3287 26.1215L49.5939 25.3986L49.1602 25.1095L51.4733 25.9769L51.6179 26.2661L52.7744 25.3986L52.919 24.3867L53.0636 24.5312L52.919 25.5432L52.4853 25.8323L51.7625 26.4106V26.8443L52.1962 28.5792L54.0756 31.28L59.9237 33.5901L64.8598 32.7085L66.4079 31.4896L66.161 29.5306L65.2908 27.0878L64.5861 21.4949Z" fill="#4D2D1F"/>
      <path d="M67.7198 21.8305L65.036 22.0099C65.0938 22.3024 65.2259 22.9207 65.2922 23.0539C65.375 23.2205 65.9537 23.2965 66.0888 23.1727C66.2239 23.049 67.3175 23.105 67.4878 23.0792C67.6241 23.0586 68.1969 23.2469 68.4662 23.3436C68.6325 23.5428 68.9829 23.9515 69.0545 23.9926C69.1261 24.0337 69.5926 24.1765 69.8169 24.2428L69.751 23.2577C69.7434 23.1435 69.9178 22.7495 70.006 22.5668C70.0465 22.3155 70.1315 21.784 70.1467 21.6683C70.1619 21.5526 69.8021 21.3759 69.6203 21.302L67.7198 21.8305Z" fill="#4D2D1F"/>
      <path d="M11.6065 20.5867L9.01359 21.3021C9.12901 21.577 9.38277 22.156 9.47447 22.2732C9.58909 22.4197 10.1712 22.3778 10.2787 22.2295C10.3862 22.0811 11.4686 21.916 11.6303 21.8566C11.7597 21.809 12.3586 21.8783 12.6419 21.9188C12.8449 22.0805 13.2703 22.4104 13.3487 22.4363C13.4271 22.4621 13.9128 22.5082 14.1458 22.528L13.8833 21.5764C13.8528 21.466 13.9444 21.045 13.994 20.8482C13.9833 20.594 13.9596 20.0563 13.9512 19.9398C13.9429 19.8234 13.5549 19.7227 13.362 19.6868L11.6065 20.5867Z" fill="#4D2D1F"/>
      <path d="M35.7491 6.07879C37.6049 6.34102 38.1003 8.33498 38.1161 9.29918L35.3467 11.9266L34.5177 13.4731L39.046 12.9025C39.8898 12.7962 39.8805 13.3838 39.5771 13.4557L38.6119 18.9562L36.4235 20.4722L38.2121 25.6257L37.2963 27.3995L35.1149 30.5729L29.761 32.4877L27.3963 33.4057L24.1136 31.9591L21.3349 28.7906L17.6431 28.2175L15.7496 24.6346L15.2756 20.8728L13.7078 18.2728L10.4723 19.7188L8.51231 18.9274L7.53246 16.8734L8.06336 15.3644L7.22481 14.4318L6.1328 15.6077L5.01137 15.749L4.88259 14.7269L7.07098 13.211L3.1607 14.2229L3.72657 12.1903L11.4728 10.3779L17.9564 7.70065L28.283 5.88032C29.9984 5.83721 33.8933 5.81656 35.7491 6.07879Z" fill="#4D2D1F"/>
      <path d="M22.8767 31.9853L20.1751 29.5426L16.9502 30.9584L16.4888 32.7902L17.7586 33.7118L21.9008 33.9686L23.7018 35.4433L27.1824 34.226L24.3282 33.6627L22.8767 31.9853Z" fill="#4D2D1F"/>
      <path d="M14.3441 26.5279L14.3619 24.723L15.189 24.8784L15.7969 25.8112L15.965 27.1456L14.9713 27.2708L14.3441 26.5279Z" fill="#4D2D1F"/>
      <path d="M15.8048 27.9184L15.9894 27.5725L16.735 27.525L17.0659 27.7117L17.2105 28.1455L16.4877 28.29L15.8048 27.9184Z" fill="#4D2D1F"/>
      <path d="M27.9486 34.2795L28.1332 33.9335L28.8787 33.886L29.3503 34.0073L29.3804 34.2462L28.5774 34.8394L27.9486 34.2795Z" fill="#4D2D1F"/>
      <path d="M31.2507 42.7251L31.996 41.3281L35.0065 41.1364L36.9108 41.6262L37.0323 42.5908L33.7899 44.986L31.2507 42.7251Z" fill="#4D2D1F"/>
      <path d="M29.4659 5.08258L26.0874 5.50828L25.9211 4.18812L28.8247 2.7407L32.3874 3.77711L32.1014 5.28406L29.4659 5.08258Z" fill="#4D2D1F"/>
      <path d="M33.1943 3.19949L32.9156 4.87857L35.2884 4.94011L35.5431 4.10046L35.8901 3.30685L37.6659 2.63606L37.3603 2.27079L36.7635 1.76916L34.5206 2.05177L33.1943 3.19949Z" fill="#4D2D1F"/>
      <path d="M69.563 32.7758L69.8417 31.0967L67.4689 31.0352L67.2142 31.8749L66.8672 32.6685L65.0914 33.3393L65.397 33.7045L65.9938 34.2062L68.2367 33.9235L69.563 32.7758Z" fill="#4D2D1F"/>
      <path d="M76.7914 49.8348L76.4837 48.9339L75.4717 48.8191L74.6043 49.2528L73.8815 49.5419L72.8695 50.1202L72.6255 50.7635L73.2223 51.2652L75.4651 50.9826L76.7914 49.8348Z" fill="#4D2D1F"/>
      <path d="M71.4238 51.9996L71.5684 51.2767H70.8389L70.1227 51.5659L69.5444 51.7104L68.2433 51.855L67.9993 52.4984L68.5961 53L70.701 52.4333L71.4238 51.9996Z" fill="#4D2D1F"/>
      <path d="M65.4965 51.9996L67.2313 52.4333L65.9302 52.7224H64.7736L65.4965 51.9996Z" fill="#4D2D1F"/>
      <path d="M63.1834 51.855L63.9062 52.4333H62.6051L61.7377 52.7224V51.9996L63.1834 51.855Z" fill="#4D2D1F"/>
      <path d="M59.7137 51.2767L60.8703 51.7104L59.8583 51.855L59.1355 52.1441L59.28 51.5659L59.7137 51.2767Z" fill="#4D2D1F"/>
      <path d="M40.8253 3.2184L39.0379 2.88121L40.0206 2.44013L41.3375 2.59145L40.8253 3.2184Z" fill="#4D2D1F"/>
      <path d="M3.05895 23.0809L8.32468 23.4156L8.94969 24.2195L7.87226 25.2538L7.75285 26.3543L8.17268 27.4652L10.1687 27.4449L11.7144 28.7421L9.50606 29.5767L7.30264 29.0482L6.56654 29.3264L7.01672 30.5175C7.48296 31.0092 8.47109 32.1398 8.69365 32.7287C8.91621 33.3176 8.50473 33.7127 8.27116 33.8367L7.2674 34.216L5.10971 33.242L4.44708 31.4887L2.88606 30.7174L1.37384 30.0347L0.0562596 28.2078L-0.707532 26.1869L-1.82605 24.9272L-1.8861 23.0685L-2 21.1079L0.000900507 19.7246L3.05895 23.0809Z" fill="#4D2D1F"/>
      <path d="M90.9407 37.5428L92.1746 40.7641L92.7996 41.568L91.7222 42.6023L91.6027 43.7028L92.0226 44.8137L94.0186 44.7934L94.3597 46.2169V46.5458L93.356 46.9252L92.7996 48.0659H92.5435L92.7996 48.8372C93.2658 49.3289 92.321 49.4883 92.5435 50.0772C92.7661 50.666 92.3546 51.0612 92.1211 51.1852L91.1173 51.5645L88.9596 50.5905L88.297 48.8372L86.736 48.0659L85.3025 48.8372L83.8508 50.0772L82.4111 50.5904L80.9654 50.843L79.8089 50.9876L78.6523 50.5904L77.7849 49.1082L77.9295 47.8071L78.2186 46.2169L79.086 45.494L79.9534 44.7934L82.0239 42.2757L81.9638 40.417L81.8499 38.4564L83.8508 37.0731L90.9407 37.5428Z" fill="#4D2D1F"/>
      <path d="M10.2192 33.4062L8.68676 30.7275L10.159 30.1711L11.7066 30.9474L13.0699 32.3288L13.9399 34.6308L11.5576 35.5311L10.2192 33.4062Z" fill="#4D2D1F"/>
      <path d="M56.6184 3.92509L54.7562 1.50633L54.6202 0.427491L58.0129 0L59.9543 1.78868L62.0525 2.30303L66.3678 1.75927L68.0172 2.48879L66.6003 3.60466L65.4816 4.68297L62.4013 5.07111L59.815 4.45964L56.6184 3.92509Z" fill="#4D2D1F"/>
      <path d="M55.5213 36.5666L49.7385 34.0729L53.0636 34.0731L54.1294 33.1962H54.5944L58.5572 34.0731L60.0285 35.2649L64.3439 34.7212L65.0628 38.033L63.1089 38.033L61.5932 38.5547H59.5692L57.7911 37.4216L55.5213 36.5666Z" fill="#4D2D1F"/>
      <path d="M60.7884 7.1491L58.7498 5.84854L60.3972 6.33316L61.6645 6.54841L63.0272 6.3767L63.9539 6.75023L66.0123 6.49087L66.4483 5.94563L68.2409 6.21005L68.5985 7.10234L66.0123 6.49087L63.9539 6.75023L60.7884 7.1491Z" fill="#4D2D1F"/>
      <path d="M17.6901 6.61411L20.0991 6.08863L19.094 5.14703L16.0641 5.50098L15.3986 5.40406L14.757 6.61412L15.3986 7.64425L17.6901 6.61411Z" fill="#4D2D1F"/>
      <path d="M25.0393 3.04238L26.0695 2.77054L25.8835 2.42716L25.5687 1.96932V1.51148H25.0393L23.9949 2.24116L25.0393 3.04238Z" fill="#4D2D1F"/>
    </g>
    <rect x="13.0938" y="15.125" width="0.81249" height="4.87494" fill="#FF7926"/>
    <rect x="15.125" y="13.9062" width="0.81249" height="4.87494" transform="rotate(-90 15.125 13.9062)" fill="#FF7926"/>
    <rect x="13.0938" y="7" width="0.81249" height="4.87494" fill="#FF7926"/>
    <rect x="7" y="13.9062" width="0.81249" height="4.87494" transform="rotate(-90 7 13.9062)" fill="#FF7926"/>
  </g>
  <rect x="0.5" y="0.5" width="39" height="39" stroke="#FF7926" stroke-opacity="0.4"/>
  <defs>
    <clipPath id="clip0_18373_487">
      <rect width="40" height="40" fill="white"/>
    </clipPath>
  </defs>
</svg>