<svg width="190" height="190" viewBox="0 0 190 190" fill="none" xmlns="http://www.w3.org/2000/svg">
  <mask id="mask0_247_10060" style="mask-type:alpha" maskUnits="userSpaceOnUse" x="0" y="0" width="190" height="190">
    <rect width="190" height="190" fill="url(#paint0_radial_247_10060)"/>
  </mask>
  <g mask="url(#mask0_247_10060)">
    <path d="M24.8261 285.204C24.8261 285.204 24.7992 285.204 24.7925 285.204C24.5771 285.183 24.4156 284.988 24.4358 284.773C26.1114 266.61 32.6254 253.354 44.3344 244.242C56.3799 234.868 69.0176 225.844 81.2313 217.116C84.2191 214.983 87.2002 212.85 90.1813 210.717C92.9403 208.738 96.2309 206.921 100.248 205.165C105.336 202.944 110.43 204.149 114.299 205.441C116.224 206.087 118.128 206.841 119.972 207.567C123.424 208.933 126.997 210.346 130.779 211.073C136.937 212.251 142.421 212.311 147.549 211.262C156.977 209.33 165.058 206.41 172.266 202.339C173.746 201.504 175.159 200.495 176.37 199.613C178.335 198.18 179.432 196.43 179.641 194.398C179.903 191.881 178.726 189.035 176.33 186.39L175.186 185.125C171.835 181.424 168.369 177.602 165.334 173.551C163.517 171.128 161.963 168.147 160.435 164.177C158.363 158.793 160.476 153.861 162.515 149.096L162.818 148.39C163.74 146.223 164.756 144.049 165.738 141.95C168.45 136.136 171.256 130.126 172.414 123.626C172.871 121.069 173.288 118.565 173.423 116.082C173.564 113.431 173.645 110.732 173.726 108.121C173.834 104.622 173.941 101.008 174.197 97.4554C174.547 92.6102 177.117 89.0303 181.626 87.1057C183.167 86.4462 184.715 85.7935 186.263 85.1407C190.529 83.344 194.937 81.4867 199.19 79.4948C210.205 74.3267 218.758 67.1734 225.326 57.6245C230.871 49.5762 238.018 42.8267 244.922 36.73C250.864 31.4878 254.707 24.5095 256.355 16.0104C257.842 8.31875 257.708 0.465625 257.573 -7.12505C257.54 -8.93524 257.506 -10.7522 257.499 -12.5623C257.479 -16.1289 256.234 -19.8771 255.157 -22.7438C252.991 -28.5108 246.988 -31.3237 240.884 -29.4328C234.707 -27.5216 229.33 -25.052 224.438 -21.8757C217.164 -17.1585 209.997 -14.3456 202.527 -13.2689C200.825 -13.0267 199.075 -13.0872 197.379 -13.1478C196.229 -13.1882 195.038 -13.2285 193.88 -13.1747C186.014 -12.7979 176.976 -11.9769 169.258 -7.01738C165.341 -4.50061 162.084 -2.13862 159.305 0.196456C147.455 10.1626 138.659 20.5998 132.421 32.1069C129.723 37.0799 126.116 42.4633 119.804 44.6706C115.457 46.1847 111.035 47.3556 106.648 48.1429C95.3629 50.1751 86.7426 56.6622 80.2892 67.9675C76.2583 75.0265 74.7711 81.7222 75.7402 88.4381C76.2718 92.1459 78.2906 95.8269 79.7576 98.2696C80.5045 99.5078 81.3053 100.753 82.0792 101.957C84.7911 106.17 87.5972 110.524 88.6739 115.699C89.3267 118.834 90.1544 122.96 90.7264 127.111C91.157 130.247 91.5945 133.403 91.3858 136.499C91.3118 137.596 91.2445 138.699 91.1772 139.803C90.8542 145.133 90.5178 150.651 89.2392 155.852C87.4963 162.945 82.0725 168.712 75.0807 170.899C68.1899 173.059 60.976 171.417 55.3032 166.404C50.9964 162.595 46.757 158.578 42.6521 154.688C39.7854 151.97 36.8178 149.163 33.8569 146.452C29.9606 142.885 25.6807 139.164 20.7683 135.079C13.541 129.07 4.69196 125.934 -3.86774 122.906C-4.69545 122.61 -5.52314 122.32 -6.35758 122.024C-7.71017 121.54 -9.06276 121.055 -10.4154 120.564C-14.8365 118.969 -19.4125 117.32 -23.948 115.833C-35.8455 111.93 -41.8817 115.847 -47.2786 122.939C-53.8599 131.586 -57.0698 141.822 -56.8141 153.369C-56.6727 159.722 -54.3242 165.825 -50.0174 171.014C-46.4307 175.334 -42.6421 179.607 -38.9813 183.739C-36.0541 187.036 -33.0259 190.448 -30.1188 193.866C-28.2683 196.047 -26.8349 198.664 -25.5698 201.168C-22.6022 207.022 -25.6909 211.706 -29.1027 215.999C-32.0434 219.7 -35.0783 222.735 -38.1267 225.023C-45.7779 230.757 -49.331 238.576 -49.3041 249.619C-49.2772 260.615 -50.6298 272.095 -53.4427 284.719C-53.4898 284.934 -53.7051 285.069 -53.9137 285.022C-54.129 284.975 -54.2636 284.766 -54.2165 284.551C-51.4171 271.987 -50.0645 260.561 -50.0982 249.626C-50.1251 238.307 -46.4778 230.285 -38.6045 224.391C-35.61 222.15 -32.6221 219.162 -29.7218 215.508C-26.3369 211.241 -23.5174 206.962 -26.2764 201.524C-27.5213 199.068 -28.921 196.498 -30.7245 194.385C-33.6248 190.973 -36.6463 187.561 -39.5735 184.264C-43.241 180.125 -47.0363 175.845 -50.6298 171.518C-55.051 166.189 -57.4668 159.917 -57.6081 153.383C-57.8638 141.654 -54.6068 131.243 -47.9111 122.455C-42.3056 115.093 -36.0474 111.022 -23.7058 115.079C-19.1567 116.573 -14.5808 118.222 -10.1462 119.817C-8.7936 120.301 -7.44774 120.793 -6.09514 121.27C-5.26744 121.567 -4.43973 121.856 -3.61202 122.152C5.00824 125.2 13.9246 128.356 21.2663 134.46C26.1854 138.551 30.4787 142.286 34.3818 145.859C37.3494 148.578 40.317 151.391 43.1837 154.11C47.2819 157.992 51.5213 162.01 55.8146 165.805C61.2721 170.63 68.2033 172.211 74.8317 170.139C81.561 168.033 86.783 162.488 88.4586 155.657C89.717 150.523 90.0534 145.045 90.3764 139.742C90.4437 138.639 90.511 137.535 90.5851 136.432C90.7937 133.424 90.363 130.301 89.9458 127.286C89.367 123.087 88.5461 118.969 87.8933 115.853C86.8435 110.82 84.0778 106.533 81.4062 102.381C80.6324 101.177 79.8249 99.925 79.0712 98.6734C77.5705 96.1701 75.5046 92.4016 74.9461 88.5525C73.9502 81.6549 75.471 74.791 79.5893 67.5772C86.1639 56.0566 94.9658 49.4416 106.5 47.369C110.847 46.5884 115.235 45.431 119.535 43.9303C125.591 41.8173 129.09 36.5819 131.721 31.7368C138.007 20.1422 146.862 9.63097 158.787 -0.402454C161.6 -2.76445 164.877 -5.14663 168.827 -7.67686C176.714 -12.744 185.872 -13.5785 193.84 -13.962C195.031 -14.0226 196.235 -13.9755 197.406 -13.9351C199.062 -13.8746 200.784 -13.814 202.413 -14.0495C209.768 -15.106 216.834 -17.8785 224.007 -22.5352C228.967 -25.7518 234.411 -28.2551 240.656 -30.1864C247.17 -32.1985 253.583 -29.1838 255.898 -23.0197C257.001 -20.0925 258.266 -16.2567 258.287 -12.5623C258.3 -10.7522 258.327 -8.94197 258.361 -7.13851C258.495 0.492545 258.636 8.38604 257.129 16.1651C255.447 24.846 251.517 31.9656 245.447 37.3289C238.583 43.392 231.477 50.0944 225.979 58.0754C219.324 67.7387 210.67 74.9794 199.526 80.2081C195.26 82.2135 190.838 84.0707 186.565 85.8675C185.018 86.5202 183.477 87.1662 181.929 87.8257C177.656 89.6493 175.314 92.9063 174.984 97.5025C174.729 101.035 174.614 104.642 174.513 108.135C174.432 110.753 174.352 113.458 174.21 116.116C174.076 118.639 173.652 121.17 173.187 123.754C172.01 130.355 169.184 136.411 166.451 142.273C165.476 144.365 164.466 146.532 163.544 148.692L163.242 149.399C161.263 154.015 159.217 158.793 161.176 163.881C162.676 167.777 164.197 170.697 165.974 173.059C168.988 177.083 172.441 180.892 175.778 184.573L176.922 185.838C179.466 188.651 180.711 191.713 180.428 194.459C180.199 196.686 178.955 198.685 176.835 200.232C175.61 201.127 174.17 202.157 172.656 203.012C165.375 207.123 157.212 210.064 147.71 212.015C142.475 213.092 136.89 213.031 130.631 211.827C126.775 211.087 123.168 209.66 119.683 208.281C117.846 207.554 115.948 206.8 114.043 206.168C108.492 204.31 104.333 204.216 100.558 205.865C96.5943 207.601 93.3441 209.384 90.6389 211.329C87.6578 213.469 84.6767 215.602 81.6889 217.729C69.4752 226.45 56.851 235.474 44.8122 244.834C33.2849 253.804 26.8718 266.88 25.2164 284.813C25.1962 285.022 25.028 285.17 24.8261 285.17V285.204Z" fill="#FF7926" fill-opacity="0.4"/>
    <path d="M28.2781 286.388C28.1704 286.388 28.0627 286.374 27.9483 286.354C27.0937 286.172 26.5486 285.338 26.7236 284.483C26.8716 283.784 27.0264 283.09 27.1812 282.397C27.5042 280.957 27.8406 279.463 28.0694 278.01C30.2363 264.316 37.2954 252.573 48.4728 244.047C59.6367 235.534 71.5409 227.648 83.048 220.023C85.4369 218.442 87.8258 216.854 90.2148 215.266C95.4636 211.766 100.982 209.923 106.183 209.923C106.318 209.923 106.459 209.923 106.594 209.923C109.763 209.983 112.866 210.838 115.867 211.659C117.011 211.975 118.195 212.298 119.339 212.567C121.25 213.011 123.168 213.523 125.026 214.021C128.767 215.017 132.63 216.053 136.445 216.537C142.67 217.332 149.426 216.49 157.124 213.974C158.632 213.482 160.139 213.005 161.653 212.52C169.385 210.071 177.386 207.534 184.365 203.099C188.039 200.764 190.435 198.348 190.192 194.176C189.957 190.044 187.494 187.225 183.88 184.25L182.144 182.83C178.773 180.078 175.287 177.225 172.084 174.143C163.988 166.35 162.36 157.703 166.963 146.936C173.093 132.596 176.882 119.292 178.544 106.271C179.412 99.4742 182.104 94.7031 186.767 91.6749C188.416 90.6049 190.078 89.4744 191.686 88.3842C194.694 86.3452 197.796 84.2322 201.013 82.3749C212.197 75.8879 219.727 69.6363 225.434 62.0995C232.567 52.6784 239.316 45.8414 246.685 40.5858C252.183 36.6626 255.945 31.8377 257.876 26.2524C260.44 18.8367 260.891 10.997 261.133 3.60821C261.442 -5.90032 260.938 -15.6175 260.494 -24.1906C260.345 -26.9833 259.807 -29.7356 259.235 -32.6427C258.986 -33.901 258.737 -35.1662 258.522 -36.4313L258.347 -37.4541C257.082 -44.8497 255.77 -52.5009 260.096 -59.9166C260.541 -60.6703 261.51 -60.926 262.263 -60.4819C263.017 -60.0445 263.273 -59.0754 262.835 -58.315C259.087 -51.8952 260.245 -45.139 261.469 -37.9857L261.644 -36.9562C261.853 -35.718 262.095 -34.4865 262.337 -33.255C262.909 -30.3614 263.495 -27.3736 263.656 -24.3521C264.107 -15.7117 264.619 -5.92724 264.302 3.71588C264.053 11.3537 263.582 19.4625 260.877 27.2887C258.73 33.5066 254.578 38.8497 248.529 43.1632C241.436 48.2304 234.902 54.8587 227.964 64.0174C221.988 71.9041 214.169 78.4114 202.608 85.1205C199.492 86.924 196.43 89.0033 193.469 91.0154C191.848 92.1123 190.172 93.2495 188.496 94.3397C184.607 96.8632 182.44 100.786 181.686 106.681C179.984 119.999 176.121 133.572 169.876 148.188C165.805 157.716 167.165 165.024 174.284 171.875C177.393 174.869 180.832 177.676 184.156 180.388L185.899 181.814C189.587 184.842 193.046 188.416 193.369 194.001C193.718 200.064 189.876 203.355 186.074 205.771C178.746 210.427 170.549 213.025 162.622 215.542C161.122 216.019 159.621 216.49 158.12 216.982C149.964 219.653 142.751 220.535 136.055 219.68C132.031 219.169 128.06 218.105 124.218 217.083C122.381 216.591 120.49 216.087 118.626 215.649C117.421 215.367 116.203 215.037 115.032 214.714C112.092 213.906 109.306 213.139 106.533 213.092C106.412 213.092 106.298 213.092 106.177 213.092C101.601 213.092 96.6883 214.754 91.9644 217.904C89.5754 219.492 87.1865 221.08 84.7909 222.668C73.3241 230.265 61.4671 238.125 50.3839 246.57C39.7112 254.706 33.251 265.453 31.1851 278.515C30.9361 280.069 30.5929 281.617 30.2565 283.104C30.1017 283.784 29.9469 284.463 29.8056 285.15C29.6508 285.897 28.9914 286.408 28.2579 286.408L28.2781 286.388Z" fill="#FF7926" fill-opacity="0.6"/>
    <path d="M28.8635 103.754C24.7721 103.754 20.3981 102.415 16.8315 101.332C16.3335 101.177 15.849 101.036 15.3847 100.894C5.25708 97.8796 -1.92311 92.6779 -6.57308 85.0064C-12.5487 75.1413 -17.3804 64.5157 -20.9267 53.419C-22.8917 47.2751 -22.4004 41.0707 -19.4799 34.9672C-17.017 29.8193 -12.8246 27.3698 -7.59593 24.6983C-0.5907 21.1183 6.5693 17.5517 13.4938 14.1063L14.409 13.6487C16.7238 12.498 19.0455 11.3405 21.3604 10.1831C27.0197 7.35679 31.2928 2.70009 34.0653 -3.66585C35.5054 -6.9834 36.6897 -10.6172 37.5646 -14.4731C38.1702 -17.1245 38.8701 -19.8028 39.5497 -22.3935C41.3936 -29.4392 43.3047 -36.727 43.5133 -44.2706C43.6075 -47.7295 43.7892 -51.2556 43.9574 -54.6607C44.0382 -56.2959 44.1189 -57.8705 44.1862 -59.4385L45.8685 -59.3645C45.7945 -57.7898 45.7205 -56.2151 45.6397 -54.6405C45.4648 -51.1816 45.2898 -47.6689 45.1956 -44.2302C44.9803 -36.4915 43.049 -29.1161 41.1782 -21.9763C40.4985 -19.3923 39.8054 -16.7275 39.2065 -14.103C38.3048 -10.1462 37.0935 -6.40468 35.6063 -2.99964C32.6723 3.73641 28.1368 8.67574 22.114 11.6837C19.7991 12.8412 17.4775 13.9919 15.1627 15.1493L14.2475 15.6069C7.32298 19.0523 0.162974 22.6122 -6.82879 26.1922C-11.7681 28.7157 -15.7182 31.0171 -17.9591 35.6872C-20.6912 41.387 -21.1488 47.1809 -19.3251 52.9008C-15.8192 63.8696 -11.0481 74.3741 -5.13973 84.1249C-0.711832 91.4262 6.1588 96.379 15.8625 99.2726C16.3268 99.4139 16.8181 99.562 17.316 99.71C22.7735 101.379 30.2498 103.66 34.9334 100.423C39.8054 97.0587 41.9386 88.3375 43.6479 81.3255C44.1391 79.3134 44.6034 77.4158 45.0879 75.8209C45.9291 73.0821 46.7905 70.249 47.6855 67.4227C48.0219 66.3662 48.3517 65.303 48.6814 64.2398L48.7151 64.1388C50.5522 58.2439 52.4498 52.1472 55.2896 46.333C60.5048 35.6469 70.6661 31.0104 80.4977 26.5286C82.7116 25.5192 85.0063 24.4695 87.1933 23.3793C94.7705 19.584 101.244 13.9986 107.502 8.59498C115.174 1.97333 123.014 -3.54472 129.669 -8.06683C135.187 -11.8151 139.857 -17.3062 141.849 -22.407C144.81 -29.964 140.55 -34.7688 135.618 -40.3272C135.147 -40.8588 134.669 -41.3972 134.198 -41.9422C131.492 -45.0512 128.733 -48.2274 126.129 -51.4642C124.999 -52.8707 124.359 -54.4655 123.747 -56.0065C123.485 -56.6593 123.256 -57.2313 123.007 -57.7696L124.528 -58.4896C124.804 -57.9109 125.039 -57.312 125.295 -56.6795C125.88 -55.2057 126.472 -53.732 127.448 -52.5207C130.032 -49.3041 132.778 -46.1413 135.436 -43.0862C135.941 -42.5075 136.412 -41.9759 136.883 -41.4443C141.735 -35.9733 146.755 -30.314 143.417 -21.7946C141.304 -16.3977 136.405 -10.6105 130.618 -6.68058C124.003 -2.18539 116.21 3.29228 108.606 9.8601C102.274 15.331 95.7194 20.9837 87.9537 24.8732C85.7398 25.9835 83.4316 27.0333 81.2042 28.0495C71.2045 32.6119 61.7565 36.9254 56.8104 47.0665C54.0312 52.7663 52.147 58.8025 50.3301 64.6368L50.2964 64.7377C49.9667 65.801 49.637 66.8642 49.2938 67.9274C48.3988 70.7403 47.5374 73.5733 46.6963 76.3054C46.2252 77.8532 45.7676 79.7307 45.2764 81.7158C43.4931 89.0037 41.2791 98.0748 35.8822 101.796C33.8298 103.216 31.3938 103.734 28.8501 103.734L28.8635 103.754Z" fill="#FF7926" fill-opacity="0.4"/>
    <path d="M15.5059 284.867C15.2098 273.636 17.7602 262.014 23.2985 249.336C26.3267 242.405 31.589 237.089 39.8728 232.614C54.7917 224.545 66.4267 213.745 74.4413 200.515C75.3565 199.008 75.6257 197.769 75.2354 196.848C74.4346 194.936 70.8748 194.088 68.0216 193.409C67.4159 193.268 66.8372 193.126 66.2988 192.985C57.793 190.737 51.2857 185.946 46.952 178.739C36.9725 162.138 23.9445 148.76 9.28801 140.045C2.8817 136.243 -29.6075 118.141 -40.0312 135.624C-44.6946 143.45 -44.3245 151.546 -38.867 161.095C-34.7083 168.369 -29.3518 175.361 -22.4811 182.46C-18.3089 186.774 -14.6145 191.424 -11.5056 196.282C-6.6201 203.913 -7.38724 211.8 -13.733 219.095C-15.6509 221.302 -17.7033 223.408 -19.6885 225.44C-21.8351 227.641 -24.0491 229.915 -26.0409 232.264L-26.7744 233.132C-30.0449 236.981 -33.423 240.958 -35.5898 245.285C-37.1847 248.468 -38.0191 252.277 -38.8266 255.965C-39.0891 257.183 -39.3919 258.555 -39.7217 259.874C-41.3703 266.55 -42.945 273.38 -44.4726 279.975L-45.2397 283.292C-45.2666 283.4 -45.2397 283.763 -45.2262 283.999C-45.2128 284.282 -45.1926 284.551 -45.1926 284.813H-46.8749C-46.8749 284.578 -46.8884 284.342 -46.9018 284.107C-46.9288 283.663 -46.9489 283.259 -46.8749 282.916L-46.1078 279.598C-44.5802 272.99 -43.0056 266.16 -41.3501 259.471C-41.0271 258.179 -40.731 256.813 -40.4686 255.608C-39.6409 251.819 -38.7795 247.91 -37.0972 244.538C-34.8429 240.03 -31.3975 235.979 -28.0665 232.055L-27.3262 231.187C-25.3007 228.798 -23.0599 226.497 -20.8997 224.276C-18.9348 222.257 -16.8958 220.171 -15.0116 217.998C-9.21091 211.329 -8.49085 204.135 -12.9322 197.197C-15.9806 192.433 -19.601 187.877 -23.6991 183.638C-30.664 176.431 -36.108 169.338 -40.3407 161.936C-46.128 151.808 -46.4914 143.174 -41.4847 134.77C-36.9694 127.192 -28.4702 124.736 -16.2229 127.475C-5.19349 129.945 5.88298 136.082 10.1359 138.605C25.0346 147.454 38.2645 161.034 48.3854 177.878C52.4835 184.694 58.6543 189.23 66.7161 191.363C67.2409 191.504 67.8062 191.639 68.3984 191.774C71.7967 192.581 75.6459 193.496 76.7764 196.195C77.382 197.642 77.0792 199.391 75.8679 201.383C67.6918 214.875 55.8482 225.878 40.6601 234.088C32.733 238.374 27.6994 243.435 24.8328 250.002C19.3955 262.445 16.8989 273.838 17.1815 284.813L15.4992 284.854L15.5059 284.867Z" fill="#FF7926" fill-opacity="0.4"/>
    <path d="M-43.1333 285.203C-43.1939 285.203 -43.2544 285.19 -43.3083 285.163C-43.5034 285.062 -43.5842 284.826 -43.4832 284.631C-43.3688 284.409 -43.2477 284.187 -43.1266 283.965C-42.8709 283.507 -42.6286 283.07 -42.4873 282.612C-41.4644 279.429 -40.5156 276.152 -39.5937 272.989C-37.5883 266.092 -35.509 258.965 -32.6086 252.31C-26.0206 237.183 -13.3022 226.934 -2.95925 219.693C3.92485 214.875 5.27746 210.884 2.04066 204.976C1.77148 204.478 1.5023 203.98 1.23313 203.482C0.129521 201.423 -1.00773 199.296 -2.44107 197.473C-5.476 193.61 -8.64551 189.754 -11.7141 186.019C-14.2107 182.985 -16.788 179.849 -19.2779 176.726C-24.5335 170.145 -30.213 162.029 -32.5212 151.754C-33.4431 147.656 -32.8374 143.948 -30.8119 141.31C-28.8469 138.746 -25.7178 137.306 -21.761 137.138C-19.9306 137.057 -18.0666 137.084 -16.2698 137.104C-15.5633 137.111 -14.8567 137.124 -14.1568 137.124C-8.16773 137.144 -2.14498 138.645 4.26806 141.7C14.712 146.687 22.5987 154.795 29.5703 162.817C34.4558 168.436 37.6119 175.246 40.667 181.827L40.815 182.15C42.5579 185.898 44.7113 189.546 46.8041 193.065C48.1029 195.252 49.442 197.513 50.6735 199.788C53.4392 204.895 53.5738 209.296 51.0907 213.637C48.3922 218.354 43.8701 220.09 39.3817 221.268C36.6226 221.994 33.6954 222.223 30.8691 222.452C29.6847 222.546 28.4667 222.64 27.2756 222.775C20.479 223.529 18.689 225.144 17.6729 231.422C17.0605 235.238 16.5827 239.141 16.1184 242.923C15.5397 247.64 14.9475 252.525 14.0727 257.276C12.5384 265.681 11.6636 274.692 11.4079 284.826C11.4079 285.041 11.2464 285.19 11.0041 285.21C10.7888 285.21 10.6138 285.021 10.6205 284.806C10.8763 274.631 11.7578 265.58 13.2988 257.135C14.1669 252.404 14.7591 247.532 15.3311 242.828C15.7954 239.047 16.2732 235.13 16.8855 231.301C17.9622 224.612 19.981 222.788 27.1814 221.988C28.3792 221.853 29.6107 221.759 30.795 221.665C33.5877 221.443 36.4746 221.214 39.1663 220.507C43.4865 219.377 47.8337 217.708 50.3841 213.246C52.7192 209.168 52.5846 205.01 49.9534 200.165C48.7287 197.903 47.3895 195.649 46.0975 193.469C43.998 189.929 41.8311 186.268 40.0748 182.487L39.9267 182.164C36.8985 175.629 33.7627 168.88 28.9512 163.342C22.0402 155.388 14.2207 147.346 3.91141 142.42C-2.38724 139.412 -8.30905 137.938 -14.177 137.918C-14.8836 137.918 -15.5902 137.905 -16.2967 137.898C-18.0867 137.878 -19.9373 137.858 -21.7475 137.932C-25.4621 138.087 -28.3894 139.426 -30.2063 141.794C-32.0838 144.244 -32.6356 147.716 -31.7675 151.586C-29.493 161.706 -23.874 169.728 -18.6789 176.242C-16.1891 179.357 -13.6118 182.493 -11.1219 185.528C-8.05335 189.263 -4.87709 193.126 -1.83544 196.995C-0.361718 198.872 0.795731 201.033 1.9128 203.119C2.18197 203.617 2.44442 204.115 2.71359 204.606C6.159 210.884 4.68528 215.299 -2.52856 220.346C-12.7908 227.526 -25.4015 237.687 -31.9088 252.633C-34.7889 259.241 -36.8549 266.347 -38.8602 273.218C-39.7821 276.388 -40.7377 279.671 -41.7605 282.861C-41.9288 283.393 -42.1979 283.884 -42.4604 284.355C-42.5748 284.564 -42.6959 284.779 -42.8036 284.994C-42.8709 285.136 -43.0122 285.21 -43.1602 285.21L-43.1333 285.203Z" fill="#FF7926" fill-opacity="0.4"/>
    <path d="M-126.079 186.875C-136.483 186.875 -144.941 183.739 -151.294 177.514C-170.567 158.618 -166.792 114.797 -164.537 88.6063C-164.322 86.1165 -164.12 83.768 -163.952 81.5944C-163.339 73.7749 -165.062 66.0766 -166.731 58.6339C-166.913 57.813 -167.101 56.992 -167.283 56.171C-168.259 51.7498 -168.716 47.3152 -168.649 42.9883C-168.602 40.0072 -167.491 37.6317 -165.594 36.4676C-164.241 35.6398 -161.859 35.0275 -158.205 36.8175C-156.947 37.4298 -155.843 38.3652 -154.78 39.2669C-154.51 39.4957 -154.248 39.7178 -153.979 39.9399C-149.524 43.5804 -147.135 48.5871 -144.827 53.4322C-144.168 54.8117 -143.488 56.2383 -142.768 57.6111C-142.478 58.1629 -142.189 58.7282 -141.9 59.2934C-140.123 62.7725 -138.286 66.3659 -135.541 68.7548C-126.887 76.285 -117.048 79.367 -106.308 77.9202C-99.6732 77.0252 -94.8416 75.1208 -91.0933 71.9109C-87.2509 68.6203 -83.7247 64.8182 -80.313 61.1372C-79.4112 60.1615 -78.5095 59.1925 -77.6011 58.2302C-76.5311 57.0929 -75.4544 55.9624 -74.3777 54.8319C-70.3536 50.6126 -66.1949 46.2453 -62.5206 41.6357C-58.3821 36.4339 -55.0511 31.2389 -52.6151 26.1919C-50.0108 20.795 -48.2545 14.8664 -46.552 9.12631L-46.3299 8.3659C-42.6288 -4.117 -35.8927 -12.4412 -25.7314 -17.0844C-19.3722 -19.9915 -12.515 -21.1153 -5.88667 -22.2054L-5.61076 -22.2525C3.29886 -23.7195 13.413 -26.4785 20.8422 -35.8054C26.2189 -42.5549 29.1058 -50.085 29.9403 -59.5061C29.9605 -59.7214 30.1489 -59.8896 30.3709 -59.8627C30.5863 -59.8425 30.7478 -59.6541 30.7276 -59.432C29.8931 -49.9841 26.865 -42.0973 21.4613 -35.3141C13.8706 -25.7787 3.5815 -22.9658 -5.4829 -21.4787L-5.75881 -21.4315C-12.3401 -20.3481 -19.1434 -19.2311 -25.4017 -16.3711C-35.3409 -11.8288 -41.9424 -3.66613 -45.5695 8.58124L-45.7915 9.34165C-47.5008 15.1087 -49.2639 21.0709 -51.895 26.5216C-54.358 31.6157 -57.7226 36.8646 -61.8948 42.1135C-65.5892 46.7567 -69.7614 51.1307 -73.7923 55.3635C-74.869 56.494 -75.9456 57.6178 -77.0089 58.7551C-77.9173 59.7174 -78.8123 60.6864 -79.7141 61.6621C-83.1393 65.3565 -86.6856 69.1855 -90.5617 72.5031C-94.4311 75.8139 -99.3906 77.7789 -106.187 78.6941C-117.163 80.1678 -127.21 77.0252 -136.045 69.3403C-138.905 66.8572 -140.776 63.1897 -142.586 59.6433C-142.875 59.0781 -143.165 58.5195 -143.454 57.961C-144.181 56.5748 -144.861 55.1414 -145.527 53.7552C-147.801 48.9908 -150.15 44.065 -154.463 40.5321C-154.733 40.31 -155.002 40.0812 -155.278 39.8524C-156.307 38.9843 -157.37 38.0826 -158.541 37.5106C-161.179 36.2186 -163.474 36.084 -165.17 37.127C-166.825 38.1432 -167.801 40.2763 -167.848 42.9815C-167.915 47.2412 -167.464 51.6153 -166.502 55.9759C-166.32 56.7968 -166.139 57.6178 -165.95 58.4388C-164.268 65.942 -162.532 73.6942 -163.151 81.6348C-163.319 83.8151 -163.528 86.1636 -163.736 88.6535C-165.977 114.696 -169.732 158.295 -150.729 176.929C-143.373 184.143 -133.084 187.103 -120.144 185.744C-118.394 185.091 -68.9068 166.229 -58.7118 120.779C-56.9488 112.919 -55.1386 105.934 -50.8924 100.107C-48.3689 96.6479 -44.6745 93.3169 -40.4888 90.7328C-35.9196 87.9065 -30.765 88.3506 -25.9872 91.9912C-24.325 93.2563 -22.6628 94.5416 -21.0074 95.8202C-17.0169 98.9022 -12.8986 102.092 -8.69952 105.019C-7.5488 105.82 -6.48557 106.728 -5.45598 107.596C-3.59869 109.171 -1.84233 110.665 0.391804 111.614C2.76053 112.623 5.29748 113.296 7.75369 113.949C9.07936 114.299 10.4521 114.669 11.7845 115.079C19.7521 117.556 27.7263 122.367 36.8782 130.22C42.08 134.682 47.8335 139.238 54.6705 142.279C58.8831 144.157 67.2678 143.915 69.7711 139.756C75.915 129.548 71.0834 121.344 65.9691 112.657C64.7107 110.517 63.4052 108.296 62.2612 106.042C54.1524 89.9859 59.1186 72.2877 77.4358 51.9248C85.1072 43.4055 94.9119 37.4366 104.4 31.6695C113.108 26.3736 122.119 20.9026 129.507 13.4398C131.829 11.098 134.13 8.76292 136.425 6.42785C144.285 -1.55313 152.407 -9.81001 160.826 -17.6766C166.101 -22.6025 171.344 -25.671 176.868 -27.064C179.863 -27.8177 182.938 -28.4906 185.906 -29.1299C188.49 -29.6884 191.155 -30.2739 193.766 -30.9064C202.48 -33.0329 210.333 -37.4204 217.015 -41.3705C221.114 -43.7931 224.505 -47.6086 227.789 -51.303L228.314 -51.8952C229.599 -53.342 230.454 -55.2531 231.288 -57.1037C231.672 -57.9516 232.062 -58.8331 232.5 -59.6676C232.601 -59.8627 232.843 -59.9367 233.031 -59.8358C233.226 -59.7349 233.3 -59.4926 233.199 -59.3042C232.776 -58.4967 232.385 -57.6218 232.008 -56.7874C231.154 -54.883 230.272 -52.9113 228.906 -51.377L228.381 -50.7849C225.057 -47.0501 221.625 -43.1807 217.419 -40.6976C210.69 -36.7206 202.776 -32.2927 193.954 -30.146C191.336 -29.5067 188.665 -28.928 186.081 -28.3628C183.12 -27.7167 180.051 -27.0505 177.07 -26.2969C171.606 -24.9173 166.62 -21.9968 161.377 -17.0979C152.972 -9.24475 144.857 -0.994595 137.004 6.97965C134.702 9.31473 132.401 11.6565 130.086 13.9916C122.623 21.5217 113.579 27.0196 104.824 32.3425C95.3829 38.0826 85.6254 44.0179 78.0347 52.4497C59.7108 72.8194 54.9262 89.7301 62.9745 105.679C64.0983 107.913 65.3971 110.113 66.6555 112.246C71.8909 121.143 76.8436 129.541 70.4575 140.153C67.5101 145.052 58.3582 144.776 54.3542 142.993C47.423 139.904 41.6156 135.315 36.3668 130.813C27.3024 123.034 19.4156 118.269 11.5557 115.826C10.2368 115.416 8.87748 115.053 7.55853 114.703C5.07541 114.043 2.51153 113.357 0.0889764 112.327C-2.25283 111.331 -4.13703 109.73 -5.96068 108.182C-6.97681 107.321 -8.02659 106.432 -9.14366 105.652C-13.3562 102.711 -17.488 99.5213 -21.4785 96.4258C-23.1339 95.1472 -24.7893 93.8687 -26.4515 92.6036C-30.9534 89.1783 -35.785 88.7477 -40.0582 91.3923C-44.1631 93.9292 -47.7767 97.1862 -50.2396 100.564C-54.3983 106.264 -56.1816 113.168 -57.9245 120.941C-68.3482 167.413 -119.39 186.309 -119.908 186.498C-119.935 186.511 -119.969 186.518 -120.003 186.518C-122.089 186.74 -124.114 186.848 -126.066 186.848L-126.079 186.875Z" fill="#FF7926" fill-opacity="0.4"/>
    <path d="M137.986 196.208C133.861 196.208 129.844 194.606 126.405 191.457C125.692 190.804 124.978 190.158 124.265 189.512L124.104 189.364C121.432 186.949 118.673 184.445 116.129 181.801C115.295 180.932 114.393 180.091 113.599 179.351C111.143 177.063 108.835 174.91 107.576 171.747C103.155 160.61 100.773 148.403 100.08 133.336C99.9991 131.586 99.9453 129.837 99.8848 128.08C99.7704 124.48 99.6492 120.759 99.3128 117.091C98.9426 113.027 98.2428 109.595 97.1863 106.587C96.1029 103.512 94.7839 100.477 93.5053 97.5427C92.57 95.3894 91.6144 93.1956 90.7531 90.9884C89.7773 88.4918 88.6737 85.6655 88.4314 82.9199C87.7652 75.2485 91.029 68.5326 98.1351 62.9742C101.264 60.5315 105.261 59.3135 109.265 59.6566C114.925 60.1546 119.622 62.954 123.619 68.2298C128.693 74.9255 134.029 79.9927 139.931 83.714C145.785 87.4016 150.987 90.8403 155.435 95.5172C163.134 103.606 167.629 118.895 160.792 131.284C156.909 138.329 152.757 145.92 148.726 153.733C145.328 160.321 144.52 166.646 146.31 172.528C147.313 175.825 148.679 179.048 150.005 182.164C150.563 183.469 151.108 184.761 151.633 186.06L151.741 186.323L151.667 186.592C150.866 189.607 149.81 191.928 147.266 193.469C144.244 195.293 141.088 196.201 137.986 196.201V196.208ZM107.94 61.2919C104.777 61.2919 101.668 62.3618 99.1782 64.3066C92.5431 69.4949 89.4947 75.7128 90.107 82.7853C90.3224 85.2819 91.3856 87.9938 92.321 90.3827C93.1689 92.5563 94.1177 94.7366 95.0396 96.8496C96.3384 99.8374 97.6708 102.899 98.7744 106.028C99.878 109.164 100.605 112.731 100.988 116.937C101.332 120.651 101.453 124.399 101.567 128.02C101.621 129.763 101.681 131.512 101.762 133.249C102.442 148.127 104.79 160.159 109.138 171.121C110.255 173.934 112.428 175.96 114.73 178.106C115.551 178.867 116.473 179.728 117.341 180.63C119.844 183.234 122.583 185.717 125.234 188.113L125.396 188.261C126.116 188.913 126.829 189.559 127.542 190.212C132.986 195.199 140.039 195.878 146.398 192.036C148.396 190.831 149.265 188.994 149.964 186.437C149.473 185.239 148.968 184.041 148.464 182.85C147.118 179.674 145.732 176.41 144.702 173.026C142.777 166.707 143.632 159.957 147.232 152.972C151.27 145.139 155.429 137.535 159.318 130.483C165.772 118.787 161.505 104.339 154.217 96.6881C149.904 92.1525 144.79 88.7812 139.029 85.154C132.953 81.3251 127.475 76.1233 122.273 69.2661C118.579 64.3941 114.272 61.8033 109.111 61.3524C108.72 61.3188 108.317 61.2986 107.926 61.2986L107.94 61.2919Z" fill="#FF7926" fill-opacity="0.4"/>
    <path d="M-56.5852 285.203C-56.8005 285.203 -56.9822 285.028 -56.9822 284.806C-56.9822 284.483 -56.9889 284.16 -57.0024 283.83C-57.0226 283.117 -57.0428 282.383 -56.9688 281.657C-56.7534 279.591 -56.4842 277.491 -56.2218 275.459C-55.6835 271.28 -55.1317 266.96 -55.024 262.714C-54.8961 257.727 -55.098 252.647 -55.2864 247.727C-55.4076 244.618 -55.5354 241.402 -55.5758 238.239C-55.6633 231.92 -53.0254 226.409 -47.5275 221.402C-46.1682 220.164 -44.7348 218.973 -43.3486 217.822C-41.525 216.308 -39.6475 214.747 -37.9315 213.078C-33.5171 208.771 -33.0729 204.108 -36.5385 198.401C-39.9839 192.729 -44.7416 188.085 -49.3444 183.597C-50.4884 182.48 -51.6324 181.37 -52.7562 180.232C-62.5675 170.367 -65.8111 158.409 -62.3859 144.681C-59.3846 132.629 -54.8423 123.121 -48.51 115.611C-40.4415 106.035 -32.8374 104.278 -22.2656 109.554C-21.2495 110.066 -20.2334 110.591 -19.224 111.122C-17.084 112.246 -14.8701 113.403 -12.6158 114.332C-9.52703 115.611 -6.35079 116.829 -3.27549 117.999C1.14568 119.695 5.72163 121.445 10.1159 123.41C19.3418 127.535 26.9728 134.217 34.3482 140.684L35.8219 141.976C43.0828 148.322 49.6776 153.974 56.8578 158.779C61.8442 162.117 67.4833 163.153 72.3486 161.619C77.1265 160.112 80.8007 156.363 82.9743 150.771C83.8491 148.517 84.1586 145.973 84.4547 143.517C84.6431 141.963 84.8383 140.354 85.1747 138.807C86.7292 131.66 85.989 124.19 82.907 115.981C81.4198 112.017 78.8963 108.343 76.4535 104.783C75.7873 103.814 75.1211 102.838 74.4751 101.869C69.9463 95.0256 68.4524 88.4443 69.778 81.1699C70.8884 75.0597 73.6205 69.7974 76.3189 64.9253C79.5288 59.1314 83.6876 54.2863 88.6874 50.5246C94.3266 46.2784 100.834 44.2528 106.493 42.6849C116.062 40.0403 123.498 34.8251 128.592 27.194C132.65 21.1174 136.869 16.0368 141.506 11.6695C144.077 9.2469 146.721 6.82434 149.285 4.48254C152.744 1.31976 156.324 -1.95742 159.749 -5.26825C168.443 -13.6799 179.385 -17.9598 194.183 -18.7471C202.043 -19.1643 208.624 -20.8937 214.31 -24.0296C223.57 -29.1372 232.547 -34.7494 241.228 -40.1732C247.715 -44.231 254.491 -49.3992 252.795 -59.3989C252.762 -59.6143 252.903 -59.8161 253.118 -59.8565C253.327 -59.8902 253.536 -59.7489 253.576 -59.5335C255.353 -49.0492 248.347 -43.6994 241.645 -39.507C232.957 -34.0765 223.974 -28.4575 214.694 -23.3365C208.9 -20.1401 202.204 -18.3837 194.223 -17.9598C179.628 -17.1859 168.847 -12.9733 160.301 -4.70299C156.869 -1.3787 153.282 1.89848 149.817 5.06799C147.259 7.4098 144.615 9.82562 142.051 12.2482C137.462 16.5751 133.276 21.6087 129.259 27.6381C124.057 35.4374 116.473 40.7536 106.709 43.4588C101.117 45.0065 94.69 47.0051 89.1652 51.1639C84.2595 54.8583 80.1681 59.6226 77.0121 65.3156C74.3473 70.1271 71.6488 75.3289 70.5586 81.318C69.2733 88.377 70.7269 94.7699 75.1346 101.439C75.7739 102.408 76.4401 103.377 77.1063 104.346C79.5759 107.939 82.1264 111.66 83.6472 115.712C86.7898 124.069 87.5367 131.68 85.9486 138.982C85.6189 140.489 85.4305 142.077 85.242 143.618C84.9392 146.121 84.6229 148.712 83.7145 151.061C81.4534 156.888 77.6043 160.798 72.5909 162.379C67.5035 163.981 61.6086 162.911 56.4271 159.439C49.2065 154.607 42.5916 148.941 35.3104 142.575L33.8367 141.283C26.5018 134.856 18.9246 128.208 9.7996 124.13C5.42554 122.172 0.863043 120.429 -3.55139 118.74C-6.62669 117.562 -9.80965 116.344 -12.9119 115.059C-15.1998 114.11 -17.4272 112.946 -19.5874 111.815C-20.59 111.29 -21.5994 110.765 -22.6156 110.254C-32.7903 105.173 -40.1185 106.869 -47.9043 116.109C-54.1559 123.524 -58.6444 132.932 -61.6187 144.863C-64.9699 158.308 -61.8004 170.017 -52.1977 179.667C-51.0739 180.798 -49.9366 181.908 -48.7926 183.018C-44.1561 187.54 -39.3581 192.217 -35.8656 197.978C-32.225 203.973 -32.723 209.094 -37.3797 213.63C-39.1159 215.319 -41.0135 216.894 -42.8439 218.414C-44.2234 219.558 -45.65 220.743 -46.9959 221.968C-52.3188 226.813 -54.8692 232.129 -54.7885 238.212C-54.7481 241.368 -54.6202 244.578 -54.4991 247.68C-54.3039 252.606 -54.1088 257.707 -54.2367 262.72C-54.3443 267.014 -54.9029 271.354 -55.4412 275.546C-55.7036 277.572 -55.9728 279.665 -56.1882 281.724C-56.2554 282.397 -56.242 283.077 -56.2218 283.79C-56.2151 284.12 -56.2016 284.456 -56.2016 284.786C-56.2016 285.001 -56.3766 285.183 -56.5986 285.183L-56.5852 285.203Z" fill="#FF7926" fill-opacity="0.4"/>
    <path d="M190.226 60.0336C188.49 60.0336 186.687 59.8788 184.829 59.5692C178.08 58.4454 171.7 55.3836 165.321 50.1953C156.748 43.2304 153.397 32.0127 157.353 23.5337C165.186 6.74406 177.784 0.223341 197.009 3.02274C202.716 3.85045 208.765 5.378 214.99 7.55158L215.158 7.61214C220.239 9.38195 225.993 11.394 226.679 18.4598C226.686 18.5338 226.672 18.6079 226.639 18.6684C226.672 18.7424 226.686 18.8299 226.672 18.9174C226.565 19.4557 226.47 20.0075 226.376 20.5526C226.174 21.737 225.966 22.9617 225.602 24.1259C221.874 35.9897 214.956 46.3461 205.051 54.8991C201.114 58.2974 196.054 60.0403 190.226 60.0403V60.0336ZM188.9 3.19097C174.493 3.19097 164.587 9.89338 158.067 23.8702C154.325 31.8983 157.656 42.9478 165.819 49.5829C172.091 54.677 178.349 57.6918 184.957 58.7886C192.844 60.1009 199.614 58.5464 204.533 54.2934C214.324 45.8414 221.161 35.6061 224.849 23.8836C225.198 22.7666 225.4 21.5688 225.595 20.4113C225.69 19.8595 225.784 19.301 225.892 18.7559C225.898 18.7222 225.912 18.6886 225.925 18.6617C225.905 18.6213 225.892 18.5742 225.885 18.5271C225.252 11.9593 219.983 10.1222 214.889 8.35236L214.721 8.2918C208.543 6.13169 202.541 4.62432 196.881 3.80334C194.075 3.39285 191.411 3.19097 188.887 3.19097H188.9Z" fill="#FF7926" fill-opacity="0.4"/>
    <path d="M71.3121 20.8818C68.9636 20.8818 66.6554 20.5857 64.4482 19.9666C59.1657 18.4862 56.0366 14.8187 54.3071 8.06919C52.3758 0.518893 54.1187 -6.80261 55.8145 -13.8886C56.1375 -15.2345 56.4605 -16.587 56.7566 -17.9262C58.661 -26.5734 58.8562 -33.8208 57.3892 -40.7319C56.8777 -43.141 56.5682 -45.6173 56.2654 -48.0197C56.1308 -49.1031 55.9962 -50.1866 55.8414 -51.2633L52.0595 -61.115C51.9788 -61.3169 52.0797 -61.5457 52.2883 -61.6264C52.4902 -61.7072 52.719 -61.6062 52.7998 -61.3976L56.5951 -51.5055C56.5951 -51.5055 56.6153 -51.4517 56.6153 -51.418C56.77 -50.3211 56.9114 -49.2175 57.0527 -48.1139C57.3555 -45.7317 57.665 -43.2688 58.1697 -40.8934C59.6637 -33.8679 59.4685 -26.5128 57.5372 -17.7512C57.2411 -16.4054 56.9181 -15.0528 56.5951 -13.7002C54.9262 -6.7084 53.2035 0.518892 55.0877 7.87404C56.7364 14.314 59.6973 17.8133 64.677 19.2062C74.8652 22.0595 87.4423 17.8469 94.5754 9.19299C95.4166 8.17013 96.251 7.09344 97.0518 6.05713C99.9117 2.356 102.866 -1.47298 107.179 -3.98302C111.123 -6.27099 115.827 -8.92908 120.847 -11.2642C124.992 -13.1955 127.764 -15.9949 128.868 -19.3595C129.992 -22.7915 129.413 -26.6407 127.132 -30.8061C123.626 -37.2259 120.268 -43.861 117.024 -50.274C115.584 -53.1273 114.144 -55.9738 112.684 -58.8135C112.583 -59.0087 112.664 -59.2442 112.852 -59.3452C113.047 -59.4461 113.283 -59.3654 113.384 -59.1769C114.844 -56.3372 116.284 -53.4839 117.731 -50.6307C120.975 -44.2244 124.326 -37.596 127.825 -31.1829C130.18 -26.8762 130.799 -22.704 129.615 -19.1105C128.437 -15.5305 125.517 -12.5696 121.176 -10.5441C116.183 -8.2225 111.5 -5.57787 107.57 -3.29663C103.384 -0.867347 100.477 2.90108 97.6709 6.54164C96.8634 7.58468 96.0289 8.6681 95.181 9.69769C89.4005 16.7164 80.1275 20.8886 71.3256 20.8886L71.3121 20.8818Z" fill="#FF7926" fill-opacity="0.4"/>
    <path d="M73.3577 13.9777C69.6027 13.9777 65.6122 12.827 62.584 8.71537C59.9999 5.21612 58.9906 0.84206 59.4885 -4.64907C59.8183 -8.30309 60.7267 -11.9504 61.6083 -15.4765L61.8505 -16.4388C64.1116 -25.5571 61.0026 -46.0075 59.6769 -54.7422C59.1722 -58.0732 58.9973 -59.2373 59.0646 -59.5536C59.105 -59.769 59.3203 -59.9103 59.5289 -59.8632C59.7442 -59.8228 59.8788 -59.6142 59.8384 -59.3988C59.8115 -59.1297 60.1144 -57.1512 60.4575 -54.8633C61.9044 -45.3413 64.9124 -25.5234 62.6177 -16.2571L62.3754 -15.2949C61.5073 -11.7956 60.6056 -8.18196 60.2758 -4.5885C59.7981 0.700747 60.7604 4.89311 63.2233 8.23086C66.6418 12.8606 71.5004 14.1661 78.9901 12.4434C86.426 10.7342 91.1163 4.90657 94.3733 0.0210846C97.6101 -4.83076 101.029 -8.08102 105.127 -10.2008C109.891 -12.6637 113.713 -14.8507 117.159 -17.0916C121.869 -20.1534 124.178 -23.6123 121.156 -31.3981C120.355 -33.464 119.379 -35.5165 118.444 -37.5016L118.074 -38.2822C115.692 -43.3359 113.289 -48.3762 110.887 -53.4165L108.074 -59.3248C107.98 -59.52 108.067 -59.7555 108.263 -59.8497C108.458 -59.9439 108.693 -59.8564 108.788 -59.6613L111.6 -53.7529C114.003 -48.7059 116.405 -43.6657 118.787 -38.612L119.157 -37.8381C120.1 -35.8462 121.082 -33.7803 121.89 -31.6875C125.093 -23.4306 122.488 -19.6218 117.583 -16.4321C114.117 -14.1778 110.275 -11.9773 105.483 -9.50091C101.506 -7.44847 98.1821 -4.28568 95.0261 0.451761C91.6883 5.45838 86.8701 11.434 79.1651 13.2038C77.4356 13.6009 75.4303 13.9508 73.3577 13.9508V13.9777Z" fill="#FF7926" fill-opacity="0.4"/>
    <path d="M31.6294 287.949C31.5756 287.949 31.5218 287.935 31.4679 287.915C31.266 287.828 31.1786 287.592 31.2728 287.39L38.4126 271.805C40.5391 267.169 42.7328 262.371 45.8821 258.212C48.7017 254.484 52.4836 251.018 57.4364 247.6C75.6998 235.009 97.92 230.79 117.24 228.313C122.327 227.661 127.522 227.095 132.549 226.55C148.175 224.848 164.332 223.091 179.58 218.516C184.923 216.914 191.007 214.7 195.549 210.467C200.791 205.582 203.914 198.058 204.331 189.277C204.667 182.238 203.308 175.132 200.387 168.719C198.88 165.401 196.922 162.184 195.031 159.069C191.579 153.389 188.005 147.514 187.057 140.846C185.556 130.348 190.778 120.126 196.653 110.638C203.523 99.5277 210.401 88.8146 218.9 79.7973C220.865 77.7112 224.431 75.1944 227.883 72.7584C231.14 70.4637 234.498 68.0883 236.362 66.1771C236.948 65.5782 237.527 64.9524 238.105 64.3333C240.037 62.2607 242.035 60.114 244.417 58.6201C250.602 54.7306 257.392 50.8746 265.796 46.4804C272.607 42.9206 275.48 38.2033 274.834 31.6422C274.45 27.7056 273.952 23.7151 273.468 19.8525C272.701 13.6548 271.9 7.24845 271.537 0.916154C270.917 -9.81712 271.092 -21.2031 276.563 -31.748C281.657 -41.5661 289.47 -46.3641 300.446 -46.4112C303.609 -46.4246 306.771 -46.4179 309.934 -46.4112H314.248C314.463 -46.4112 314.645 -46.2295 314.645 -46.0141C314.645 -45.7988 314.47 -45.6171 314.248 -45.6171H309.934C306.771 -45.6238 303.609 -45.6238 300.452 -45.6171C289.8 -45.5767 282.216 -40.92 277.27 -31.3846C271.886 -21.008 271.718 -9.74982 272.331 0.869049C272.694 7.17443 273.488 13.5673 274.262 19.7515C274.74 23.6209 275.238 27.6181 275.628 31.5615C276.301 38.3918 273.205 43.4993 266.167 47.1803C257.782 51.561 251.005 55.4102 244.841 59.2863C242.553 60.7264 240.588 62.8327 238.691 64.8716C238.105 65.4975 237.527 66.1233 236.934 66.7289C235.017 68.6939 231.625 71.0895 228.341 73.4044C224.923 75.8203 221.383 78.3101 219.472 80.3356C211.02 89.2991 204.169 99.9785 197.319 111.055C191.532 120.415 186.37 130.489 187.837 140.738C188.766 147.245 192.292 153.053 195.704 158.658C197.608 161.794 199.58 165.031 201.107 168.389C204.075 174.916 205.461 182.15 205.118 189.31C204.687 198.301 201.478 206.012 196.087 211.039C191.424 215.386 185.24 217.641 179.802 219.269C164.48 223.865 148.289 225.628 132.63 227.331C127.61 227.876 122.415 228.441 117.334 229.094C98.1017 231.55 76.0026 235.749 57.8805 248.246C52.995 251.61 49.2804 255.022 46.508 258.683C43.4125 262.774 41.2322 267.532 39.1259 272.128L31.9861 287.713C31.9188 287.861 31.7775 287.942 31.6294 287.942V287.949Z" fill="#FF7926" fill-opacity="0.4"/>
    <path d="M-129.053 178.032C-134.066 178.032 -138.696 176.652 -142.888 173.893C-156.663 164.842 -162.693 142.857 -163.675 126.781C-164.456 113.948 -162.7 101.331 -160.99 89.1372C-160.035 82.2867 -159.046 75.2075 -158.507 68.1282C-158.312 65.5374 -158.514 62.8524 -158.716 60.2617C-158.857 58.4447 -158.998 56.5605 -159.005 54.71C-159.005 53.4314 -158.124 51.3789 -156.731 51.0896C-155.856 50.9146 -154.9 51.3655 -153.965 52.4153C-152.639 53.9024 -151.139 55.6857 -150.102 57.6439C-143.285 70.5777 -131.624 78.0136 -114.464 80.3958C-105.507 81.634 -96.9541 79.4671 -90.3795 74.2856C-85.2182 70.2211 -80.3125 65.6518 -75.5683 61.2307C-73.4015 59.2119 -71.1606 57.1191 -68.9197 55.107C-68.1122 54.3802 -67.2778 53.6804 -66.4501 52.9805C-65.6627 52.3143 -64.8687 51.6481 -64.1015 50.9617C-57.0694 44.6698 -51.437 37.1599 -47.3455 28.6406C-45.8449 25.5047 -44.5058 22.2208 -43.2205 19.0378C-41.6862 15.2627 -40.1048 11.3529 -38.2206 7.66527C-32.7025 -3.1353 -25.3205 -9.54161 -15.637 -11.9238C-13.7595 -12.3881 -11.8685 -12.9399 -10.0449 -13.4783C-7.81749 -14.131 -5.50932 -14.8107 -3.20116 -15.3288C7.04087 -17.6235 15.7957 -23.256 22.1078 -31.6071C27.9556 -39.3391 31.475 -49.2446 32.0134 -59.5001C32.0268 -59.7154 32.2152 -59.877 32.4306 -59.877C32.6459 -59.8635 32.8142 -59.6818 32.8074 -59.4597C32.2556 -49.0495 28.6824 -38.9959 22.7404 -31.136C16.3139 -22.6369 7.40424 -16.9035 -3.02622 -14.5684C-5.30746 -14.057 -7.60214 -13.3841 -9.82282 -12.7313C-11.6599 -12.193 -13.5576 -11.6344 -15.4485 -11.1701C-24.8898 -8.84176 -32.1104 -2.57003 -37.514 8.00846C-39.3847 11.6625 -40.9594 15.5588 -42.487 19.3205C-43.779 22.5102 -45.1181 25.8142 -46.6322 28.9703C-50.764 37.5838 -56.4638 45.1812 -63.5699 51.5404C-64.3438 52.2336 -65.1446 52.9065 -65.9387 53.5794C-66.7664 54.2726 -67.5873 54.9724 -68.3881 55.6924C-70.6223 57.7045 -72.8631 59.7906 -75.03 61.8094C-79.7876 66.244 -84.7067 70.8267 -89.895 74.9114C-96.6445 80.2275 -105.406 82.455 -114.578 81.1831C-132.007 78.7673 -143.857 71.1901 -150.809 58.0208C-151.798 56.1433 -153.198 54.4744 -154.557 52.9469C-155.069 52.3682 -155.842 51.7087 -156.569 51.8702C-157.511 52.0653 -158.218 53.7275 -158.211 54.71C-158.204 56.5336 -158.063 58.3976 -157.922 60.2011C-157.72 62.8255 -157.511 65.5307 -157.713 68.1821C-158.252 75.2815 -159.241 82.3742 -160.203 89.2381C-161.899 101.398 -163.655 113.975 -162.881 126.727C-161.912 142.622 -155.984 164.331 -142.451 173.227C-135.432 177.843 -127.135 178.469 -117.788 175.091C-117.438 174.963 -82.8091 162.11 -62.7961 115.96C-61.0532 111.943 -58.9603 108.026 -56.9281 104.231C-53.2741 97.3941 -49.6402 92.3201 -45.4748 88.2287C-39.378 82.2262 -31.4038 83.027 -26.9961 86.829C-23.8467 89.5409 -21.0002 91.9837 -18.0326 94.4062C-17.0501 95.207 -16.0744 96.0213 -15.0919 96.8288C-12.5818 98.9082 -9.99106 101.062 -7.33298 103.013C-6.49854 103.625 -5.72467 104.325 -4.97772 105.005C-3.9885 105.9 -2.97237 106.822 -1.83511 107.515C-0.125864 108.565 1.34786 108.652 3.21188 108.767C3.68966 108.794 4.18763 108.827 4.70579 108.874C9.83354 109.345 15.0891 111.081 20.3178 114.029C24.7524 116.532 28.541 119.823 32.2018 123.006C34.3417 124.863 36.5489 126.788 38.8773 128.537C39.5233 129.022 40.1626 129.513 40.8019 130.004C45.1759 133.362 49.6913 136.828 55.2834 138.113C58.7894 138.921 62.7529 139.358 65.5119 136.465C68.1566 133.692 69.1121 130.025 68.2911 125.846C67.3423 121.027 64.8727 116.976 62.4232 113.242C56.6561 104.44 54.8729 92.4009 57.4098 79.3393C60.761 62.1055 69.7245 47.9201 82.6515 39.4008C83.0082 39.172 118.337 16.3528 129.252 4.65726L161.963 -21.7351C165.214 -24.6489 169.17 -27.1052 173.073 -28.6462C176.97 -30.1805 181.155 -31.136 185.2 -32.0647C186.451 -32.3473 187.696 -32.6367 188.934 -32.9327C197.487 -35.0121 205.482 -38.2354 213.389 -42.7912C221.498 -47.4614 226.215 -52.542 228.671 -59.2646C228.745 -59.4665 228.974 -59.5741 229.176 -59.5001C229.378 -59.4261 229.485 -59.1973 229.411 -58.9954C226.888 -52.0911 222.063 -46.8826 213.786 -42.1115C205.818 -37.5154 197.75 -34.2651 189.123 -32.1723C187.878 -31.8695 186.626 -31.5869 185.375 -31.2975C181.357 -30.3823 177.199 -29.4335 173.363 -27.9194C169.541 -26.412 165.671 -24.0097 162.468 -21.143L129.784 5.22252C118.842 16.9517 83.4389 39.8247 83.0822 40.0535C70.3369 48.4584 61.4945 62.4621 58.1837 79.4806C56.7369 86.9232 55.4516 101.156 63.0759 112.797C65.5658 116.6 68.0826 120.725 69.0583 125.684C69.9331 130.125 68.9035 134.042 66.0772 137.003C63.0423 140.186 58.823 139.735 55.095 138.88C49.3414 137.555 44.752 134.035 40.3106 130.63C39.6713 130.139 39.0321 129.648 38.3928 129.17C36.0442 127.4 33.8236 125.469 31.6769 123.605C28.0498 120.449 24.2948 117.185 19.9275 114.722C14.793 111.828 9.65183 110.126 4.63176 109.662C4.12033 109.615 3.62909 109.588 3.15803 109.554C1.26037 109.44 -0.374852 109.339 -2.25906 108.188C-3.45688 107.454 -4.50666 106.506 -5.52279 105.584C-6.25628 104.917 -7.0167 104.231 -7.81749 103.646C-10.4958 101.681 -13.0933 99.5205 -15.6168 97.4344C-16.5925 96.6269 -17.5683 95.8127 -18.5507 95.0119C-21.5318 92.5826 -24.3783 90.1399 -27.5344 87.4212C-31.6729 83.8547 -39.1761 83.1212 -44.9432 88.7873C-49.0413 92.8248 -52.6348 97.8382 -56.235 104.568C-58.274 108.37 -60.36 112.279 -62.0895 116.263C-82.2438 162.743 -117.189 175.696 -117.539 175.824C-121.577 177.285 -125.426 178.011 -129.066 178.011L-129.053 178.032Z" fill="#FF7926" fill-opacity="0.4"/>
    <path d="M126.708 135.092C125.887 135.092 125.12 134.938 124.71 134.547C123.606 133.511 122.597 131.088 123.007 129.635C123.64 127.387 124.568 125.456 125.766 123.881C126.271 123.215 128.915 119.898 131.513 119.709C131.721 119.696 131.93 119.702 132.132 119.729C133.357 119.898 135.053 121.082 135.308 122.313C136.136 126.27 133.518 132.717 129.285 134.608C128.633 134.897 127.637 135.099 126.708 135.099V135.092ZM131.742 120.369C131.681 120.369 131.621 120.369 131.56 120.375C129.77 120.503 127.61 122.562 126.298 124.285C125.154 125.792 124.259 127.65 123.653 129.817C123.317 131.001 124.225 133.174 125.167 134.056C125.712 134.567 127.792 134.527 129.01 133.989C132.98 132.219 135.429 126.163 134.649 122.448C134.46 121.546 133.02 120.523 132.045 120.389C131.944 120.375 131.843 120.369 131.742 120.369Z" fill="#FF7926" fill-opacity="0.4"/>
    <path d="M20.7415 84.0304C18.4199 84.0304 15.9906 83.3305 13.6017 81.9443C9.51701 79.5688 6.87912 75.2957 5.98412 69.5825C5.4525 66.2111 4.4431 54.8991 13.6354 50.9019C13.743 50.8548 13.8641 50.8615 13.9651 50.9019C14.0256 50.875 14.0997 50.8548 14.1737 50.8615C14.9543 50.9288 15.7955 50.9288 16.6097 50.9221C18.4536 50.9154 20.3647 50.9086 21.8451 51.7296C31.246 56.965 34.079 62.2677 32.6793 71.9849C31.9391 77.0924 29.3214 81.0829 25.4924 82.9402C24.0052 83.6602 22.4037 84.0169 20.7483 84.0169L20.7415 84.0304ZM13.9584 51.6219C13.9584 51.6219 13.9516 51.6219 13.9449 51.6219C5.27753 55.3971 6.25329 66.2246 6.76472 69.4546C7.36363 73.2702 9.10652 78.4114 13.9987 81.2579C17.8614 83.4987 21.8182 83.8487 25.1425 82.2404C28.7292 80.5042 31.1922 76.729 31.892 71.8839C33.2379 62.5638 30.5058 57.4697 21.4548 52.4295C20.1561 51.7094 18.3593 51.7161 16.6097 51.7229C15.7753 51.7229 14.9139 51.7296 14.0929 51.6556C14.0458 51.6556 13.9987 51.6354 13.9584 51.6152V51.6219Z" fill="#FF7926" fill-opacity="0.4"/>
    <path d="M20.5869 79.3736C17.6596 79.3736 14.5574 77.8056 12.4309 74.9659C10.3785 72.2203 9.793 68.425 10.8764 64.8113C11.8993 61.413 14.1603 58.8559 17.0943 57.7994C17.1953 57.759 17.3097 57.7725 17.4039 57.8128C17.451 57.7859 17.5048 57.7724 17.5654 57.7724C21.852 57.658 25.2166 59.5826 27.545 63.5058C30.378 68.2837 29.0254 75.2687 24.6985 78.1623C23.467 78.9833 22.0538 79.3736 20.5869 79.3736ZM17.4106 58.5194C17.4106 58.5194 17.3837 58.5329 17.3702 58.5329C14.6785 59.5019 12.5857 61.8706 11.6436 65.0267C10.6342 68.3981 11.1658 71.9309 13.0702 74.4814C16.0042 78.4046 20.9233 79.7302 24.2611 77.4961C28.2583 74.8246 29.5032 68.3442 26.8653 63.9029C24.6985 60.2421 21.5828 58.4387 17.5923 58.5598C17.525 58.5598 17.4644 58.5463 17.4106 58.5194Z" fill="#FF7926" fill-opacity="0.4"/>
    <path d="M189.715 46.6751C189.479 46.6751 189.244 46.6684 189.015 46.6549C183.416 46.3117 178.457 44.4948 174.278 41.258C169.096 37.2473 166.768 32.4829 167.367 27.086C167.872 22.4899 170.429 18.4321 174.958 15.0271C177.676 12.9814 180.799 12.1402 183.82 11.326C184.372 11.1779 184.924 11.0299 185.475 10.8751C185.576 10.8482 185.671 10.8616 185.758 10.902C185.886 10.8414 186.054 10.8616 186.209 10.8616C191.397 10.8616 196.451 12.221 201.66 15.0204C206.902 17.8332 209.6 22.14 209.257 27.1466C208.766 34.3133 204.822 40.3899 198.14 44.2593C195.475 45.8003 192.386 46.6818 189.722 46.6818L189.715 46.6751ZM185.751 11.6086C185.751 11.6086 185.711 11.6288 185.684 11.6355C185.132 11.7903 184.574 11.9451 184.022 12.0931C180.94 12.9275 178.026 13.7081 175.429 15.6664C171.075 18.9435 168.625 22.8129 168.147 27.1802C167.589 32.2811 169.81 36.8099 174.756 40.6389C178.807 43.7748 183.618 45.5378 189.062 45.8676C191.687 46.0291 195.004 45.1475 197.73 43.5661C204.176 39.8314 207.985 33.9769 208.456 27.0793C208.772 22.4024 206.222 18.3648 201.276 15.7067C196.094 12.9275 191.094 11.6019 185.926 11.6422C185.852 11.6355 185.805 11.6288 185.751 11.6019V11.6086Z" fill="#FF7926" fill-opacity="0.4"/>
    <path d="M124.952 158.113C124.097 158.113 123.242 158.026 122.401 157.858C117.388 156.835 112.98 152.737 109.972 146.324C107.994 142.098 107.119 137.542 107.227 131.983C107.267 129.945 107.314 127.906 107.361 125.867C107.435 122.67 107.516 119.366 107.556 116.116L107.577 114.481C107.63 110.046 107.684 105.457 107.529 100.955C107.435 98.2359 107.233 95.4702 107.038 92.7986C106.863 90.3895 106.682 87.893 106.574 85.43C106.48 83.1286 107.583 81.601 109.609 81.2309C109.696 81.2175 109.777 81.2309 109.851 81.2646C109.932 81.2242 110.026 81.2108 110.127 81.2377C110.665 81.379 111.21 81.4934 111.762 81.6078C112.98 81.8635 114.245 82.1259 115.356 82.6979C118.256 84.2053 121.163 85.8136 123.976 87.3681C127.368 89.2388 130.867 91.1769 134.373 92.9534C141.089 96.3585 146.055 99.8981 150.005 104.097C156.055 110.524 157.697 117.98 154.89 126.25C151.566 136.028 145.321 145.072 136.324 153.127C132.643 156.424 128.754 158.12 124.945 158.12L124.952 158.113ZM109.858 81.9779C109.858 81.9779 109.791 82.0048 109.757 82.0115C107.684 82.3884 107.314 84.0573 107.368 85.3964C107.469 87.8459 107.651 90.329 107.826 92.7381C108.021 95.4231 108.223 98.1956 108.317 100.928C108.472 105.443 108.418 110.046 108.364 114.487L108.344 116.122C108.31 119.379 108.229 122.684 108.149 125.88C108.101 127.919 108.048 129.958 108.014 131.99C107.913 137.421 108.761 141.869 110.686 145.98C113.579 152.165 117.798 156.101 122.556 157.077C126.903 157.965 131.486 156.391 135.806 152.528C144.696 144.567 150.873 135.638 154.15 125.988C156.896 117.906 155.355 110.921 149.44 104.636C145.55 100.504 140.651 97.0179 134.023 93.66C130.503 91.8767 126.991 89.9387 123.599 88.0612C120.793 86.5135 117.886 84.9052 114.999 83.4045C113.99 82.8796 112.832 82.6374 111.614 82.3884C111.049 82.274 110.484 82.1529 109.932 82.0048C109.905 82.0048 109.885 81.9913 109.865 81.9779H109.858Z" fill="#FF7926" fill-opacity="0.4"/>
    <path d="M185.193 70.8743C181.512 70.8743 177.831 70.2484 174.156 68.9901C161.512 64.6631 151.667 56.2918 147.811 46.5949C144.823 39.0715 145.449 30.8954 149.628 22.9615C153.222 16.1312 158.686 10.7747 164.042 6.00359C171.62 -0.739192 180.617 -4.01637 191.552 -4.01637C194.338 -4.01637 197.285 -3.7943 200.327 -3.36363C204.93 -2.70415 209.741 -3.16848 214.384 -3.61934H214.452C215.542 -3.73374 216.632 -3.83468 217.709 -3.92889C221.995 -4.28555 225.777 -6.12938 229.431 -7.90592C231.638 -8.98261 233.718 -9.99201 235.932 -10.7322L236.08 -10.7793H236.234C236.282 -10.7659 236.329 -10.7726 236.376 -10.7793C241.12 -11.4052 244.034 -10.1131 245.534 -6.70137C246.315 -4.93156 246.773 -2.77145 246.867 -0.443103C247.25 8.99814 244.875 17.1877 239.794 23.8901C236.786 27.8604 233.644 31.8105 230.609 35.6261C227.735 39.233 224.768 42.9678 221.921 46.7025C220.999 47.9138 220.091 49.1587 219.29 50.2624C215.757 55.1075 212.419 59.6834 207.568 63.0817C200.172 68.27 192.682 70.8743 185.186 70.8743H185.193ZM191.559 -2.33404C181.054 -2.33404 172.42 0.801825 165.166 7.26198C159.924 11.9321 154.588 17.1541 151.122 23.7488C147.125 31.3395 146.539 38.8225 149.379 45.9758C153.053 55.2219 162.521 63.2365 174.702 67.4019C185.314 71.0358 196.047 69.1179 206.605 61.7089C211.222 58.4654 214.485 54.0039 217.931 49.2731C218.738 48.1695 219.653 46.9111 220.582 45.6864C223.442 41.9382 226.416 38.1967 229.29 34.583C232.318 30.7742 235.454 26.8376 238.455 22.8807C243.287 16.5013 245.555 8.67513 245.185 -0.36908C245.097 -2.48882 244.687 -4.44032 243.993 -6.01498C242.809 -8.71344 240.595 -9.63536 236.598 -9.10374C236.51 -9.09028 236.416 -9.08355 236.329 -9.08355C234.263 -8.3837 232.278 -7.41468 230.171 -6.39182C226.369 -4.54126 222.446 -2.63013 217.843 -2.24656C216.767 -2.15908 215.69 -2.05141 214.606 -1.95047H214.539C209.795 -1.48615 204.889 -1.00837 200.085 -1.69476C197.124 -2.1187 194.25 -2.33404 191.552 -2.33404H191.559Z" fill="#FF7926" fill-opacity="0.4"/>
    <path d="M21.5152 197.971C19.5368 197.971 17.7131 197.197 16.0712 196.41C10.1897 193.57 5.02162 189.149 0.701394 183.281L-0.442579 181.733C-4.78972 175.859 -9.28492 169.789 -10.8259 162.097C-11.9295 156.579 -11.6873 155.301 -6.38458 153.019C-6.27691 152.972 -6.15579 152.979 -6.05485 153.026C-5.98756 152.993 -5.9068 152.979 -5.81932 152.993C-5.13966 153.1 -4.45326 153.181 -3.76687 153.268C-2.2595 153.45 -0.698295 153.645 0.775427 154.089C6.60302 155.839 11.3405 159.513 16.0846 163.457C25.3173 171.121 29.6577 180.017 29.3549 190.657C29.2674 193.678 27.7398 195.845 24.6712 197.271C23.5811 197.776 22.5313 197.985 21.5152 197.985V197.971ZM-6.04812 153.733C-6.04812 153.733 -6.06157 153.733 -6.06157 153.739C-10.9471 155.846 -11.1018 156.64 -10.0453 161.936C-8.53797 169.459 -4.09661 175.455 0.20343 181.256L1.3474 182.803C5.58688 188.57 10.6608 192.911 16.4278 195.69C18.7427 196.807 21.4546 197.884 24.3482 196.538C27.114 195.253 28.5002 193.315 28.5743 190.616C28.8704 180.24 24.6241 171.545 15.5934 164.049C10.9165 160.166 6.24636 156.539 0.560084 154.83C-0.853074 154.406 -2.3739 154.217 -3.85435 154.042C-4.54747 153.955 -5.24732 153.874 -5.93371 153.766C-5.97408 153.766 -6.00773 153.746 -6.04138 153.733H-6.04812Z" fill="#FF7926" fill-opacity="0.4"/>
    <path d="M38.6212 287.235C38.5741 287.235 38.527 287.229 38.4799 287.209C38.278 287.135 38.1703 286.906 38.2511 286.697C47.9009 261.227 71.4603 241.631 98.2632 236.786C107.725 235.076 117.502 235.11 126.957 235.137C132.166 235.157 137.549 235.171 142.818 234.902C158.047 234.107 172.972 230.898 187.178 225.366C197.662 221.281 205.132 216.779 210.677 211.194C217.668 204.149 221.443 194.943 220.764 186.558C220.003 177.164 214.142 169.169 208.476 161.444C202.87 153.793 197.07 145.879 196.047 136.512C194.647 123.625 202.601 111.762 210.865 100.712C214.095 96.3986 222.049 86.8026 227.857 79.7973C231.275 75.6723 233.973 72.422 234.842 71.2982C242.277 61.6618 251.853 55.5314 264.121 52.5638C273.044 50.4037 276.281 51.0699 280.52 59.6699C284.342 67.4288 286.415 75.6117 287.936 82.5967C289.295 88.8281 289.726 94.151 289.262 98.8884C288.548 106.122 285.042 112.34 280.87 119.144C279.612 121.196 278.279 123.242 276.987 125.227C273.394 130.738 269.686 136.431 267.243 142.777C263.589 152.279 262.936 161.242 265.251 170.186L265.904 172.682C267.546 178.967 269.242 185.461 270.002 191.975C271.382 203.792 268.751 214.337 262.176 223.314C255.662 232.21 251.591 240.372 249.357 248.999C247.19 257.377 244.687 265.809 242.264 273.965C241.201 277.552 240.131 281.139 239.094 284.739C239.034 284.948 238.812 285.069 238.603 285.008C238.395 284.947 238.274 284.725 238.334 284.517C239.377 280.923 240.44 277.33 241.51 273.743C243.933 265.594 246.436 257.169 248.596 248.804C250.857 240.07 254.976 231.819 261.543 222.849C267.997 214.041 270.581 203.684 269.222 192.069C268.468 185.616 266.779 179.142 265.144 172.884L264.491 170.381C262.136 161.269 262.795 152.151 266.51 142.488C268.979 136.061 272.714 130.328 276.328 124.79C277.613 122.811 278.946 120.765 280.204 118.726C284.322 112.011 287.788 105.88 288.481 98.8077C288.939 94.1577 288.508 88.9088 287.169 82.765C285.655 75.827 283.602 67.698 279.82 60.0199C275.796 51.8505 272.903 51.2515 264.316 53.3309C252.23 56.2582 242.796 62.2944 235.474 71.7827C234.599 72.92 231.894 76.177 228.476 80.3088C222.675 87.3073 214.728 96.8898 211.511 101.19C203.335 112.112 195.475 123.827 196.841 136.425C197.837 145.583 203.57 153.409 209.122 160.973C214.855 168.793 220.777 176.875 221.558 186.491C222.258 195.098 218.402 204.539 211.242 211.746C205.616 217.412 198.066 221.968 187.474 226.1C173.187 231.665 158.181 234.888 142.865 235.689C137.576 235.965 132.179 235.951 126.957 235.931C117.536 235.904 107.799 235.871 98.4112 237.566C71.8708 242.364 48.5537 261.758 38.998 286.973C38.9375 287.135 38.7894 287.229 38.6279 287.229L38.6212 287.235Z" fill="#FF7926" fill-opacity="0.4"/>
    <g opacity="0.5">
      <path d="M56.1041 163.504H55.6465V167.878H56.1041V163.504Z" fill="#FF7926"/>
      <path d="M56.1041 154.755H55.6465V159.129H56.1041V154.755Z" fill="#FF7926"/>
      <path d="M56.1041 181H55.6465V185.374H56.1041V181Z" fill="#FF7926"/>
      <path d="M56.1041 172.252H55.6465V176.626H56.1041V172.252Z" fill="#FF7926"/>
      <path d="M56.1041 189.748H55.6465V194.122H56.1041V189.748Z" fill="#FF7926"/>
      <path d="M126.264 154.755H125.806V159.129H126.264V154.755Z" fill="#FF7926"/>
      <path d="M126.264 163.504H125.806V167.878H126.264V163.504Z" fill="#FF7926"/>
      <path d="M126.264 172.252H125.806V176.626H126.264V172.252Z" fill="#FF7926"/>
      <path d="M126.264 181H125.806V185.374H126.264V181Z" fill="#FF7926"/>
      <path d="M126.264 189.748H125.806V194.122H126.264V189.748Z" fill="#FF7926"/>
      <path d="M18.6016 147.878V148.289V148.336H22.9756V148.289V147.878V147.831H18.6016V147.878Z" fill="#FF7926"/>
      <path d="M27.3496 147.878V148.289V148.336H31.7237V148.289V147.878V147.831H27.3496V147.878Z" fill="#FF7926"/>
      <path d="M9.85352 147.878V148.289V148.336H14.2276V148.289V147.878V147.831H9.85352V147.878Z" fill="#FF7926"/>
      <path d="M44.8457 147.878V148.289V148.336H49.2198V148.289V147.878V147.831H44.8457V147.878Z" fill="#FF7926"/>
      <path d="M36.0977 147.878V148.289V148.336H40.4717V148.289V147.878V147.831H36.0977V147.878Z" fill="#FF7926"/>
      <path d="M1.11182 147.878V148.289V148.336H5.47914V148.289V147.878V147.831H1.11182V147.878Z" fill="#FF7926"/>
      <path d="M62.5239 147.878V148.289V148.336H66.898V148.289V147.878V147.831H62.5239V147.878Z" fill="#FF7926"/>
      <path d="M71.272 147.878V148.289V148.336H75.646V148.289V147.878V147.831H71.272V147.878Z" fill="#FF7926"/>
      <path d="M97.5093 147.878V148.289V148.336H101.883V148.289V147.878V147.831H97.5093V147.878Z" fill="#FF7926"/>
      <path d="M106.257 147.878V148.289V148.336H110.631V148.289V147.878V147.831H106.257V147.878Z" fill="#FF7926"/>
      <path d="M115.005 147.878V148.289V148.336H119.379V148.289V147.878V147.831H115.005V147.878Z" fill="#FF7926"/>
      <path d="M88.7681 147.878V148.289V148.336H93.1421V148.289V147.878V147.831H88.7681V147.878Z" fill="#FF7926"/>
      <path d="M80.02 147.878V148.289V148.336H84.3941V148.289V147.878V147.831H80.02V147.878Z" fill="#FF7926"/>
      <path d="M56.0971 145.779H55.6462V147.831H53.5938V147.878V148.289V148.336H55.6462V150.382H56.0971V148.336H58.1495V148.289V147.878V147.831H56.0971V145.779Z" fill="#FF7926"/>
      <path d="M56.1041 102.045H55.6465V106.419H56.1041V102.045Z" fill="#FF7926"/>
      <path d="M56.1041 128.283H55.6465V132.657H56.1041V128.283Z" fill="#FF7926"/>
      <path d="M56.1041 119.534H55.6465V123.908H56.1041V119.534Z" fill="#FF7926"/>
      <path d="M56.1041 93.2961H55.6465V97.6702H56.1041V93.2961Z" fill="#FF7926"/>
      <path d="M56.1041 137.031H55.6465V141.405H56.1041V137.031Z" fill="#FF7926"/>
      <path d="M56.1041 110.793H55.6465V115.167H56.1041V110.793Z" fill="#FF7926"/>
      <path d="M56.1041 84.5481H55.6465V88.9221H56.1041V84.5481Z" fill="#FF7926"/>
      <path d="M185.166 147.878V148.289V148.336H189.54V148.289V147.878V147.831H185.166V147.878Z" fill="#FF7926"/>
      <path d="M132.684 147.878V148.289V148.336H137.058V148.289V147.878V147.831H132.684V147.878Z" fill="#FF7926"/>
      <path d="M176.417 147.878V148.289V148.336H180.792V148.289V147.878V147.831H176.417V147.878Z" fill="#FF7926"/>
      <path d="M141.432 147.878V148.289V148.336H145.806V148.289V147.878V147.831H141.432V147.878Z" fill="#FF7926"/>
      <path d="M167.676 147.878V148.289V148.336H172.05V148.289V147.878V147.831H167.676V147.878Z" fill="#FF7926"/>
      <path d="M158.928 147.878V148.289V148.336H163.302V148.289V147.878V147.831H158.928V147.878Z" fill="#FF7926"/>
      <path d="M150.18 147.878V148.289V148.336H154.554V148.289V147.878V147.831H150.18V147.878Z" fill="#FF7926"/>
      <path d="M126.257 145.779H125.806V147.831H123.754V147.878V148.289V148.336H125.806V150.382H126.257V148.336H128.31V148.289V147.878V147.831H126.257V145.779Z" fill="#FF7926"/>
      <path d="M126.264 93.2961H125.806V97.6702H126.264V93.2961Z" fill="#FF7926"/>
      <path d="M126.264 119.534H125.806V123.908H126.264V119.534Z" fill="#FF7926"/>
      <path d="M126.264 110.793H125.806V115.167H126.264V110.793Z" fill="#FF7926"/>
      <path d="M126.264 128.283H125.806V132.657H126.264V128.283Z" fill="#FF7926"/>
      <path d="M126.264 137.031H125.806V141.405H126.264V137.031Z" fill="#FF7926"/>
      <path d="M126.264 102.045H125.806V106.419H126.264V102.045Z" fill="#FF7926"/>
      <path d="M126.264 84.5481H125.806V88.9221H126.264V84.5481Z" fill="#FF7926"/>
      <path d="M18.6016 77.6705V78.081V78.1213H22.9756V78.081V77.6705V77.6301H18.6016V77.6705Z" fill="#FF7926"/>
      <path d="M9.85352 77.6705V78.081V78.1213H14.2276V78.081V77.6705V77.6301H9.85352V77.6705Z" fill="#FF7926"/>
      <path d="M36.0977 77.6705V78.081V78.1213H40.4717V78.081V77.6705V77.6301H36.0977V77.6705Z" fill="#FF7926"/>
      <path d="M1.11182 77.6705V78.081V78.1213H5.47914V78.081V77.6705V77.6301H1.11182V77.6705Z" fill="#FF7926"/>
      <path d="M44.8457 77.6705V78.081V78.1213H49.2198V78.081V77.6705V77.6301H44.8457V77.6705Z" fill="#FF7926"/>
      <path d="M27.3496 77.6705V78.081V78.1213H31.7237V78.081V77.6705V77.6301H27.3496V77.6705Z" fill="#FF7926"/>
      <path d="M97.5093 77.6705V78.081V78.1213H101.883V78.081V77.6705V77.6301H97.5093V77.6705Z" fill="#FF7926"/>
      <path d="M106.257 77.6705V78.081V78.1213H110.631V78.081V77.6705V77.6301H106.257V77.6705Z" fill="#FF7926"/>
      <path d="M71.272 77.6705V78.081V78.1213H75.646V78.081V77.6705V77.6301H71.272V77.6705Z" fill="#FF7926"/>
      <path d="M115.005 77.6705V78.081V78.1213H119.379V78.081V77.6705V77.6301H115.005V77.6705Z" fill="#FF7926"/>
      <path d="M80.02 77.6705V78.081V78.1213H84.3941V78.081V77.6705V77.6301H80.02V77.6705Z" fill="#FF7926"/>
      <path d="M62.5239 77.6705V78.081V78.1213H66.898V78.081V77.6705V77.6301H62.5239V77.6705Z" fill="#FF7926"/>
      <path d="M88.7681 77.6705V78.081V78.1213H93.1421V78.081V77.6705V77.6301H88.7681V77.6705Z" fill="#FF7926"/>
      <path d="M56.0971 75.5782H55.6462V77.6307H53.5938V77.6711V78.0815V78.1219H55.6462V80.1744H56.0971V78.1219H58.1495V78.0815V77.6711V77.6307H56.0971V75.5782Z" fill="#FF7926"/>
      <path d="M56.1041 58.0823H55.6465V62.4563H56.1041V58.0823Z" fill="#FF7926"/>
      <path d="M56.1041 49.3411H55.6465V53.7152H56.1041V49.3411Z" fill="#FF7926"/>
      <path d="M56.1041 14.3489H55.6465V18.7229H56.1041V14.3489Z" fill="#FF7926"/>
      <path d="M56.1041 66.8301H55.6465V71.2042H56.1041V66.8301Z" fill="#FF7926"/>
      <path d="M56.1041 23.0967H55.6465V27.4708H56.1041V23.0967Z" fill="#FF7926"/>
      <path d="M56.1041 40.593H55.6465V44.967H56.1041V40.593Z" fill="#FF7926"/>
      <path d="M56.1041 31.8449H55.6465V36.2189H56.1041V31.8449Z" fill="#FF7926"/>
      <path d="M167.676 77.6705V78.081V78.1213H172.05V78.081V77.6705V77.6301H167.676V77.6705Z" fill="#FF7926"/>
      <path d="M158.928 77.6705V78.081V78.1213H163.302V78.081V77.6705V77.6301H158.928V77.6705Z" fill="#FF7926"/>
      <path d="M150.18 77.6705V78.081V78.1213H154.554V78.081V77.6705V77.6301H150.18V77.6705Z" fill="#FF7926"/>
      <path d="M176.417 77.6705V78.081V78.1213H180.792V78.081V77.6705V77.6301H176.417V77.6705Z" fill="#FF7926"/>
      <path d="M185.166 77.6705V78.081V78.1213H189.54V78.081V77.6705V77.6301H185.166V77.6705Z" fill="#FF7926"/>
      <path d="M132.684 77.6705V78.081V78.1213H137.058V78.081V77.6705V77.6301H132.684V77.6705Z" fill="#FF7926"/>
      <path d="M141.432 77.6705V78.081V78.1213H145.806V78.081V77.6705V77.6301H141.432V77.6705Z" fill="#FF7926"/>
      <path d="M126.257 75.5782H125.806V77.6307H123.754V77.6711V78.0815V78.1219H125.806V80.1744H126.257V78.1219H128.31V78.0815V77.6711V77.6307H126.257V75.5782Z" fill="#FF7926"/>
      <path d="M126.264 23.0967H125.806V27.4708H126.264V23.0967Z" fill="#FF7926"/>
      <path d="M126.264 14.3489H125.806V18.7229H126.264V14.3489Z" fill="#FF7926"/>
      <path d="M126.264 31.8449H125.806V36.2189H126.264V31.8449Z" fill="#FF7926"/>
      <path d="M126.264 49.3411H125.806V53.7152H126.264V49.3411Z" fill="#FF7926"/>
      <path d="M126.264 66.8301H125.806V71.2042H126.264V66.8301Z" fill="#FF7926"/>
      <path d="M126.264 40.593H125.806V44.967H126.264V40.593Z" fill="#FF7926"/>
      <path d="M126.264 58.0823H125.806V62.4563H126.264V58.0823Z" fill="#FF7926"/>
      <path d="M49.2198 7.47077H44.8457V7.92837H49.2198V7.47077Z" fill="#FF7926"/>
      <path d="M22.9756 7.47077H18.6016V7.92837H22.9756V7.47077Z" fill="#FF7926"/>
      <path d="M5.48588 7.47077H1.11182V7.92837H5.48588V7.47077Z" fill="#FF7926"/>
      <path d="M40.4717 7.47077H36.0977V7.92837H40.4717V7.47077Z" fill="#FF7926"/>
      <path d="M31.7237 7.47077H27.3496V7.92837H31.7237V7.47077Z" fill="#FF7926"/>
      <path d="M14.2276 7.47077H9.85352V7.92837H14.2276V7.47077Z" fill="#FF7926"/>
      <path d="M101.883 7.47077H97.5093V7.92837H101.883V7.47077Z" fill="#FF7926"/>
      <path d="M84.3941 7.47077H80.02V7.92837H84.3941V7.47077Z" fill="#FF7926"/>
      <path d="M75.646 7.47077H71.272V7.92837H75.646V7.47077Z" fill="#FF7926"/>
      <path d="M66.898 7.47077H62.5239V7.92837H66.898V7.47077Z" fill="#FF7926"/>
      <path d="M93.1421 7.47077H88.7681V7.92837H93.1421V7.47077Z" fill="#FF7926"/>
      <path d="M119.379 7.47077H115.005V7.92837H119.379V7.47077Z" fill="#FF7926"/>
      <path d="M110.631 7.47077H106.257V7.92837H110.631V7.47077Z" fill="#FF7926"/>
      <path d="M56.0971 5.4182H55.6462V7.47064H53.5938V7.92151H55.6462V9.97395H56.0971V7.92151H58.1495V7.47064H56.0971V5.4182Z" fill="#FF7926"/>
      <path d="M56.1041 -3.32966H55.6465V1.0444H56.1041V-3.32966Z" fill="#FF7926"/>
      <path d="M137.058 7.47077H132.684V7.92837H137.058V7.47077Z" fill="#FF7926"/>
      <path d="M189.54 7.47077H185.166V7.92837H189.54V7.47077Z" fill="#FF7926"/>
      <path d="M163.302 7.47077H158.928V7.92837H163.302V7.47077Z" fill="#FF7926"/>
      <path d="M154.554 7.47077H150.18V7.92837H154.554V7.47077Z" fill="#FF7926"/>
      <path d="M145.806 7.47077H141.432V7.92837H145.806V7.47077Z" fill="#FF7926"/>
      <path d="M172.05 7.47077H167.676V7.92837H172.05V7.47077Z" fill="#FF7926"/>
      <path d="M180.792 7.47077H176.417V7.92837H180.792V7.47077Z" fill="#FF7926"/>
      <path d="M126.257 5.4182H125.806V7.47064H123.754V7.92151H125.806V9.97395H126.257V7.92151H128.31V7.47064H126.257V5.4182Z" fill="#FF7926"/>
      <path d="M126.264 -3.32966H125.806V1.0444H126.264V-3.32966Z" fill="#FF7926"/>
    </g>
  </g>
  <rect x="143.757" y="127.343" width="1.4343" height="8.60579" fill="#FF7926"/>
  <rect x="147.343" y="125.191" width="1.4343" height="8.60579" transform="rotate(-90 147.343 125.191)" fill="#FF7926"/>
  <rect x="143.757" y="113" width="1.4343" height="8.60579" fill="#FF7926"/>
  <rect x="133.001" y="125.191" width="1.4343" height="8.60579" transform="rotate(-90 133.001 125.191)" fill="#FF7926"/>
  <defs>
    <radialGradient id="paint0_radial_247_10060" cx="0" cy="0" r="1" gradientUnits="userSpaceOnUse" gradientTransform="translate(190 190) rotate(180) scale(190)">
      <stop stop-color="#D9D9D9"/>
      <stop offset="1" stop-color="#737373" stop-opacity="0"/>
    </radialGradient>
  </defs>
</svg>