<svg width="190" height="190" viewBox="0 0 190 190" fill="none" xmlns="http://www.w3.org/2000/svg">
  <mask id="mask0_247_10058" style="mask-type:alpha" maskUnits="userSpaceOnUse" x="0" y="0" width="190" height="190">
    <rect width="190" height="190" fill="url(#paint0_radial_247_10058)"/>
  </mask>
  <g mask="url(#mask0_247_10058)">
    <path d="M182.917 388.204C182.917 388.204 182.944 388.204 182.951 388.204C183.166 388.183 183.328 387.988 183.308 387.773C181.632 369.61 175.118 356.354 163.409 347.242C151.364 337.868 138.726 328.844 126.512 320.116C123.524 317.983 120.543 315.85 117.562 313.717C114.803 311.738 111.512 309.921 107.495 308.165C102.408 305.944 97.3136 307.149 93.4442 308.441C91.5196 309.087 89.6152 309.841 87.7714 310.567C84.3192 311.933 80.746 313.346 76.9641 314.073C70.8068 315.251 65.3224 315.311 60.1946 314.262C50.7669 312.33 42.685 309.41 35.4778 305.339C33.9974 304.504 32.5842 303.495 31.3729 302.613C29.408 301.18 28.3111 299.43 28.1025 297.398C27.8401 294.881 29.0177 292.035 31.4133 289.39L32.5573 288.125C35.9085 284.424 39.3741 280.602 42.409 276.551C44.226 274.128 45.7804 271.147 47.308 267.177C49.3806 261.793 47.2676 256.861 45.2286 252.096L44.9258 251.39C44.0039 249.223 42.9877 247.049 42.0053 244.95C39.2933 239.136 36.4872 233.126 35.3298 226.626C34.8722 224.069 34.455 221.565 34.3204 219.082C34.1791 216.431 34.0983 213.732 34.0176 211.121C33.9099 207.622 33.8022 204.008 33.5465 200.455C33.1966 195.61 30.626 192.03 26.1173 190.106C24.5763 189.446 23.0286 188.793 21.4808 188.141C17.2144 186.344 12.8068 184.487 8.55382 182.495C-2.46208 177.327 -11.0151 170.173 -17.5829 160.625C-23.1279 152.576 -30.2744 145.827 -37.1787 139.73C-43.1207 134.488 -46.9631 127.51 -48.6118 119.01C-50.099 111.319 -49.9644 103.466 -49.8298 95.8749C-49.7962 94.0648 -49.7625 92.2478 -49.7558 90.4377C-49.7356 86.8711 -48.4907 83.1229 -47.414 80.2562C-45.2472 74.4892 -39.2446 71.6763 -33.1411 73.5672C-26.9636 75.4784 -21.5868 77.948 -16.6946 81.1243C-9.42022 85.8415 -2.25349 88.6544 5.21606 89.7311C6.91858 89.9733 8.66822 89.9128 10.364 89.8522C11.5147 89.8118 12.7058 89.7715 13.8633 89.8253C21.7298 90.2021 30.7673 91.0231 38.4858 95.9826C42.4023 98.4994 45.6593 100.861 48.4385 103.196C60.2888 113.163 69.0841 123.6 75.3221 135.107C78.0206 140.08 81.6275 145.463 87.9396 147.671C92.2868 149.185 96.7079 150.356 101.095 151.143C112.381 153.175 121.001 159.662 127.454 170.967C131.485 178.027 132.972 184.722 132.003 191.438C131.472 195.146 129.453 198.827 127.986 201.27C127.239 202.508 126.438 203.753 125.664 204.957C122.952 209.17 120.146 213.524 119.069 218.699C118.417 221.834 117.589 225.96 117.017 230.111C116.586 233.247 116.149 236.403 116.358 239.499C116.432 240.596 116.499 241.699 116.566 242.803C116.889 248.133 117.226 253.651 118.504 258.852C120.247 265.945 125.671 271.712 132.663 273.899C139.554 276.059 146.767 274.417 152.44 269.404C156.747 265.595 160.986 261.578 165.091 257.688C167.958 254.97 170.926 252.163 173.887 249.452C177.783 245.885 182.063 242.164 186.975 238.079C194.202 232.07 203.051 228.934 211.611 225.906C212.439 225.61 213.267 225.32 214.101 225.024C215.454 224.54 216.806 224.055 218.159 223.564C222.58 221.969 227.156 220.32 231.691 218.833C243.589 214.93 249.625 218.847 255.022 225.939C261.603 234.586 264.813 244.822 264.557 256.369C264.416 262.722 262.068 268.825 257.761 274.014C254.174 278.334 250.386 282.607 246.725 286.739C243.797 290.036 240.769 293.448 237.862 296.866C236.012 299.047 234.578 301.664 233.313 304.168C230.346 310.022 233.434 314.706 236.846 318.999C239.787 322.7 242.822 325.735 245.87 328.023C253.521 333.757 257.074 341.576 257.048 352.619C257.021 363.615 258.373 375.095 261.186 387.719C261.233 387.934 261.449 388.069 261.657 388.022C261.872 387.975 262.007 387.766 261.96 387.551C259.161 374.987 257.808 363.561 257.842 352.626C257.869 341.307 254.221 333.285 246.348 327.391C243.353 325.15 240.366 322.162 237.465 318.508C234.08 314.241 231.261 309.962 234.02 304.524C235.265 302.068 236.664 299.498 238.468 297.385C241.368 293.973 244.39 290.561 247.317 287.264C250.984 283.125 254.78 278.845 258.373 274.518C262.794 269.189 265.21 262.917 265.352 256.383C265.607 244.654 262.35 234.243 255.655 225.455C250.049 218.093 243.791 214.022 231.449 218.079C226.9 219.573 222.324 221.222 217.89 222.817C216.537 223.301 215.191 223.793 213.839 224.27C213.011 224.567 212.183 224.856 211.355 225.152C202.735 228.2 193.819 231.356 186.477 237.46C181.558 241.551 177.265 245.286 173.362 248.859C170.394 251.578 167.426 254.391 164.56 257.11C160.462 260.992 156.222 265.01 151.929 268.805C146.471 273.63 139.54 275.211 132.912 273.139C126.182 271.033 120.96 265.488 119.285 258.657C118.026 253.523 117.69 248.045 117.367 242.742C117.3 241.639 117.232 240.535 117.158 239.432C116.95 236.424 117.38 233.301 117.798 230.286C118.376 226.087 119.197 221.969 119.85 218.853C120.9 213.82 123.666 209.533 126.337 205.381C127.111 204.177 127.919 202.925 128.672 201.673C130.173 199.17 132.239 195.402 132.797 191.552C133.793 184.655 132.272 177.791 128.154 170.577C121.58 159.057 112.778 152.442 101.244 150.369C96.8964 149.588 92.5089 148.431 88.2088 146.93C82.1524 144.817 78.6532 139.582 76.022 134.737C69.7368 123.142 60.881 112.631 48.9567 102.598C46.1438 100.236 42.8666 97.8534 38.9165 95.3231C31.0298 90.256 21.8712 89.4215 13.9036 89.038C12.7125 88.9774 11.508 89.0245 10.3371 89.0649C8.68165 89.1254 6.95894 89.186 5.33045 88.9505C-2.0247 87.894 -9.09047 85.1215 -16.2639 80.4648C-21.2234 77.2482 -26.6675 74.7449 -32.9123 72.8136C-39.4263 70.8015 -45.8393 73.8162 -48.1542 79.9803C-49.2578 82.9075 -50.5229 86.7433 -50.5431 90.4377C-50.5566 92.2478 -50.5835 94.058 -50.6171 95.8615C-50.7517 103.493 -50.893 111.386 -49.3857 119.165C-47.7033 127.846 -43.7734 134.966 -37.7035 140.329C-30.8396 146.392 -23.7335 153.094 -18.2356 161.075C-11.5803 170.739 -2.92641 177.979 8.21735 183.208C12.4837 185.213 16.9049 187.071 21.178 188.867C22.7258 189.52 24.2668 190.166 25.8145 190.826C30.0876 192.649 32.4294 195.906 32.7592 200.502C33.0149 204.035 33.1293 207.642 33.2302 211.135C33.311 213.753 33.3917 216.458 33.5331 219.116C33.6676 221.639 34.0916 224.17 34.5559 226.754C35.7336 233.355 38.5598 239.411 41.292 245.273C42.2677 247.365 43.2771 249.532 44.199 251.692L44.5019 252.399C46.4803 257.015 48.526 261.793 46.5678 266.881C45.0671 270.777 43.5463 273.697 41.7697 276.059C38.755 280.083 35.3029 283.892 31.9651 287.573L30.8211 288.838C28.2774 291.651 27.0325 294.713 27.3152 297.459C27.544 299.686 28.7889 301.685 30.9086 303.232C32.1333 304.127 33.5734 305.157 35.0875 306.012C42.3687 310.123 50.5313 313.064 60.0331 315.015C65.2686 316.092 70.8539 316.031 77.1122 314.827C80.9681 314.087 84.575 312.66 88.0607 311.281C89.8979 310.554 91.7955 309.8 93.6999 309.168C99.2516 307.31 103.41 307.216 107.185 308.865C111.149 310.601 114.399 312.384 117.105 314.329C120.086 316.469 123.067 318.602 126.055 320.729C138.268 329.45 150.892 338.474 162.931 347.834C174.459 356.804 180.872 369.88 182.527 387.813C182.547 388.022 182.715 388.17 182.917 388.17V388.204Z" fill="#FF7926" fill-opacity="0.4"/>
    <path d="M179.466 389.388C179.573 389.388 179.681 389.374 179.795 389.354C180.65 389.172 181.195 388.338 181.02 387.483C180.872 386.784 180.717 386.09 180.562 385.397C180.239 383.957 179.903 382.463 179.674 381.01C177.507 367.316 170.448 355.573 159.271 347.047C148.107 338.534 136.203 330.648 124.696 323.023C122.307 321.442 119.918 319.854 117.529 318.266C112.28 314.766 106.762 312.923 101.56 312.923C101.426 312.923 101.284 312.923 101.15 312.923C97.9802 312.983 94.878 313.838 91.8767 314.659C90.7327 314.975 89.5484 315.298 88.4044 315.567C86.4933 316.011 84.5754 316.523 82.7181 317.021C78.9766 318.017 75.114 319.053 71.2985 319.537C65.0738 320.332 58.3176 319.49 50.6193 316.974C49.1119 316.482 47.6045 316.005 46.0904 315.52C38.3584 313.071 30.3572 310.534 23.3789 306.099C19.7047 303.764 17.3091 301.348 17.5514 297.176C17.7869 293.044 20.2498 290.225 23.8635 287.25L25.5996 285.83C28.971 283.078 32.4568 280.225 35.66 277.143C43.7553 269.35 45.3839 260.703 40.781 249.936C34.6506 235.596 30.862 222.292 29.1998 209.271C28.3317 202.474 25.64 197.703 20.9766 194.675C19.3279 193.605 17.6657 192.474 16.0574 191.384C13.0494 189.345 9.94723 187.232 6.73061 185.375C-4.45353 178.888 -11.9836 172.636 -17.6901 165.099C-24.8232 155.678 -31.5727 148.841 -38.9413 143.586C-44.4392 139.663 -48.2009 134.838 -50.1322 129.252C-52.696 121.837 -53.1469 113.997 -53.3891 106.608C-53.6987 97.0997 -53.194 87.3825 -52.7499 78.8094C-52.6018 76.0167 -52.0635 73.2644 -51.4915 70.3573C-51.2425 69.099 -50.9935 67.8338 -50.7782 66.5687L-50.6032 65.5459C-49.3381 58.1503 -48.0259 50.4991 -52.3528 43.0834C-52.797 42.3297 -53.766 42.074 -54.5197 42.5181C-55.2734 42.9555 -55.5291 43.9246 -55.0917 44.685C-51.3434 51.1048 -52.5009 57.861 -53.7256 65.0143L-53.9006 66.0438C-54.1092 67.282 -54.3515 68.5135 -54.5937 69.745C-55.1657 72.6386 -55.7511 75.6264 -55.9126 78.6479C-56.3635 87.2883 -56.8749 97.0728 -56.5587 106.716C-56.3097 114.354 -55.8387 122.463 -53.1335 130.289C-50.9868 136.507 -46.8348 141.85 -40.7851 146.163C-33.6924 151.23 -27.1583 157.859 -20.2203 167.017C-14.2447 174.904 -6.42521 181.411 5.13576 188.121C8.25144 189.924 11.3133 192.003 14.2742 194.015C15.896 195.112 17.5716 196.25 19.2472 197.34C23.1367 199.863 25.3036 203.786 26.0572 209.681C27.7598 222.999 31.6224 236.572 37.8672 251.188C41.9384 260.716 40.5791 268.024 33.4595 274.875C30.3505 277.869 26.9118 280.676 23.5875 283.388L21.8447 284.814C18.157 287.842 14.6981 291.416 14.3751 297.001C14.0252 303.064 17.8676 306.355 21.6697 308.771C28.9979 313.427 37.1942 316.025 45.1214 318.542C46.622 319.019 48.1227 319.49 49.6233 319.982C57.7792 322.653 64.9931 323.535 71.6888 322.68C75.7129 322.169 79.6832 321.105 83.5256 320.083C85.3627 319.591 87.2537 319.087 89.1177 318.649C90.3222 318.367 91.5403 318.037 92.7112 317.714C95.6519 316.906 98.4378 316.139 101.21 316.092C101.331 316.092 101.446 316.092 101.567 316.092C106.143 316.092 111.055 317.754 115.779 320.904C118.168 322.492 120.557 324.08 122.953 325.668C134.42 333.265 146.277 341.125 157.36 349.57C168.032 357.706 174.493 368.453 176.559 381.515C176.808 383.069 177.151 384.617 177.487 386.104C177.642 386.784 177.797 387.463 177.938 388.15C178.093 388.897 178.752 389.408 179.486 389.408L179.466 389.388Z" fill="#FF7926" fill-opacity="0.6"/>
    <path d="M178.88 206.754C182.972 206.754 187.346 205.415 190.912 204.332C191.41 204.177 191.895 204.036 192.359 203.894C202.487 200.88 209.667 195.678 214.317 188.006C220.292 178.141 225.124 167.516 228.67 156.419C230.635 150.275 230.144 144.071 227.224 137.967C224.761 132.819 220.568 130.37 215.34 127.698C208.334 124.118 201.174 120.552 194.25 117.106L193.335 116.649C191.02 115.498 188.698 114.341 186.383 113.183C180.724 110.357 176.451 105.7 173.678 99.3342C172.238 96.0166 171.054 92.3828 170.179 88.5269C169.573 85.8755 168.874 83.1972 168.194 80.6065C166.35 73.5608 164.439 66.273 164.23 58.7294C164.136 55.2705 163.954 51.7444 163.786 48.3393C163.705 46.7041 163.625 45.1295 163.557 43.5615L161.875 43.6355C161.949 45.2102 162.023 46.7849 162.104 48.3595C162.279 51.8184 162.454 55.3311 162.548 58.7698C162.763 66.5085 164.695 73.8839 166.565 81.0237C167.245 83.6077 167.938 86.2725 168.537 88.897C169.439 92.8538 170.65 96.5953 172.137 100C175.071 106.736 179.607 111.676 185.63 114.684C187.945 115.841 190.266 116.992 192.581 118.149L193.496 118.607C200.421 122.052 207.581 125.612 214.572 129.192C219.512 131.716 223.462 134.017 225.703 138.687C228.435 144.387 228.892 150.181 227.069 155.901C223.563 166.87 218.792 177.374 212.883 187.125C208.455 194.426 201.585 199.379 191.881 202.273C191.417 202.414 190.926 202.562 190.428 202.71C184.97 204.379 177.494 206.66 172.81 203.423C167.938 200.059 165.805 191.337 164.096 184.326C163.605 182.313 163.14 180.416 162.656 178.821C161.815 176.082 160.953 173.249 160.058 170.423C159.722 169.366 159.392 168.303 159.062 167.24L159.029 167.139C157.191 161.244 155.294 155.147 152.454 149.333C147.239 138.647 137.078 134.01 127.246 129.529C125.032 128.519 122.737 127.469 120.55 126.379C112.973 122.584 106.5 116.999 100.241 111.595C92.5698 104.973 84.7301 99.4553 78.0748 94.9332C72.5568 91.1849 67.8866 85.6938 65.8947 80.593C62.9338 73.036 67.1935 68.2312 72.1261 62.6728C72.5972 62.1412 73.0749 61.6028 73.546 61.0578C76.2512 57.9488 79.0102 54.7726 81.6145 51.5358C82.745 50.1293 83.3843 48.5345 83.9966 46.9935C84.2591 46.3407 84.4879 45.7687 84.7368 45.2304L83.2161 44.5104C82.9401 45.0891 82.7046 45.688 82.4489 46.3205C81.8634 47.7943 81.2713 49.268 80.2955 50.4793C77.7114 53.6959 74.9659 56.8587 72.3078 59.9138C71.8031 60.4925 71.332 61.0241 70.861 61.5557C66.0091 67.0267 60.9891 72.686 64.3268 81.2054C66.4398 86.6023 71.3388 92.3895 77.126 96.3194C83.7409 100.815 91.5335 106.292 99.1376 112.86C105.47 118.331 112.024 123.984 119.79 127.873C122.004 128.984 124.312 130.033 126.539 131.049C136.539 135.612 145.987 139.925 150.933 150.067C153.712 155.766 155.597 161.802 157.414 167.637L157.447 167.738C157.777 168.801 158.107 169.864 158.45 170.927C159.345 173.74 160.206 176.573 161.047 179.305C161.518 180.853 161.976 182.731 162.467 184.716C164.251 192.004 166.465 201.075 171.861 204.796C173.914 206.216 176.35 206.734 178.894 206.734L178.88 206.754Z" fill="#FF7926" fill-opacity="0.4"/>
    <path d="M333.823 289.875C344.226 289.875 352.685 286.739 359.038 280.514C378.31 261.618 374.535 217.797 372.281 191.606C372.065 189.116 371.864 186.768 371.695 184.594C371.083 176.775 372.806 169.077 374.475 161.634C374.656 160.813 374.845 159.992 375.026 159.171C376.002 154.75 376.46 150.315 376.392 145.988C376.345 143.007 375.235 140.632 373.337 139.468C371.985 138.64 369.603 138.027 365.949 139.817C364.69 140.43 363.587 141.365 362.523 142.267C362.254 142.496 361.992 142.718 361.723 142.94C357.268 146.58 354.879 151.587 352.571 156.432C351.911 157.812 351.232 159.238 350.511 160.611C350.222 161.163 349.933 161.728 349.643 162.293C347.867 165.772 346.03 169.366 343.284 171.755C334.63 179.285 324.792 182.367 314.052 180.92C307.417 180.025 302.585 178.121 298.837 174.911C294.995 171.62 291.468 167.818 288.057 164.137C287.155 163.161 286.253 162.192 285.345 161.23C284.275 160.093 283.198 158.962 282.121 157.832C278.097 153.613 273.939 149.245 270.264 144.636C266.126 139.434 262.795 134.239 260.359 129.192C257.754 123.795 255.998 117.866 254.296 112.126L254.074 111.366C250.372 98.883 243.636 90.5588 233.475 85.9156C227.116 83.0085 220.259 81.8847 213.63 80.7946L213.354 80.7475C204.445 79.2805 194.331 76.5215 186.901 67.1946C181.525 60.4451 178.638 52.915 177.803 43.4939C177.783 43.2786 177.595 43.1104 177.373 43.1373C177.157 43.1575 176.996 43.3459 177.016 43.568C177.851 53.0159 180.879 60.9027 186.282 67.6859C193.873 77.2213 204.162 80.0342 213.227 81.5213L213.502 81.5685C220.084 82.6519 226.887 83.7689 233.145 86.6289C243.085 91.1712 249.686 99.3339 253.313 111.581L253.535 112.342C255.244 118.109 257.008 124.071 259.639 129.522C262.102 134.616 265.466 139.865 269.638 145.113C273.333 149.757 277.505 154.131 281.536 158.363C282.613 159.494 283.689 160.618 284.753 161.755C285.661 162.717 286.556 163.686 287.458 164.662C290.883 168.357 294.429 172.186 298.305 175.503C302.175 178.814 307.134 180.779 313.931 181.694C324.906 183.168 334.953 180.025 343.789 172.34C346.649 169.857 348.52 166.19 350.33 162.643C350.619 162.078 350.909 161.52 351.198 160.961C351.925 159.575 352.604 158.141 353.27 156.755C355.545 151.991 357.894 147.065 362.207 143.532C362.476 143.31 362.745 143.081 363.021 142.852C364.051 141.984 365.114 141.083 366.285 140.511C368.923 139.219 371.218 139.084 372.913 140.127C374.569 141.143 375.545 143.276 375.592 145.982C375.659 150.241 375.208 154.615 374.246 158.976C374.064 159.797 373.882 160.618 373.694 161.439C372.012 168.942 370.275 176.694 370.895 184.635C371.063 186.815 371.271 189.164 371.48 191.653C373.721 217.696 377.476 261.295 358.472 279.929C351.117 287.143 340.828 290.103 327.887 288.744C326.138 288.091 276.65 269.229 266.455 223.779C264.692 215.919 262.882 208.934 258.636 203.107C256.113 199.648 252.418 196.317 248.232 193.733C243.663 190.906 238.509 191.351 233.731 194.991C232.069 196.256 230.407 197.542 228.751 198.82C224.761 201.902 220.642 205.092 216.443 208.019C215.292 208.82 214.229 209.728 213.2 210.596C211.342 212.171 209.586 213.665 207.352 214.614C204.983 215.623 202.446 216.296 199.99 216.949C198.664 217.299 197.292 217.669 195.959 218.079C187.992 220.556 180.017 225.367 170.865 233.22C165.664 237.682 159.91 242.238 153.073 245.279C148.861 247.157 140.476 246.915 137.973 242.756C131.829 232.548 136.66 224.344 141.775 215.657C143.033 213.517 144.338 211.296 145.482 209.042C153.591 192.986 148.625 175.288 130.308 154.925C122.636 146.405 112.832 140.437 103.343 134.67C94.6357 129.374 85.6251 123.903 78.2363 116.44C75.9147 114.098 73.6133 111.763 71.3186 109.428C63.4587 101.447 55.3365 93.19 46.9181 85.3234C41.6423 80.3975 36.4001 77.329 30.8754 75.936C27.8808 75.1823 24.8055 74.5094 21.8379 73.8701C19.2538 73.3116 16.589 72.7261 13.978 72.0936C5.26357 69.9671 -2.58954 65.5796 -9.27176 61.6295C-13.3699 59.2069 -16.7615 55.3914 -20.0454 51.697L-20.5703 51.1048C-21.8556 49.658 -22.7102 47.7469 -23.5447 45.8963C-23.9282 45.0484 -24.3185 44.1669 -24.7559 43.3324C-24.8569 43.1373 -25.0992 43.0633 -25.2876 43.1642C-25.4827 43.2651 -25.5568 43.5074 -25.4558 43.6958C-25.0319 44.5033 -24.6416 45.3782 -24.2647 46.2126C-23.4101 48.117 -22.5286 50.0887 -21.1625 51.623L-20.6376 52.2151C-17.3133 55.9499 -13.8814 59.8193 -9.67554 62.3024C-2.94622 66.2794 4.96746 70.7073 13.7896 72.854C16.4073 73.4933 19.0789 74.072 21.6629 74.6372C24.6238 75.2833 27.6924 75.9495 30.6735 76.7031C36.1377 78.0827 41.1241 81.0032 46.3663 85.9021C54.7712 93.7553 62.8867 102.005 70.7398 109.98C73.0413 112.315 75.3427 114.657 77.6576 116.992C85.1204 124.522 94.1646 130.02 102.919 135.342C112.361 141.083 122.118 147.018 129.709 155.45C148.033 175.819 152.817 192.73 144.769 208.679C143.645 210.913 142.347 213.113 141.088 215.246C135.853 224.143 130.9 232.541 137.286 243.153C140.234 248.052 149.385 247.776 153.389 245.993C160.321 242.904 166.128 238.315 171.377 233.813C180.441 226.034 188.328 221.269 196.188 218.826C197.507 218.416 198.866 218.053 200.185 217.703C202.668 217.043 205.232 216.357 207.655 215.327C209.996 214.331 211.881 212.73 213.704 211.182C214.72 210.321 215.77 209.432 216.887 208.652C221.1 205.711 225.232 202.521 229.222 199.426C230.878 198.147 232.533 196.869 234.195 195.604C238.697 192.178 243.529 191.748 247.802 194.392C251.907 196.929 255.52 200.186 257.983 203.564C262.142 209.264 263.925 216.168 265.668 223.941C276.092 270.413 327.134 289.309 327.652 289.498C327.679 289.511 327.713 289.518 327.746 289.518C329.832 289.74 331.858 289.848 333.809 289.848L333.823 289.875Z" fill="#FF7926" fill-opacity="0.4"/>
    <path d="M69.7575 299.208C73.8826 299.208 77.8999 297.606 81.3386 294.457C82.0519 293.804 82.7652 293.158 83.4785 292.512L83.64 292.364C86.3116 289.949 89.0706 287.445 91.6143 284.801C92.4488 283.932 93.3505 283.091 94.1445 282.351C96.6007 280.063 98.9089 277.91 100.167 274.747C104.588 263.61 106.971 251.403 107.664 236.336C107.745 234.586 107.798 232.837 107.859 231.08C107.973 227.48 108.094 223.759 108.431 220.091C108.801 216.027 109.501 212.595 110.557 209.587C111.641 206.512 112.96 203.477 114.238 200.543C115.174 198.389 116.129 196.196 116.991 193.988C117.966 191.492 119.07 188.665 119.312 185.92C119.978 178.248 116.715 171.533 109.609 165.974C106.479 163.531 102.482 162.313 98.4782 162.657C92.8189 163.155 88.1218 165.954 84.1246 171.23C79.0507 177.925 73.7143 182.993 67.8127 186.714C61.9582 190.402 56.7564 193.84 52.3083 198.517C44.61 206.606 40.1148 221.895 46.9518 234.284C50.8346 241.329 54.9866 248.92 59.0175 256.733C62.4158 263.321 63.2233 269.646 61.4333 275.528C60.4306 278.825 59.0646 282.048 57.7389 285.164C57.1804 286.469 56.6353 287.761 56.1104 289.06L56.0028 289.323L56.0768 289.592C56.8776 292.607 57.934 294.928 60.4777 296.469C63.4992 298.293 66.6553 299.201 69.7575 299.201V299.208ZM99.8039 164.292C102.967 164.292 106.076 165.362 108.565 167.307C115.201 172.495 118.249 178.713 117.637 185.785C117.421 188.282 116.358 190.994 115.423 193.383C114.575 195.556 113.626 197.737 112.704 199.85C111.405 202.837 110.073 205.899 108.969 209.028C107.866 212.164 107.139 215.731 106.755 219.937C106.412 223.651 106.291 227.399 106.177 231.02C106.123 232.763 106.062 234.512 105.981 236.249C105.302 251.127 102.953 263.159 98.6061 274.121C97.489 276.934 95.3154 278.96 93.014 281.106C92.193 281.867 91.2711 282.728 90.403 283.63C87.8997 286.234 85.1609 288.717 82.5095 291.113L82.348 291.261C81.628 291.913 80.9147 292.559 80.2014 293.212C74.7574 298.199 67.705 298.878 61.3458 295.036C59.3472 293.831 58.4791 291.994 57.7793 289.437C58.2705 288.239 58.7752 287.041 59.2799 285.85C60.6258 282.674 62.012 279.41 63.0416 276.026C64.9662 269.707 64.1116 262.957 60.5114 255.972C56.4738 248.139 52.3151 240.535 48.4255 233.483C41.9721 221.787 46.2385 207.339 53.5263 199.688C57.8398 195.153 62.9541 191.781 68.7144 188.154C74.791 184.325 80.2687 179.123 85.4704 172.266C89.1648 167.394 93.4716 164.803 98.633 164.352C99.0233 164.319 99.4271 164.299 99.8174 164.299L99.8039 164.292Z" fill="#FF7926" fill-opacity="0.4"/>
    <path d="M264.329 388.203C264.544 388.203 264.726 388.028 264.726 387.806C264.726 387.483 264.733 387.16 264.746 386.83C264.766 386.117 264.787 385.383 264.713 384.657C264.497 382.591 264.228 380.491 263.966 378.459C263.427 374.28 262.876 369.96 262.768 365.714C262.64 360.727 262.842 355.647 263.03 350.727C263.151 347.618 263.279 344.402 263.32 341.239C263.407 334.92 260.769 329.409 255.271 324.402C253.912 323.164 252.479 321.973 251.092 320.822C249.269 319.308 247.391 317.747 245.675 316.078C241.261 311.771 240.817 307.108 244.282 301.401C247.728 295.729 252.485 291.085 257.088 286.597C258.232 285.48 259.376 284.37 260.5 283.232C270.311 273.367 273.555 261.409 270.13 247.681C267.128 235.629 262.586 226.121 256.254 218.611C248.185 209.035 240.581 207.278 230.01 212.554C228.993 213.066 227.977 213.591 226.968 214.122C224.828 215.246 222.614 216.403 220.36 217.332C217.271 218.611 214.095 219.829 211.019 220.999C206.598 222.695 202.022 224.445 197.628 226.41C188.402 230.535 180.771 237.217 173.396 243.684L171.922 244.976C164.661 251.322 158.066 256.974 150.886 261.779C145.9 265.117 140.261 266.153 135.395 264.619C130.617 263.112 126.943 259.363 124.77 253.771C123.895 251.517 123.585 248.973 123.289 246.517C123.101 244.963 122.906 243.354 122.569 241.807C121.015 234.66 121.755 227.19 124.837 218.981C126.324 215.017 128.848 211.343 131.29 207.783C131.957 206.814 132.623 205.838 133.269 204.869C137.798 198.026 139.292 191.444 137.966 184.17C136.856 178.06 134.123 172.797 131.425 167.925C128.215 162.131 124.056 157.286 119.056 153.525C113.417 149.278 106.91 147.253 101.251 145.685C91.6816 143.04 84.2457 137.825 79.1516 130.194C75.0938 124.117 70.8745 119.037 66.238 114.669C63.6674 112.247 61.0228 109.824 58.4589 107.483C55 104.32 51.42 101.043 47.9948 97.7318C39.3005 89.3201 28.3586 85.0402 13.5609 84.2529C5.70102 83.8357 -0.880283 82.1063 -6.56656 78.9704C-15.8261 73.8628 -24.803 68.2506 -33.4839 62.8268C-39.9709 58.769 -46.7474 53.6008 -45.0516 43.6011C-45.0179 43.3857 -45.1592 43.1839 -45.3746 43.1435C-45.5832 43.1098 -45.7918 43.2511 -45.8321 43.4665C-47.6087 53.9508 -40.6035 59.3006 -33.9011 63.493C-25.2135 68.9235 -16.2299 74.5425 -6.95014 79.6635C-1.15619 82.8599 5.53952 84.6163 13.5205 85.0402C28.1164 85.8141 38.8968 90.0267 47.443 98.297C50.8749 101.621 54.4617 104.898 57.9273 108.068C60.4844 110.41 63.129 112.826 65.6929 115.248C70.2823 119.575 74.468 124.609 78.4854 130.638C83.6871 138.437 91.2711 143.754 101.035 146.459C106.627 148.007 113.054 150.005 118.579 154.164C123.484 157.858 127.576 162.623 130.732 168.316C133.397 173.127 136.095 178.329 137.185 184.318C138.471 191.377 137.017 197.77 132.609 204.439C131.97 205.408 131.304 206.377 130.638 207.346C128.168 210.939 125.618 214.66 124.097 218.712C120.954 227.069 120.207 234.68 121.795 241.982C122.125 243.489 122.313 245.077 122.502 246.618C122.805 249.121 123.121 251.712 124.029 254.061C126.29 259.888 130.14 263.798 135.153 265.379C140.24 266.981 146.135 265.911 151.317 262.439C158.537 257.607 165.152 251.941 172.433 245.575L173.907 244.283C181.242 237.856 188.819 231.208 197.944 227.13C202.318 225.172 206.881 223.429 211.295 221.74C214.371 220.562 217.554 219.344 220.656 218.059C222.944 217.11 225.171 215.946 227.331 214.815C228.334 214.29 229.343 213.765 230.359 213.254C240.534 208.173 247.862 209.869 255.648 219.109C261.9 226.524 266.388 235.932 269.363 247.863C272.714 261.308 269.544 273.017 259.942 282.667C258.818 283.798 257.681 284.908 256.537 286.018C251.9 290.54 247.102 295.217 243.609 300.978C239.969 306.973 240.467 312.094 245.124 316.63C246.86 318.319 248.757 319.894 250.588 321.414C251.967 322.558 253.394 323.743 254.74 324.968C260.063 329.813 262.613 335.129 262.532 341.212C262.492 344.368 262.364 347.578 262.243 350.68C262.048 355.606 261.853 360.707 261.981 365.72C262.088 370.014 262.647 374.354 263.185 378.546C263.448 380.572 263.717 382.665 263.932 384.724C263.999 385.397 263.986 386.077 263.966 386.79C263.959 387.12 263.946 387.456 263.946 387.786C263.946 388.001 264.12 388.183 264.343 388.183L264.329 388.203Z" fill="#FF7926" fill-opacity="0.4"/>
    <path d="M17.5175 163.034C19.2537 163.034 21.0571 162.879 22.9144 162.569C29.6639 161.445 36.0433 158.384 42.4227 153.195C50.9959 146.23 54.3471 135.013 50.3902 126.534C42.5573 109.744 29.96 103.223 10.7343 106.023C5.02788 106.85 -1.0218 108.378 -7.24643 110.552L-7.41466 110.612C-12.4953 112.382 -18.2489 114.394 -18.9353 121.46C-18.942 121.534 -18.9285 121.608 -18.8949 121.668C-18.9285 121.742 -18.942 121.83 -18.9285 121.917C-18.8209 122.456 -18.7266 123.008 -18.6324 123.553C-18.4306 124.737 -18.2219 125.962 -17.8585 127.126C-14.1305 138.99 -7.21277 149.346 2.6928 157.899C6.62945 161.297 11.6899 163.04 17.5175 163.04V163.034ZM18.8432 106.191C33.2507 106.191 43.1562 112.893 49.6769 126.87C53.4184 134.898 50.0874 145.948 41.9247 152.583C35.653 157.677 29.3947 160.692 22.7865 161.789C14.8998 163.101 8.1301 161.546 3.21097 157.293C-6.5802 148.841 -13.4172 138.606 -17.1049 126.884C-17.4548 125.767 -17.6567 124.569 -17.8518 123.411C-17.946 122.86 -18.0402 122.301 -18.1479 121.756C-18.1546 121.722 -18.1681 121.689 -18.1816 121.662C-18.1614 121.621 -18.1479 121.574 -18.1412 121.527C-17.5086 114.959 -12.2396 113.122 -7.14547 111.352L-6.97724 111.292C-0.799718 109.132 5.20284 107.624 10.8622 106.803C13.6683 106.393 16.3331 106.191 18.8566 106.191H18.8432Z" fill="#FF7926" fill-opacity="0.4"/>
    <path d="M136.432 123.882C138.78 123.882 141.088 123.586 143.295 122.967C148.578 121.486 151.707 117.819 153.437 111.069C155.368 103.519 153.625 96.1974 151.929 89.1114C151.606 87.7655 151.283 86.4129 150.987 85.0738C149.083 76.4266 148.887 69.1791 150.354 62.2681C150.866 59.859 151.175 57.3826 151.478 54.9803C151.613 53.8969 151.747 52.8134 151.902 51.7367L155.684 41.885C155.765 41.6831 155.664 41.4543 155.455 41.3736C155.253 41.2928 155.025 41.3938 154.944 41.6024L151.149 51.4945C151.149 51.4945 151.128 51.5483 151.128 51.582C150.974 52.6788 150.832 53.7825 150.691 54.8861C150.388 57.2682 150.079 59.7312 149.574 62.1066C148.08 69.132 148.275 76.4872 150.206 85.2488C150.503 86.5946 150.826 87.9472 151.149 89.2998C152.817 96.2916 154.54 103.519 152.656 110.874C151.007 117.314 148.046 120.813 143.067 122.206C132.878 125.059 120.301 120.847 113.168 112.193C112.327 111.17 111.493 110.093 110.692 109.057C107.832 105.356 104.878 101.527 100.564 99.017C96.6208 96.729 91.917 94.0709 86.897 91.7358C82.7517 89.8045 79.9792 87.0051 78.8756 83.6405C77.7518 80.2085 78.3305 76.3593 80.6118 72.1939C84.1177 65.7741 87.4757 59.139 90.7192 52.726C92.1593 49.8727 93.5994 47.0262 95.0596 44.1864C95.1606 43.9913 95.0798 43.7558 94.8914 43.6548C94.6963 43.5539 94.4607 43.6346 94.3598 43.8231C92.8995 46.6628 91.4595 49.5161 90.0127 52.3693C86.7691 58.7756 83.4179 65.404 79.9187 71.817C77.5634 76.1238 76.9443 80.296 78.1287 83.8894C79.3063 87.4695 82.2268 90.4304 86.5672 92.4559C91.5604 94.7775 96.244 97.4221 100.174 99.7034C104.36 102.133 107.267 105.901 110.073 109.542C110.88 110.585 111.715 111.668 112.563 112.698C118.343 119.716 127.616 123.889 136.418 123.889L136.432 123.882Z" fill="#FF7926" fill-opacity="0.4"/>
    <path d="M134.386 116.978C138.141 116.978 142.131 115.827 145.159 111.715C147.743 108.216 148.753 103.842 148.255 98.3509C147.925 94.6969 147.017 91.0496 146.135 87.5234L145.893 86.5612C143.632 77.4429 146.741 56.9925 148.066 48.2578C148.571 44.9268 148.746 43.7627 148.679 43.4464C148.638 43.231 148.423 43.0897 148.215 43.1368C147.999 43.1772 147.865 43.3858 147.905 43.6012C147.932 43.8703 147.629 45.8487 147.286 48.1367C145.839 57.6587 142.831 77.4766 145.126 86.7428L145.368 87.7051C146.236 91.2044 147.138 94.818 147.468 98.4115C147.945 103.701 146.983 107.893 144.52 111.231C141.102 115.861 136.243 117.166 128.753 115.443C121.317 113.734 116.627 107.907 113.37 103.021C110.133 98.1692 106.715 94.919 102.617 92.7992C97.8523 90.3363 94.03 88.1493 90.5846 85.9084C85.8741 82.8466 83.5659 79.3877 86.5874 71.6019C87.3881 69.536 88.3639 67.4835 89.2993 65.4984L89.6694 64.7178C92.0516 59.664 94.4539 54.6238 96.8563 49.5835L99.6692 43.6752C99.7634 43.48 99.6759 43.2445 99.4808 43.1503C99.2856 43.0561 99.0501 43.1436 98.9559 43.3387L96.143 49.2471C93.7406 54.294 91.3383 59.3343 88.9561 64.388L88.586 65.1619C87.6439 67.1538 86.6614 69.2197 85.8539 71.3125C82.6507 79.5694 85.255 83.3782 90.1606 86.5679C93.6262 88.8222 97.4687 91.0227 102.26 93.4991C106.237 95.5515 109.561 98.7143 112.717 103.452C116.055 108.458 120.873 114.434 128.578 116.204C130.308 116.601 132.313 116.951 134.386 116.951V116.978Z" fill="#FF7926" fill-opacity="0.4"/>
    <path d="M176.114 390.949C176.168 390.949 176.222 390.935 176.276 390.915C176.478 390.828 176.565 390.592 176.471 390.39L169.331 374.805C167.205 370.169 165.011 365.371 161.862 361.212C159.042 357.484 155.26 354.018 150.307 350.6C132.044 338.009 109.824 333.79 90.5038 331.313C85.4164 330.661 80.2214 330.095 75.1946 329.55C59.5691 327.848 43.412 326.091 28.1633 321.516C22.8203 319.914 16.7369 317.7 12.1946 313.467C6.95249 308.582 3.83008 301.058 3.41286 292.277C3.0764 285.238 4.43572 278.132 7.35625 271.719C8.86362 268.401 10.8219 265.184 12.7128 262.069C16.1649 256.389 19.7382 250.514 20.687 243.846C22.1877 233.348 16.9657 223.126 11.091 213.638C4.22037 202.528 -2.657 191.815 -11.1561 182.797C-13.1211 180.711 -16.6876 178.194 -20.1398 175.758C-23.3968 173.464 -26.7547 171.088 -28.6187 169.177C-29.2041 168.578 -29.7829 167.952 -30.3616 167.333C-32.2929 165.261 -34.2915 163.114 -36.6737 161.62C-42.858 157.731 -49.6479 153.875 -58.0528 149.48C-64.8629 145.921 -67.7363 141.203 -67.0903 134.642C-66.7067 130.706 -66.2087 126.715 -65.7242 122.852C-64.9571 116.655 -64.1563 110.248 -63.7929 103.916C-63.1738 93.1829 -63.3488 81.7969 -68.8197 71.252C-73.9138 61.4339 -81.7265 56.6359 -92.7021 56.5888C-95.8649 56.5754 -99.0276 56.5821 -102.19 56.5888H-106.504C-106.719 56.5888 -106.901 56.7705 -106.901 56.9859C-106.901 57.2012 -106.726 57.3829 -106.504 57.3829H-102.19C-99.0276 57.3762 -95.8649 57.3762 -92.7088 57.3829C-82.0563 57.4233 -74.4723 62.08 -69.5263 71.6154C-64.1428 81.992 -63.9746 93.2502 -64.5869 103.869C-64.9503 110.174 -65.7444 116.567 -66.5183 122.752C-66.996 126.621 -67.494 130.618 -67.8843 134.561C-68.5573 141.392 -65.4618 146.499 -58.4229 150.18C-50.0382 154.561 -43.2617 158.41 -37.0977 162.286C-34.8097 163.726 -32.8447 165.833 -30.9471 167.872C-30.3616 168.497 -29.7829 169.123 -29.1907 169.729C-27.2729 171.694 -23.8813 174.09 -20.5974 176.404C-17.1789 178.82 -13.6392 181.31 -11.7281 183.336C-3.27608 192.299 3.57437 202.979 10.4248 214.055C16.212 223.415 21.3734 233.489 19.9065 243.738C18.9778 250.245 15.4516 256.053 12.0399 261.658C10.1355 264.794 8.16376 268.031 6.6362 271.389C3.66857 277.916 2.28235 285.15 2.62554 292.31C3.05622 301.301 6.26611 309.012 11.6563 314.039C16.3197 318.386 22.504 320.641 27.9413 322.269C43.2639 326.865 59.4547 328.628 75.1138 330.331C80.1339 330.876 85.3289 331.441 90.4096 332.094C109.642 334.55 131.741 338.749 149.863 351.246C154.749 354.61 158.463 358.022 161.236 361.683C164.331 365.774 166.511 370.532 168.618 375.128L175.758 390.713C175.825 390.861 175.966 390.942 176.114 390.942V390.949Z" fill="#FF7926" fill-opacity="0.4"/>
    <path d="M255.493 72.2749C261.543 72.2749 266.449 68.4055 268.198 61.9252C269.78 56.0572 270.446 50.0412 270.244 43.5137C270.244 43.2984 270.062 43.1234 269.833 43.1302C269.618 43.1369 269.443 43.3186 269.45 43.5407C269.652 49.9806 268.992 55.9294 267.431 61.7166C265.459 69.0246 259.531 72.719 252.33 71.1242C244.444 69.3745 236.382 67.7931 228.583 66.2656L225.07 65.5792C222.358 65.0476 219.592 64.5496 216.914 64.0718C213.475 63.4527 209.922 62.8134 206.45 62.0934C197.641 60.263 191.639 54.8257 188.106 45.4653C187.958 45.075 187.796 44.6847 187.641 44.2944L187.413 43.7358C187.332 43.5339 187.103 43.433 186.901 43.5137C186.699 43.5945 186.598 43.8233 186.679 44.0252L186.908 44.5904C187.063 44.974 187.218 45.3576 187.366 45.7479C190.952 55.243 197.325 61.01 206.288 62.874C209.774 63.6008 213.327 64.2401 216.773 64.8524C219.444 65.3302 222.21 65.8282 224.915 66.3598L228.428 67.0462C236.22 68.5737 244.275 70.1551 252.156 71.898C253.293 72.147 254.41 72.2749 255.487 72.2749H255.493Z" fill="#FF7926" fill-opacity="0.4"/>
    <path d="M336.797 281.032C341.81 281.032 346.44 279.652 350.632 276.893C364.407 267.842 370.437 245.857 371.419 229.781C372.2 216.948 370.443 204.331 368.734 192.137C367.778 185.287 366.789 178.207 366.251 171.128C366.056 168.537 366.258 165.852 366.459 163.262C366.601 161.445 366.742 159.561 366.749 157.71C366.749 156.431 365.867 154.379 364.474 154.09C363.6 153.915 362.644 154.365 361.709 155.415C360.383 156.902 358.882 158.686 357.846 160.644C351.029 173.578 339.367 181.014 322.207 183.396C313.251 184.634 304.698 182.467 298.123 177.286C292.962 173.221 288.056 168.652 283.312 164.231C281.145 162.212 278.904 160.119 276.663 158.107C275.856 157.38 275.021 156.68 274.194 155.981C273.406 155.314 272.612 154.648 271.845 153.962C264.813 147.67 259.181 140.16 255.089 131.641C253.589 128.505 252.249 125.221 250.964 122.038C249.43 118.263 247.848 114.353 245.964 110.665C240.446 99.8647 233.064 93.4584 223.381 91.0762C221.503 90.6119 219.612 90.0601 217.789 89.5217C215.561 88.869 213.253 88.1893 210.945 87.6712C200.703 85.3765 191.948 79.744 185.636 71.3929C179.788 63.6609 176.269 53.7554 175.73 43.4999C175.717 43.2846 175.528 43.123 175.313 43.123C175.098 43.1365 174.93 43.3182 174.936 43.5403C175.488 53.9505 179.061 64.0041 185.003 71.864C191.43 80.3631 200.339 86.0965 210.77 88.4316C213.051 88.943 215.346 89.6159 217.566 90.2687C219.404 90.807 221.301 91.3656 223.192 91.8299C232.633 94.1582 239.854 100.43 245.258 111.008C247.128 114.662 248.703 118.559 250.231 122.32C251.523 125.51 252.862 128.814 254.376 131.97C258.508 140.584 264.207 148.181 271.314 154.54C272.087 155.234 272.888 155.906 273.682 156.579C274.51 157.273 275.331 157.972 276.132 158.692C278.366 160.705 280.607 162.791 282.774 164.809C287.531 169.244 292.45 173.827 297.639 177.911C304.388 183.228 313.15 185.455 322.322 184.183C339.751 181.767 351.601 174.19 358.553 161.021C359.542 159.143 360.941 157.474 362.301 155.947C362.812 155.368 363.586 154.709 364.313 154.87C365.255 155.065 365.962 156.727 365.955 157.71C365.948 159.534 365.807 161.398 365.665 163.201C365.464 165.826 365.255 168.531 365.457 171.182C365.995 178.281 366.984 185.374 367.947 192.238C369.642 204.398 371.399 216.975 370.625 229.727C369.656 245.622 363.727 267.331 350.195 276.227C343.176 280.843 334.879 281.469 325.532 278.091C325.182 277.963 290.553 265.11 270.54 218.96C268.797 214.943 266.704 211.026 264.672 207.231C261.018 200.394 257.384 195.32 253.218 191.229C247.122 185.226 239.147 186.027 234.74 189.829C231.59 192.541 228.744 194.984 225.776 197.406C224.794 198.207 223.818 199.021 222.836 199.829C220.326 201.908 217.735 204.062 215.077 206.013C214.242 206.625 213.468 207.325 212.721 208.005C211.732 208.9 210.716 209.822 209.579 210.515C207.87 211.565 206.396 211.652 204.532 211.767C204.054 211.794 203.556 211.827 203.038 211.874C197.91 212.345 192.655 214.081 187.426 217.029C182.991 219.532 179.203 222.823 175.542 226.006C173.402 227.863 171.195 229.788 168.866 231.537C168.22 232.022 167.581 232.513 166.942 233.004C162.568 236.362 158.052 239.828 152.46 241.113C148.954 241.921 144.991 242.358 142.232 239.465C139.587 236.692 138.632 233.025 139.453 228.846C140.401 224.027 142.871 219.976 145.32 216.242C151.088 207.44 152.871 195.401 150.334 182.339C146.983 165.105 138.019 150.92 125.092 142.401C124.735 142.172 89.4065 119.353 78.4916 107.657L45.7803 81.2649C42.5301 78.3511 38.5732 75.8948 34.6702 74.3538C30.7739 72.8195 26.5883 71.864 22.544 70.9353C21.2923 70.6527 20.0474 70.3633 18.8092 70.0673C10.2562 67.9879 2.26177 64.7646 -5.64518 60.2088C-13.754 55.5386 -18.4712 50.458 -20.9274 43.7354C-21.0015 43.5335 -21.2303 43.4259 -21.4321 43.4999C-21.634 43.5739 -21.7417 43.8027 -21.6677 44.0046C-19.1442 50.9089 -14.3193 56.1174 -6.04219 60.8885C1.92533 65.4846 9.99376 68.7349 18.6208 70.8277C19.8657 71.1305 21.1173 71.4131 22.369 71.7025C26.3864 72.6177 30.5451 73.5665 34.3809 75.0806C38.2031 76.588 42.0725 78.9903 45.2756 81.857L77.96 108.223C88.9018 119.952 124.305 142.825 124.661 143.053C137.407 151.458 146.249 165.462 149.56 182.481C151.007 189.923 152.292 204.156 144.668 215.797C142.178 219.6 139.661 223.725 138.685 228.684C137.811 233.125 138.84 237.042 141.666 240.003C144.701 243.186 148.921 242.735 152.649 241.88C158.402 240.555 162.992 237.035 167.433 233.63C168.072 233.139 168.712 232.648 169.351 232.17C171.699 230.4 173.92 228.469 176.067 226.605C179.694 223.449 183.449 220.185 187.816 217.722C192.951 214.828 198.092 213.126 203.112 212.662C203.623 212.615 204.115 212.588 204.586 212.554C206.483 212.44 208.119 212.339 210.003 211.188C211.201 210.454 212.25 209.506 213.266 208.584C214 207.917 214.76 207.231 215.561 206.646C218.239 204.681 220.837 202.521 223.36 200.434C224.336 199.627 225.312 198.813 226.294 198.012C229.275 195.583 232.122 193.14 235.278 190.421C239.417 186.855 246.92 186.121 252.687 191.787C256.785 195.825 260.378 200.838 263.979 207.568C266.018 211.37 268.104 215.279 269.833 219.263C289.987 265.743 324.933 278.696 325.283 278.824C329.32 280.285 333.17 281.011 336.81 281.011L336.797 281.032Z" fill="#FF7926" fill-opacity="0.4"/>
    <path d="M10.3776 45.8015C13.0761 45.8015 15.8149 45.2699 18.547 43.8836C18.7422 43.7827 18.8229 43.5472 18.722 43.352C18.6211 43.1569 18.3856 43.0761 18.1904 43.1771C12.2349 46.1985 6.192 44.9536 0.552828 43.1501C0.344219 43.0829 0.122158 43.1973 0.0548647 43.4059C-0.0124286 43.6145 0.101973 43.8365 0.310582 43.9038C3.56085 44.9401 6.93894 45.7948 10.3776 45.7948V45.8015Z" fill="#FF7926" fill-opacity="0.4"/>
    <path d="M187.002 187.03C189.324 187.03 191.753 186.331 194.142 184.944C198.227 182.569 200.865 178.296 201.76 172.582C202.291 169.211 203.301 157.899 194.109 153.902C194.001 153.855 193.88 153.862 193.779 153.902C193.718 153.875 193.644 153.855 193.57 153.862C192.79 153.929 191.948 153.929 191.134 153.922C189.29 153.915 187.379 153.909 185.899 154.73C176.498 159.965 173.665 165.268 175.065 174.985C175.805 180.092 178.422 184.083 182.251 185.94C183.739 186.66 185.34 187.017 186.996 187.017L187.002 187.03ZM193.786 154.622C193.786 154.622 193.792 154.622 193.799 154.622C202.466 158.397 201.491 169.225 200.979 172.455C200.38 176.27 198.637 181.411 193.745 184.258C189.883 186.499 185.926 186.849 182.601 185.24C179.015 183.504 176.552 179.729 175.852 174.884C174.506 165.564 177.238 160.47 186.289 155.429C187.588 154.709 189.385 154.716 191.134 154.723C191.969 154.723 192.83 154.73 193.651 154.656C193.698 154.656 193.745 154.635 193.786 154.615V154.622Z" fill="#FF7926" fill-opacity="0.4"/>
    <path d="M187.157 182.374C190.084 182.374 193.187 180.806 195.313 177.966C197.365 175.22 197.951 171.425 196.867 167.811C195.845 164.413 193.584 161.856 190.65 160.799C190.549 160.759 190.434 160.772 190.34 160.813C190.293 160.786 190.239 160.772 190.179 160.772C185.892 160.658 182.527 162.583 180.199 166.506C177.366 171.284 178.718 178.269 183.045 181.162C184.277 181.983 185.69 182.374 187.157 182.374ZM190.333 161.519C190.333 161.519 190.36 161.533 190.374 161.533C193.065 162.502 195.158 164.871 196.1 168.027C197.11 171.398 196.578 174.931 194.674 177.481C191.74 181.405 186.821 182.73 183.483 180.496C179.486 177.825 178.241 171.344 180.879 166.903C183.045 163.242 186.161 161.439 190.152 161.56C190.219 161.56 190.279 161.546 190.333 161.519Z" fill="#FF7926" fill-opacity="0.4"/>
    <path d="M-26.4453 247.951C-25.4763 247.951 -24.487 247.877 -23.4844 247.722C-21.257 247.379 -18.9892 247.083 -16.8022 246.793C-12.7713 246.268 -8.60585 245.717 -4.57499 244.875C-1.50641 244.229 0.936323 242.608 2.31583 240.32C3.58768 238.2 3.87032 235.717 3.12336 233.139C0.135542 222.81 -4.58846 214.237 -10.9006 207.655C-22.4144 195.664 -33.5918 186.64 -45.0721 180.079C-46.391 179.325 -47.7705 178.787 -49.1568 178.477C-54.6546 177.266 -59.89 179.749 -62.8105 184.951C-66.9289 192.279 -66.9895 199.843 -62.999 208.066C-58.0327 218.295 -51.2631 228.429 -41.694 239.963C-37.2863 245.272 -32.1719 247.951 -26.452 247.951H-26.4453ZM-49.5134 180.126C-48.2887 180.395 -47.0707 180.873 -45.8998 181.539C-34.5609 188.019 -23.5113 196.942 -12.1118 208.82C-5.98815 215.199 -1.40549 223.543 1.50831 233.604C2.12068 235.717 1.89861 237.742 0.875749 239.445C-0.261506 241.336 -2.32067 242.675 -4.91819 243.22C-8.88176 244.054 -13.0203 244.593 -17.0175 245.118C-19.218 245.407 -21.4925 245.703 -23.7401 246.046C-30.0387 247.015 -35.651 244.599 -40.3952 238.88C-49.8768 227.453 -56.5725 217.426 -61.4781 207.319C-65.2129 199.627 -65.1658 192.575 -61.3368 185.765C-58.7931 181.236 -54.2576 179.069 -49.5134 180.112V180.126Z" fill="#FF7926" fill-opacity="0.4"/>
    <path d="M18.0287 149.675C18.2642 149.675 18.4997 149.668 18.7285 149.655C24.3273 149.312 29.2868 147.495 33.4657 144.258C38.6473 140.247 40.9757 135.483 40.3768 130.086C39.8721 125.49 37.3149 121.432 32.7861 118.027C30.0675 115.981 26.945 115.14 23.9236 114.326C23.3718 114.178 22.82 114.03 22.2682 113.875C22.1672 113.848 22.073 113.862 21.9855 113.902C21.8577 113.841 21.6894 113.862 21.5347 113.862C16.3464 113.862 11.2926 115.221 6.08412 118.02C0.841979 120.833 -1.85646 125.14 -1.51327 130.147C-1.02203 137.313 2.92137 143.39 9.60359 147.259C12.2684 148.8 15.3572 149.682 18.022 149.682L18.0287 149.675ZM21.9923 114.609C21.9923 114.609 22.0327 114.629 22.0596 114.636C22.6114 114.79 23.1699 114.945 23.7217 115.093C26.8037 115.928 29.7175 116.708 32.3151 118.666C36.6689 121.944 39.1184 125.813 39.5962 130.18C40.1547 135.281 37.934 139.81 32.988 143.639C28.9369 146.775 24.1255 148.538 18.6814 148.868C16.057 149.029 12.7394 148.148 10.0141 146.566C3.56737 142.831 -0.241426 136.977 -0.712478 130.079C-1.02876 125.402 1.52165 121.365 6.4677 118.707C11.6493 115.928 16.6492 114.602 21.8173 114.642C21.8913 114.635 21.9384 114.629 21.9923 114.602V114.609Z" fill="#FF7926" fill-opacity="0.4"/>
    <path d="M82.792 261.113C83.6466 261.113 84.5012 261.026 85.3424 260.858C90.3557 259.835 94.7634 255.737 97.7714 249.324C99.7498 245.098 100.625 240.542 100.517 234.983C100.477 232.945 100.43 230.906 100.382 228.867C100.308 225.67 100.228 222.366 100.187 219.116L100.167 217.481C100.113 213.046 100.059 208.457 100.214 203.955C100.308 201.236 100.51 198.47 100.705 195.799C100.88 193.39 101.062 190.893 101.17 188.43C101.264 186.129 100.16 184.601 98.1348 184.231C98.0473 184.217 97.9666 184.231 97.8925 184.265C97.8118 184.224 97.7176 184.211 97.6166 184.238C97.0783 184.379 96.5332 184.493 95.9814 184.608C94.7634 184.863 93.4983 185.126 92.388 185.698C89.4876 187.205 86.5805 188.814 83.7677 190.368C80.3761 192.239 76.8769 194.177 73.3709 195.953C66.655 199.358 61.6888 202.898 57.7387 207.097C51.689 213.524 50.047 220.98 52.8532 229.25C56.1774 239.028 62.4223 248.072 71.4194 256.127C75.1003 259.424 78.9899 261.12 82.7987 261.12L82.792 261.113ZM97.8858 184.978C97.8858 184.978 97.9531 185.005 97.9868 185.012C100.059 185.388 100.429 187.057 100.376 188.396C100.275 190.846 100.093 193.329 99.9181 195.738C99.7229 198.423 99.521 201.196 99.4268 203.928C99.2721 208.443 99.3259 213.046 99.3797 217.487L99.3999 219.122C99.4336 222.379 99.5143 225.684 99.5951 228.88C99.6422 230.919 99.696 232.958 99.7297 234.99C99.8306 240.421 98.9827 244.869 97.0581 248.98C94.1645 255.165 89.9452 259.101 85.1876 260.077C80.8405 260.965 76.2578 259.391 71.9376 255.528C63.0481 247.567 56.8706 238.638 53.5934 228.988C50.8479 220.906 52.3889 213.921 58.3039 207.636C62.1935 203.504 67.0924 200.018 73.7208 196.66C77.2402 194.877 80.7529 192.939 84.1445 191.061C86.9506 189.513 89.8577 187.905 92.7446 186.405C93.754 185.88 94.9115 185.637 96.1295 185.388C96.6947 185.274 97.26 185.153 97.8118 185.005C97.8387 185.005 97.8589 184.991 97.8791 184.978H97.8858Z" fill="#FF7926" fill-opacity="0.4"/>
    <path d="M22.5511 173.874C26.232 173.874 29.913 173.248 33.5872 171.99C46.2316 167.663 56.0766 159.292 59.9325 149.595C62.9203 142.071 62.2945 133.895 58.1155 125.961C54.5221 119.131 49.0579 113.775 43.7013 109.004C36.1241 102.261 27.127 98.9836 16.1919 98.9836C13.4059 98.9836 10.4585 99.2057 7.41685 99.6364C2.81399 100.296 -1.99749 99.8315 -6.64072 99.3807H-6.708C-7.79815 99.2663 -8.88831 99.1653 -9.96501 99.0711C-14.2516 98.7145 -18.0335 96.8706 -21.6875 95.0941C-23.8947 94.0174 -25.9741 93.008 -28.188 92.2678L-28.3361 92.2207H-28.4908C-28.5379 92.2341 -28.585 92.2274 -28.6321 92.2207C-33.3763 91.5948 -36.2901 92.8869 -37.7907 96.2986C-38.5713 98.0684 -39.029 100.229 -39.1232 102.557C-39.5068 111.998 -37.1313 120.188 -32.0507 126.89C-29.0426 130.86 -25.9 134.811 -22.8651 138.626C-19.9917 142.233 -17.0241 145.968 -14.1776 149.703C-13.2557 150.914 -12.3472 152.159 -11.5464 153.262C-8.01349 158.107 -4.67575 162.683 0.176089 166.082C7.57162 171.27 15.0614 173.874 22.5578 173.874H22.5511ZM16.1851 100.666C26.6896 100.666 35.3234 103.802 42.5776 110.262C47.8197 114.932 53.1561 120.154 56.6217 126.749C60.6189 134.339 61.2043 141.822 58.3645 148.976C54.6903 158.222 45.2222 166.236 33.0421 170.402C22.43 174.036 11.6967 172.118 1.13838 164.709C-3.47794 161.465 -6.74167 157.004 -10.1871 152.273C-10.9946 151.17 -11.9098 149.911 -12.8384 148.686C-15.6984 144.938 -18.6728 141.197 -21.5462 137.583C-24.5744 133.774 -27.7102 129.838 -30.7115 125.881C-35.5432 119.501 -37.811 111.675 -37.4408 102.631C-37.3534 100.511 -36.9429 98.5597 -36.2497 96.985C-35.0654 94.2866 -32.8514 93.3646 -28.8542 93.8963C-28.7667 93.9097 -28.6725 93.9164 -28.585 93.9164C-26.5191 94.6163 -24.534 95.5853 -22.4277 96.6082C-18.6257 98.4587 -14.7025 100.37 -10.0996 100.753C-9.02291 100.841 -7.94622 100.949 -6.8628 101.05H-6.79548C-2.05131 101.514 2.85436 101.992 7.65909 101.305C10.62 100.881 13.4934 100.666 16.1919 100.666H16.1851Z" fill="#FF7926" fill-opacity="0.4"/>
    <path d="M169.122 390.235C169.169 390.235 169.216 390.229 169.264 390.209C169.465 390.135 169.573 389.906 169.492 389.697C159.842 364.227 136.283 344.631 109.48 339.786C100.019 338.076 90.2411 338.11 80.7864 338.137C75.5779 338.157 70.1944 338.171 64.9254 337.902C49.6969 337.107 34.7713 333.898 20.5657 328.366C10.0814 324.281 2.61185 319.779 -2.93311 314.194C-9.92488 307.149 -13.7 297.943 -13.0204 289.558C-12.2599 280.164 -6.3987 272.169 -0.732612 264.444C4.87291 256.793 10.6736 248.879 11.6964 239.512C13.0961 226.625 5.14205 214.762 -3.12155 203.712C-6.35163 199.399 -14.3057 189.803 -20.1131 182.797C-23.5316 178.672 -26.2301 175.422 -27.0981 174.298C-34.534 164.662 -44.1098 158.531 -56.3774 155.564C-65.3005 153.404 -68.5373 154.07 -72.7767 162.67C-76.599 170.429 -78.6716 178.612 -80.1925 185.597C-81.5518 191.828 -81.9825 197.151 -81.5182 201.888C-80.8049 209.122 -77.2989 215.34 -73.1267 222.144C-71.8683 224.196 -70.5359 226.242 -69.2439 228.227C-65.6504 233.738 -61.9425 239.431 -59.4998 245.777C-55.8458 255.279 -55.1931 264.242 -57.508 273.186L-58.1607 275.682C-59.8026 281.967 -61.4984 288.461 -62.2589 294.975C-63.6384 306.792 -61.0072 317.337 -54.4326 326.314C-47.9187 335.21 -43.8474 343.372 -41.6133 351.999C-39.4464 360.377 -36.9431 368.809 -34.5206 376.965C-33.4573 380.552 -32.3873 384.139 -31.351 387.739C-31.2905 387.948 -31.0684 388.069 -30.8598 388.008C-30.6512 387.947 -30.5301 387.725 -30.5907 387.517C-31.6337 383.923 -32.6969 380.33 -33.7669 376.743C-36.1894 368.594 -38.6928 360.169 -40.8529 351.804C-43.1139 343.07 -47.2323 334.819 -53.8001 325.849C-60.2535 317.041 -62.8375 306.684 -61.4782 295.069C-60.7245 288.616 -59.0355 282.142 -57.4003 275.884L-56.7475 273.381C-54.3923 264.269 -55.0517 255.151 -58.7663 245.488C-61.236 239.061 -64.9707 233.328 -68.5844 227.79C-69.8697 225.811 -71.2021 223.765 -72.4605 221.726C-76.5788 215.011 -80.0444 208.88 -80.7375 201.808C-81.1951 197.158 -80.7645 191.909 -79.4253 185.765C-77.9112 178.827 -75.8588 170.698 -72.0769 163.02C-68.0528 154.85 -65.1592 154.252 -56.5726 156.331C-44.4867 159.258 -35.0522 165.294 -27.7307 174.783C-26.8559 175.92 -24.1507 179.177 -20.7322 183.309C-14.9315 190.307 -6.98416 199.89 -3.76754 204.19C4.40858 215.112 12.2684 226.827 10.9024 239.425C9.90643 248.583 4.17305 256.409 -1.37864 263.973C-7.11203 271.793 -13.0338 279.875 -13.8144 289.491C-14.5143 298.098 -10.6584 307.539 -3.4984 314.746C2.12732 320.412 9.67762 324.968 20.2696 329.1C34.5559 334.665 49.5623 337.888 64.8783 338.689C70.1675 338.965 75.5644 338.951 80.7864 338.931C90.2074 338.904 99.9448 338.871 109.332 340.566C135.873 345.364 159.19 364.758 168.745 389.973C168.806 390.135 168.954 390.229 169.115 390.229L169.122 390.235Z" fill="#FF7926" fill-opacity="0.4"/>
    <g opacity="0.5">
      <path d="M151.64 187.548H152.097V191.922H151.64V187.548Z" fill="#FF7926"/>
      <path d="M81.4799 187.548H81.9375V191.922H81.4799V187.548Z" fill="#FF7926"/>
      <path d="M11.3198 187.548H11.7773V191.922H11.3198V187.548Z" fill="#FF7926"/>
      <path d="M189.142 180.67V181.081V181.121H184.768V181.081V180.67V180.63H189.142V180.67Z" fill="#FF7926"/>
      <path d="M171.646 180.67V181.081V181.121H167.272V181.081V180.67V180.63H171.646V180.67Z" fill="#FF7926"/>
      <path d="M162.898 180.67V181.081V181.121H158.524V181.081V180.67V180.63H162.898V180.67Z" fill="#FF7926"/>
      <path d="M180.394 180.67V181.081V181.121H176.02V181.081V180.67V180.63H180.394V180.67Z" fill="#FF7926"/>
      <path d="M110.234 180.67V181.081V181.121H105.86V181.081V180.67V180.63H110.234V180.67Z" fill="#FF7926"/>
      <path d="M101.486 180.67V181.081V181.121H97.1123V181.081V180.67V180.63H101.486V180.67Z" fill="#FF7926"/>
      <path d="M136.472 180.67V181.081V181.121H132.098V181.081V180.67V180.63H136.472V180.67Z" fill="#FF7926"/>
      <path d="M92.7383 180.67V181.081V181.121H88.3642V181.081V180.67V180.63H92.7383V180.67Z" fill="#FF7926"/>
      <path d="M127.724 180.67V181.081V181.121H123.35V181.081V180.67V180.63H127.724V180.67Z" fill="#FF7926"/>
      <path d="M145.22 180.67V181.081V181.121H140.846V181.081V180.67V180.63H145.22V180.67Z" fill="#FF7926"/>
      <path d="M118.976 180.67V181.081V181.121H114.602V181.081V180.67V180.63H118.976V180.67Z" fill="#FF7926"/>
      <path d="M151.646 178.578H152.097V180.631H154.15V180.671V181.082V181.122H152.097V183.174H151.646V181.122H149.594V181.082V180.671V180.631H151.646V178.578Z" fill="#FF7926"/>
      <path d="M151.64 161.082H152.097V165.456H151.64V161.082Z" fill="#FF7926"/>
      <path d="M151.64 152.341H152.097V156.715H151.64V152.341Z" fill="#FF7926"/>
      <path d="M151.64 117.349H152.097V121.723H151.64V117.349Z" fill="#FF7926"/>
      <path d="M151.64 169.83H152.097V174.204H151.64V169.83Z" fill="#FF7926"/>
      <path d="M151.64 126.097H152.097V130.471H151.64V126.097Z" fill="#FF7926"/>
      <path d="M151.64 143.593H152.097V147.967H151.64V143.593Z" fill="#FF7926"/>
      <path d="M151.64 134.845H152.097V139.219H151.64V134.845Z" fill="#FF7926"/>
      <path d="M40.0674 180.67V181.081V181.121H35.6933V181.081V180.67V180.63H40.0674V180.67Z" fill="#FF7926"/>
      <path d="M48.8154 180.67V181.081V181.121H44.4414V181.081V180.67V180.63H48.8154V180.67Z" fill="#FF7926"/>
      <path d="M57.5635 180.67V181.081V181.121H53.1894V181.081V180.67V180.63H57.5635V180.67Z" fill="#FF7926"/>
      <path d="M31.3262 180.67V181.081V181.121H26.9521V181.081V180.67V180.63H31.3262V180.67Z" fill="#FF7926"/>
      <path d="M22.5781 180.67V181.081V181.121H18.2041V181.081V180.67V180.63H22.5781V180.67Z" fill="#FF7926"/>
      <path d="M75.0596 180.67V181.081V181.121H70.6855V181.081V180.67V180.63H75.0596V180.67Z" fill="#FF7926"/>
      <path d="M66.3115 180.67V181.081V181.121H61.9375V181.081V180.67V180.63H66.3115V180.67Z" fill="#FF7926"/>
      <path d="M81.4865 178.578H81.9373V180.631H83.9897V180.671V181.082V181.122H81.9373V183.174H81.4865V181.122H79.434V181.082V180.671V180.631H81.4865V178.578Z" fill="#FF7926"/>
      <path d="M81.4799 126.097H81.9375V130.471H81.4799V126.097Z" fill="#FF7926"/>
      <path d="M81.4799 117.349H81.9375V121.723H81.4799V117.349Z" fill="#FF7926"/>
      <path d="M81.4799 134.845H81.9375V139.219H81.4799V134.845Z" fill="#FF7926"/>
      <path d="M81.4799 152.341H81.9375V156.715H81.4799V152.341Z" fill="#FF7926"/>
      <path d="M81.4799 169.83H81.9375V174.204H81.4799V169.83Z" fill="#FF7926"/>
      <path d="M81.4799 143.593H81.9375V147.967H81.4799V143.593Z" fill="#FF7926"/>
      <path d="M81.4799 161.082H81.9375V165.456H81.4799V161.082Z" fill="#FF7926"/>
      <path d="M4.8999 180.67V181.081V181.121H0.525842V181.081V180.67V180.63H4.8999V180.67Z" fill="#FF7926"/>
      <path d="M11.3201 178.578H11.7776V180.631H13.8301V180.671V181.082V181.122H11.7776V183.174H11.3201V181.122H9.27435V181.082V180.671V180.631H11.3201V178.578Z" fill="#FF7926"/>
      <path d="M11.3198 169.83H11.7773V174.204H11.3198V169.83Z" fill="#FF7926"/>
      <path d="M11.3198 152.341H11.7773V156.715H11.3198V152.341Z" fill="#FF7926"/>
      <path d="M11.3198 143.593H11.7773V147.967H11.3198V143.593Z" fill="#FF7926"/>
      <path d="M11.3198 161.082H11.7773V165.456H11.3198V161.082Z" fill="#FF7926"/>
      <path d="M11.3198 134.845H11.7773V139.219H11.3198V134.845Z" fill="#FF7926"/>
      <path d="M11.3198 117.349H11.7773V121.723H11.3198V117.349Z" fill="#FF7926"/>
      <path d="M11.3198 126.097H11.7773V130.471H11.3198V126.097Z" fill="#FF7926"/>
      <path d="M158.524 110.471H162.898V110.928H158.524V110.471Z" fill="#FF7926"/>
      <path d="M184.768 110.471H189.142V110.928H184.768V110.471Z" fill="#FF7926"/>
      <path d="M167.272 110.471H171.646V110.928H167.272V110.471Z" fill="#FF7926"/>
      <path d="M176.02 110.471H180.394V110.928H176.02V110.471Z" fill="#FF7926"/>
      <path d="M158.524 40.311H162.898V40.7686H158.524V40.311Z" fill="#FF7926"/>
      <path d="M176.02 40.311H180.394V40.7686H176.02V40.311Z" fill="#FF7926"/>
      <path d="M167.272 40.311H171.646V40.7686H167.272V40.311Z" fill="#FF7926"/>
      <path d="M184.768 40.311H189.142V40.7686H184.768V40.311Z" fill="#FF7926"/>
      <path d="M105.86 110.471H110.234V110.928H105.86V110.471Z" fill="#FF7926"/>
      <path d="M123.35 110.471H127.724V110.928H123.35V110.471Z" fill="#FF7926"/>
      <path d="M132.098 110.471H136.472V110.928H132.098V110.471Z" fill="#FF7926"/>
      <path d="M140.846 110.471H145.22V110.928H140.846V110.471Z" fill="#FF7926"/>
      <path d="M114.602 110.471H118.976V110.928H114.602V110.471Z" fill="#FF7926"/>
      <path d="M88.3642 110.471H92.7383V110.928H88.3642V110.471Z" fill="#FF7926"/>
      <path d="M97.1123 110.471H101.486V110.928H97.1123V110.471Z" fill="#FF7926"/>
      <path d="M151.647 108.418H152.097V110.471H154.15V110.922H152.097V112.974H151.647V110.922H149.594V110.471H151.647V108.418Z" fill="#FF7926"/>
      <path d="M151.64 47.1877H152.097V51.5618H151.64V47.1877Z" fill="#FF7926"/>
      <path d="M151.64 55.9368H152.097V60.3108H151.64V55.9368Z" fill="#FF7926"/>
      <path d="M151.64 73.426H152.097V77.8H151.64V73.426Z" fill="#FF7926"/>
      <path d="M151.64 64.6848H152.097V69.0589H151.64V64.6848Z" fill="#FF7926"/>
      <path d="M151.64 82.1741H152.097V86.5482H151.64V82.1741Z" fill="#FF7926"/>
      <path d="M151.64 90.9222H152.097V95.2963H151.64V90.9222Z" fill="#FF7926"/>
      <path d="M151.64 99.6703H152.097V104.044H151.64V99.6703Z" fill="#FF7926"/>
      <path d="M152.097 40.311H154.15V40.7619H152.097V42.8143H151.646V40.7619H149.594V40.311H151.646H152.097Z" fill="#FF7926"/>
      <path d="M88.3642 40.311H92.7383V40.7686H88.3642V40.311Z" fill="#FF7926"/>
      <path d="M105.86 40.311H110.234V40.7686H105.86V40.311Z" fill="#FF7926"/>
      <path d="M97.1123 40.311H101.486V40.7686H97.1123V40.311Z" fill="#FF7926"/>
      <path d="M140.846 40.311H145.22V40.7686H140.846V40.311Z" fill="#FF7926"/>
      <path d="M114.602 40.311H118.976V40.7686H114.602V40.311Z" fill="#FF7926"/>
      <path d="M132.098 40.311H136.472V40.7686H132.098V40.311Z" fill="#FF7926"/>
      <path d="M123.35 40.311H127.724V40.7686H123.35V40.311Z" fill="#FF7926"/>
      <path d="M70.6855 110.471H75.0596V110.928H70.6855V110.471Z" fill="#FF7926"/>
      <path d="M18.2041 110.471H22.5781V110.928H18.2041V110.471Z" fill="#FF7926"/>
      <path d="M44.4414 110.471H48.8154V110.928H44.4414V110.471Z" fill="#FF7926"/>
      <path d="M53.1894 110.471H57.5635V110.928H53.1894V110.471Z" fill="#FF7926"/>
      <path d="M61.9375 110.471H66.3115V110.928H61.9375V110.471Z" fill="#FF7926"/>
      <path d="M35.6933 110.471H40.0674V110.928H35.6933V110.471Z" fill="#FF7926"/>
      <path d="M26.9521 110.471H31.3262V110.928H26.9521V110.471Z" fill="#FF7926"/>
      <path d="M81.4865 108.418H81.9373V110.471H83.9897V110.922H81.9373V112.974H81.4865V110.922H79.434V110.471H81.4865V108.418Z" fill="#FF7926"/>
      <path d="M81.4799 90.9222H81.9375V95.2963H81.4799V90.9222Z" fill="#FF7926"/>
      <path d="M81.4799 99.6703H81.9375V104.044H81.4799V99.6703Z" fill="#FF7926"/>
      <path d="M81.4799 47.1877H81.9375V51.5618H81.4799V47.1877Z" fill="#FF7926"/>
      <path d="M81.4799 82.1741H81.9375V86.5482H81.4799V82.1741Z" fill="#FF7926"/>
      <path d="M81.4799 55.9368H81.9375V60.3108H81.4799V55.9368Z" fill="#FF7926"/>
      <path d="M81.4799 64.6848H81.9375V69.0589H81.4799V64.6848Z" fill="#FF7926"/>
      <path d="M81.4799 73.426H81.9375V77.8H81.4799V73.426Z" fill="#FF7926"/>
      <path d="M81.9373 40.311H83.9897V40.7619H81.9373V42.8143H81.4865V40.7619H79.434V40.311H81.4865H81.9373Z" fill="#FF7926"/>
      <path d="M35.6933 40.311H40.0674V40.7686H35.6933V40.311Z" fill="#FF7926"/>
      <path d="M44.4414 40.311H48.8154V40.7686H44.4414V40.311Z" fill="#FF7926"/>
      <path d="M61.9375 40.311H66.3115V40.7686H61.9375V40.311Z" fill="#FF7926"/>
      <path d="M53.1894 40.311H57.5635V40.7686H53.1894V40.311Z" fill="#FF7926"/>
      <path d="M18.2041 40.311H22.5781V40.7686H18.2041V40.311Z" fill="#FF7926"/>
      <path d="M26.9521 40.311H31.3262V40.7686H26.9521V40.311Z" fill="#FF7926"/>
      <path d="M70.6855 40.311H75.0596V40.7686H70.6855V40.311Z" fill="#FF7926"/>
      <path d="M0.525842 110.471H4.8999V110.928H0.525842V110.471Z" fill="#FF7926"/>
      <path d="M11.3201 108.418H11.7776V110.471H13.8301V110.922H11.7776V112.974H11.3201V110.922H9.27435V110.471H11.3201V108.418Z" fill="#FF7926"/>
      <path d="M11.3198 64.6848H11.7773V69.0589H11.3198V64.6848Z" fill="#FF7926"/>
      <path d="M11.3198 47.1877H11.7773V51.5618H11.3198V47.1877Z" fill="#FF7926"/>
      <path d="M11.3198 90.9222H11.7773V95.2963H11.3198V90.9222Z" fill="#FF7926"/>
      <path d="M11.3198 73.426H11.7773V77.8H11.3198V73.426Z" fill="#FF7926"/>
      <path d="M11.3198 82.1741H11.7773V86.5482H11.3198V82.1741Z" fill="#FF7926"/>
      <path d="M11.3198 55.9368H11.7773V60.3108H11.3198V55.9368Z" fill="#FF7926"/>
      <path d="M11.3198 99.6703H11.7773V104.044H11.3198V99.6703Z" fill="#FF7926"/>
      <path d="M11.7776 40.3108H13.8301V40.7616H11.7776V42.8141H11.3201V40.7616H9.27435V40.3108H11.3201H11.7776Z" fill="#FF7926"/>
      <path d="M0.525842 40.311H4.8999V40.7686H0.525842V40.311Z" fill="#FF7926"/>
    </g>
  </g>
  <rect x="143.757" y="127.343" width="1.4343" height="8.60579" fill="#FF7926"/>
  <rect x="147.343" y="125.191" width="1.4343" height="8.60579" transform="rotate(-90 147.343 125.191)" fill="#FF7926"/>
  <rect x="143.757" y="113" width="1.4343" height="8.60579" fill="#FF7926"/>
  <rect x="133.001" y="125.191" width="1.4343" height="8.60579" transform="rotate(-90 133.001 125.191)" fill="#FF7926"/>
  <defs>
    <radialGradient id="paint0_radial_247_10058" cx="0" cy="0" r="1" gradientUnits="userSpaceOnUse" gradientTransform="translate(190 190) rotate(180) scale(190)">
      <stop stop-color="#D9D9D9"/>
      <stop offset="1" stop-color="#737373" stop-opacity="0"/>
    </radialGradient>
  </defs>
</svg>