<svg width="190" height="190" viewBox="0 0 190 190" fill="none" xmlns="http://www.w3.org/2000/svg">
  <mask id="mask0_210_2600" style="mask-type:alpha" maskUnits="userSpaceOnUse" x="0" y="0" width="190" height="190">
    <rect width="190" height="190" fill="url(#paint0_radial_210_2600)"/>
  </mask>
  <g mask="url(#mask0_210_2600)">
    <path d="M-122.173 196.204C-122.173 196.204 -122.2 196.204 -122.207 196.204C-122.422 196.183 -122.584 195.988 -122.564 195.773C-120.888 177.61 -114.374 164.354 -102.665 155.242C-90.6196 145.868 -77.9819 136.844 -65.7682 128.116C-62.7804 125.983 -59.7993 123.85 -56.8182 121.717C-54.0592 119.738 -50.7686 117.921 -46.7512 116.165C-41.6638 113.944 -36.5697 115.149 -32.7003 116.441C-30.7757 117.087 -28.8713 117.841 -27.0275 118.567C-23.5754 119.933 -20.0021 121.346 -16.2202 122.073C-10.0629 123.251 -4.57849 123.311 0.549258 122.262C9.97704 120.33 18.0589 117.41 25.266 113.339C26.7465 112.504 28.1597 111.495 29.371 110.613C31.3359 109.18 32.4328 107.43 32.6414 105.398C32.9038 102.881 31.7262 100.035 29.3306 97.3901L28.1866 96.125C24.8354 92.4239 21.3698 88.6016 18.3349 84.5506C16.5179 82.128 14.9635 79.1469 13.4359 75.1766C11.3633 69.7931 13.4763 64.8606 15.5153 60.0962L15.8181 59.3896C16.74 57.2228 17.7562 55.0492 18.7386 52.9496C21.4506 47.1355 24.2567 41.1262 25.4141 34.6257C25.8717 32.0686 26.2889 29.5652 26.4235 27.0821C26.5648 24.4308 26.6456 21.7323 26.7263 19.1213C26.834 15.6221 26.9416 12.0084 27.1974 8.45536C27.5473 3.61025 30.1179 0.0302558 34.6266 -1.89433C36.1676 -2.5538 37.7153 -3.20655 39.2631 -3.85929C43.5295 -5.65602 47.9371 -7.51331 52.1901 -9.50519C63.206 -14.6733 71.759 -21.8266 78.3268 -31.3755C83.8717 -39.4238 91.0183 -46.1733 97.9226 -52.27C103.865 -57.5122 107.707 -64.4905 109.356 -72.9896C110.843 -80.6812 110.708 -88.5344 110.574 -96.1251C110.54 -97.9352 110.506 -99.7522 110.5 -101.562C110.479 -105.129 109.235 -108.877 108.158 -111.744C105.991 -117.511 99.9885 -120.324 93.885 -118.433C87.7075 -116.522 82.3307 -114.052 77.4385 -110.876C70.1641 -106.158 62.9974 -103.346 55.5278 -102.269C53.8253 -102.027 52.0757 -102.087 50.3799 -102.148C49.2292 -102.188 48.0381 -102.229 46.8806 -102.175C39.0141 -101.798 29.9766 -100.977 22.2581 -96.0174C18.3416 -93.5006 15.0846 -91.1386 12.3054 -88.8035C0.455068 -78.8374 -8.34016 -68.4002 -14.5782 -56.8931C-17.2767 -51.9201 -20.8836 -46.5367 -27.1957 -44.3294C-31.5429 -42.8153 -35.964 -41.6444 -40.3516 -40.8571C-51.6366 -38.8249 -60.2569 -32.3378 -66.7103 -21.0325C-70.7412 -13.9735 -72.2284 -7.27779 -71.2593 -0.561927C-70.7277 3.14593 -68.7089 6.82687 -67.2419 9.26961C-66.495 10.5078 -65.6942 11.7527 -64.9203 12.9573C-62.2084 17.1698 -59.4023 21.5237 -58.3256 26.6986C-57.6728 29.8344 -56.8451 33.9595 -56.2731 38.1115C-55.8425 41.2474 -55.4051 44.4034 -55.6137 47.4989C-55.6877 48.5958 -55.755 49.6994 -55.8223 50.803C-56.1453 56.1326 -56.4818 61.6507 -57.7603 66.8524C-59.5032 73.9451 -64.9271 79.7122 -71.9188 81.8992C-78.8097 84.0593 -86.0235 82.4173 -91.6963 77.404C-96.0031 73.5952 -100.243 69.5778 -104.347 65.6883C-107.214 62.9696 -110.182 60.1635 -113.143 57.4516C-117.039 53.885 -121.319 50.1637 -126.231 46.079C-133.458 40.0697 -142.308 36.9339 -150.867 33.9057C-151.695 33.6096 -152.523 33.3202 -153.357 33.0241C-154.71 32.5396 -156.062 32.0551 -157.415 31.5639C-161.836 29.969 -166.412 28.3203 -170.948 26.8331C-182.845 22.9301 -188.881 26.8466 -194.278 33.9393C-200.859 42.5865 -204.069 52.8218 -203.814 64.3693C-203.672 70.7218 -201.324 76.8253 -197.017 82.0136C-193.43 86.3338 -189.642 90.6069 -185.981 94.7387C-183.054 98.0361 -180.025 101.448 -177.118 104.866C-175.268 107.047 -173.834 109.664 -172.569 112.168C-169.602 118.022 -172.69 122.706 -176.102 126.999C-179.043 130.7 -182.078 133.735 -185.126 136.023C-192.777 141.757 -196.331 149.576 -196.304 160.619C-196.277 171.615 -197.629 183.095 -200.442 195.719C-200.489 195.934 -200.705 196.069 -200.913 196.022C-201.129 195.975 -201.263 195.766 -201.216 195.551C-198.417 182.987 -197.064 171.561 -197.098 160.626C-197.125 149.307 -193.477 141.285 -185.604 135.391C-182.609 133.15 -179.622 130.162 -176.721 126.508C-173.336 122.241 -170.517 117.962 -173.276 112.524C-174.521 110.068 -175.921 107.498 -177.724 105.385C-180.624 101.973 -183.646 98.561 -186.573 95.2636C-190.241 91.1251 -194.036 86.8452 -197.629 82.5183C-202.05 77.1887 -204.466 70.917 -204.608 64.3828C-204.863 52.6536 -201.606 42.2433 -194.911 33.4548C-189.305 26.0929 -183.047 22.0217 -170.705 26.0795C-166.156 27.5734 -161.58 29.2221 -157.146 30.8169C-155.793 31.3014 -154.447 31.7927 -153.095 32.2704C-152.267 32.5665 -151.439 32.8559 -150.612 33.152C-141.991 36.2004 -133.075 39.3564 -125.733 45.4599C-120.814 49.5514 -116.521 53.2861 -112.618 56.8594C-109.65 59.578 -106.683 62.3909 -103.816 65.1095C-99.7177 68.9924 -95.4782 73.0098 -91.1849 76.8051C-85.7274 81.63 -78.7962 83.2114 -72.1678 81.1388C-65.4385 79.0325 -60.2165 73.4876 -58.5409 66.6573C-57.2825 61.5228 -56.9461 56.0451 -56.6231 50.7424C-56.5558 49.6388 -56.4885 48.5352 -56.4145 47.4316C-56.2059 44.4236 -56.6365 41.3012 -57.0538 38.2865C-57.6325 34.0874 -58.4534 29.969 -59.1062 26.8533C-60.156 21.8198 -62.9217 17.5332 -65.5933 13.3812C-66.3671 12.1767 -67.1747 10.925 -67.9283 9.67338C-69.429 7.17007 -71.4949 3.40164 -72.0534 -0.44753C-73.0493 -7.34509 -71.5285 -14.209 -67.4102 -21.4228C-60.8356 -32.9434 -52.0337 -39.5584 -40.4996 -41.631C-36.1525 -42.4116 -31.765 -43.569 -27.4649 -45.0697C-21.4085 -47.1827 -17.9093 -52.4181 -15.2781 -57.2632C-8.99294 -68.8578 -0.137124 -79.369 11.7872 -89.4025C14.6001 -91.7644 17.8773 -94.1466 21.8274 -96.6769C29.7141 -101.744 38.8727 -102.578 46.8403 -102.962C48.0313 -103.023 49.2359 -102.975 50.4068 -102.935C52.0622 -102.875 53.785 -102.814 55.4135 -103.05C62.7686 -104.106 69.8344 -106.879 77.0078 -111.535C81.9673 -114.752 87.4114 -117.255 93.6562 -119.186C100.17 -121.199 106.583 -118.184 108.898 -112.02C110.002 -109.092 111.267 -105.257 111.287 -101.562C111.3 -99.7522 111.327 -97.942 111.361 -96.1385C111.496 -88.5075 111.637 -80.614 110.13 -72.8349C108.447 -64.154 104.517 -57.0344 98.4474 -51.6711C91.5835 -45.608 84.4774 -38.9056 78.9795 -30.9246C72.3242 -21.2613 63.6703 -14.0206 52.5265 -8.79189C48.2602 -6.78655 43.839 -4.92926 39.5659 -3.13253C38.0181 -2.47979 36.4771 -1.83377 34.9294 -1.1743C30.6563 0.649348 28.3145 3.90634 27.9847 8.50247C27.729 12.0354 27.6146 15.6423 27.5137 19.1348C27.4329 21.7525 27.3521 24.4577 27.2108 27.1158C27.0762 29.6393 26.6523 32.1695 26.188 34.7536C25.0103 41.355 22.1841 47.4114 19.4519 53.2727C18.4762 55.3655 17.4668 57.5323 16.5449 59.6924L16.242 60.399C14.2636 65.0153 12.2179 69.7931 14.1761 74.8805C15.6768 78.7768 17.1976 81.6973 18.9741 84.0593C21.9889 88.0834 25.441 91.8922 28.7788 95.5732L29.9228 96.8383C32.4665 99.6511 33.7114 102.713 33.4287 105.459C33.1999 107.686 31.955 109.685 29.8353 111.232C28.6105 112.127 27.1705 113.157 25.6564 114.012C18.3752 118.123 10.2126 121.064 0.710755 123.015C-4.52466 124.092 -10.11 124.031 -16.3683 122.827C-20.2242 122.087 -23.8311 120.66 -27.3169 119.281C-29.154 118.554 -31.0517 117.8 -32.956 117.168C-38.5077 115.31 -42.6664 115.216 -46.4416 116.865C-50.4052 118.601 -53.6554 120.384 -56.3606 122.329C-59.3417 124.469 -62.3228 126.602 -65.3106 128.729C-77.5243 137.45 -90.1486 146.474 -102.187 155.834C-113.715 164.804 -120.128 177.88 -121.783 195.813C-121.803 196.022 -121.972 196.17 -122.173 196.17V196.204Z" fill="#FF7926" fill-opacity="0.4"/>
    <path d="M-118.721 197.388C-118.829 197.388 -118.937 197.374 -119.051 197.354C-119.906 197.172 -120.451 196.338 -120.276 195.483C-120.128 194.784 -119.973 194.09 -119.818 193.397C-119.495 191.957 -119.159 190.463 -118.93 189.01C-116.763 175.316 -109.704 163.573 -98.5268 155.047C-87.3628 146.534 -75.4587 138.648 -63.9515 131.023C-61.5626 129.442 -59.1737 127.854 -56.7848 126.266C-51.5359 122.766 -46.0179 120.923 -40.8161 120.923C-40.6815 120.923 -40.5402 120.923 -40.4056 120.923C-37.2361 120.983 -34.1339 121.838 -31.1326 122.659C-29.9886 122.975 -28.8042 123.298 -27.6603 123.567C-25.7491 124.011 -23.8313 124.523 -21.974 125.021C-18.2325 126.017 -14.3698 127.053 -10.5543 127.537C-4.3297 128.332 2.42653 127.49 10.1249 124.974C11.6322 124.482 13.1396 124.005 14.6537 123.52C22.3857 121.071 30.3869 118.534 37.3652 114.099C41.0394 111.764 43.435 109.348 43.1928 105.176C42.9573 101.044 40.4943 98.2245 36.8807 95.2502L35.1445 93.8303C31.7731 91.078 28.2873 88.2247 25.0842 85.1427C16.9888 77.3502 15.3603 68.703 19.9631 57.9361C26.0936 43.5959 29.8822 30.292 31.5443 17.2708C32.4124 10.4742 35.1042 5.70306 39.7676 2.67486C41.4163 1.6049 43.0784 0.474377 44.6867 -0.615774C47.6947 -2.65476 50.7969 -4.76776 54.0135 -6.62505C65.1977 -13.1121 72.7278 -19.3637 78.4342 -26.9005C85.5673 -36.3216 92.3168 -43.1586 99.6854 -48.4142C105.183 -52.3374 108.945 -57.1623 110.876 -62.7476C113.44 -70.1633 113.891 -78.003 114.133 -85.3918C114.443 -94.9003 113.938 -104.617 113.494 -113.191C113.346 -115.983 112.808 -118.736 112.236 -121.643C111.987 -122.901 111.738 -124.166 111.522 -125.431L111.347 -126.454C110.082 -133.85 108.77 -141.501 113.097 -148.917C113.541 -149.67 114.51 -149.926 115.264 -149.482C116.018 -149.044 116.273 -148.075 115.836 -147.315C112.088 -140.895 113.245 -134.139 114.47 -126.986L114.645 -125.956C114.853 -124.718 115.096 -123.486 115.338 -122.255C115.91 -119.361 116.495 -116.374 116.657 -113.352C117.108 -104.712 117.619 -94.9272 117.303 -85.2841C117.054 -77.6463 116.583 -69.5375 113.878 -61.7113C111.731 -55.4934 107.579 -50.1503 101.529 -45.8368C94.4366 -40.7696 87.9024 -34.1413 80.9645 -24.9826C74.9888 -17.0959 67.1694 -10.5886 55.6084 -3.87949C52.4927 -2.07603 49.4309 0.00332634 46.47 2.01539C44.8482 3.11227 43.1726 4.24953 41.497 5.33968C37.6074 7.86318 35.4406 11.7864 34.6869 17.6812C32.9844 30.9986 29.1218 44.5716 22.8769 59.1877C18.8057 68.7165 20.165 76.0245 27.2846 82.8749C30.3936 85.8695 33.8323 88.6756 37.1566 91.3875L38.8995 92.8142C42.5871 95.8424 46.046 99.4156 46.369 105.001C46.719 111.064 42.8765 114.355 39.0744 116.771C31.7462 121.427 23.5499 124.025 15.6228 126.542C14.1221 127.019 12.6215 127.49 11.1208 127.982C2.9649 130.653 -4.24896 131.535 -10.9446 130.68C-14.9688 130.169 -18.939 129.105 -22.7815 128.083C-24.6186 127.591 -26.5095 127.087 -28.3736 126.649C-29.5781 126.367 -30.7961 126.037 -31.967 125.714C-34.9077 124.906 -37.6937 124.139 -40.4662 124.092C-40.5873 124.092 -40.7017 124.092 -40.8228 124.092C-45.3987 124.092 -50.3112 125.754 -55.0352 128.904C-57.4241 130.492 -59.813 132.08 -62.2086 133.668C-73.6754 141.265 -85.5324 149.125 -96.6156 157.57C-107.288 165.706 -113.748 176.453 -115.814 189.515C-116.063 191.069 -116.407 192.617 -116.743 194.104C-116.898 194.784 -117.053 195.463 -117.194 196.15C-117.349 196.897 -118.008 197.408 -118.742 197.408L-118.721 197.388Z" fill="#FF7926" fill-opacity="0.6"/>
    <path d="M-273.078 97.8746C-283.482 97.8746 -291.94 94.7388 -298.293 88.5142C-317.566 69.6182 -313.791 25.7969 -311.536 -0.393653C-311.321 -2.8835 -311.119 -5.23204 -310.951 -7.40561C-310.338 -15.2251 -312.061 -22.9234 -313.73 -30.3661C-313.912 -31.187 -314.1 -32.008 -314.282 -32.829C-315.258 -37.2502 -315.715 -41.6848 -315.648 -46.0117C-315.601 -48.9928 -314.49 -51.3683 -312.593 -52.5324C-311.24 -53.3602 -308.858 -53.9725 -305.204 -52.1825C-303.946 -51.5702 -302.842 -50.6348 -301.779 -49.7331C-301.51 -49.5043 -301.247 -49.2822 -300.978 -49.0601C-296.523 -45.4196 -294.134 -40.4129 -291.826 -35.5678C-291.167 -34.1883 -290.487 -32.7617 -289.767 -31.3889C-289.477 -30.8371 -289.188 -30.2718 -288.899 -29.7066C-287.122 -26.2275 -285.285 -22.6341 -282.54 -20.2452C-273.886 -12.715 -264.047 -9.63302 -253.307 -11.0798C-246.672 -11.9748 -241.841 -13.8792 -238.092 -17.0891C-234.25 -20.3797 -230.724 -24.1818 -227.312 -27.8628C-226.41 -28.8385 -225.509 -29.8075 -224.6 -30.7698C-223.53 -31.9071 -222.453 -33.0376 -221.377 -34.1681C-217.353 -38.3874 -213.194 -42.7547 -209.52 -47.3643C-205.381 -52.5661 -202.05 -57.7611 -199.614 -62.8081C-197.01 -68.205 -195.254 -74.1336 -193.551 -79.8737L-193.329 -80.6341C-189.628 -93.117 -182.892 -101.441 -172.73 -106.084C-166.371 -108.991 -159.514 -110.115 -152.886 -111.205L-152.61 -111.253C-143.7 -112.72 -133.586 -115.479 -126.157 -124.805C-120.78 -131.555 -117.893 -139.085 -117.059 -148.506C-117.039 -148.721 -116.85 -148.89 -116.628 -148.863C-116.413 -148.843 -116.251 -148.654 -116.271 -148.432C-117.106 -138.984 -120.134 -131.097 -125.538 -124.314C-133.128 -114.779 -143.418 -111.966 -152.482 -110.479L-152.758 -110.432C-159.339 -109.348 -166.142 -108.231 -172.401 -105.371C-182.34 -100.829 -188.941 -92.6661 -192.568 -80.4188L-192.791 -79.6584C-194.5 -73.8913 -196.263 -67.9291 -198.894 -62.4784C-201.357 -57.3843 -204.722 -52.1354 -208.894 -46.8865C-212.588 -42.2433 -216.76 -37.8693 -220.791 -33.6365C-221.868 -32.506 -222.945 -31.3822 -224.008 -30.2449C-224.916 -29.2826 -225.811 -28.3136 -226.713 -27.3379C-230.138 -23.6435 -233.685 -19.8145 -237.561 -16.4969C-241.43 -13.1861 -246.39 -11.2211 -253.186 -10.3059C-264.162 -8.83222 -274.209 -11.9748 -283.044 -19.6597C-285.904 -22.1428 -287.775 -25.8103 -289.585 -29.3567C-289.875 -29.9219 -290.164 -30.4805 -290.453 -31.039C-291.18 -32.4252 -291.86 -33.8586 -292.526 -35.2448C-294.8 -40.0092 -297.149 -44.935 -301.462 -48.4679C-301.732 -48.69 -302.001 -48.9188 -302.277 -49.1476C-303.306 -50.0157 -304.369 -50.9174 -305.54 -51.4894C-308.178 -52.7814 -310.473 -52.916 -312.169 -51.873C-313.824 -50.8568 -314.8 -48.7237 -314.847 -46.0185C-314.914 -41.7588 -314.463 -37.3847 -313.501 -33.0241C-313.319 -32.2032 -313.138 -31.3822 -312.949 -30.5612C-311.267 -23.058 -309.531 -15.3058 -310.15 -7.36523C-310.318 -5.18493 -310.527 -2.83639 -310.735 -0.346543C-312.976 25.6959 -316.731 69.2952 -297.728 87.9287C-290.372 95.1425 -280.083 98.1034 -267.143 96.7441C-265.393 96.0914 -215.906 77.2291 -205.711 31.7792C-203.948 23.9194 -202.138 16.9344 -197.891 11.1068C-195.368 7.64789 -191.673 4.31688 -187.488 1.73282C-182.919 -1.0935 -177.764 -0.649368 -172.986 2.9912C-171.324 4.25631 -169.662 5.54161 -168.006 6.82018C-164.016 9.90221 -159.898 13.0919 -155.699 16.0192C-154.548 16.82 -153.485 17.7284 -152.455 18.5965C-150.598 20.1712 -148.841 21.6651 -146.607 22.6139C-144.238 23.6233 -141.702 24.2962 -139.245 24.949C-137.92 25.2989 -136.547 25.669 -135.214 26.0795C-127.247 28.5559 -119.273 33.3673 -110.121 41.2205C-104.919 45.682 -99.1655 50.2378 -92.3285 53.2794C-88.1159 55.1569 -79.7312 54.9147 -77.2279 50.7559C-71.084 40.5475 -75.9157 32.3445 -81.03 23.6569C-82.2883 21.517 -83.5938 19.2963 -84.7378 17.042C-92.8467 0.98586 -87.8804 -16.7123 -69.5632 -37.0752C-61.8918 -45.5945 -52.0871 -51.5634 -42.5988 -57.3305C-33.8911 -62.6264 -24.8805 -68.0974 -17.4917 -75.5602C-15.1701 -77.902 -12.8686 -80.2371 -10.5739 -82.5722C-2.71408 -90.5531 5.40818 -98.81 13.8266 -106.677C19.1023 -111.602 24.3445 -114.671 29.8693 -116.064C32.8638 -116.818 35.9391 -117.491 38.9067 -118.13C41.4908 -118.688 44.1556 -119.274 46.7666 -119.906C55.4811 -122.033 63.3342 -126.42 70.0164 -130.371C74.1145 -132.793 77.5061 -136.609 80.79 -140.303L81.3149 -140.895C82.6002 -142.342 83.4549 -144.253 84.2893 -146.104C84.6729 -146.952 85.0632 -147.833 85.5006 -148.668C85.6015 -148.863 85.8438 -148.937 86.0322 -148.836C86.2274 -148.735 86.3014 -148.493 86.2004 -148.304C85.7765 -147.497 85.3862 -146.622 85.0093 -145.787C84.1547 -143.883 83.2732 -141.911 81.9071 -140.377L81.3822 -139.785C78.0579 -136.05 74.626 -132.181 70.4202 -129.698C63.6908 -125.721 55.7772 -121.293 46.955 -119.146C44.3373 -118.507 41.6658 -117.928 39.0817 -117.363C36.1208 -116.717 33.0522 -116.051 30.0711 -115.297C24.6069 -113.917 19.6205 -110.997 14.3784 -106.098C5.97344 -98.2447 -2.1421 -89.9946 -9.99522 -82.0203C-12.2966 -79.6853 -14.5981 -77.3435 -16.913 -75.0084C-24.3758 -67.4783 -33.42 -61.9804 -42.1748 -56.6575C-51.6161 -50.9174 -61.3736 -44.9821 -68.9643 -36.5503C-87.2882 -16.1806 -92.0728 0.73014 -84.0245 16.6786C-82.9007 18.9128 -81.602 21.1133 -80.3436 23.2465C-75.1082 32.1426 -70.1554 40.5408 -76.5415 51.153C-79.489 56.0519 -88.6408 55.776 -92.6448 53.9927C-99.576 50.904 -105.383 46.3146 -110.632 41.8127C-119.697 34.0336 -127.583 29.2692 -135.443 26.8265C-136.762 26.416 -138.122 26.0526 -139.44 25.7027C-141.924 25.0432 -144.487 24.3568 -146.91 23.3272C-149.252 22.3313 -151.136 20.7297 -152.96 19.1819C-153.976 18.3206 -155.026 17.4323 -156.143 16.6517C-160.355 13.711 -164.487 10.5213 -168.478 7.42582C-170.133 6.14725 -171.788 4.86868 -173.45 3.60357C-177.952 0.178341 -182.784 -0.252338 -187.057 2.39229C-191.162 4.92924 -194.776 8.18624 -197.239 11.5644C-201.397 17.2641 -203.181 24.1684 -204.924 31.9407C-215.347 78.4134 -266.389 97.3094 -266.907 97.4978C-266.934 97.5113 -266.968 97.518 -267.002 97.518C-269.088 97.7401 -271.113 97.8477 -273.065 97.8477L-273.078 97.8746Z" fill="#FF7926" fill-opacity="0.4"/>
    <path d="M-9.01335 107.208C-13.1384 107.208 -17.1558 105.606 -20.5945 102.457C-21.3078 101.804 -22.0211 101.158 -22.7344 100.512L-22.8959 100.364C-25.5674 97.9485 -28.3265 95.4452 -30.8702 92.8006C-31.7046 91.9325 -32.6063 91.0913 -33.4004 90.3511C-35.8566 88.0631 -38.1648 85.9098 -39.4231 82.747C-43.8443 71.6099 -46.2265 59.403 -46.9196 44.336C-47.0004 42.5864 -47.0542 40.8368 -47.1148 39.0804C-47.2292 35.4802 -47.3503 31.7589 -47.6868 28.0914C-48.0569 24.0269 -48.7567 20.595 -49.8132 17.5869C-50.8966 14.5116 -52.2156 11.4767 -53.4942 8.54273C-54.4295 6.38935 -55.3851 4.19559 -56.2465 1.98837C-57.2222 -0.508208 -58.3258 -3.33452 -58.5681 -6.08008C-59.2343 -13.7515 -55.9706 -20.4674 -48.8644 -26.0258C-45.7352 -28.4685 -41.738 -29.6865 -37.7341 -29.3434C-32.0747 -28.8454 -27.3777 -26.046 -23.3804 -20.7702C-18.3065 -14.0745 -12.9702 -9.00734 -7.06857 -5.28603C-1.21406 -1.59836 3.98774 1.84033 8.43582 6.51721C16.1342 14.6059 20.6293 29.8949 13.7923 42.2836C9.90951 49.3292 5.75753 56.9198 1.72666 64.7326C-1.67165 71.3206 -2.47914 77.6461 -0.689142 83.5276C0.313527 86.8249 1.67957 90.0483 3.00525 93.164C3.56378 94.4695 4.10885 95.7615 4.63373 97.0603L4.74139 97.3227L4.66737 97.5919C3.86658 100.607 2.81009 102.928 0.26641 104.469C-2.75506 106.293 -5.91113 107.201 -9.01335 107.201V107.208ZM-39.0598 -27.7081C-42.2225 -27.7081 -45.3315 -26.6382 -47.8213 -24.6934C-54.4565 -19.5051 -57.5048 -13.2872 -56.8925 -6.21466C-56.6771 -3.71809 -55.6139 -1.00617 -54.6785 1.38274C-53.8306 3.55631 -52.8818 5.73661 -51.9599 7.84962C-50.6611 10.8374 -49.3287 13.8993 -48.2251 17.0284C-47.1215 20.1643 -46.3947 23.7308 -46.0112 27.9367C-45.668 31.6512 -45.5468 35.3995 -45.4324 39.0198C-45.3786 40.7627 -45.318 42.5124 -45.2373 44.2485C-44.5576 59.1271 -42.2091 71.1591 -37.8619 82.1211C-36.7449 84.934 -34.5713 86.9595 -32.2699 89.1062C-31.4489 89.8666 -30.527 90.728 -29.6589 91.6297C-27.1556 94.2339 -24.4167 96.7171 -21.7654 99.1127L-21.6039 99.2607C-20.8839 99.9135 -20.1705 100.559 -19.4572 101.212C-14.0132 106.199 -6.96091 106.878 -0.601699 103.036C1.39691 101.831 2.26503 99.9942 2.96488 97.4371C2.47363 96.2393 1.96891 95.0414 1.46421 93.8504C0.118344 90.6741 -1.26787 87.4104 -2.29746 84.0256C-4.22205 77.7067 -3.36742 70.9572 0.232772 63.9722C4.27037 56.1392 8.42906 48.5351 12.3186 41.4828C18.772 29.7872 14.5057 15.3393 7.21781 7.68811C2.90432 3.15254 -2.20997 -0.218846 -7.97028 -3.84595C-14.0469 -7.67494 -19.5245 -12.8767 -24.7263 -19.7339C-28.4207 -24.6059 -32.7275 -27.1967 -37.8889 -27.6476C-38.2792 -27.6812 -38.6829 -27.7014 -39.0732 -27.7014L-39.0598 -27.7081Z" fill="#FF7926" fill-opacity="0.4"/>
    <path d="M-203.585 196.203C-203.8 196.203 -203.982 196.028 -203.982 195.806C-203.982 195.483 -203.988 195.16 -204.002 194.83C-204.022 194.117 -204.042 193.383 -203.968 192.657C-203.753 190.591 -203.484 188.491 -203.221 186.459C-202.683 182.28 -202.131 177.96 -202.023 173.714C-201.896 168.727 -202.098 163.647 -202.286 158.727C-202.407 155.618 -202.535 152.402 -202.575 149.239C-202.663 142.92 -200.025 137.409 -194.527 132.402C-193.168 131.164 -191.734 129.973 -190.348 128.822C-188.524 127.308 -186.647 125.747 -184.931 124.078C-180.517 119.771 -180.072 115.108 -183.538 109.401C-186.983 103.729 -191.741 99.0854 -196.344 94.5969C-197.488 93.4799 -198.632 92.3695 -199.756 91.2323C-209.567 81.3671 -212.811 69.4091 -209.385 55.6813C-206.384 43.629 -201.842 34.1205 -195.51 26.6106C-187.441 17.0348 -179.837 15.2784 -169.265 20.5542C-168.249 21.0656 -167.233 21.5905 -166.223 22.1221C-164.084 23.2459 -161.87 24.4034 -159.615 25.332C-156.527 26.6106 -153.35 27.8286 -150.275 28.9995C-145.854 30.6953 -141.278 32.4449 -136.884 34.4099C-127.658 38.5349 -120.027 45.2172 -112.651 51.6841L-111.178 52.9761C-103.917 59.3218 -97.3219 64.9745 -90.1418 69.7792C-85.1553 73.1169 -79.5162 74.1533 -74.6509 72.619C-69.873 71.1116 -66.1988 67.3634 -64.0253 61.7713C-63.1504 59.517 -62.8409 56.9733 -62.5448 54.5171C-62.3564 52.9626 -62.1612 51.3543 -61.8248 49.8066C-60.2703 42.66 -61.0105 35.1905 -64.0926 26.9807C-65.5797 23.0171 -68.1032 19.3429 -70.546 15.7831C-71.2122 14.8141 -71.8784 13.8383 -72.5244 12.8693C-77.0532 6.02559 -78.5471 -0.555695 -77.2215 -7.83009C-76.1111 -13.9403 -73.379 -19.2026 -70.6806 -24.0747C-67.4707 -29.8686 -63.312 -34.7137 -58.3121 -38.4754C-52.6729 -42.7216 -46.1656 -44.7472 -40.5063 -46.3151C-30.9372 -48.9597 -23.5013 -54.1749 -18.4072 -61.806C-14.3494 -67.8826 -10.1301 -72.9632 -5.4936 -77.3305C-2.923 -79.7531 -0.27838 -82.1757 2.28549 -84.5175C5.74436 -87.6802 9.32436 -90.9574 12.7496 -94.2682C21.4439 -102.68 32.3857 -106.96 47.1835 -107.747C55.0434 -108.164 61.6247 -109.894 67.3109 -113.03C76.5705 -118.137 85.5474 -123.749 94.2282 -129.173C100.715 -133.231 107.492 -138.399 105.796 -148.399C105.762 -148.614 105.904 -148.816 106.119 -148.857C106.328 -148.89 106.536 -148.749 106.577 -148.534C108.353 -138.049 101.348 -132.699 94.6455 -128.507C85.9579 -123.076 76.9743 -117.457 67.6945 -112.336C61.9006 -109.14 55.2049 -107.384 47.2239 -106.96C32.628 -106.186 21.8476 -101.973 13.3014 -93.703C9.86944 -90.3787 6.2827 -87.1015 2.81709 -83.932C0.259951 -81.5902 -2.38466 -79.1744 -4.94853 -76.7518C-9.53793 -72.4249 -13.7236 -67.3913 -17.741 -61.3619C-22.9427 -53.5626 -30.5267 -48.2464 -40.2909 -45.5412C-45.883 -43.9935 -52.3095 -41.9949 -57.8343 -37.8361C-62.74 -34.1417 -66.8314 -29.3774 -69.9874 -23.6844C-72.6523 -18.8729 -75.3507 -13.6711 -76.4409 -7.68205C-77.7262 -0.622988 -76.2726 5.76988 -71.8649 12.4386C-71.2256 13.4077 -70.5594 14.3767 -69.8932 15.3457C-67.4236 18.9392 -64.8731 22.6605 -63.3523 26.7115C-60.2097 35.0693 -59.4628 42.6802 -61.0509 49.9815C-61.3806 51.4889 -61.5691 53.077 -61.7575 54.618C-62.0603 57.1213 -62.3766 59.7121 -63.285 62.0607C-65.5461 67.8883 -69.3952 71.798 -74.4086 73.3794C-79.496 74.981 -85.3909 73.911 -90.5724 70.4387C-97.793 65.607 -104.408 59.9409 -111.689 53.575L-113.163 52.283C-120.498 45.8564 -128.075 39.2079 -137.2 35.1299C-141.574 33.1717 -146.136 31.4288 -150.551 29.7397C-153.626 28.5621 -156.809 27.3441 -159.911 26.0588C-162.199 25.1099 -164.427 23.9458 -166.587 22.8152C-167.59 22.2904 -168.599 21.7655 -169.615 21.2541C-179.79 16.1734 -187.118 17.8692 -194.904 27.1086C-201.155 34.5243 -205.644 43.9319 -208.618 55.863C-211.969 69.3081 -208.8 81.0172 -199.197 90.667C-198.073 91.7975 -196.936 92.9079 -195.792 94.0182C-191.156 98.5403 -186.358 103.217 -182.865 108.978C-179.225 114.973 -179.723 120.094 -184.379 124.63C-186.115 126.319 -188.013 127.894 -189.843 129.414C-191.223 130.558 -192.65 131.743 -193.995 132.968C-199.318 137.813 -201.869 143.129 -201.788 149.212C-201.748 152.368 -201.62 155.578 -201.499 158.68C-201.303 163.606 -201.108 168.707 -201.236 173.72C-201.344 178.014 -201.902 182.354 -202.441 186.546C-202.703 188.572 -202.972 190.665 -203.188 192.724C-203.255 193.397 -203.241 194.077 -203.221 194.79C-203.215 195.12 -203.201 195.456 -203.201 195.786C-203.201 196.001 -203.376 196.183 -203.598 196.183L-203.585 196.203Z" fill="#FF7926" fill-opacity="0.4"/>
    <path d="M94.4638 196.028C94.4234 196.028 94.3898 196.028 94.3494 196.008C94.1408 195.941 94.0264 195.726 94.087 195.517C94.9349 192.731 95.8433 189.918 96.7249 187.193C98.6898 181.083 100.729 174.764 102.25 168.438C105.399 155.39 110.358 143.917 117.411 133.372C124.046 123.459 126.468 112.033 124.43 100.317L123.797 96.6835C122.666 90.183 121.495 83.4671 120.284 76.8656C118.508 67.2427 119.712 58.4609 123.851 50.7693C126.421 45.9982 129.275 41.2877 132.04 36.7319C133.642 34.0873 135.304 31.3485 136.885 28.6366C141.118 21.3756 144.873 14.1618 144.315 5.76359C143.971 0.649303 142.895 -4.51209 141.845 -9.51197C141.663 -10.3868 141.482 -11.2549 141.3 -12.1229C140.54 -15.8173 139.692 -19.5656 138.871 -23.186C137.72 -28.2599 136.522 -33.5087 135.567 -38.7172C134.725 -43.2932 135.661 -47.6942 138.272 -51.4357C141.966 -56.7316 146.273 -61.072 151.448 -64.7059C156.353 -68.1513 161.818 -69.8807 166.979 -71.2401C167.194 -71.2939 167.41 -71.1728 167.463 -70.9574C167.517 -70.7488 167.396 -70.5267 167.181 -70.4729C162.087 -69.1338 156.71 -67.4313 151.899 -64.0599C146.805 -60.4866 142.558 -56.2067 138.918 -50.9848C136.428 -47.4182 135.54 -43.2259 136.347 -38.8653C137.303 -33.677 138.494 -28.4348 139.644 -23.3676C140.465 -19.7405 141.32 -15.9923 142.081 -12.2912C142.255 -11.4231 142.437 -10.5483 142.626 -9.68021C143.675 -4.66013 144.759 0.534907 145.109 5.70303C145.687 14.3233 141.872 21.6515 137.579 29.0269C135.99 31.7455 134.328 34.4843 132.727 37.1357C129.968 41.6847 127.115 46.3818 124.557 51.1394C120.5 58.6695 119.329 67.2763 121.072 76.7176C122.29 83.319 123.454 90.0416 124.591 96.5422L125.224 100.176C127.303 112.094 124.833 123.722 118.084 133.802C111.079 144.267 106.159 155.653 103.037 168.613C101.503 174.966 99.4637 181.298 97.492 187.428C96.6172 190.154 95.7088 192.967 94.8609 195.746C94.807 195.914 94.6523 196.028 94.484 196.028H94.4638Z" fill="#FF7926" fill-opacity="0.4"/>
    <path d="M111.024 197.388C110.977 197.388 110.93 197.388 110.876 197.388C110.008 197.307 109.362 196.54 109.443 195.665C109.517 194.884 109.571 194.104 109.631 193.323C109.759 191.574 109.894 189.763 110.183 187.973C110.964 183.142 111.838 177.947 112.962 172.718C113.231 171.46 113.487 170.194 113.743 168.929C114.658 164.387 115.6 159.683 117.283 155.282C119.308 149.973 121.879 144.811 124.368 139.825C125.324 137.907 126.28 135.996 127.202 134.071C130.876 126.434 132.76 118.305 132.807 109.906C132.827 106.508 132.484 103.016 132.148 99.6375C131.912 97.2755 131.677 94.826 131.555 92.3967C131.179 84.7522 130.842 77.2759 130.923 69.8804C130.963 66.3677 131.549 62.5253 132.679 58.454C135.384 48.6898 141.044 40.7357 147.1 32.7749C154.657 22.8424 156.71 12.0957 153.372 -0.0776266C150.613 -10.1312 148.096 -20.8847 150.169 -32.1563C151.165 -37.5869 153.089 -42.6473 155.889 -47.1964C158.109 -50.81 161.36 -53.098 164.509 -55.3186C165.115 -55.7426 165.727 -56.1733 166.326 -56.6107C167.032 -57.1288 168.022 -56.9673 168.533 -56.2608C169.044 -55.5542 168.89 -54.565 168.183 -54.0535C167.571 -53.6094 166.945 -53.172 166.326 -52.7346C163.311 -50.6081 160.458 -48.6095 158.58 -45.5477C155.956 -41.2678 154.22 -36.7053 153.278 -31.591C151.326 -20.9722 153.755 -10.6157 156.42 -0.918792C160.041 12.2707 157.813 23.9191 149.617 34.6861C143.756 42.3911 138.278 50.0693 135.728 59.2885C134.671 63.0973 134.119 66.6705 134.086 69.9073C134.005 77.2086 134.335 84.6378 134.711 92.2352C134.826 94.5838 135.068 96.9929 135.297 99.3212C135.633 102.78 135.99 106.36 135.97 109.92C135.923 118.789 133.931 127.376 130.048 135.437C129.113 137.376 128.157 139.307 127.195 141.231C124.739 146.151 122.202 151.245 120.23 156.406C118.642 160.565 117.727 165.127 116.838 169.548C116.583 170.827 116.327 172.106 116.051 173.377C114.947 178.532 114.079 183.68 113.305 188.471C113.036 190.127 112.915 191.789 112.787 193.545C112.727 194.346 112.673 195.147 112.599 195.948C112.525 196.769 111.832 197.388 111.024 197.388Z" fill="#FF7926" fill-opacity="0.6"/>
    <path d="M136.892 196.203C136.838 196.203 136.778 196.189 136.724 196.169C136.26 195.953 135.789 195.738 135.324 195.53C134.288 195.059 133.252 194.587 132.236 194.089C128.299 192.158 123.985 189.635 122.707 184.17C120.446 174.494 121.253 164.501 125.183 153.606C126.448 150.1 127.929 146.621 129.355 143.249C130.365 140.874 131.408 138.418 132.363 135.982C137 124.165 138.628 114.65 137.653 105.114C136.636 95.229 136.421 85.1014 136.213 75.3035V75.0814C135.99 64.8596 138.797 55.5058 144.543 47.2826C146.623 44.3082 148.884 41.4011 151.071 38.5816C152.895 36.233 154.785 33.8037 156.549 31.361C161.178 24.9479 165.956 16.2133 161.73 5.52711C157.067 -6.26266 155.297 -16.397 156.165 -26.3766C156.939 -35.2391 160.485 -41.8742 167.013 -46.6723C167.188 -46.8001 167.437 -46.7665 167.564 -46.5848C167.692 -46.4098 167.659 -46.1608 167.477 -46.033C161.145 -41.383 157.699 -34.9296 156.952 -26.3093C156.098 -16.4576 157.847 -6.4309 162.464 5.23775C166.831 16.2806 161.939 25.244 157.188 31.8253C155.411 34.2815 153.52 36.7175 151.69 39.0728C149.51 41.8789 147.249 44.7793 145.183 47.7402C139.53 55.8288 136.771 65.0211 136.986 75.0747V75.2967C137.202 85.0745 137.417 95.1819 138.427 105.04C139.422 114.704 137.774 124.34 133.09 136.278C132.128 138.727 131.085 141.19 130.075 143.566C128.649 146.924 127.175 150.403 125.917 153.882C122.041 164.622 121.24 174.474 123.467 183.996C124.544 188.612 127.888 191.088 132.572 193.383C133.581 193.881 134.611 194.345 135.641 194.81C136.112 195.025 136.576 195.233 137.047 195.449C137.242 195.543 137.33 195.779 137.242 195.974C137.175 196.115 137.034 196.203 136.885 196.203H136.892Z" fill="#FF7926" fill-opacity="0.4"/>
    <path d="M167.248 190.686C167.1 190.686 166.959 190.605 166.891 190.464L165.175 186.944C163.453 183.405 161.723 179.858 159.98 176.325C159.603 175.565 159.227 174.845 158.695 174.401C157.773 173.627 156.858 172.84 155.936 172.045C153.305 169.771 150.579 167.422 147.652 165.525C143.796 163.028 141.643 159.401 141.064 154.442C140.405 148.796 141.528 143.163 142.612 137.719L143.17 134.953C144.213 129.792 145.297 124.462 145.68 119.18C145.977 115.129 145.68 110.95 145.398 106.912C145.29 105.385 145.183 103.857 145.108 102.336C145.055 101.24 144.927 100.116 144.806 99.0323C144.644 97.6259 144.483 96.1723 144.469 94.7255C144.442 92.5251 144.362 90.2707 144.274 88.0904C144.059 82.4109 143.83 76.5294 144.685 70.897C146.01 62.122 150.627 53.8045 158.029 46.8464C160.034 44.9555 162.147 43.1184 164.193 41.3418C165.128 40.5276 166.064 39.7133 166.992 38.8923C167.154 38.751 167.403 38.7645 167.551 38.926C167.692 39.0875 167.679 39.3365 167.517 39.4845C166.588 40.3055 165.646 41.1265 164.711 41.9407C162.672 43.7173 160.566 45.5476 158.574 47.4251C151.299 54.2621 146.771 62.4181 145.465 71.0181C144.624 76.5765 144.846 82.4176 145.068 88.0635C145.156 90.2505 145.236 92.5049 145.263 94.7188C145.277 96.1185 145.438 97.5586 145.593 98.9448C145.714 100.042 145.842 101.172 145.903 102.296C145.977 103.817 146.084 105.331 146.192 106.859C146.475 110.923 146.771 115.129 146.475 119.24C146.084 124.57 145.001 129.933 143.951 135.115L143.393 137.881C142.316 143.264 141.205 148.829 141.851 154.354C142.403 159.065 144.442 162.503 148.083 164.865C151.057 166.79 153.803 169.159 156.454 171.447C157.369 172.234 158.278 173.021 159.2 173.795C159.846 174.34 160.276 175.134 160.687 175.975C162.437 179.508 164.159 183.055 165.889 186.601L167.598 190.12C167.692 190.316 167.611 190.551 167.416 190.652C167.362 190.679 167.302 190.692 167.241 190.692L167.248 190.686Z" fill="#FF7926" fill-opacity="0.4"/>
    <path d="M-115.37 198.949C-115.424 198.949 -115.478 198.935 -115.532 198.915C-115.733 198.828 -115.821 198.592 -115.727 198.39L-108.587 182.805C-106.46 178.169 -104.267 173.371 -101.117 169.212C-98.2978 165.484 -94.5159 162.018 -89.5631 158.6C-71.2998 146.009 -49.0795 141.79 -29.7596 139.313C-24.6723 138.661 -19.4772 138.095 -14.4504 137.55C1.17508 135.848 17.3321 134.091 32.5808 129.516C37.9239 127.914 44.0072 125.7 48.5495 121.467C53.7917 116.582 56.9141 109.058 57.3313 100.277C57.6677 93.2378 56.3084 86.1316 53.3879 79.7186C51.8805 76.401 49.9223 73.1844 48.0313 70.0687C44.5792 64.3892 41.0059 58.5145 40.0571 51.8457C38.5565 41.348 43.7784 31.1261 49.6531 21.6378C56.5238 10.5277 63.4011 -0.185419 71.9003 -9.20271C73.8652 -11.2888 77.4318 -13.8056 80.8839 -16.2416C84.1409 -18.5363 87.4988 -20.9117 89.3628 -22.8229C89.9483 -23.4218 90.527 -24.0476 91.1058 -24.6667C93.0371 -26.7393 95.0357 -28.886 97.4179 -30.3799C103.602 -34.2694 110.392 -38.1254 118.797 -42.5196C125.607 -46.0794 128.48 -50.7967 127.834 -57.3578C127.451 -61.2944 126.953 -65.2849 126.468 -69.1475C125.701 -75.3452 124.9 -81.7516 124.537 -88.0838C123.918 -98.8171 124.093 -110.203 129.564 -120.748C134.658 -130.566 142.471 -135.364 153.446 -135.411C156.609 -135.425 159.772 -135.418 162.935 -135.411H167.248C167.463 -135.411 167.645 -135.229 167.645 -135.014C167.645 -134.799 167.47 -134.617 167.248 -134.617H162.935C159.772 -134.624 156.609 -134.624 153.453 -134.617C142.8 -134.577 135.216 -129.92 130.27 -120.385C124.887 -110.008 124.719 -98.7498 125.331 -88.131C125.694 -81.8256 126.489 -75.4327 127.262 -69.2485C127.74 -65.3791 128.238 -61.3819 128.628 -57.4385C129.301 -50.6082 126.206 -45.5007 119.167 -41.8197C110.782 -37.439 104.006 -33.5898 97.8418 -29.7137C95.5538 -28.2736 93.5889 -26.1673 91.6912 -24.1284C91.1057 -23.5025 90.527 -22.8767 89.9349 -22.2711C88.017 -20.3061 84.6254 -17.9105 81.3415 -15.5956C77.923 -13.1797 74.3834 -10.6899 72.4723 -8.66436C64.0202 0.299094 57.1698 10.9785 50.3193 22.055C44.5321 31.4155 39.3707 41.4893 40.8377 51.738C41.7663 58.2453 45.2925 64.0527 48.7043 69.6582C50.6087 72.7941 52.5804 76.0309 54.1079 79.3888C57.0756 85.9163 58.4618 93.1503 58.1186 100.31C57.6879 109.301 54.478 117.012 49.0878 122.039C44.4244 126.386 38.2402 128.641 32.8029 130.269C17.4802 134.865 1.28947 136.628 -14.3697 138.331C-19.3897 138.876 -24.5848 139.441 -29.6654 140.094C-48.8978 142.55 -70.9969 146.749 -89.119 159.246C-94.0045 162.61 -97.7191 166.022 -100.492 169.683C-103.587 173.774 -105.767 178.532 -107.874 183.128L-115.013 198.713C-115.081 198.861 -115.222 198.942 -115.37 198.942V198.949Z" fill="#FF7926" fill-opacity="0.4"/>
    <path d="M-276.053 89.0315C-281.066 89.0315 -285.696 87.652 -289.888 84.893C-303.663 75.8421 -309.693 53.8574 -310.675 37.781C-311.456 24.9482 -309.7 12.3307 -307.99 0.137173C-307.035 -6.71328 -306.046 -13.7925 -305.507 -20.8718C-305.312 -23.4626 -305.514 -26.1476 -305.716 -28.7383C-305.857 -30.5553 -305.998 -32.4395 -306.005 -34.29C-306.005 -35.5686 -305.124 -37.6211 -303.731 -37.9104C-302.856 -38.0854 -301.9 -37.6345 -300.965 -36.5847C-299.639 -35.0976 -298.139 -33.3143 -297.102 -31.3561C-290.285 -18.4223 -278.624 -10.9864 -261.464 -8.60421C-252.507 -7.36602 -243.954 -9.53286 -237.38 -14.7144C-232.218 -18.7789 -227.312 -23.3482 -222.568 -27.7693C-220.401 -29.7881 -218.161 -31.8809 -215.92 -33.893C-215.112 -34.6198 -214.278 -35.3196 -213.45 -36.0195C-212.663 -36.6857 -211.869 -37.3519 -211.102 -38.0383C-204.069 -44.3302 -198.437 -51.8401 -194.346 -60.3594C-192.845 -63.4953 -191.506 -66.7792 -190.22 -69.9622C-188.686 -73.7373 -187.105 -77.6471 -185.221 -81.3347C-179.703 -92.1353 -172.32 -98.5416 -162.637 -100.924C-160.759 -101.388 -158.869 -101.94 -157.045 -102.478C-154.817 -103.131 -152.509 -103.811 -150.201 -104.329C-139.959 -106.624 -131.204 -112.256 -124.892 -120.607C-119.044 -128.339 -115.525 -138.245 -114.987 -148.5C-114.973 -148.715 -114.785 -148.877 -114.569 -148.877C-114.354 -148.863 -114.186 -148.682 -114.193 -148.46C-114.744 -138.049 -118.318 -127.996 -124.26 -120.136C-130.686 -111.637 -139.596 -105.903 -150.026 -103.568C-152.307 -103.057 -154.602 -102.384 -156.823 -101.731C-158.66 -101.193 -160.558 -100.634 -162.449 -100.17C-171.89 -97.8418 -179.11 -91.57 -184.514 -80.9915C-186.385 -77.3375 -187.959 -73.4412 -189.487 -69.6795C-190.779 -66.4898 -192.118 -63.1858 -193.632 -60.0297C-197.764 -51.4162 -203.464 -43.8188 -210.57 -37.4596C-211.344 -36.7664 -212.145 -36.0935 -212.939 -35.4206C-213.766 -34.7274 -214.587 -34.0276 -215.388 -33.3076C-217.622 -31.2955 -219.863 -29.2094 -222.03 -27.1906C-226.788 -22.756 -231.707 -18.1733 -236.895 -14.0886C-243.645 -8.77245 -252.406 -6.54504 -261.578 -7.81688C-279.007 -10.2327 -290.857 -17.8099 -297.809 -30.9792C-298.798 -32.8567 -300.198 -34.5256 -301.557 -36.0531C-302.069 -36.6318 -302.842 -37.2913 -303.569 -37.1298C-304.511 -36.9347 -305.218 -35.2725 -305.211 -34.29C-305.204 -32.4664 -305.063 -30.6024 -304.922 -28.7989C-304.72 -26.1745 -304.511 -23.4693 -304.713 -20.8179C-305.252 -13.7185 -306.241 -6.62579 -307.203 0.238119C-308.899 12.398 -310.655 24.9751 -309.881 37.7272C-308.912 53.6218 -302.984 75.3306 -289.451 84.2268C-282.432 88.8431 -274.135 89.4689 -264.788 86.0908C-264.438 85.963 -229.809 73.11 -209.796 26.9603C-208.053 22.9428 -205.96 19.0264 -203.928 15.2311C-200.274 8.39406 -196.64 3.32015 -192.475 -0.77128C-186.378 -6.77384 -178.404 -5.97305 -173.996 -2.17098C-170.847 0.540937 -168 2.98368 -165.033 5.40623C-164.05 6.20702 -163.074 7.02128 -162.092 7.82879C-159.582 9.90816 -156.991 12.0615 -154.333 14.013C-153.499 14.6254 -152.725 15.3253 -151.978 16.0049C-150.989 16.8999 -149.972 17.8218 -148.835 18.515C-147.126 19.5647 -145.652 19.6522 -143.788 19.7666C-143.31 19.7935 -142.812 19.8272 -142.294 19.8743C-137.166 20.3453 -131.911 22.0815 -126.682 25.0289C-122.248 27.5323 -118.459 30.8229 -114.798 34.0059C-112.658 35.8632 -110.451 37.7877 -108.123 39.5374C-107.477 40.0219 -106.837 40.5131 -106.198 41.0044C-101.824 44.3623 -97.3087 47.8279 -91.7166 49.1132C-88.2106 49.9207 -84.2471 50.3581 -81.4881 47.4645C-78.8434 44.692 -77.8879 41.0245 -78.7089 36.8456C-79.6577 32.0274 -82.1273 27.9764 -84.5768 24.2416C-90.3439 15.4396 -92.1271 3.4009 -89.5902 -9.66072C-86.239 -26.8945 -77.2755 -41.0799 -64.3485 -49.5992C-63.9918 -49.828 -28.6629 -72.6472 -17.7479 -84.3427L14.9633 -110.735C18.2136 -113.649 22.1704 -116.105 26.0734 -117.646C29.9697 -119.18 34.1554 -120.136 38.1997 -121.065C39.4513 -121.347 40.6963 -121.637 41.9345 -121.933C50.4874 -124.012 58.4819 -127.235 66.3888 -131.791C74.4977 -136.461 79.2149 -141.542 81.6711 -148.265C81.7451 -148.466 81.9739 -148.574 82.1758 -148.5C82.3777 -148.426 82.4854 -148.197 82.4114 -147.995C79.8879 -141.091 75.0629 -135.883 66.7858 -131.112C58.8183 -126.515 50.7499 -123.265 42.1229 -121.172C40.878 -120.87 39.6263 -120.587 38.3747 -120.298C34.3573 -119.382 30.1985 -118.433 26.3628 -116.919C22.5405 -115.412 18.6712 -113.01 15.468 -110.143L-17.2163 -83.7775C-28.1582 -72.0483 -63.5611 -49.1753 -63.9178 -48.9465C-76.6631 -40.5416 -85.5055 -26.5379 -88.8163 -9.5194C-90.2631 -2.07677 -91.5484 12.1558 -83.9241 23.7975C-81.4342 27.5996 -78.9174 31.7246 -77.9417 36.6841C-77.0669 41.1255 -78.0965 45.042 -80.9228 48.0029C-83.9577 51.1858 -88.177 50.735 -91.905 49.8803C-97.6586 48.5547 -102.248 45.0352 -106.689 41.6302C-107.329 41.139 -107.968 40.6477 -108.607 40.1699C-110.956 38.4001 -113.176 36.4688 -115.323 34.6048C-118.95 31.4487 -122.705 28.185 -127.072 25.7221C-132.207 22.8285 -137.348 21.1259 -142.368 20.6616C-142.88 20.6145 -143.371 20.5876 -143.842 20.5539C-145.74 20.4395 -147.375 20.3386 -149.259 19.1879C-150.457 18.4544 -151.507 17.5056 -152.523 16.5836C-153.256 15.9174 -154.017 15.2311 -154.817 14.6456C-157.496 12.6806 -160.093 10.5205 -162.617 8.43443C-163.593 7.62691 -164.568 6.81267 -165.551 6.01188C-168.532 3.58259 -171.378 1.13985 -174.534 -1.5788C-178.673 -5.14534 -186.176 -5.87883 -191.943 -0.212745C-196.041 3.82485 -199.635 8.83819 -203.235 15.5675C-205.274 19.3696 -207.36 23.2793 -209.089 27.2631C-229.244 73.7425 -264.189 86.6965 -264.539 86.8243C-268.577 88.2846 -272.426 89.0113 -276.066 89.0113L-276.053 89.0315Z" fill="#FF7926" fill-opacity="0.4"/>
    <path d="M167.08 147.563C167.08 147.563 167.013 147.563 166.979 147.55C159.745 145.646 155.31 141.372 154.819 135.814C154.617 133.546 154.523 131.231 154.429 128.991C154.341 126.817 154.247 124.563 154.059 122.362C153.615 117.228 153.036 112.248 152.343 107.551C152.208 106.642 152.074 105.734 151.932 104.826C150.647 96.286 149.315 87.4639 150.499 78.4398C152.074 66.4818 157.423 57.7068 166.858 51.6168C167.04 51.4956 167.289 51.5495 167.403 51.7311C167.524 51.9128 167.47 52.1618 167.289 52.2762C158.063 58.2384 152.827 66.825 151.286 78.5408C150.115 87.4504 151.434 96.2187 152.713 104.704C152.848 105.613 152.989 106.521 153.123 107.43C153.817 112.14 154.402 117.133 154.846 122.288C155.041 124.502 155.129 126.763 155.216 128.95C155.31 131.178 155.398 133.486 155.6 135.733C156.064 140.935 160.283 144.959 167.174 146.769C167.383 146.823 167.511 147.039 167.457 147.254C167.41 147.429 167.248 147.55 167.073 147.55L167.08 147.563Z" fill="#FF7926" fill-opacity="0.4"/>
    <path d="M167.248 124.448C167.093 124.448 166.945 124.354 166.885 124.206C166.703 123.762 166.514 123.324 166.326 122.88C165.929 121.945 165.532 121.003 165.162 120.054C161.703 111.178 158.5 102.437 157.363 93.0761C156.737 87.9484 156.932 83.0494 157.941 78.1034C159.287 71.5288 163.473 66.6097 166.972 63.0633C167.127 62.9086 167.376 62.9086 167.531 63.0633C167.685 63.2181 167.685 63.4671 167.531 63.6219C164.112 67.0942 160.021 71.8922 158.715 78.2649C157.719 83.1235 157.531 87.9417 158.143 92.9819C159.274 102.268 162.322 110.606 165.895 119.771C166.265 120.713 166.656 121.642 167.053 122.577C167.241 123.022 167.43 123.459 167.611 123.903C167.692 124.105 167.598 124.334 167.396 124.421C167.349 124.442 167.295 124.448 167.241 124.448H167.248Z" fill="#FF7926" fill-opacity="0.4"/>
    <path d="M-13.0305 196.203C-13.0642 196.203 -13.0978 196.203 -13.1382 196.19C-13.3468 196.129 -13.4747 195.914 -13.4141 195.705C-10.2513 184.245 -3.22592 177.98 -3.1519 177.919C3.12656 172.415 10.8855 169.871 19.8893 170.362C27.8703 170.793 33.8392 174.649 36.6857 181.217C38.5968 185.625 39.364 190.685 38.8996 195.846C38.8794 196.062 38.6843 196.216 38.4689 196.203C38.2536 196.183 38.0921 195.994 38.1123 195.772C38.5632 190.739 37.8229 185.813 35.9589 181.526C33.2403 175.248 27.5136 171.567 19.8489 171.15C11.0537 170.679 3.48323 173.148 -2.627 178.512C-2.69429 178.572 -9.55148 184.689 -12.647 195.914C-12.6941 196.089 -12.8556 196.203 -13.0305 196.203Z" fill="#FF7926" fill-opacity="0.4"/>
    <path d="M-2.05496 196.203C-2.0886 196.203 -2.12223 196.203 -2.16261 196.189C-2.37122 196.129 -2.4991 195.914 -2.43853 195.705C-0.608158 189.063 3.34197 185.544 3.51021 185.396C7.15077 182.199 11.646 180.719 16.8814 181.008C21.5381 181.257 25.0171 183.511 26.686 187.347C27.7963 189.911 28.2405 192.845 27.9713 195.84C27.9511 196.055 27.7492 196.21 27.5406 196.196C27.3253 196.176 27.1638 195.988 27.184 195.766C27.4397 192.899 27.0157 190.093 25.9592 187.657C24.4182 184.11 21.1814 182.024 16.841 181.789C11.8344 181.52 7.52086 182.926 4.03507 185.981C3.9947 186.015 0.0917014 189.507 -1.67138 195.907C-1.71849 196.082 -1.88 196.196 -2.05496 196.196V196.203Z" fill="#FF7926" fill-opacity="0.4"/>
    <path d="M87.1894 55.9506C86.2204 55.9506 85.2312 55.8766 84.2285 55.7218C82.0011 55.3787 79.7333 55.0826 77.5463 54.7932C73.5154 54.2683 69.35 53.7165 65.3191 52.8753C62.2506 52.2293 59.8078 50.6076 58.4283 48.3196C57.1565 46.1999 56.8738 43.7167 57.6208 41.1394C60.6086 30.8099 65.3326 22.2367 71.6447 15.6555C83.1586 3.6638 94.336 -5.36023 105.816 -11.9213C107.135 -12.675 108.515 -13.2133 109.901 -13.5229C115.399 -14.7342 120.634 -12.2511 123.555 -7.04929C127.673 0.278944 127.734 7.84271 123.743 16.0659C118.777 26.2945 112.007 36.4289 102.438 47.9629C98.0304 53.2724 92.9161 55.9506 87.1962 55.9506H87.1894ZM110.258 -11.8742C109.033 -11.605 107.815 -11.1273 106.644 -10.4611C95.305 -3.98072 84.2555 4.94237 72.856 16.8196C66.7323 23.199 62.1496 31.5434 59.2358 41.6037C58.6235 43.7167 58.8455 45.7422 59.8684 47.4448C61.0056 49.3357 63.0648 50.6749 65.6623 51.2199C69.6259 52.0544 73.7644 52.5927 77.7616 53.1176C79.9621 53.4069 82.2366 53.703 84.4842 54.0462C90.7829 55.0153 96.3951 52.5994 101.139 46.8795C110.621 35.4531 117.317 25.4264 122.222 15.319C125.957 7.62737 125.91 0.575038 122.081 -6.23504C119.537 -10.7639 115.002 -12.9307 110.258 -11.8877V-11.8742Z" fill="#FF7926" fill-opacity="0.4"/>
    <path d="M-22.0478 69.1135C-22.9024 69.1135 -23.7571 69.026 -24.5982 68.8577C-29.6116 67.8349 -34.0193 63.7367 -37.0273 57.3237C-39.0057 53.0977 -39.8805 48.5419 -39.7728 42.9835C-39.7325 40.9445 -39.6854 38.9055 -39.6383 36.8665C-39.5642 33.6701 -39.4835 30.366 -39.4431 27.1158L-39.4229 25.4805C-39.3691 21.0459 -39.3153 16.4565 -39.47 11.9546C-39.5642 9.23594 -39.7661 6.47018 -39.9613 3.79864C-40.1362 1.38954 -40.3179 -1.10703 -40.4256 -3.56997C-40.5198 -5.87139 -39.4162 -7.39895 -37.3907 -7.76907C-37.3032 -7.78253 -37.2224 -7.76907 -37.1484 -7.73542C-37.0676 -7.77579 -36.9734 -7.78925 -36.8725 -7.76233C-36.3342 -7.62102 -35.7891 -7.50662 -35.2373 -7.39222C-34.0193 -7.1365 -32.7542 -6.87406 -31.6438 -6.30207C-28.7435 -4.7947 -25.8364 -3.18639 -23.0235 -1.63192C-19.632 0.238834 -16.1327 2.17688 -12.6268 3.95342C-5.9109 7.35846 -0.944631 10.8981 3.00548 15.0972C9.05514 21.5237 10.6971 28.9798 7.89098 37.2501C4.56669 47.0278 -1.67814 56.072 -10.6752 64.127C-14.3562 67.4244 -18.2457 69.1202 -22.0545 69.1202L-22.0478 69.1135ZM-37.1417 -7.02211C-37.1417 -7.02211 -37.209 -6.99519 -37.2426 -6.98846C-39.3153 -6.61162 -39.6854 -4.94275 -39.6315 -3.60361C-39.5306 -1.15414 -39.3489 1.32898 -39.1739 3.73808C-38.9788 6.42308 -38.7769 9.19556 -38.6827 11.9277C-38.5279 16.443 -38.5817 21.0459 -38.6356 25.4872L-38.6558 27.1225C-38.6894 30.3795 -38.7702 33.6836 -38.8509 36.88C-38.898 38.919 -38.9519 40.958 -38.9855 42.9902C-39.0865 48.4208 -38.2386 52.8689 -36.314 56.9805C-33.4204 63.1647 -29.2011 67.1014 -24.4435 68.0771C-20.0963 68.9654 -15.5136 67.3907 -11.1934 63.5281C-2.30398 55.5673 3.87355 46.6375 7.15073 36.9877C9.89629 28.9057 8.35528 21.9207 2.4402 15.6355C-1.44935 11.5037 -6.34828 8.01793 -12.9767 4.65999C-16.4961 2.87672 -20.0088 0.938683 -23.4004 -0.938798C-26.2065 -2.48654 -29.1136 -4.09485 -32.0005 -5.59549C-33.0099 -6.12038 -34.1673 -6.36264 -35.3853 -6.61162C-35.9506 -6.72602 -36.5158 -6.84714 -37.0677 -6.99519C-37.0946 -6.99519 -37.1148 -7.00865 -37.1349 -7.02211H-37.1417Z" fill="#FF7926" fill-opacity="0.4"/>
    <path d="M-108.378 198.235C-108.425 198.235 -108.473 198.229 -108.52 198.209C-108.722 198.135 -108.829 197.906 -108.748 197.697C-99.0986 172.227 -75.5392 152.631 -48.7363 147.786C-39.2749 146.076 -29.4972 146.11 -20.0425 146.137C-14.834 146.157 -9.45052 146.171 -4.18146 145.902C11.047 145.107 25.9726 141.898 40.1782 136.366C50.6625 132.281 58.132 127.779 63.677 122.194C70.6688 115.149 74.4439 105.943 73.7643 97.558C73.0038 88.1639 67.1426 80.1695 61.4765 72.4442C55.871 64.793 50.0703 56.8793 49.0475 47.5121C47.6478 34.6254 55.6018 22.7616 63.8655 11.7121C67.0955 7.39858 75.0496 -2.19744 80.857 -9.20266C84.2755 -13.3277 86.974 -16.578 87.842 -17.7018C95.2779 -27.3382 104.854 -33.4686 117.121 -36.4362C126.044 -38.5963 129.281 -37.9301 133.521 -29.3301C137.343 -21.5712 139.416 -13.3883 140.936 -6.40326C142.296 -0.17191 142.726 5.15098 142.262 9.88843C141.549 17.1224 138.043 23.3403 133.871 30.1437C132.612 32.1961 131.28 34.2419 129.988 36.227C126.394 41.7383 122.686 47.4313 120.244 53.7771C116.59 63.2789 115.937 72.2423 118.252 81.1856L118.905 83.6822C120.547 89.9674 122.242 96.4612 123.003 102.975C124.382 114.792 121.751 125.337 115.177 134.314C108.663 143.21 104.591 151.372 102.357 159.999C100.19 168.377 97.687 176.809 95.2645 184.965C94.2012 188.552 93.1312 192.139 92.0949 195.739C92.0344 195.948 91.8123 196.069 91.6037 196.008C91.3951 195.947 91.274 195.725 91.3346 195.517C92.3776 191.923 93.4408 188.33 94.5108 184.743C96.9333 176.594 99.4367 168.169 101.597 159.804C103.858 151.07 107.976 142.819 114.544 133.849C120.997 125.041 123.581 114.684 122.222 103.069C121.468 96.6159 119.779 90.1423 118.144 83.8841L117.491 81.3807C115.136 72.2692 115.796 63.151 119.51 53.4877C121.98 47.0612 125.715 41.3278 129.328 35.7896C130.614 33.8112 131.946 31.7655 133.204 29.7265C137.323 23.0106 140.788 16.8802 141.481 9.80768C141.939 5.15771 141.508 -0.0911577 140.169 -6.23503C138.655 -13.173 136.603 -21.302 132.821 -28.9801C128.797 -37.1495 125.903 -37.7485 117.316 -35.6691C105.231 -32.7418 95.7961 -26.7056 88.4746 -17.2173C87.5998 -16.08 84.8946 -12.823 81.4761 -8.69124C75.6754 -1.69274 67.7281 7.88982 64.5114 12.1899C56.3353 23.1115 48.4755 34.8273 49.8415 47.4246C50.8375 56.5832 56.5708 64.4094 62.1225 71.9732C67.8559 79.7926 73.7777 87.8745 74.5583 97.4908C75.2582 106.098 71.4023 115.539 64.2423 122.746C58.6166 128.412 51.0663 132.968 40.4743 137.1C26.188 142.665 11.1815 145.888 -4.13439 146.689C-9.42364 146.965 -14.8205 146.951 -20.0425 146.931C-29.4635 146.904 -39.2009 146.871 -48.5883 148.566C-75.1287 153.364 -98.4458 172.758 -108.001 197.973C-108.062 198.135 -108.21 198.229 -108.372 198.229L-108.378 198.235Z" fill="#FF7926" fill-opacity="0.4"/>
    <path d="M59.229 203C59.0541 203 58.8925 202.878 58.8454 202.703L51.4567 173.37C50.8241 170.86 50.1041 168.014 48.4352 165.834C45.7165 162.294 40.6628 160.598 33.3884 160.813C9.37144 161.513 -13.663 175.551 -25.2913 196.58C-25.399 196.768 -25.6345 196.836 -25.8296 196.735C-26.0181 196.627 -26.0921 196.391 -25.9844 196.196C-14.2216 174.932 9.07537 160.733 33.3615 160.026C40.9051 159.811 46.1809 161.601 49.061 165.349C50.8308 167.657 51.5711 170.584 52.2171 173.175L59.6059 202.508C59.6597 202.717 59.5318 202.932 59.3165 202.986C59.2829 202.993 59.2492 203 59.2223 203H59.229Z" fill="#FF7926" fill-opacity="0.4"/>
    <path d="M77.6742 200.706C76.9945 200.706 76.3687 200.261 76.1601 199.582C71.1064 182.839 72.9704 165.955 81.1465 154.415C82.8221 152.053 84.7535 149.886 86.6242 147.8C87.7144 146.582 88.8381 145.323 89.8812 144.058C97.0075 135.418 100.466 125.896 99.632 117.242C99.5041 115.896 98.8446 111.441 95.8433 110.546C94.2552 110.075 92.2701 110.721 89.935 112.451C87.4923 114.261 85.3725 116.448 83.6297 118.951C82.0954 121.158 80.8975 123.547 79.6257 126.071C78.2933 128.722 76.9138 131.468 75.1103 133.971C66.9544 145.31 51.9009 149.199 41.2955 151.144C39.3372 151.501 37.3588 151.837 35.3737 152.174C25.1249 153.903 14.5195 155.693 5.88576 161.225C5.83866 161.252 5.79158 161.278 5.74447 161.305C4.38515 161.992 -7.72093 167.954 -14.3897 165.531L-16.0586 164.926C-21.0584 163.122 -26.2266 161.258 -31.0851 158.869C-41.1589 153.923 -51.8115 154.092 -64.6241 159.408C-73.4664 163.075 -80.4245 167.456 -85.8887 172.799C-91.9249 178.701 -96.0769 186.359 -98.5668 196.204C-98.7821 197.052 -99.6435 197.563 -100.491 197.348C-101.339 197.132 -101.851 196.271 -101.635 195.423C-98.9975 184.999 -94.5696 176.857 -88.1027 170.531C-82.3424 164.899 -75.0613 160.303 -65.8354 156.48C-52.121 150.794 -40.634 150.653 -29.6854 156.03C-24.9816 158.338 -19.8943 160.175 -14.9819 161.951L-13.313 162.557C-8.77741 164.199 0.825308 160.229 4.2438 158.513C13.4091 152.665 24.3039 150.828 34.8421 149.051C36.8138 148.722 38.772 148.385 40.7235 148.028C61.7526 144.179 68.953 137.107 72.5397 132.127C74.1884 129.832 75.4535 127.316 76.7926 124.658C78.0577 122.141 79.3633 119.543 81.0254 117.154C82.9635 114.368 85.3187 111.939 88.0374 109.92C91.2136 107.558 94.1408 106.751 96.7316 107.525C100.036 108.507 102.297 112.027 102.768 116.946C103.683 126.434 99.9684 136.784 92.3037 146.077C91.2203 147.396 90.0763 148.674 88.966 149.913C87.1558 151.938 85.2851 154.031 83.7104 156.252C76.0995 166.998 74.397 182.859 79.1681 198.673C79.4171 199.508 78.946 200.389 78.1116 200.645C77.9568 200.692 77.8088 200.712 77.654 200.712L77.6742 200.706Z" fill="#FF7926" fill-opacity="0.6"/>
    <g opacity="0.5">
      <path d="M49.4244 144.704H48.9668V149.078H49.4244V144.704Z" fill="#FF7926"/>
      <path d="M49.4244 170.949H48.9668V175.323H49.4244V170.949Z" fill="#FF7926"/>
      <path d="M49.4244 162.2H48.9668V166.574H49.4244V162.2Z" fill="#FF7926"/>
      <path d="M49.4244 188.445H48.9668V192.819H49.4244V188.445Z" fill="#FF7926"/>
      <path d="M49.4244 135.956H48.9668V140.33H49.4244V135.956Z" fill="#FF7926"/>
      <path d="M49.4244 179.697H48.9668V184.071H49.4244V179.697Z" fill="#FF7926"/>
      <path d="M49.4244 153.452H48.9668V157.826H49.4244V153.452Z" fill="#FF7926"/>
      <path d="M119.585 153.452H119.127V157.826H119.585V153.452Z" fill="#FF7926"/>
      <path d="M119.585 162.2H119.127V166.574H119.585V162.2Z" fill="#FF7926"/>
      <path d="M119.585 135.956H119.127V140.33H119.585V135.956Z" fill="#FF7926"/>
      <path d="M119.585 144.704H119.127V149.078H119.585V144.704Z" fill="#FF7926"/>
      <path d="M119.585 170.948H119.127V175.323H119.585V170.948Z" fill="#FF7926"/>
      <path d="M119.585 179.697H119.127V184.071H119.585V179.697Z" fill="#FF7926"/>
      <path d="M119.585 188.445H119.127V192.819H119.585V188.445Z" fill="#FF7926"/>
      <path d="M189.744 135.956H189.287V140.33H189.744V135.956Z" fill="#FF7926"/>
      <path d="M189.744 179.697H189.287V184.071H189.744V179.697Z" fill="#FF7926"/>
      <path d="M189.744 188.445H189.287V192.819H189.744V188.445Z" fill="#FF7926"/>
      <path d="M189.744 162.2H189.287V166.574H189.744V162.2Z" fill="#FF7926"/>
      <path d="M189.744 144.704H189.287V149.078H189.744V144.704Z" fill="#FF7926"/>
      <path d="M189.744 170.949H189.287V175.323H189.744V170.949Z" fill="#FF7926"/>
      <path d="M189.744 153.452H189.287V157.826H189.744V153.452Z" fill="#FF7926"/>
      <path d="M29.418 129.079V129.496V129.536H33.792V129.496V129.079V129.038H29.418V129.079Z" fill="#FF7926"/>
      <path d="M38.166 129.079V129.496V129.536H42.5401V129.496V129.079V129.038H38.166V129.079Z" fill="#FF7926"/>
      <path d="M3.18066 129.079V129.496V129.536H7.55472V129.496V129.079V129.038H3.18066V129.079Z" fill="#FF7926"/>
      <path d="M11.9287 129.079V129.496V129.536H16.3028V129.496V129.079V129.038H11.9287V129.079Z" fill="#FF7926"/>
      <path d="M20.6768 129.079V129.496V129.536H25.0508V129.496V129.079V129.038H20.6768V129.079Z" fill="#FF7926"/>
      <path d="M90.8364 129.079V129.496V129.536H95.2105V129.496V129.079V129.038H90.8364V129.079Z" fill="#FF7926"/>
      <path d="M108.326 129.079V129.496V129.536H112.7V129.496V129.079V129.038H108.326V129.079Z" fill="#FF7926"/>
      <path d="M55.8442 129.079V129.496V129.536H60.2183V129.496V129.079V129.038H55.8442V129.079Z" fill="#FF7926"/>
      <path d="M99.585 129.079V129.496V129.536H103.959V129.496V129.079V129.038H99.585V129.079Z" fill="#FF7926"/>
      <path d="M82.0884 129.079V129.496V129.536H86.4624V129.496V129.079V129.038H82.0884V129.079Z" fill="#FF7926"/>
      <path d="M64.5923 129.079V129.496V129.536H68.9663V129.496V129.079V129.038H64.5923V129.079Z" fill="#FF7926"/>
      <path d="M73.3403 129.079V129.496V129.536H77.7144V129.496V129.079V129.038H73.3403V129.079Z" fill="#FF7926"/>
      <path d="M49.4241 126.992H48.9665V129.038H46.9141V129.079V129.496V129.536H48.9665V131.582H49.4241V129.536H51.4698V129.496V129.079V129.038H49.4241V126.992Z" fill="#FF7926"/>
      <path d="M49.4244 65.7551H48.9668V70.1292H49.4244V65.7551Z" fill="#FF7926"/>
      <path d="M49.4244 83.2522H48.9668V87.6262H49.4244V83.2522Z" fill="#FF7926"/>
      <path d="M49.4244 100.748H48.9668V105.122H49.4244V100.748Z" fill="#FF7926"/>
      <path d="M49.4244 92.0002H48.9668V96.3743H49.4244V92.0002Z" fill="#FF7926"/>
      <path d="M49.4244 109.496H48.9668V113.87H49.4244V109.496Z" fill="#FF7926"/>
      <path d="M49.4244 74.5041H48.9668V78.8782H49.4244V74.5041Z" fill="#FF7926"/>
      <path d="M49.4244 118.244H48.9668V122.618H49.4244V118.244Z" fill="#FF7926"/>
      <path d="M189.286 129.038H187.241V129.078V129.496V129.536H189.286V131.582H189.744V129.496V129.078V126.992H189.286V129.038Z" fill="#FF7926"/>
      <path d="M160.996 129.079V129.496V129.536H165.37V129.496V129.079V129.038H160.996V129.079Z" fill="#FF7926"/>
      <path d="M126.004 129.079V129.496V129.536H130.378V129.496V129.079V129.038H126.004V129.079Z" fill="#FF7926"/>
      <path d="M143.5 129.079V129.496V129.536H147.874V129.496V129.079V129.038H143.5V129.079Z" fill="#FF7926"/>
      <path d="M152.248 129.079V129.496V129.536H156.622V129.496V129.079V129.038H152.248V129.079Z" fill="#FF7926"/>
      <path d="M134.752 129.079V129.496V129.536H139.126V129.496V129.079V129.038H134.752V129.079Z" fill="#FF7926"/>
      <path d="M178.493 129.079V129.496V129.536H182.867V129.496V129.079V129.038H178.493V129.079Z" fill="#FF7926"/>
      <path d="M169.745 129.079V129.496V129.536H174.119V129.496V129.079V129.038H169.745V129.079Z" fill="#FF7926"/>
      <path d="M119.584 126.992H119.127V129.038H117.074V129.078V129.496V129.536H119.127V131.582H119.584V129.536H121.63V129.496V129.078V129.038H119.584V126.992Z" fill="#FF7926"/>
      <path d="M119.585 109.496H119.127V113.87H119.585V109.496Z" fill="#FF7926"/>
      <path d="M119.585 100.748H119.127V105.122H119.585V100.748Z" fill="#FF7926"/>
      <path d="M119.585 74.5041H119.127V78.8782H119.585V74.5041Z" fill="#FF7926"/>
      <path d="M119.585 83.2522H119.127V87.6262H119.585V83.2522Z" fill="#FF7926"/>
      <path d="M119.585 65.7551H119.127V70.1292H119.585V65.7551Z" fill="#FF7926"/>
      <path d="M119.585 118.244H119.127V122.618H119.585V118.244Z" fill="#FF7926"/>
      <path d="M119.585 92.0002H119.127V96.3743H119.585V92.0002Z" fill="#FF7926"/>
      <path d="M189.744 65.7551H189.287V70.1292H189.744V65.7551Z" fill="#FF7926"/>
      <path d="M189.744 83.2522H189.287V87.6262H189.744V83.2522Z" fill="#FF7926"/>
      <path d="M189.744 74.5041H189.287V78.8782H189.744V74.5041Z" fill="#FF7926"/>
      <path d="M189.744 92.0002H189.287V96.3743H189.744V92.0002Z" fill="#FF7926"/>
      <path d="M189.744 100.748H189.287V105.122H189.744V100.748Z" fill="#FF7926"/>
      <path d="M189.744 118.244H189.287V122.618H189.744V118.244Z" fill="#FF7926"/>
      <path d="M189.744 109.496H189.287V113.87H189.744V109.496Z" fill="#FF7926"/>
      <path d="M38.166 58.8781V59.2886V59.3358H42.5401V59.2886V58.8781V58.8311H38.166V58.8781Z" fill="#FF7926"/>
      <path d="M29.418 58.8781V59.2886V59.3358H33.792V59.2886V58.8781V58.8311H29.418V58.8781Z" fill="#FF7926"/>
      <path d="M20.6768 58.8781V59.2886V59.3358H25.0508V59.2886V58.8781V58.8311H20.6768V58.8781Z" fill="#FF7926"/>
      <path d="M11.9287 58.8781V59.2886V59.3358H16.3028V59.2886V58.8781V58.8311H11.9287V58.8781Z" fill="#FF7926"/>
      <path d="M3.18066 58.8781V59.2886V59.3358H7.55472V59.2886V58.8781V58.8311H3.18066V58.8781Z" fill="#FF7926"/>
      <path d="M64.5923 58.8781V59.2886V59.3358H68.9663V59.2886V58.8781V58.8311H64.5923V58.8781Z" fill="#FF7926"/>
      <path d="M108.326 58.8781V59.2886V59.3358H112.7V59.2886V58.8781V58.8311H108.326V58.8781Z" fill="#FF7926"/>
      <path d="M82.0884 58.8781V59.2886V59.3358H86.4624V59.2886V58.8781V58.8311H82.0884V58.8781Z" fill="#FF7926"/>
      <path d="M99.585 58.8784V59.2889V59.336H103.959V59.2889V58.8784V58.8313H99.585V58.8784Z" fill="#FF7926"/>
      <path d="M55.8442 58.8781V59.2886V59.3358H60.2183V59.2886V58.8781V58.8311H55.8442V58.8781Z" fill="#FF7926"/>
      <path d="M90.8364 58.8781V59.2886V59.3358H95.2105V59.2886V58.8781V58.8311H90.8364V58.8781Z" fill="#FF7926"/>
      <path d="M73.3403 58.8781V59.2886V59.3358H77.7144V59.2886V58.8781V58.8311H73.3403V58.8781Z" fill="#FF7926"/>
      <path d="M49.4241 56.7785H48.9665V58.831H46.9141V58.8781V59.2886V59.3357H48.9665V61.3814H49.4241V59.3357H51.4698V59.2886V58.8781V58.831H49.4241V56.7785Z" fill="#FF7926"/>
      <path d="M49.4244 30.5344H48.9668V34.9084H49.4244V30.5344Z" fill="#FF7926"/>
      <path d="M49.4244 21.7932H48.9668V26.1673H49.4244V21.7932Z" fill="#FF7926"/>
      <path d="M49.4244 48.0306H48.9668V52.4047H49.4244V48.0306Z" fill="#FF7926"/>
      <path d="M49.4244 4.29613H48.9668V8.67019H49.4244V4.29613Z" fill="#FF7926"/>
      <path d="M49.4244 39.2825H48.9668V43.6566H49.4244V39.2825Z" fill="#FF7926"/>
      <path d="M49.4244 13.0452H48.9668V17.4192H49.4244V13.0452Z" fill="#FF7926"/>
      <path d="M189.286 58.8312H187.241V58.8783V59.2888V59.3359H189.286V61.3816H189.744V59.2888V58.8783V56.7787H189.286V58.8312Z" fill="#FF7926"/>
      <path d="M152.248 58.8781V59.2886V59.3358H156.622V59.2886V58.8781V58.8311H152.248V58.8781Z" fill="#FF7926"/>
      <path d="M143.5 58.8781V59.2886V59.3358H147.874V59.2886V58.8781V58.8311H143.5V58.8781Z" fill="#FF7926"/>
      <path d="M169.745 58.8781V59.2886V59.3358H174.119V59.2886V58.8781V58.8311H169.745V58.8781Z" fill="#FF7926"/>
      <path d="M134.752 58.8781V59.2886V59.3358H139.126V59.2886V58.8781V58.8311H134.752V58.8781Z" fill="#FF7926"/>
      <path d="M160.996 58.8784V59.2889V59.336H165.37V59.2889V58.8784V58.8313H160.996V58.8784Z" fill="#FF7926"/>
      <path d="M126.004 58.8781V59.2886V59.3358H130.378V59.2886V58.8781V58.8311H126.004V58.8781Z" fill="#FF7926"/>
      <path d="M178.493 58.8781V59.2886V59.3358H182.867V59.2886V58.8781V58.8311H178.493V58.8781Z" fill="#FF7926"/>
      <path d="M119.584 56.7787H119.127V58.8312H117.074V58.8783V59.2888V59.3359H119.127V61.3816H119.584V59.3359H121.63V59.2888V58.8783V58.8312H119.584V56.7787Z" fill="#FF7926"/>
      <path d="M119.585 21.7932H119.127V26.1673H119.585V21.7932Z" fill="#FF7926"/>
      <path d="M119.585 13.0452H119.127V17.4192H119.585V13.0452Z" fill="#FF7926"/>
      <path d="M119.585 4.29613H119.127V8.67019H119.585V4.29613Z" fill="#FF7926"/>
      <path d="M119.585 39.2825H119.127V43.6565H119.585V39.2825Z" fill="#FF7926"/>
      <path d="M119.585 48.0305H119.127V52.4046H119.585V48.0305Z" fill="#FF7926"/>
      <path d="M119.585 30.5344H119.127V34.9085H119.585V30.5344Z" fill="#FF7926"/>
      <path d="M189.744 21.7932H189.287V26.1673H189.744V21.7932Z" fill="#FF7926"/>
      <path d="M189.744 48.0306H189.287V52.4047H189.744V48.0306Z" fill="#FF7926"/>
      <path d="M189.744 39.2825H189.287V43.6566H189.744V39.2825Z" fill="#FF7926"/>
      <path d="M189.744 4.29613H189.287V8.67019H189.744V4.29613Z" fill="#FF7926"/>
      <path d="M189.744 13.0452H189.287V17.4192H189.744V13.0452Z" fill="#FF7926"/>
      <path d="M189.744 30.5344H189.287V34.9084H189.744V30.5344Z" fill="#FF7926"/>
    </g>
  </g>
  <defs>
    <radialGradient id="paint0_radial_210_2600" cx="0" cy="0" r="1" gradientUnits="userSpaceOnUse" gradientTransform="translate(190 190) rotate(180) scale(190)">
      <stop stop-color="#D9D9D9"/>
      <stop offset="1" stop-color="#737373" stop-opacity="0"/>
    </radialGradient>
  </defs>
</svg>