<svg width="190" height="190" viewBox="0 0 190 190" fill="none" xmlns="http://www.w3.org/2000/svg">
  <mask id="mask0_247_10057" style="mask-type:alpha" maskUnits="userSpaceOnUse" x="0" y="0" width="190" height="190">
    <rect width="190" height="190" fill="url(#paint0_radial_247_10057)"/>
  </mask>
  <g mask="url(#mask0_247_10057)">
    <path d="M30.8261 187.204C30.8261 187.204 30.7992 187.204 30.7925 187.204C30.5771 187.183 30.4156 186.988 30.4358 186.773C32.1114 168.61 38.6254 155.354 50.3344 146.242C62.3799 136.868 75.0176 127.844 87.2313 119.116C90.2191 116.983 93.2002 114.85 96.1813 112.717C98.9403 110.738 102.231 108.921 106.248 107.165C111.336 104.944 116.43 106.149 120.299 107.441C122.224 108.087 124.128 108.841 125.972 109.567C129.424 110.933 132.997 112.346 136.779 113.073C142.937 114.251 148.421 114.311 153.549 113.262C162.977 111.33 171.058 108.41 178.266 104.339C179.746 103.504 181.159 102.495 182.37 101.613C184.335 100.18 185.432 98.4302 185.641 96.398C185.903 93.8812 184.726 91.0347 182.33 88.3901L181.186 87.125C177.835 83.4239 174.369 79.6016 171.334 75.5506C169.517 73.128 167.963 70.1469 166.435 66.1766C164.363 60.7931 166.476 55.8606 168.515 51.0962L168.818 50.3896C169.74 48.2228 170.756 46.0492 171.738 43.9496C174.45 38.1355 177.256 32.1262 178.414 25.6257C178.871 23.0686 179.288 20.5652 179.423 18.0821C179.564 15.4308 179.645 12.7323 179.726 10.1213C179.834 6.6221 179.941 3.00844 180.197 -0.544638C180.547 -5.38975 183.117 -8.96974 187.626 -10.8943C189.167 -11.5538 190.715 -12.2065 192.263 -12.8593C196.529 -14.656 200.937 -16.5133 205.19 -18.5052C216.205 -23.6733 224.758 -30.8266 231.326 -40.3755C236.871 -48.4238 244.018 -55.1733 250.922 -61.27C256.864 -66.5122 260.707 -73.4905 262.355 -81.9896C263.842 -89.6812 263.708 -97.5344 263.573 -105.125C263.54 -106.935 263.506 -108.752 263.499 -110.562C263.479 -114.129 262.234 -117.877 261.157 -120.744C258.991 -126.511 252.988 -129.324 246.884 -127.433C240.707 -125.522 235.33 -123.052 230.438 -119.876C223.164 -115.158 215.997 -112.346 208.527 -111.269C206.825 -111.027 205.075 -111.087 203.379 -111.148C202.229 -111.188 201.038 -111.229 199.88 -111.175C192.014 -110.798 182.976 -109.977 175.258 -105.017C171.341 -102.501 168.084 -100.139 165.305 -97.8035C153.455 -87.8374 144.659 -77.4002 138.421 -65.8931C135.723 -60.9201 132.116 -55.5367 125.804 -53.3294C121.457 -51.8153 117.035 -50.6444 112.648 -49.8571C101.363 -47.8249 92.7426 -41.3378 86.2892 -30.0325C82.2583 -22.9735 80.7711 -16.2778 81.7402 -9.56193C82.2718 -5.85407 84.2906 -2.17313 85.7576 0.269614C86.5045 1.50781 87.3053 2.75273 88.0792 3.95728C90.7911 8.16984 93.5972 12.5237 94.6739 17.6986C95.3267 20.8344 96.1544 24.9595 96.7264 29.1115C97.157 32.2474 97.5945 35.4034 97.3858 38.4989C97.3118 39.5958 97.2445 40.6994 97.1772 41.803C96.8542 47.1326 96.5178 52.6507 95.2392 57.8524C93.4963 64.9451 88.0725 70.7122 81.0807 72.8992C74.1899 75.0593 66.976 73.4173 61.3032 68.404C56.9964 64.5952 52.757 60.5778 48.6521 56.6883C45.7854 53.9696 42.8178 51.1635 39.8569 48.4516C35.9606 44.885 31.6807 41.1637 26.7683 37.079C19.541 31.0697 10.692 27.9339 2.13226 24.9057C1.30455 24.6096 0.476859 24.3202 -0.357577 24.0241C-1.71017 23.5396 -3.06276 23.0551 -4.41536 22.5639C-8.83652 20.969 -13.4125 19.3203 -17.948 17.8331C-29.8455 13.9301 -35.8817 17.8466 -41.2786 24.9393C-47.8599 33.5865 -51.0698 43.8218 -50.8141 55.3693C-50.6727 61.7218 -48.3242 67.8253 -44.0174 73.0136C-40.4307 77.3338 -36.6421 81.6069 -32.9813 85.7387C-30.0541 89.0361 -27.0259 92.4479 -24.1188 95.8664C-22.2683 98.0467 -20.8349 100.664 -19.5698 103.168C-16.6022 109.022 -19.6909 113.706 -23.1027 117.999C-26.0434 121.7 -29.0783 124.735 -32.1267 127.023C-39.7779 132.757 -43.331 140.576 -43.3041 151.619C-43.2772 162.615 -44.6298 174.095 -47.4427 186.719C-47.4898 186.934 -47.7051 187.069 -47.9137 187.022C-48.129 186.975 -48.2636 186.766 -48.2165 186.551C-45.4171 173.987 -44.0645 162.561 -44.0982 151.626C-44.1251 140.307 -40.4778 132.285 -32.6045 126.391C-29.61 124.15 -26.6221 121.162 -23.7218 117.508C-20.3369 113.241 -17.5174 108.962 -20.2764 103.524C-21.5213 101.068 -22.921 98.4975 -24.7245 96.3845C-27.6248 92.9728 -30.6463 89.561 -33.5735 86.2636C-37.241 82.1251 -41.0363 77.8452 -44.6298 73.5183C-49.051 68.1887 -51.4668 61.917 -51.6081 55.3828C-51.8638 43.6536 -48.6068 33.2433 -41.9111 24.4548C-36.3056 17.0929 -30.0474 13.0217 -17.7058 17.0795C-13.1567 18.5734 -8.58081 20.2221 -4.14619 21.8169C-2.7936 22.3014 -1.44774 22.7927 -0.0951443 23.2704C0.732563 23.5665 1.56027 23.8559 2.38798 24.152C11.0082 27.2004 19.9246 30.3564 27.2663 36.4599C32.1854 40.5514 36.4787 44.2861 40.3818 47.8594C43.3494 50.578 46.317 53.3909 49.1837 56.1095C53.2819 59.9924 57.5213 64.0098 61.8146 67.8051C67.2721 72.63 74.2033 74.2114 80.8317 72.1388C87.561 70.0325 92.783 64.4876 94.4586 57.6573C95.717 52.5228 96.0534 47.0451 96.3764 41.7424C96.4437 40.6388 96.511 39.5352 96.5851 38.4316C96.7937 35.4236 96.363 32.3012 95.9458 29.2865C95.367 25.0874 94.5461 20.969 93.8933 17.8533C92.8435 12.8198 90.0778 8.53322 87.4062 4.38123C86.6324 3.17668 85.8249 1.92503 85.0712 0.673378C83.5705 -1.82993 81.5046 -5.59836 80.9461 -9.44753C79.9502 -16.3451 81.471 -23.209 85.5893 -30.4228C92.1639 -41.9434 100.966 -48.5584 112.5 -50.631C116.847 -51.4116 121.235 -52.569 125.535 -54.0697C131.591 -56.1827 135.09 -61.4181 137.721 -66.2632C144.007 -77.8578 152.862 -88.369 164.787 -98.4025C167.6 -100.764 170.877 -103.147 174.827 -105.677C182.714 -110.744 191.872 -111.578 199.84 -111.962C201.031 -112.023 202.235 -111.975 203.406 -111.935C205.062 -111.875 206.784 -111.814 208.413 -112.05C215.768 -113.106 222.834 -115.879 230.007 -120.535C234.967 -123.752 240.411 -126.255 246.656 -128.186C253.17 -130.199 259.583 -127.184 261.898 -121.02C263.001 -118.092 264.266 -114.257 264.287 -110.562C264.3 -108.752 264.327 -106.942 264.361 -105.139C264.495 -97.5075 264.636 -89.614 263.129 -81.8349C261.447 -73.154 257.517 -66.0344 251.447 -60.6711C244.583 -54.608 237.477 -47.9056 231.979 -39.9246C225.324 -30.2613 216.67 -23.0206 205.526 -17.7919C201.26 -15.7865 196.838 -13.9293 192.565 -12.1325C191.018 -11.4798 189.477 -10.8338 187.929 -10.1743C183.656 -8.35065 181.314 -5.09366 180.984 -0.497528C180.729 3.03537 180.614 6.64228 180.513 10.1348C180.432 12.7525 180.352 15.4577 180.21 18.1158C180.076 20.6393 179.652 23.1695 179.187 25.7536C178.01 32.355 175.184 38.4114 172.451 44.2727C171.476 46.3655 170.466 48.5323 169.544 50.6924L169.242 51.399C167.263 56.0153 165.217 60.7931 167.176 65.8805C168.676 69.7768 170.197 72.6973 171.974 75.0593C174.988 79.0834 178.441 82.8922 181.778 86.5732L182.922 87.8383C185.466 90.6511 186.711 93.713 186.428 96.4586C186.199 98.686 184.955 100.685 182.835 102.232C181.61 103.127 180.17 104.157 178.656 105.012C171.375 109.123 163.212 112.064 153.71 114.015C148.475 115.092 142.89 115.031 136.631 113.827C132.775 113.087 129.168 111.66 125.683 110.281C123.846 109.554 121.948 108.8 120.043 108.168C114.492 106.31 110.333 106.216 106.558 107.865C102.594 109.601 99.3441 111.384 96.6389 113.329C93.6578 115.469 90.6767 117.602 87.6889 119.729C75.4752 128.45 62.851 137.474 50.8122 146.834C39.2849 155.804 32.8718 168.88 31.2164 186.813C31.1962 187.022 31.028 187.17 30.8261 187.17V187.204Z" fill="#FF7926" fill-opacity="0.4"/>
    <path d="M34.2781 188.388C34.1704 188.388 34.0627 188.374 33.9483 188.354C33.0937 188.172 32.5486 187.338 32.7236 186.483C32.8716 185.784 33.0264 185.09 33.1812 184.397C33.5042 182.957 33.8406 181.463 34.0694 180.01C36.2363 166.316 43.2954 154.573 54.4728 146.047C65.6367 137.534 77.5409 129.648 89.048 122.023C91.4369 120.442 93.8258 118.854 96.2148 117.266C101.464 113.766 106.982 111.923 112.183 111.923C112.318 111.923 112.459 111.923 112.594 111.923C115.763 111.983 118.866 112.838 121.867 113.659C123.011 113.975 124.195 114.298 125.339 114.567C127.25 115.011 129.168 115.523 131.026 116.021C134.767 117.017 138.63 118.053 142.445 118.537C148.67 119.332 155.426 118.49 163.124 115.974C164.632 115.482 166.139 115.005 167.653 114.52C175.385 112.071 183.386 109.534 190.365 105.099C194.039 102.764 196.435 100.348 196.192 96.1759C195.957 92.0441 193.494 89.2245 189.88 86.2502L188.144 84.8303C184.773 82.078 181.287 79.2247 178.084 76.1427C169.988 68.3502 168.36 59.703 172.963 48.9361C179.093 34.5959 182.882 21.292 184.544 8.27077C185.412 1.47415 188.104 -3.29694 192.767 -6.32514C194.416 -7.3951 196.078 -8.52562 197.686 -9.61577C200.694 -11.6548 203.796 -13.7678 207.013 -15.6251C218.197 -22.1121 225.727 -28.3637 231.434 -35.9005C238.567 -45.3216 245.316 -52.1586 252.685 -57.4142C258.183 -61.3374 261.945 -66.1623 263.876 -71.7476C266.44 -79.1633 266.891 -87.003 267.133 -94.3918C267.442 -103.9 266.938 -113.617 266.494 -122.191C266.345 -124.983 265.807 -127.736 265.235 -130.643C264.986 -131.901 264.737 -133.166 264.522 -134.431L264.347 -135.454C263.082 -142.85 261.77 -150.501 266.096 -157.917C266.541 -158.67 267.51 -158.926 268.263 -158.482C269.017 -158.044 269.273 -157.075 268.835 -156.315C265.087 -149.895 266.245 -143.139 267.469 -135.986L267.644 -134.956C267.853 -133.718 268.095 -132.486 268.337 -131.255C268.909 -128.361 269.495 -125.374 269.656 -122.352C270.107 -113.712 270.619 -103.927 270.302 -94.2841C270.053 -86.6463 269.582 -78.5375 266.877 -70.7113C264.73 -64.4934 260.578 -59.1503 254.529 -54.8368C247.436 -49.7696 240.902 -43.1413 233.964 -33.9826C227.988 -26.0959 220.169 -19.5886 208.608 -12.8795C205.492 -11.076 202.43 -8.99667 199.469 -6.98461C197.848 -5.88773 196.172 -4.75047 194.496 -3.66032C190.607 -1.13682 188.44 2.78636 187.686 8.68125C185.984 21.9986 182.121 35.5716 175.876 50.1877C171.805 59.7165 173.165 67.0245 180.284 73.8749C183.393 76.8695 186.832 79.6756 190.156 82.3875L191.899 83.8142C195.587 86.8424 199.046 90.4156 199.369 96.001C199.718 102.064 195.876 105.355 192.074 107.771C184.746 112.427 176.549 115.025 168.622 117.542C167.122 118.019 165.621 118.49 164.12 118.982C155.964 121.653 148.751 122.535 142.055 121.68C138.031 121.169 134.06 120.105 130.218 119.083C128.381 118.591 126.49 118.087 124.626 117.649C123.421 117.367 122.203 117.037 121.032 116.714C118.092 115.906 115.306 115.139 112.533 115.092C112.412 115.092 112.298 115.092 112.177 115.092C107.601 115.092 102.688 116.754 97.9644 119.904C95.5754 121.492 93.1865 123.08 90.7909 124.668C79.3241 132.265 67.4671 140.125 56.3839 148.57C45.7112 156.706 39.251 167.453 37.1851 180.515C36.9361 182.069 36.5929 183.617 36.2565 185.104C36.1017 185.784 35.9469 186.463 35.8056 187.15C35.6508 187.897 34.9914 188.408 34.2579 188.408L34.2781 188.388Z" fill="#FF7926" fill-opacity="0.6"/>
    <path d="M34.8635 5.75434C30.7721 5.75434 26.3981 4.41521 22.8315 3.33179C22.3335 3.17701 21.849 3.03569 21.3847 2.89438C11.2571 -0.120361 4.07689 -5.32213 -0.573076 -12.9936C-6.54872 -22.8587 -11.3804 -33.4843 -14.9267 -44.581C-16.8917 -50.7249 -16.4004 -56.9293 -13.4799 -63.0328C-11.017 -68.1807 -6.82461 -70.6302 -1.59593 -73.3017C5.4093 -76.8817 12.5693 -80.4483 19.4938 -83.8937L20.409 -84.3513C22.7238 -85.502 25.0455 -86.6595 27.3604 -87.8169C33.0197 -90.6432 37.2928 -95.2999 40.0653 -101.666C41.5054 -104.983 42.6897 -108.617 43.5646 -112.473C44.1702 -115.124 44.8701 -117.803 45.5497 -120.394C47.3936 -127.439 49.3047 -134.727 49.5133 -142.271C49.6075 -145.729 49.7892 -149.256 49.9574 -152.661C50.0382 -154.296 50.1189 -155.871 50.1862 -157.438L51.8685 -157.364C51.7945 -155.79 51.7205 -154.215 51.6397 -152.64C51.4648 -149.182 51.2898 -145.669 51.1956 -142.23C50.9803 -134.491 49.049 -127.116 47.1782 -119.976C46.4985 -117.392 45.8054 -114.727 45.2065 -112.103C44.3048 -108.146 43.0935 -104.405 41.6063 -101C38.6723 -94.2636 34.1368 -89.3243 28.114 -86.3163C25.7991 -85.1588 23.4775 -84.0081 21.1627 -82.8507L20.2475 -82.3931C13.323 -78.9477 6.16297 -75.3878 -0.828794 -71.8078C-5.76812 -69.2843 -9.71822 -66.9829 -11.9591 -62.3128C-14.6912 -56.613 -15.1488 -50.8191 -13.3251 -45.0992C-9.81915 -34.1304 -5.04807 -23.6259 0.860273 -13.8751C5.28817 -6.57378 12.1588 -1.62099 21.8625 1.27262C22.3268 1.41393 22.8181 1.56197 23.316 1.71002C28.7735 3.37889 36.2498 5.66013 40.9334 2.42333C45.8054 -0.941336 47.9386 -9.66254 49.6479 -16.6745C50.1391 -18.6866 50.6034 -20.5842 51.0879 -22.1791C51.9291 -24.9179 52.7905 -27.751 53.6855 -30.5773C54.0219 -31.6338 54.3517 -32.697 54.6814 -33.7602L54.7151 -33.8612C56.5522 -39.7561 58.4498 -45.8528 61.2896 -51.667C66.5048 -62.3531 76.6661 -66.9896 86.4977 -71.4714C88.7116 -72.4808 91.0063 -73.5305 93.1933 -74.6207C100.771 -78.416 107.244 -84.0014 113.502 -89.405C121.174 -96.0267 129.014 -101.545 135.669 -106.067C141.187 -109.815 145.857 -115.306 147.849 -120.407C150.81 -127.964 146.55 -132.769 141.618 -138.327C141.147 -138.859 140.669 -139.397 140.198 -139.942C137.492 -143.051 134.733 -146.227 132.129 -149.464C130.999 -150.871 130.359 -152.466 129.747 -154.007C129.485 -154.659 129.256 -155.231 129.007 -155.77L130.528 -156.49C130.804 -155.911 131.039 -155.312 131.295 -154.679C131.88 -153.206 132.472 -151.732 133.448 -150.521C136.032 -147.304 138.778 -144.141 141.436 -141.086C141.941 -140.507 142.412 -139.976 142.883 -139.444C147.735 -133.973 152.755 -128.314 149.417 -119.795C147.304 -114.398 142.405 -108.611 136.618 -104.681C130.003 -100.185 122.21 -94.7077 114.606 -88.1399C108.274 -82.669 101.719 -77.0163 93.9537 -73.1268C91.7398 -72.0165 89.4316 -70.9667 87.2042 -69.9505C77.2045 -65.3881 67.7565 -61.0746 62.8104 -50.9335C60.0312 -45.2337 58.147 -39.1975 56.3301 -33.3632L56.2964 -33.2623C55.9667 -32.199 55.637 -31.1358 55.2938 -30.0726C54.3988 -27.2597 53.5374 -24.4267 52.6963 -21.6946C52.2252 -20.1468 51.7676 -18.2693 51.2764 -16.2842C49.4931 -8.99634 47.2791 0.0747971 41.8822 3.79611C39.8298 5.216 37.3938 5.73415 34.8501 5.73415L34.8635 5.75434Z" fill="#FF7926" fill-opacity="0.4"/>
    <path d="M21.5059 186.867C21.2098 175.636 23.7602 164.014 29.2985 151.336C32.3267 144.405 37.589 139.089 45.8728 134.614C60.7917 126.545 72.4267 115.745 80.4413 102.515C81.3565 101.008 81.6257 99.7694 81.2354 98.8475C80.4346 96.9364 76.8748 96.0885 74.0216 95.4088C73.4159 95.2675 72.8372 95.1262 72.2988 94.9849C63.793 92.7373 57.2857 87.946 52.952 80.7389C42.9725 64.1377 29.9445 50.7598 15.288 42.0453C8.8817 38.2432 -23.6075 20.1413 -34.0312 37.6241C-38.6946 45.4503 -38.3245 53.5457 -32.867 63.0946C-28.7083 70.369 -23.3518 77.3608 -16.4811 84.4602C-12.3089 88.7737 -8.61454 93.4237 -5.50559 98.2823C-0.620103 105.913 -1.38724 113.8 -7.733 121.095C-9.65085 123.302 -11.7033 125.408 -13.6885 127.44C-15.8351 129.641 -18.0491 131.915 -20.0409 134.264L-20.7744 135.132C-24.0449 138.981 -27.423 142.958 -29.5898 147.285C-31.1847 150.468 -32.0191 154.277 -32.8266 157.965C-33.0891 159.183 -33.3919 160.555 -33.7217 161.874C-35.3703 168.55 -36.945 175.38 -38.4726 181.975L-39.2397 185.292C-39.2666 185.4 -39.2397 185.763 -39.2262 185.999C-39.2128 186.282 -39.1926 186.551 -39.1926 186.813H-40.8749C-40.8749 186.578 -40.8884 186.342 -40.9018 186.107C-40.9288 185.663 -40.9489 185.259 -40.8749 184.916L-40.1078 181.598C-38.5802 174.99 -37.0056 168.16 -35.3501 161.471C-35.0271 160.179 -34.731 158.813 -34.4686 157.608C-33.6409 153.819 -32.7795 149.91 -31.0972 146.538C-28.8429 142.03 -25.3975 137.979 -22.0665 134.055L-21.3262 133.187C-19.3007 130.798 -17.0599 128.497 -14.8997 126.276C-12.9348 124.257 -10.8958 122.171 -9.01158 119.998C-3.21091 113.329 -2.49085 106.135 -6.93221 99.1974C-9.98059 94.4331 -13.601 89.8773 -17.6991 85.6379C-24.664 78.4307 -30.108 71.338 -34.3407 63.9358C-40.128 53.8082 -40.4914 45.1744 -35.4847 36.7695C-30.9694 29.1923 -22.4702 26.7361 -10.2229 29.4749C0.806506 31.9446 11.883 38.0817 16.1359 40.6052C31.0346 49.4543 44.2645 63.0341 54.3854 79.8776C58.4835 86.6944 64.6543 91.2299 72.7161 93.3631C73.2409 93.5044 73.8062 93.639 74.3984 93.7736C77.7967 94.5811 81.6459 95.4963 82.7764 98.1948C83.382 99.6416 83.0792 101.391 81.8679 103.383C73.6918 116.875 61.8482 127.878 46.6601 136.088C38.733 140.374 33.6994 145.435 30.8328 152.002C25.3955 164.445 22.8989 175.838 23.1815 186.813L21.4992 186.854L21.5059 186.867Z" fill="#FF7926" fill-opacity="0.4"/>
    <path d="M-37.1333 187.203C-37.1939 187.203 -37.2544 187.19 -37.3083 187.163C-37.5034 187.062 -37.5842 186.826 -37.4832 186.631C-37.3688 186.409 -37.2477 186.187 -37.1266 185.965C-36.8709 185.507 -36.6286 185.07 -36.4873 184.612C-35.4644 181.429 -34.5156 178.152 -33.5937 174.989C-31.5883 168.092 -29.509 160.965 -26.6086 154.31C-20.0206 139.183 -7.30222 128.934 3.04075 121.693C9.92485 116.875 11.2775 112.884 8.04066 106.976C7.77148 106.478 7.5023 105.98 7.23313 105.482C6.12952 103.423 4.99227 101.296 3.55893 99.4728C0.524 95.6102 -2.64551 91.7543 -5.71408 88.0195C-8.21066 84.9846 -10.788 81.8487 -13.2779 78.7263C-18.5335 72.145 -24.213 64.0294 -26.5212 53.7538C-27.4431 49.6556 -26.8374 45.9478 -24.8119 43.3099C-22.8469 40.746 -19.7178 39.3059 -15.761 39.1377C-13.9306 39.0569 -12.0666 39.0838 -10.2698 39.104C-9.56327 39.1108 -8.85668 39.1242 -8.15683 39.1242C-2.16773 39.1444 3.85502 40.645 10.2681 43.7002C20.712 48.6866 28.5987 56.7954 35.5703 64.8168C40.4558 70.4358 43.6119 77.2458 46.667 83.8271L46.815 84.1501C48.5579 87.8984 50.7113 91.5457 52.8041 95.0651C54.1029 97.2521 55.442 99.5132 56.6735 101.788C59.4392 106.895 59.5738 111.296 57.0907 115.637C54.3922 120.354 49.8701 122.09 45.3817 123.268C42.6226 123.994 39.6954 124.223 36.8691 124.452C35.6847 124.546 34.4667 124.64 33.2756 124.775C26.479 125.529 24.689 127.144 23.6729 133.422C23.0605 137.238 22.5827 141.141 22.1184 144.923C21.5397 149.64 20.9475 154.525 20.0727 159.276C18.5384 167.681 17.6636 176.692 17.4079 186.826C17.4079 187.041 17.2464 187.19 17.0041 187.21C16.7888 187.21 16.6138 187.021 16.6205 186.806C16.8763 176.631 17.7578 167.58 19.2988 159.135C20.1669 154.404 20.7591 149.532 21.3311 144.828C21.7954 141.047 22.2732 137.13 22.8855 133.301C23.9622 126.612 25.981 124.788 33.1814 123.988C34.3792 123.853 35.6107 123.759 36.795 123.665C39.5877 123.443 42.4746 123.214 45.1663 122.507C49.4865 121.377 53.8337 119.708 56.3841 115.246C58.7192 111.168 58.5846 107.01 55.9534 102.165C54.7287 99.9035 53.3895 97.6491 52.0975 95.4688C49.998 91.9292 47.8311 88.2685 46.0748 84.4866L45.9267 84.1636C42.8985 77.6294 39.7627 70.8799 34.9512 65.3417C28.0402 57.3876 20.2207 49.3461 9.91141 44.4202C3.61276 41.4122 -2.30905 39.9385 -8.17702 39.9183C-8.8836 39.9183 -9.59017 39.9048 -10.2967 39.8981C-12.0867 39.8779 -13.9373 39.8577 -15.7475 39.9317C-19.4621 40.0865 -22.3894 41.4257 -24.2063 43.7944C-26.0838 46.2439 -26.6356 49.7162 -25.7675 53.5855C-23.493 63.7064 -17.874 71.7278 -12.6789 78.2418C-10.1891 81.3575 -7.61177 84.4933 -5.12192 87.5282C-2.05335 91.263 1.12291 95.1257 4.16456 98.995C5.63828 100.872 6.79573 103.033 7.9128 105.119C8.18197 105.617 8.44442 106.115 8.71359 106.606C12.159 112.884 10.6853 117.299 3.47144 122.346C-6.79078 129.526 -19.4015 139.687 -25.9088 154.633C-28.7889 161.241 -30.8549 168.347 -32.8602 175.218C-33.7821 178.388 -34.7377 181.671 -35.7605 184.861C-35.9288 185.393 -36.1979 185.884 -36.4604 186.355C-36.5748 186.564 -36.6959 186.779 -36.8036 186.994C-36.8709 187.136 -37.0122 187.21 -37.1602 187.21L-37.1333 187.203Z" fill="#FF7926" fill-opacity="0.4"/>
    <path d="M-120.079 88.8746C-130.483 88.8746 -138.941 85.7388 -145.294 79.5142C-164.567 60.6182 -160.792 16.7969 -158.537 -9.39365C-158.322 -11.8835 -158.12 -14.232 -157.952 -16.4056C-157.339 -24.2251 -159.062 -31.9234 -160.731 -39.3661C-160.913 -40.187 -161.101 -41.008 -161.283 -41.829C-162.259 -46.2502 -162.716 -50.6848 -162.649 -55.0117C-162.602 -57.9928 -161.491 -60.3683 -159.594 -61.5324C-158.241 -62.3602 -155.859 -62.9725 -152.205 -61.1825C-150.947 -60.5702 -149.843 -59.6348 -148.78 -58.7331C-148.51 -58.5043 -148.248 -58.2822 -147.979 -58.0601C-143.524 -54.4196 -141.135 -49.4129 -138.827 -44.5678C-138.168 -43.1883 -137.488 -41.7617 -136.768 -40.3889C-136.478 -39.8371 -136.189 -39.2718 -135.9 -38.7066C-134.123 -35.2275 -132.286 -31.6341 -129.541 -29.2452C-120.887 -21.715 -111.048 -18.633 -100.308 -20.0798C-93.6732 -20.9748 -88.8416 -22.8792 -85.0933 -26.0891C-81.2509 -29.3797 -77.7247 -33.1818 -74.313 -36.8628C-73.4112 -37.8385 -72.5095 -38.8075 -71.6011 -39.7698C-70.5311 -40.9071 -69.4544 -42.0376 -68.3777 -43.1681C-64.3536 -47.3874 -60.1949 -51.7547 -56.5206 -56.3643C-52.3821 -61.5661 -49.0511 -66.7611 -46.6151 -71.8081C-44.0108 -77.205 -42.2545 -83.1336 -40.552 -88.8737L-40.3299 -89.6341C-36.6288 -102.117 -29.8927 -110.441 -19.7314 -115.084C-13.3722 -117.991 -6.51505 -119.115 0.113334 -120.205L0.389239 -120.253C9.29886 -121.72 19.413 -124.479 26.8422 -133.805C32.2189 -140.555 35.1058 -148.085 35.9403 -157.506C35.9605 -157.721 36.1489 -157.89 36.3709 -157.863C36.5863 -157.843 36.7478 -157.654 36.7276 -157.432C35.8931 -147.984 32.865 -140.097 27.4613 -133.314C19.8706 -123.779 9.5815 -120.966 0.517098 -119.479L0.241193 -119.432C-6.34009 -118.348 -13.1434 -117.231 -19.4017 -114.371C-29.3409 -109.829 -35.9424 -101.666 -39.5695 -89.4188L-39.7915 -88.6584C-41.5008 -82.8913 -43.2639 -76.9291 -45.895 -71.4784C-48.358 -66.3843 -51.7226 -61.1354 -55.8948 -55.8865C-59.5892 -51.2433 -63.7614 -46.8693 -67.7923 -42.6365C-68.869 -41.506 -69.9456 -40.3822 -71.0089 -39.2449C-71.9173 -38.2826 -72.8123 -37.3136 -73.7141 -36.3379C-77.1393 -32.6435 -80.6856 -28.8145 -84.5617 -25.4969C-88.4311 -22.1861 -93.3906 -20.2211 -100.187 -19.3059C-111.163 -17.8322 -121.21 -20.9748 -130.045 -28.6597C-132.905 -31.1428 -134.776 -34.8103 -136.586 -38.3567C-136.875 -38.9219 -137.165 -39.4805 -137.454 -40.039C-138.181 -41.4252 -138.861 -42.8586 -139.527 -44.2448C-141.801 -49.0092 -144.15 -53.935 -148.463 -57.4679C-148.733 -57.69 -149.002 -57.9188 -149.278 -58.1476C-150.307 -59.0157 -151.37 -59.9174 -152.541 -60.4894C-155.179 -61.7814 -157.474 -61.916 -159.17 -60.873C-160.825 -59.8568 -161.801 -57.7237 -161.848 -55.0185C-161.915 -50.7588 -161.464 -46.3847 -160.502 -42.0241C-160.32 -41.2032 -160.139 -40.3822 -159.95 -39.5612C-158.268 -32.058 -156.532 -24.3058 -157.151 -16.3652C-157.319 -14.1849 -157.528 -11.8364 -157.736 -9.34654C-159.977 16.6959 -163.732 60.2952 -144.729 78.9287C-137.373 86.1425 -127.084 89.1034 -114.144 87.7441C-112.394 87.0914 -62.9068 68.2291 -52.7118 22.7792C-50.9488 14.9194 -49.1386 7.93435 -44.8924 2.10676C-42.3689 -1.35211 -38.6745 -4.68312 -34.4888 -7.26718C-29.9196 -10.0935 -24.765 -9.64937 -19.9872 -6.0088C-18.325 -4.74369 -16.6628 -3.45839 -15.0074 -2.17982C-11.0169 0.902212 -6.89862 4.09191 -2.69952 7.01917C-1.5488 7.81996 -0.485566 8.72842 0.544021 9.5965C2.40131 11.1712 4.15767 12.6651 6.3918 13.6139C8.76053 14.6233 11.2975 15.2962 13.7537 15.949C15.0794 16.2989 16.4521 16.669 17.7845 17.0795C25.7521 19.5559 33.7263 24.3673 42.8782 32.2205C48.08 36.682 53.8335 41.2378 60.6705 44.2794C64.8831 46.1569 73.2678 45.9147 75.7711 41.7559C81.915 31.5475 77.0834 23.3445 71.9691 14.6569C70.7107 12.517 69.4052 10.2963 68.2612 8.04203C60.1524 -8.01414 65.1186 -25.7123 83.4358 -46.0752C91.1072 -54.5945 100.912 -60.5634 110.4 -66.3305C119.108 -71.6264 128.119 -77.0974 135.507 -84.5602C137.829 -86.902 140.13 -89.2371 142.425 -91.5722C150.285 -99.5531 158.407 -107.81 166.826 -115.677C172.101 -120.602 177.344 -123.671 182.868 -125.064C185.863 -125.818 188.938 -126.491 191.906 -127.13C194.49 -127.688 197.155 -128.274 199.766 -128.906C208.48 -131.033 216.333 -135.42 223.015 -139.371C227.114 -141.793 230.505 -145.609 233.789 -149.303L234.314 -149.895C235.599 -151.342 236.454 -153.253 237.288 -155.104C237.672 -155.952 238.062 -156.833 238.5 -157.668C238.601 -157.863 238.843 -157.937 239.031 -157.836C239.226 -157.735 239.3 -157.493 239.199 -157.304C238.776 -156.497 238.385 -155.622 238.008 -154.787C237.154 -152.883 236.272 -150.911 234.906 -149.377L234.381 -148.785C231.057 -145.05 227.625 -141.181 223.419 -138.698C216.69 -134.721 208.776 -130.293 199.954 -128.146C197.336 -127.507 194.665 -126.928 192.081 -126.363C189.12 -125.717 186.051 -125.051 183.07 -124.297C177.606 -122.917 172.62 -119.997 167.377 -115.098C158.972 -107.245 150.857 -98.9946 143.004 -91.0203C140.702 -88.6853 138.401 -86.3435 136.086 -84.0084C128.623 -76.4783 119.579 -70.9804 110.824 -65.6575C101.383 -59.9174 91.6254 -53.9821 84.0347 -45.5503C65.7108 -25.1806 60.9262 -8.26986 68.9745 7.67864C70.0983 9.91277 71.3971 12.1133 72.6555 14.2465C77.8909 23.1426 82.8436 31.5408 76.4575 42.153C73.5101 47.0519 64.3582 46.776 60.3542 44.9927C53.423 41.904 47.6156 37.3146 42.3668 32.8127C33.3024 25.0336 25.4156 20.2692 17.5557 17.8265C16.2368 17.416 14.8775 17.0526 13.5585 16.7027C11.0754 16.0432 8.51153 15.3568 6.08898 14.3272C3.74717 13.3313 1.86297 11.7297 0.0393214 10.1819C-0.976806 9.32059 -2.02659 8.43233 -3.14366 7.65172C-7.35621 4.71101 -11.488 1.52131 -15.4785 -1.57418C-17.1339 -2.85275 -18.7893 -4.13132 -20.4515 -5.39643C-24.9534 -8.82166 -29.785 -9.25234 -34.0582 -6.60771C-38.1631 -4.07076 -41.7767 -0.813763 -44.2396 2.56436C-48.3983 8.26409 -50.1816 15.1684 -51.9245 22.9407C-62.3482 69.4134 -113.39 88.3094 -113.908 88.4978C-113.935 88.5113 -113.969 88.518 -114.003 88.518C-116.089 88.7401 -118.114 88.8477 -120.066 88.8477L-120.079 88.8746Z" fill="#FF7926" fill-opacity="0.4"/>
    <path d="M143.986 98.2081C139.861 98.2081 135.844 96.6065 132.405 93.4572C131.692 92.8044 130.978 92.1584 130.265 91.5124L130.104 91.3644C127.432 88.9485 124.673 86.4452 122.129 83.8006C121.295 82.9325 120.393 82.0913 119.599 81.3511C117.143 79.0631 114.835 76.9098 113.576 73.747C109.155 62.6099 106.773 50.403 106.08 35.336C105.999 33.5864 105.945 31.8368 105.885 30.0804C105.77 26.4802 105.649 22.7589 105.313 19.0914C104.943 15.0269 104.243 11.595 103.186 8.58695C102.103 5.51165 100.784 2.47672 99.5053 -0.457265C98.57 -2.61065 97.6144 -4.80441 96.7531 -7.01163C95.7773 -9.50821 94.6737 -12.3345 94.4314 -15.0801C93.7652 -22.7515 97.029 -29.4674 104.135 -35.0258C107.264 -37.4685 111.261 -38.6865 115.265 -38.3434C120.925 -37.8454 125.622 -35.046 129.619 -29.7702C134.693 -23.0745 140.029 -18.0073 145.931 -14.286C151.785 -10.5984 156.987 -7.15967 161.435 -2.48279C169.134 5.60586 173.629 20.8949 166.792 33.2836C162.909 40.3292 158.757 47.9198 154.726 55.7326C151.328 62.3206 150.52 68.6461 152.31 74.5276C153.313 77.8249 154.679 81.0483 156.005 84.164C156.563 85.4695 157.108 86.7615 157.633 88.0603L157.741 88.3227L157.667 88.5919C156.866 91.6066 155.81 93.9282 153.266 95.4692C150.244 97.2929 147.088 98.2013 143.986 98.2013V98.2081ZM113.94 -36.7081C110.777 -36.7081 107.668 -35.6382 105.178 -33.6934C98.5431 -28.5051 95.4947 -22.2872 96.107 -15.2147C96.3224 -12.7181 97.3856 -10.0062 98.321 -7.61726C99.1689 -5.44369 100.118 -3.26339 101.04 -1.15038C102.338 1.83743 103.671 4.89928 104.774 8.02841C105.878 11.1643 106.605 14.7308 106.988 18.9367C107.332 22.6512 107.453 26.3995 107.567 30.0198C107.621 31.7627 107.681 33.5124 107.762 35.2485C108.442 50.1271 110.79 62.1591 115.138 73.1211C116.255 75.934 118.428 77.9595 120.73 80.1062C121.551 80.8666 122.473 81.728 123.341 82.6297C125.844 85.2339 128.583 87.7171 131.234 90.1127L131.396 90.2607C132.116 90.9135 132.829 91.5595 133.542 92.2122C138.986 97.1987 146.039 97.8783 152.398 94.0359C154.396 92.8313 155.265 90.9942 155.964 88.4371C155.473 87.2393 154.968 86.0414 154.464 84.8504C153.118 81.6741 151.732 78.4104 150.702 75.0256C148.777 68.7067 149.632 61.9572 153.232 54.9722C157.27 47.1392 161.429 39.5351 165.318 32.4828C171.772 20.7872 167.505 6.33935 160.217 -1.31189C155.904 -5.84746 150.79 -9.21885 145.029 -12.846C138.953 -16.6749 133.475 -21.8767 128.273 -28.7339C124.579 -33.6059 120.272 -36.1967 115.111 -36.6476C114.72 -36.6812 114.317 -36.7014 113.926 -36.7014L113.94 -36.7081Z" fill="#FF7926" fill-opacity="0.4"/>
    <path d="M-50.5852 187.203C-50.8005 187.203 -50.9822 187.028 -50.9822 186.806C-50.9822 186.483 -50.9889 186.16 -51.0024 185.83C-51.0226 185.117 -51.0428 184.383 -50.9688 183.657C-50.7534 181.591 -50.4842 179.491 -50.2218 177.459C-49.6835 173.28 -49.1317 168.96 -49.024 164.714C-48.8961 159.727 -49.098 154.647 -49.2864 149.727C-49.4076 146.618 -49.5354 143.402 -49.5758 140.239C-49.6633 133.92 -47.0254 128.409 -41.5275 123.402C-40.1682 122.164 -38.7348 120.973 -37.3486 119.822C-35.525 118.308 -33.6475 116.747 -31.9315 115.078C-27.5171 110.771 -27.0729 106.108 -30.5385 100.401C-33.9839 94.7286 -38.7416 90.0854 -43.3444 85.597C-44.4884 84.4799 -45.6324 83.3695 -46.7562 82.2323C-56.5675 72.3671 -59.8111 60.4091 -56.3859 46.6813C-53.3846 34.629 -48.8423 25.1205 -42.51 17.6106C-34.4415 8.03478 -26.8374 6.27842 -16.2656 11.5542C-15.2495 12.0656 -14.2334 12.5905 -13.224 13.1221C-11.084 14.2459 -8.87012 15.4034 -6.61579 16.332C-3.52703 17.6106 -0.350789 18.8286 2.72451 19.9995C7.14568 21.6953 11.7216 23.4449 16.1159 25.4099C25.3418 29.535 32.9728 36.2172 40.3482 42.6841L41.8219 43.9761C49.0828 50.3218 55.6776 55.9745 62.8578 60.7792C67.8442 64.117 73.4833 65.1533 78.3486 63.619C83.1265 62.1116 86.8007 58.3634 88.9743 52.7713C89.8491 50.517 90.1586 47.9733 90.4547 45.5171C90.6431 43.9626 90.8383 42.3543 91.1747 40.8066C92.7292 33.66 91.989 26.1905 88.907 17.9807C87.4198 14.0171 84.8963 10.3429 82.4535 6.78311C81.7873 5.81409 81.1211 4.83835 80.4751 3.86933C75.9463 -2.9744 74.4524 -9.55568 75.778 -16.8301C76.8884 -22.9403 79.6205 -28.2026 82.3189 -33.0747C85.5288 -38.8686 89.6876 -43.7137 94.6874 -47.4754C100.327 -51.7216 106.834 -53.7471 112.493 -55.3151C122.062 -57.9597 129.498 -63.1749 134.592 -70.806C138.65 -76.8826 142.869 -81.9632 147.506 -86.3305C150.077 -88.7531 152.721 -91.1756 155.285 -93.5174C158.744 -96.6802 162.324 -99.9574 165.749 -103.268C174.443 -111.68 185.385 -115.96 200.183 -116.747C208.043 -117.164 214.624 -118.894 220.31 -122.03C229.57 -127.137 238.547 -132.749 247.228 -138.173C253.715 -142.231 260.491 -147.399 258.795 -157.399C258.762 -157.614 258.903 -157.816 259.118 -157.857C259.327 -157.89 259.536 -157.749 259.576 -157.533C261.353 -147.049 254.347 -141.699 247.645 -137.507C238.957 -132.076 229.974 -126.457 220.694 -121.336C214.9 -118.14 208.204 -116.384 200.223 -115.96C185.628 -115.186 174.847 -110.973 166.301 -102.703C162.869 -99.3787 159.282 -96.1015 155.817 -92.932C153.259 -90.5902 150.615 -88.1744 148.051 -85.7518C143.462 -81.4249 139.276 -76.3913 135.259 -70.3618C130.057 -62.5626 122.473 -57.2464 112.709 -54.5412C107.117 -52.9935 100.69 -50.9949 95.1652 -46.8361C90.2595 -43.1417 86.1681 -38.3774 83.0121 -32.6844C80.3473 -27.8729 77.6488 -22.6711 76.5586 -16.682C75.2733 -9.62297 76.7269 -3.23011 81.1346 3.43865C81.7739 4.40767 82.4401 5.37669 83.1063 6.34571C85.5759 9.93917 88.1264 13.6605 89.6472 17.7115C92.7898 26.0694 93.5367 33.6802 91.9486 40.9815C91.6189 42.4889 91.4305 44.077 91.242 45.618C90.9392 48.1214 90.6229 50.7121 89.7145 53.0607C87.4534 58.8883 83.6043 62.798 78.5909 64.3794C73.5035 65.981 67.6086 64.911 62.4271 61.4387C55.2065 56.607 48.5916 50.9409 41.3104 44.575L39.8367 43.283C32.5018 36.8565 24.9246 30.2079 15.7996 26.1299C11.4255 24.1717 6.86304 22.4288 2.44861 20.7397C-0.626694 19.5621 -3.80965 18.3441 -6.91186 17.0588C-9.19983 16.11 -11.4272 14.9458 -13.5874 13.8153C-14.59 13.2904 -15.5994 12.7655 -16.6156 12.2541C-26.7903 7.17343 -34.1185 8.86921 -41.9043 18.1086C-48.1559 25.5243 -52.6444 34.9319 -55.6187 46.863C-58.9699 60.3082 -55.8004 72.0172 -46.1977 81.667C-45.0739 82.7976 -43.9366 83.9079 -42.7926 85.0182C-38.1561 89.5403 -33.3581 94.2172 -29.8656 99.9775C-26.225 105.973 -26.723 111.094 -31.3797 115.63C-33.1159 117.319 -35.0135 118.894 -36.8439 120.414C-38.2234 121.558 -39.65 122.743 -40.9959 123.968C-46.3188 128.813 -48.8692 134.129 -48.7885 140.212C-48.7481 143.368 -48.6202 146.578 -48.4991 149.68C-48.3039 154.606 -48.1088 159.707 -48.2367 164.72C-48.3443 169.014 -48.9029 173.354 -49.4412 177.546C-49.7036 179.572 -49.9728 181.665 -50.1882 183.724C-50.2554 184.397 -50.242 185.077 -50.2218 185.79C-50.2151 186.12 -50.2016 186.456 -50.2016 186.786C-50.2016 187.001 -50.3766 187.183 -50.5986 187.183L-50.5852 187.203Z" fill="#FF7926" fill-opacity="0.4"/>
    <path d="M37.6294 189.949C37.5756 189.949 37.5218 189.935 37.4679 189.915C37.266 189.828 37.1786 189.592 37.2728 189.39L44.4126 173.805C46.5391 169.169 48.7328 164.371 51.8821 160.212C54.7017 156.484 58.4836 153.018 63.4364 149.6C81.6998 137.009 103.92 132.79 123.24 130.313C128.327 129.661 133.522 129.095 138.549 128.55C154.175 126.848 170.332 125.091 185.58 120.516C190.923 118.914 197.007 116.7 201.549 112.467C206.791 107.582 209.914 100.058 210.331 91.2766C210.667 84.2378 209.308 77.1316 206.387 70.7186C204.88 67.401 202.922 64.1844 201.031 61.0687C197.579 55.3892 194.005 49.5145 193.057 42.8457C191.556 32.348 196.778 22.1261 202.653 12.6378C209.523 1.52765 216.401 -9.18542 224.9 -18.2027C226.865 -20.2888 230.431 -22.8056 233.883 -25.2416C237.14 -27.5363 240.498 -29.9117 242.362 -31.8229C242.948 -32.4218 243.527 -33.0476 244.105 -33.6667C246.037 -35.7393 248.035 -37.886 250.417 -39.3799C256.602 -43.2694 263.392 -47.1254 271.796 -51.5196C278.607 -55.0794 281.48 -59.7967 280.834 -66.3578C280.45 -70.2944 279.952 -74.2849 279.468 -78.1475C278.701 -84.3452 277.9 -90.7516 277.537 -97.0838C276.917 -107.817 277.092 -119.203 282.563 -129.748C287.657 -139.566 295.47 -144.364 306.446 -144.411C309.609 -144.425 312.771 -144.418 315.934 -144.411H320.248C320.463 -144.411 320.645 -144.229 320.645 -144.014C320.645 -143.799 320.47 -143.617 320.248 -143.617H315.934C312.771 -143.624 309.609 -143.624 306.452 -143.617C295.8 -143.577 288.216 -138.92 283.27 -129.385C277.886 -119.008 277.718 -107.75 278.331 -97.131C278.694 -90.8256 279.488 -84.4327 280.262 -78.2485C280.74 -74.3791 281.238 -70.3819 281.628 -66.4385C282.301 -59.6082 279.205 -54.5007 272.167 -50.8197C263.782 -46.439 257.005 -42.5898 250.841 -38.7137C248.553 -37.2736 246.588 -35.1673 244.691 -33.1284C244.105 -32.5025 243.527 -31.8767 242.934 -31.2711C241.017 -29.3061 237.625 -26.9105 234.341 -24.5956C230.923 -22.1797 227.383 -19.6899 225.472 -17.6644C217.02 -8.70091 210.169 1.97852 203.319 13.055C197.532 22.4155 192.37 32.4893 193.837 42.738C194.766 49.2453 198.292 55.0527 201.704 60.6582C203.608 63.7941 205.58 67.0309 207.107 70.3888C210.075 76.9163 211.461 84.1503 211.118 91.3103C210.687 100.301 207.478 108.012 202.087 113.039C197.424 117.386 191.24 119.641 185.802 121.269C170.48 125.865 154.289 127.628 138.63 129.331C133.61 129.876 128.415 130.441 123.334 131.094C104.102 133.55 82.0026 137.749 63.8805 150.246C58.995 153.61 55.2804 157.022 52.508 160.683C49.4125 164.774 47.2322 169.532 45.1259 174.128L37.9861 189.713C37.9188 189.861 37.7775 189.942 37.6294 189.942V189.949Z" fill="#FF7926" fill-opacity="0.4"/>
    <path d="M-123.053 80.0315C-128.066 80.0315 -132.696 78.652 -136.888 75.893C-150.663 66.8421 -156.693 44.8574 -157.675 28.781C-158.456 15.9482 -156.7 3.33071 -154.99 -8.86283C-154.035 -15.7133 -153.046 -22.7925 -152.507 -29.8718C-152.312 -32.4626 -152.514 -35.1476 -152.716 -37.7383C-152.857 -39.5553 -152.998 -41.4395 -153.005 -43.29C-153.005 -44.5686 -152.124 -46.6211 -150.731 -46.9104C-149.856 -47.0854 -148.9 -46.6345 -147.965 -45.5847C-146.639 -44.0976 -145.139 -42.3143 -144.102 -40.3561C-137.285 -27.4223 -125.624 -19.9864 -108.464 -17.6042C-99.5071 -16.366 -90.9541 -18.5329 -84.3795 -23.7144C-79.2182 -27.7789 -74.3125 -32.3482 -69.5683 -36.7693C-67.4015 -38.7881 -65.1606 -40.8809 -62.9197 -42.893C-62.1122 -43.6198 -61.2778 -44.3196 -60.4501 -45.0195C-59.6627 -45.6857 -58.8687 -46.3519 -58.1015 -47.0383C-51.0694 -53.3302 -45.437 -60.8401 -41.3455 -69.3594C-39.8449 -72.4953 -38.5058 -75.7792 -37.2205 -78.9622C-35.6862 -82.7373 -34.1048 -86.6471 -32.2206 -90.3347C-26.7025 -101.135 -19.3205 -107.542 -9.63696 -109.924C-7.75948 -110.388 -5.86854 -110.94 -4.04489 -111.478C-1.81749 -112.131 0.490678 -112.811 2.79884 -113.329C13.0409 -115.624 21.7957 -121.256 28.1078 -129.607C33.9556 -137.339 37.475 -147.245 38.0134 -157.5C38.0268 -157.715 38.2152 -157.877 38.4306 -157.877C38.6459 -157.863 38.8142 -157.682 38.8074 -157.46C38.2556 -147.049 34.6824 -136.996 28.7404 -129.136C22.3139 -120.637 13.4042 -114.903 2.97378 -112.568C0.692544 -112.057 -1.60214 -111.384 -3.82282 -110.731C-5.65992 -110.193 -7.5576 -109.634 -9.44854 -109.17C-18.8898 -106.842 -26.1104 -100.57 -31.514 -89.9915C-33.3847 -86.3375 -34.9594 -82.4412 -36.487 -78.6795C-37.779 -75.4898 -39.1181 -72.1858 -40.6322 -69.0297C-44.764 -60.4162 -50.4638 -52.8188 -57.5699 -46.4596C-58.3438 -45.7664 -59.1446 -45.0935 -59.9387 -44.4206C-60.7664 -43.7274 -61.5873 -43.0276 -62.3881 -42.3076C-64.6223 -40.2955 -66.8631 -38.2094 -69.03 -36.1906C-73.7876 -31.756 -78.7067 -27.1733 -83.895 -23.0886C-90.6445 -17.7725 -99.4061 -15.545 -108.578 -16.8169C-126.007 -19.2327 -137.857 -26.8099 -144.809 -39.9792C-145.798 -41.8567 -147.198 -43.5256 -148.557 -45.0531C-149.069 -45.6318 -149.842 -46.2913 -150.569 -46.1298C-151.511 -45.9347 -152.218 -44.2725 -152.211 -43.29C-152.204 -41.4664 -152.063 -39.6024 -151.922 -37.7989C-151.72 -35.1745 -151.511 -32.4693 -151.713 -29.8179C-152.252 -22.7185 -153.241 -15.6258 -154.203 -8.76188C-155.899 3.39801 -157.655 15.9751 -156.881 28.7272C-155.912 44.6218 -149.984 66.3306 -136.451 75.2268C-129.432 79.8431 -121.135 80.4689 -111.788 77.0908C-111.438 76.963 -76.8091 64.11 -56.7961 17.9603C-55.0532 13.9428 -52.9603 10.0264 -50.9281 6.23105C-47.2741 -0.605942 -43.6402 -5.67985 -39.4748 -9.77128C-33.378 -15.7738 -25.4038 -14.973 -20.9961 -11.171C-17.8467 -8.45906 -15.0002 -6.01632 -12.0326 -3.59377C-11.0501 -2.79298 -10.0744 -1.97872 -9.09189 -1.17121C-6.58185 0.908155 -3.99106 3.06154 -1.33298 5.01304C-0.498542 5.62541 0.27533 6.32526 1.02228 7.00492C2.0115 7.89992 3.02763 8.82184 4.16489 9.51496C5.87414 10.5647 7.34786 10.6522 9.21188 10.7666C9.68966 10.7935 10.1876 10.8272 10.7058 10.8743C15.8335 11.3453 21.0891 13.0815 26.3178 16.0289C30.7524 18.5323 34.541 21.8229 38.2018 25.0059C40.3417 26.8632 42.5489 28.7877 44.8773 30.5374C45.5233 31.0219 46.1626 31.5131 46.8019 32.0044C51.1759 35.3623 55.6913 38.8279 61.2834 40.1132C64.7894 40.9207 68.7529 41.3581 71.5119 38.4645C74.1566 35.692 75.1121 32.0245 74.2911 27.8456C73.3423 23.0274 70.8727 18.9764 68.4232 15.2416C62.6561 6.43965 60.8729 -5.5991 63.4098 -18.6607C66.761 -35.8945 75.7245 -50.0799 88.6515 -58.5992C89.0082 -58.828 124.337 -81.6472 135.252 -93.3427L167.963 -119.735C171.214 -122.649 175.17 -125.105 179.073 -126.646C182.97 -128.18 187.155 -129.136 191.2 -130.065C192.451 -130.347 193.696 -130.637 194.934 -130.933C203.487 -133.012 211.482 -136.235 219.389 -140.791C227.498 -145.461 232.215 -150.542 234.671 -157.265C234.745 -157.466 234.974 -157.574 235.176 -157.5C235.378 -157.426 235.485 -157.197 235.411 -156.995C232.888 -150.091 228.063 -144.883 219.786 -140.112C211.818 -135.515 203.75 -132.265 195.123 -130.172C193.878 -129.87 192.626 -129.587 191.375 -129.298C187.357 -128.382 183.199 -127.433 179.363 -125.919C175.541 -124.412 171.671 -122.01 168.468 -119.143L135.784 -92.7775C124.842 -81.0483 89.4389 -58.1753 89.0822 -57.9465C76.3369 -49.5416 67.4945 -35.5379 64.1837 -18.5194C62.7369 -11.0768 61.4516 3.15576 69.0759 14.7975C71.5658 18.5996 74.0826 22.7246 75.0583 27.6841C75.9331 32.1255 74.9035 36.042 72.0772 39.0029C69.0423 42.1858 64.823 41.735 61.095 40.8803C55.3414 39.5547 50.752 36.0352 46.3106 32.6302C45.6713 32.139 45.0321 31.6477 44.3928 31.1699C42.0442 29.4001 39.8236 27.4688 37.6769 25.6048C34.0498 22.4487 30.2948 19.185 25.9275 16.7221C20.793 13.8285 15.6518 12.1259 10.6318 11.6616C10.1203 11.6145 9.62909 11.5876 9.15803 11.5539C7.26037 11.4395 5.62515 11.3386 3.74094 10.1879C2.54312 9.4544 1.49334 8.50556 0.477211 7.58364C-0.256285 6.91744 -1.0167 6.23105 -1.81749 5.6456C-4.49576 3.68064 -7.09328 1.52052 -9.61677 -0.56557C-10.5925 -1.37309 -11.5683 -2.18733 -12.5507 -2.98812C-15.5318 -5.41741 -18.3783 -7.86015 -21.5344 -10.5788C-25.6729 -14.1453 -33.1761 -14.8788 -38.9432 -9.21274C-43.0413 -5.17515 -46.6348 -0.161807 -50.235 6.56752C-52.274 10.3696 -54.36 14.2793 -56.0895 18.2631C-76.2438 64.7425 -111.189 77.6965 -111.539 77.8243C-115.577 79.2846 -119.426 80.0113 -123.066 80.0113L-123.053 80.0315Z" fill="#FF7926" fill-opacity="0.4"/>
    <path d="M-30.5788 187.203C-30.7942 187.203 -30.9758 187.028 -30.9758 186.806C-30.9758 186.672 -30.9893 186.53 -30.996 186.389C-31.023 186.032 -31.0499 185.669 -30.9355 185.312C-27.3824 174.142 -23.2237 162.433 -14.913 152.816C-11.1647 148.476 -6.46765 144.802 -2.79344 142.083C-1.29953 140.98 0.638512 140.609 2.52272 141.074C4.47423 141.558 6.07581 142.844 6.92371 144.607C8.08788 147.023 9.52123 150.744 9.72311 154.707C10.1201 162.412 10.248 170.252 10.3691 177.836C10.4162 180.824 10.4633 183.805 10.5306 186.793C10.5306 187.008 10.3624 187.19 10.1403 187.197C9.92498 187.183 9.74329 187.028 9.73656 186.806C9.66926 183.818 9.62217 180.831 9.57506 177.85C9.45393 170.272 9.32606 162.433 8.92903 154.748C8.73388 150.912 7.34093 147.298 6.2104 144.943C5.46344 143.395 4.05028 142.258 2.3343 141.834C0.678889 141.424 -1.01691 141.747 -2.3224 142.709C-5.96296 145.401 -10.6129 149.048 -14.314 153.328C-22.5238 162.83 -26.6556 174.451 -30.1818 185.541C-30.2491 185.75 -30.2289 186.026 -30.202 186.322C-30.1885 186.483 -30.1751 186.645 -30.1751 186.8C-30.1751 187.015 -30.35 187.197 -30.5721 187.197L-30.5788 187.203Z" fill="#FF7926" fill-opacity="0.4"/>
    <path d="M65.529 187.203C65.4954 187.203 65.4617 187.203 65.4214 187.19C65.2127 187.129 65.0849 186.914 65.1455 186.705C68.3082 175.245 75.3336 168.98 75.4077 168.919C81.6861 163.415 89.4383 160.871 98.4489 161.362C106.43 161.793 112.399 165.649 115.245 172.217C117.156 176.625 117.924 181.685 117.459 186.846C117.439 187.062 117.237 187.216 117.029 187.203C116.813 187.183 116.652 186.994 116.672 186.772C117.123 181.739 116.383 176.813 114.518 172.526C111.8 166.248 106.073 162.567 98.4085 162.15C89.62 161.679 82.0428 164.148 75.9326 169.512C75.8653 169.572 69.0081 175.689 65.9126 186.914C65.8655 187.089 65.704 187.203 65.529 187.203Z" fill="#FF7926" fill-opacity="0.4"/>
    <path d="M76.5115 187.203C76.4778 187.203 76.4442 187.203 76.4038 187.189C76.1952 187.129 76.0673 186.914 76.1279 186.705C77.9582 180.063 81.9084 176.544 82.0766 176.396C85.7239 173.199 90.2191 171.719 95.4478 172.008C100.104 172.257 103.584 174.511 105.252 178.347C106.363 180.911 106.807 183.845 106.538 186.84C106.517 187.055 106.322 187.21 106.107 187.196C105.892 187.176 105.73 186.988 105.75 186.766C106.006 183.899 105.582 181.093 104.526 178.657C102.985 175.11 99.7478 173.024 95.4074 172.789C90.4008 172.52 86.0873 173.926 82.6015 176.981C82.5611 177.015 78.6581 180.507 76.895 186.907C76.8479 187.082 76.6864 187.196 76.5115 187.196V187.203Z" fill="#FF7926" fill-opacity="0.4"/>
    <path d="M139.969 187.203C139.935 187.203 139.902 187.203 139.861 187.19C139.653 187.129 139.525 186.914 139.585 186.705C142.748 175.245 149.774 168.98 149.848 168.919C156.126 163.415 163.885 160.871 172.889 161.362C180.87 161.793 186.839 165.649 189.685 172.217C191.596 176.625 192.363 181.685 191.899 186.846C191.879 187.062 191.684 187.216 191.468 187.203C191.253 187.183 191.092 186.994 191.112 186.772C191.563 181.739 190.822 176.813 188.958 172.526C186.24 166.248 180.513 162.567 172.848 162.15C164.053 161.679 156.483 164.148 150.373 169.512C150.305 169.572 143.448 175.689 140.353 186.914C140.305 187.089 140.144 187.203 139.969 187.203Z" fill="#FF7926" fill-opacity="0.4"/>
    <path d="M150.945 187.203C150.911 187.203 150.877 187.203 150.837 187.189C150.628 187.129 150.5 186.914 150.561 186.705C152.391 180.063 156.341 176.544 156.51 176.396C160.15 173.199 164.645 171.719 169.881 172.008C174.538 172.257 178.017 174.511 179.686 178.347C180.796 180.911 181.24 183.845 180.971 186.84C180.951 187.055 180.749 187.21 180.54 187.196C180.325 187.176 180.163 186.988 180.183 186.766C180.439 183.899 180.015 181.093 178.959 178.657C177.418 175.11 174.181 173.024 169.841 172.789C164.834 172.52 160.52 173.926 157.035 176.981C156.994 177.015 153.091 180.507 151.328 186.907C151.281 187.082 151.12 187.196 150.945 187.196V187.203Z" fill="#FF7926" fill-opacity="0.4"/>
    <path d="M132.708 37.0923C131.887 37.0923 131.12 36.9376 130.71 36.5473C129.606 35.5109 128.597 33.0884 129.007 31.6349C129.64 29.3873 130.568 27.456 131.766 25.8813C132.271 25.2151 134.915 21.8975 137.513 21.7091C137.721 21.6956 137.93 21.7024 138.132 21.7293C139.357 21.8975 141.053 23.0819 141.308 24.3134C142.136 28.2702 139.518 34.7169 135.285 36.6078C134.633 36.8972 133.637 37.0991 132.708 37.0991V37.0923ZM137.742 22.3686C137.681 22.3686 137.621 22.3686 137.56 22.3753C135.77 22.5032 133.61 24.5623 132.298 26.285C131.154 27.7924 130.259 29.6497 129.653 31.8165C129.317 33.0009 130.225 35.1745 131.167 36.056C131.712 36.5675 133.792 36.5271 135.01 35.9887C138.98 34.2189 141.429 28.1625 140.649 24.4479C140.46 23.5462 139.02 22.5234 138.045 22.3888C137.944 22.3753 137.843 22.3686 137.742 22.3686Z" fill="#FF7926" fill-opacity="0.4"/>
    <path d="M130.952 60.1135C130.097 60.1135 129.242 60.026 128.401 59.8577C123.388 58.8349 118.98 54.7367 115.972 48.3237C113.994 44.0977 113.119 39.5419 113.227 33.9835C113.267 31.9445 113.314 29.9055 113.361 27.8665C113.435 24.6701 113.516 21.366 113.556 18.1158L113.577 16.4805C113.63 12.0459 113.684 7.45651 113.529 2.95459C113.435 0.235942 113.233 -2.52982 113.038 -5.20136C112.863 -7.61046 112.682 -10.107 112.574 -12.57C112.48 -14.8714 113.583 -16.399 115.609 -16.7691C115.696 -16.7825 115.777 -16.7691 115.851 -16.7354C115.932 -16.7758 116.026 -16.7892 116.127 -16.7623C116.665 -16.621 117.21 -16.5066 117.762 -16.3922C118.98 -16.1365 120.245 -15.8741 121.356 -15.3021C124.256 -13.7947 127.163 -12.1864 129.976 -10.6319C133.368 -8.76117 136.867 -6.82312 140.373 -5.04658C147.089 -1.64154 152.055 1.89808 156.005 6.09718C162.055 12.5237 163.697 19.9798 160.89 28.2501C157.566 38.0278 151.321 47.072 142.324 55.127C138.643 58.4244 134.754 60.1202 130.945 60.1202L130.952 60.1135ZM115.858 -16.0221C115.858 -16.0221 115.791 -15.9952 115.757 -15.9885C113.684 -15.6116 113.314 -13.9427 113.368 -12.6036C113.469 -10.1541 113.651 -7.67102 113.826 -5.26192C114.021 -2.57692 114.223 0.19556 114.317 2.92767C114.472 7.44304 114.418 12.0459 114.364 16.4872L114.344 18.1225C114.31 21.3795 114.229 24.6836 114.149 27.88C114.101 29.919 114.048 31.958 114.014 33.9902C113.913 39.4208 114.761 43.8689 116.686 47.9805C119.579 54.1647 123.798 58.1014 128.556 59.0771C132.903 59.9654 137.486 58.3907 141.806 54.5281C150.696 46.5673 156.873 37.6375 160.15 27.9877C162.896 19.9057 161.355 12.9207 155.44 6.63553C151.55 2.50372 146.651 -0.982074 140.023 -4.34001C136.503 -6.12328 132.991 -8.06132 129.599 -9.9388C126.793 -11.4865 123.886 -13.0948 120.999 -14.5955C119.99 -15.1204 118.832 -15.3626 117.614 -15.6116C117.049 -15.726 116.484 -15.8471 115.932 -15.9952C115.905 -15.9952 115.885 -16.0087 115.865 -16.0221H115.858Z" fill="#FF7926" fill-opacity="0.4"/>
    <path d="M27.5152 99.9713C25.5368 99.9713 23.7131 99.1975 22.0712 98.4101C16.1897 95.5704 11.0216 91.1492 6.70139 85.2812L5.55742 83.7335C1.21028 77.8588 -3.28492 71.7889 -4.82594 64.0973C-5.92955 58.5793 -5.68729 57.3007 -0.384582 55.0194C-0.276913 54.9723 -0.155792 54.9791 -0.054852 55.0262C0.0124412 54.9925 0.0931972 54.9791 0.180678 54.9925C0.86034 55.1002 1.54674 55.1809 2.23313 55.2684C3.7405 55.4501 5.30171 55.6453 6.77543 56.0894C12.603 57.839 17.3405 61.5132 22.0846 65.4566C31.3173 73.1213 35.6577 82.0175 35.3549 92.6565C35.2674 95.678 33.7398 97.8449 30.6712 99.2715C29.5811 99.7762 28.5313 99.9848 27.5152 99.9848V99.9713ZM-0.0481162 55.7328C-0.0481162 55.7328 -0.0615674 55.7328 -0.0615674 55.7395C-4.94706 57.8458 -5.10184 58.6398 -4.04534 63.9358C-2.53797 71.4592 1.90339 77.455 6.20343 83.2557L7.3474 84.8034C11.5869 90.5705 16.6608 94.9109 22.4278 97.6901C24.7427 98.8072 27.4546 99.8839 30.3482 98.538C33.114 97.2527 34.5002 95.3146 34.5743 92.6162C34.8704 82.2396 30.6241 73.5453 21.5934 66.0488C16.9165 62.166 12.2464 58.5389 6.56008 56.8296C5.14693 56.4057 3.6261 56.2173 2.14565 56.0423C1.45253 55.9548 0.752682 55.8741 0.0662914 55.7664C0.0259154 55.7664 -0.00773364 55.7462 -0.0413803 55.7328H-0.0481162Z" fill="#FF7926" fill-opacity="0.4"/>
    <path d="M44.6212 189.235C44.5741 189.235 44.527 189.229 44.4799 189.209C44.278 189.135 44.1703 188.906 44.2511 188.697C53.9009 163.227 77.4603 143.631 104.263 138.786C113.725 137.076 123.502 137.11 132.957 137.137C138.166 137.157 143.549 137.171 148.818 136.901C164.047 136.107 178.972 132.898 193.178 127.366C203.662 123.281 211.132 118.779 216.677 113.194C223.668 106.149 227.443 96.9428 226.764 88.558C226.003 79.1639 220.142 71.1695 214.476 63.4442C208.87 55.793 203.07 47.8793 202.047 38.5121C200.647 25.6254 208.601 13.7616 216.865 2.71207C220.095 -1.60143 228.049 -11.1974 233.857 -18.2027C237.275 -22.3277 239.973 -25.578 240.842 -26.7018C248.277 -36.3382 257.853 -42.4686 270.121 -45.4362C279.044 -47.5964 282.281 -46.9302 286.52 -38.3301C290.342 -30.5712 292.415 -22.3883 293.936 -15.4033C295.295 -9.17192 295.726 -3.84903 295.262 0.888418C294.548 8.12244 291.042 14.3403 286.87 21.1437C285.612 23.1961 284.279 25.2418 282.987 27.227C279.394 32.7383 275.686 38.4313 273.243 44.7771C269.589 54.2789 268.936 63.2423 271.251 72.1856L271.904 74.6822C273.546 80.9674 275.242 87.4612 276.002 93.9751C277.382 105.792 274.751 116.337 268.176 125.314C261.662 134.21 257.591 142.372 255.357 150.999C253.19 159.377 250.687 167.809 248.264 175.965C247.201 179.552 246.131 183.139 245.094 186.739C245.034 186.947 244.812 187.069 244.603 187.008C244.395 186.947 244.274 186.725 244.334 186.517C245.377 182.923 246.44 179.33 247.51 175.743C249.933 167.594 252.436 159.169 254.596 150.804C256.857 142.07 260.976 133.819 267.543 124.849C273.997 116.041 276.581 105.684 275.222 94.0694C274.468 87.6159 272.779 81.1423 271.144 74.8841L270.491 72.3807C268.136 63.2692 268.795 54.151 272.51 44.4877C274.979 38.0612 278.714 32.3278 282.328 26.7896C283.613 24.8112 284.946 22.7655 286.204 20.7265C290.322 14.0106 293.788 7.88019 294.481 0.807669C294.939 -3.84229 294.508 -9.09117 293.169 -15.235C291.655 -22.173 289.602 -30.302 285.82 -37.9802C281.796 -46.1496 278.903 -46.7485 270.316 -44.6691C258.23 -41.7418 248.796 -35.7056 241.474 -26.2173C240.599 -25.08 237.894 -21.8231 234.476 -17.6912C228.675 -10.6928 220.728 -1.11019 217.511 3.18985C209.335 14.1115 201.475 25.8273 202.841 38.4246C203.837 47.5832 209.57 55.4094 215.122 62.9732C220.855 70.7926 226.777 78.8745 227.558 88.4907C228.258 97.0975 224.402 106.539 217.242 113.746C211.616 119.412 204.066 123.968 193.474 128.1C179.187 133.665 164.181 136.888 148.865 137.689C143.576 137.965 138.179 137.951 132.957 137.931C123.536 137.904 113.799 137.871 104.411 139.566C77.8708 144.364 54.5537 163.758 44.998 188.973C44.9375 189.135 44.7894 189.229 44.6279 189.229L44.6212 189.235Z" fill="#FF7926" fill-opacity="0.4"/>
    <path d="M212.229 194C212.054 194 211.892 193.878 211.845 193.703L204.456 164.37C203.824 161.86 203.104 159.014 201.435 156.834C198.716 153.294 193.662 151.598 186.388 151.813C162.371 152.513 139.336 166.551 127.708 187.58C127.601 187.768 127.365 187.836 127.17 187.735C126.981 187.627 126.907 187.391 127.015 187.196C138.778 165.932 162.075 151.733 186.361 151.026C193.905 150.811 199.18 152.601 202.061 156.349C203.83 158.657 204.571 161.584 205.217 164.175L212.605 193.508C212.659 193.717 212.531 193.932 212.316 193.986C212.282 193.993 212.249 194 212.222 194H212.229Z" fill="#FF7926" fill-opacity="0.4"/>
    <path d="M230.674 191.706C229.994 191.706 229.368 191.261 229.16 190.582C224.106 173.839 225.97 156.955 234.146 145.415C235.822 143.053 237.753 140.886 239.624 138.8C240.714 137.582 241.838 136.323 242.881 135.058C250.007 126.418 253.466 116.896 252.631 108.242C252.504 106.896 251.844 102.441 248.843 101.546C247.255 101.075 245.27 101.721 242.935 103.451C240.492 105.261 238.372 107.448 236.629 109.951C235.095 112.158 233.897 114.547 232.625 117.071C231.293 119.722 229.913 122.468 228.11 124.971C219.954 136.31 204.9 140.199 194.295 142.144C192.337 142.501 190.358 142.837 188.373 143.174C178.124 144.903 167.519 146.693 158.885 152.225C158.838 152.252 158.791 152.278 158.744 152.305C157.385 152.992 145.279 158.954 138.61 156.531L136.941 155.926C131.941 154.122 126.773 152.258 121.914 149.869C111.841 144.923 101.188 145.092 88.3754 150.408C79.5331 154.075 72.575 158.456 67.1108 163.799C61.0746 169.701 56.9226 177.359 54.4327 187.204C54.2174 188.052 53.356 188.563 52.5081 188.348C51.6602 188.132 51.1488 187.271 51.3641 186.423C54.002 175.999 58.4299 167.857 64.8968 161.531C70.6571 155.899 77.9383 151.303 87.1642 147.48C100.879 141.794 112.365 141.653 123.314 147.03C128.018 149.338 133.105 151.175 138.018 152.951L139.687 153.557C144.222 155.199 153.825 151.229 157.243 149.513C166.409 143.665 177.303 141.828 187.842 140.051C189.813 139.722 191.771 139.385 193.723 139.028C214.752 135.179 221.952 128.107 225.539 123.127C227.188 120.832 228.453 118.316 229.792 115.658C231.057 113.141 232.363 110.543 234.025 108.154C235.963 105.368 238.318 102.939 241.037 100.92C244.213 98.5583 247.14 97.7508 249.731 98.5247C253.035 99.5071 255.296 103.027 255.767 107.946C256.683 117.434 252.968 127.784 245.303 137.077C244.22 138.396 243.076 139.674 241.966 140.913C240.155 142.938 238.285 145.031 236.71 147.252C229.099 157.998 227.397 173.859 232.168 189.673C232.417 190.508 231.946 191.389 231.111 191.645C230.956 191.692 230.808 191.712 230.654 191.712L230.674 191.706Z" fill="#FF7926" fill-opacity="0.6"/>
    <g opacity="0.5">
      <path d="M62.0971 188.193H61.6462V190.238H59.5938V190.696H61.6462H62.0971H64.1495V190.238H62.0971V188.193Z" fill="#FF7926"/>
      <path d="M62.1041 126.956H61.6465V131.33H62.1041V126.956Z" fill="#FF7926"/>
      <path d="M62.1041 161.949H61.6465V166.323H62.1041V161.949Z" fill="#FF7926"/>
      <path d="M62.1041 135.704H61.6465V140.078H62.1041V135.704Z" fill="#FF7926"/>
      <path d="M62.1041 179.445H61.6465V183.819H62.1041V179.445Z" fill="#FF7926"/>
      <path d="M62.1041 153.2H61.6465V157.574H62.1041V153.2Z" fill="#FF7926"/>
      <path d="M62.1041 170.697H61.6465V175.071H62.1041V170.697Z" fill="#FF7926"/>
      <path d="M62.1041 144.452H61.6465V148.826H62.1041V144.452Z" fill="#FF7926"/>
      <path d="M132.257 188.193H131.806V190.238H129.754V190.696H131.806H132.257H134.31V190.238H132.257V188.193Z" fill="#FF7926"/>
      <path d="M132.264 153.2H131.806V157.574H132.264V153.2Z" fill="#FF7926"/>
      <path d="M132.264 144.452H131.806V148.826H132.264V144.452Z" fill="#FF7926"/>
      <path d="M132.264 161.949H131.806V166.323H132.264V161.949Z" fill="#FF7926"/>
      <path d="M132.264 179.445H131.806V183.819H132.264V179.445Z" fill="#FF7926"/>
      <path d="M132.264 170.697H131.806V175.071H132.264V170.697Z" fill="#FF7926"/>
      <path d="M132.264 135.704H131.806V140.078H132.264V135.704Z" fill="#FF7926"/>
      <path d="M132.264 126.956H131.806V131.33H132.264V126.956Z" fill="#FF7926"/>
      <path d="M33.3496 120.078V120.496V120.536H37.7237V120.496V120.078V120.038H33.3496V120.078Z" fill="#FF7926"/>
      <path d="M7.11182 120.078V120.496V120.536H11.4791V120.496V120.078V120.038H7.11182V120.078Z" fill="#FF7926"/>
      <path d="M50.8457 120.078V120.496V120.536H55.2198V120.496V120.078V120.038H50.8457V120.078Z" fill="#FF7926"/>
      <path d="M42.0977 120.078V120.496V120.536H46.4717V120.496V120.078V120.038H42.0977V120.078Z" fill="#FF7926"/>
      <path d="M-1.63623 120.078V120.496V120.536H2.73783V120.496V120.078V120.038H-1.63623V120.078Z" fill="#FF7926"/>
      <path d="M15.8535 120.078V120.496V120.536H20.2276V120.496V120.078V120.038H15.8535V120.078Z" fill="#FF7926"/>
      <path d="M24.6016 120.078V120.496V120.536H28.9756V120.496V120.078V120.038H24.6016V120.078Z" fill="#FF7926"/>
      <path d="M94.7681 120.078V120.496V120.536H99.1421V120.496V120.078V120.038H94.7681V120.078Z" fill="#FF7926"/>
      <path d="M103.509 120.078V120.496V120.536H107.883V120.496V120.078V120.038H103.509V120.078Z" fill="#FF7926"/>
      <path d="M86.02 120.078V120.496V120.536H90.3941V120.496V120.078V120.038H86.02V120.078Z" fill="#FF7926"/>
      <path d="M68.5239 120.078V120.496V120.536H72.898V120.496V120.078V120.038H68.5239V120.078Z" fill="#FF7926"/>
      <path d="M121.005 120.078V120.496V120.536H125.379V120.496V120.078V120.038H121.005V120.078Z" fill="#FF7926"/>
      <path d="M77.272 120.078V120.496V120.536H81.646V120.496V120.078V120.038H77.272V120.078Z" fill="#FF7926"/>
      <path d="M112.257 120.078V120.496V120.536H116.631V120.496V120.078V120.038H112.257V120.078Z" fill="#FF7926"/>
      <path d="M62.0971 117.992H61.6462V120.038H59.5938V120.078V120.496V120.536H61.6462V122.582H62.0971V120.536H64.1495V120.496V120.078V120.038H62.0971V117.992Z" fill="#FF7926"/>
      <path d="M62.1041 65.5041H61.6465V69.8782H62.1041V65.5041Z" fill="#FF7926"/>
      <path d="M62.1041 56.7551H61.6465V61.1292H62.1041V56.7551Z" fill="#FF7926"/>
      <path d="M62.1041 83.0002H61.6465V87.3743H62.1041V83.0002Z" fill="#FF7926"/>
      <path d="M62.1041 100.496H61.6465V104.87H62.1041V100.496Z" fill="#FF7926"/>
      <path d="M62.1041 109.244H61.6465V113.618H62.1041V109.244Z" fill="#FF7926"/>
      <path d="M62.1041 74.2522H61.6465V78.6262H62.1041V74.2522Z" fill="#FF7926"/>
      <path d="M62.1041 91.7483H61.6465V96.1223H62.1041V91.7483Z" fill="#FF7926"/>
      <path d="M182.417 120.078V120.496V120.536H186.792V120.496V120.078V120.038H182.417V120.078Z" fill="#FF7926"/>
      <path d="M156.18 120.078V120.496V120.536H160.554V120.496V120.078V120.038H156.18V120.078Z" fill="#FF7926"/>
      <path d="M164.928 120.078V120.496V120.536H169.302V120.496V120.078V120.038H164.928V120.078Z" fill="#FF7926"/>
      <path d="M147.432 120.078V120.496V120.536H151.806V120.496V120.078V120.038H147.432V120.078Z" fill="#FF7926"/>
      <path d="M173.676 120.078V120.496V120.536H178.05V120.496V120.078V120.038H173.676V120.078Z" fill="#FF7926"/>
      <path d="M138.684 120.078V120.496V120.536H143.058V120.496V120.078V120.038H138.684V120.078Z" fill="#FF7926"/>
      <path d="M132.257 117.992H131.806V120.038H129.754V120.078V120.496V120.536H131.806V122.582H132.257V120.536H134.31V120.496V120.078V120.038H132.257V117.992Z" fill="#FF7926"/>
      <path d="M132.264 56.7551H131.806V61.1292H132.264V56.7551Z" fill="#FF7926"/>
      <path d="M132.264 65.5041H131.806V69.8782H132.264V65.5041Z" fill="#FF7926"/>
      <path d="M132.264 74.2522H131.806V78.6262H132.264V74.2522Z" fill="#FF7926"/>
      <path d="M132.264 83.0002H131.806V87.3743H132.264V83.0002Z" fill="#FF7926"/>
      <path d="M132.264 100.496H131.806V104.87H132.264V100.496Z" fill="#FF7926"/>
      <path d="M132.264 109.244H131.806V113.618H132.264V109.244Z" fill="#FF7926"/>
      <path d="M132.264 91.7483H131.806V96.1223H132.264V91.7483Z" fill="#FF7926"/>
      <path d="M24.6016 49.8781V50.2886V50.3357H28.9756V50.2886V49.8781V49.831H24.6016V49.8781Z" fill="#FF7926"/>
      <path d="M33.3496 49.8781V50.2886V50.3357H37.7237V50.2886V49.8781V49.831H33.3496V49.8781Z" fill="#FF7926"/>
      <path d="M-1.63623 49.8781V50.2886V50.3357H2.73783V50.2886V49.8781V49.831H-1.63623V49.8781Z" fill="#FF7926"/>
      <path d="M15.8535 49.8781V50.2886V50.3357H20.2276V50.2886V49.8781V49.831H15.8535V49.8781Z" fill="#FF7926"/>
      <path d="M50.8457 49.8781V50.2886V50.3357H55.2198V50.2886V49.8781V49.831H50.8457V49.8781Z" fill="#FF7926"/>
      <path d="M42.0977 49.8781V50.2886V50.3357H46.4717V50.2886V49.8781V49.831H42.0977V49.8781Z" fill="#FF7926"/>
      <path d="M7.11182 49.8781V50.2886V50.3357H11.4791V50.2886V49.8781V49.831H7.11182V49.8781Z" fill="#FF7926"/>
      <path d="M68.5239 49.8781V50.2886V50.3357H72.898V50.2886V49.8781V49.831H68.5239V49.8781Z" fill="#FF7926"/>
      <path d="M77.272 49.8781V50.2886V50.3357H81.646V50.2886V49.8781V49.831H77.272V49.8781Z" fill="#FF7926"/>
      <path d="M103.509 49.8781V50.2886V50.3357H107.883V50.2886V49.8781V49.831H103.509V49.8781Z" fill="#FF7926"/>
      <path d="M112.257 49.8781V50.2886V50.3357H116.631V50.2886V49.8781V49.831H112.257V49.8781Z" fill="#FF7926"/>
      <path d="M121.005 49.8781V50.2886V50.3357H125.379V50.2886V49.8781V49.831H121.005V49.8781Z" fill="#FF7926"/>
      <path d="M94.7681 49.8781V50.2886V50.3357H99.1421V50.2886V49.8781V49.831H94.7681V49.8781Z" fill="#FF7926"/>
      <path d="M86.02 49.8781V50.2886V50.3357H90.3941V50.2886V49.8781V49.831H86.02V49.8781Z" fill="#FF7926"/>
      <path d="M62.0971 47.7787H61.6462V49.8312H59.5938V49.8783V50.2888V50.3359H61.6462V52.3816H62.0971V50.3359H64.1495V50.2888V49.8783V49.8312H62.0971V47.7787Z" fill="#FF7926"/>
      <path d="M62.1041 4.04514H61.6465V8.4192H62.1041V4.04514Z" fill="#FF7926"/>
      <path d="M62.1041 30.2825H61.6465V34.6565H62.1041V30.2825Z" fill="#FF7926"/>
      <path d="M62.1041 21.5344H61.6465V25.9084H62.1041V21.5344Z" fill="#FF7926"/>
      <path d="M62.1041 39.0306H61.6465V43.4047H62.1041V39.0306Z" fill="#FF7926"/>
      <path d="M62.1041 12.7932H61.6465V17.1672H62.1041V12.7932Z" fill="#FF7926"/>
      <path d="M138.684 49.8781V50.2886V50.3357H143.058V50.2886V49.8781V49.831H138.684V49.8781Z" fill="#FF7926"/>
      <path d="M182.417 49.8781V50.2886V50.3357H186.792V50.2886V49.8781V49.831H182.417V49.8781Z" fill="#FF7926"/>
      <path d="M147.432 49.8781V50.2886V50.3357H151.806V50.2886V49.8781V49.831H147.432V49.8781Z" fill="#FF7926"/>
      <path d="M173.676 49.8781V50.2886V50.3357H178.05V50.2886V49.8781V49.831H173.676V49.8781Z" fill="#FF7926"/>
      <path d="M164.928 49.8781V50.2886V50.3357H169.302V50.2886V49.8781V49.831H164.928V49.8781Z" fill="#FF7926"/>
      <path d="M156.18 49.8781V50.2886V50.3357H160.554V50.2886V49.8781V49.831H156.18V49.8781Z" fill="#FF7926"/>
      <path d="M132.257 47.7787H131.806V49.8312H129.754V49.8783V50.2888V50.3359H131.806V52.3816H132.257V50.3359H134.31V50.2888V49.8783V49.8312H132.257V47.7787Z" fill="#FF7926"/>
      <path d="M132.264 21.5344H131.806V25.9084H132.264V21.5344Z" fill="#FF7926"/>
      <path d="M132.264 12.7932H131.806V17.1672H132.264V12.7932Z" fill="#FF7926"/>
      <path d="M132.264 30.2825H131.806V34.6565H132.264V30.2825Z" fill="#FF7926"/>
      <path d="M132.264 39.0306H131.806V43.4047H132.264V39.0306Z" fill="#FF7926"/>
      <path d="M132.264 4.04514H131.806V8.4192H132.264V4.04514Z" fill="#FF7926"/>
    </g>
  </g>
  <rect x="143.757" y="127.343" width="1.4343" height="8.60579" fill="#FF7926"/>
  <rect x="147.343" y="125.191" width="1.4343" height="8.60579" transform="rotate(-90 147.343 125.191)" fill="#FF7926"/>
  <rect x="143.757" y="113" width="1.4343" height="8.60579" fill="#FF7926"/>
  <rect x="133" y="125.191" width="1.4343" height="8.60579" transform="rotate(-90 133 125.191)" fill="#FF7926"/>
  <defs>
    <radialGradient id="paint0_radial_247_10057" cx="0" cy="0" r="1" gradientUnits="userSpaceOnUse" gradientTransform="translate(190 190) rotate(180) scale(190)">
      <stop stop-color="#D9D9D9"/>
      <stop offset="1" stop-color="#737373" stop-opacity="0"/>
    </radialGradient>
  </defs>
</svg>