<svg width="40" height="40" viewBox="0 0 40 40" fill="none" xmlns="http://www.w3.org/2000/svg">
  <g clip-path="url(#clip0_18373_583)">
    <rect width="40" height="40" fill="#211A1D"/>
    <g opacity="0.5">
      <path d="M3.52843 22.008L3.52665 22.4767L3.06698 23.9895L2.69731 24.436L2.88615 25.0292C3.20595 25.1628 3.85687 25.4355 3.9022 25.4572C3.94753 25.4789 3.92496 25.9799 4.04571 26.1132C3.8592 26.4338 3.76279 26.8557 3.7677 26.8947C3.77261 26.9337 4.2807 27.3645 4.53413 27.5751L5.48284 28.0421L6.14841 28.1029L6.74793 28.1226L7.98345 27.727L9.35265 26.4005L10.3483 26.1836L10.3922 25.7172L10.5046 25.0099L11.056 23.8322L10.3279 22.7928L9.84424 21.3684L9.54192 19.784L8.69557 18.8014L8.10785 18.8755L7.45662 19.864L7.27227 20.6946L6.82632 21.1393L5.80376 21.1424L5.22414 21.3412L4.82276 21.4755L4.28018 21.3344L3.84489 21.6825L3.52843 22.008Z" fill="#4D2D1F"/>
      <path d="M10.1324 30.3274L9.82395 27.8791L11.2206 26.6736L12.002 24.6201L11.5026 23.1329L10.5161 21.0824L11.3736 19.6325L12.5525 20.8258L14.2185 20.1069L14.456 18.7814L14.258 17.2099L15.1914 16.3635L16.9081 17.6973L18.3822 19.5823L20.4511 20.5015L23.1928 20.1561L25.3507 19.2132L27.2592 20.4187L25.1984 22.9573L24.0451 26.9201L22.8142 30.1755L19.4457 32.15L16.1921 32.56L13.4442 33.6813L11.5278 35.6233L10.2664 39.5534L7.22426 40.8159L8.03831 37.4627L8.22218 33.9691L8.84427 31.9357L10.1324 30.3274Z" fill="#4D2D1F"/>
      <path d="M13.7817 35.0006L13.2315 36.01L13.8983 35.926L14.6152 35.1277L15.7417 34.243L14.5231 34.3965L13.7817 35.0006Z" fill="#4D2D1F"/>
      <path d="M20.1464 32.8104L17.4291 33.4428L20.2846 33.9069L22.7759 32.7691L22.9716 31.3753L20.1464 32.8104Z" fill="#4D2D1F"/>
      <path d="M0.893181 33.145L1.105 33.2195L2.07664 33.2995L7.17017 32.354L8.65317 31.0032L9.40733 29.4911L9.28387 28.5114L8.35395 28.6286L5.88766 28.6019L3.57211 27.7635L1.47163 26.0881L0.942253 21.8869L2.11223 20.9972L2.98343 20.2801L3.6738 19.3328L3.09166 18.4614L1.18787 18.3471L-1.62439 19.0557L-4.21489 19.3821L-7.39733 19.4288L-12.6441 18.6223L-15.8397 15.8873L-21.7127 13.7257L-26.3826 12.6778L-28.76 12.2857L-30.9711 12.1426L-32.0148 12.6959L-32.595 13.7137L-30.5338 15.6132L-28.6715 17.8078L-28.479 19.3355L-29.2442 20.2248L-31.7937 22.0812L-31.4923 22.4649L-29.2543 22.5541L-27.9719 22.0213L-27.2936 21.5141L-27.1952 22.2946L-27.3498 23.4781L-27.6497 24.5786L-27.5622 24.8713L-26.6152 23.1493L-25.9498 22.1377L-25.9226 22.3535L-25.0825 21.6573L-25.0197 22.1554L-25.8891 22.6192L-26.5712 23.498L-27.5681 25.2263L-28.6443 30.6083L-30.7798 31.3328L-31.3754 31.5597L-30.1195 34.6319L-29.2543 36.1896L-28.1449 34.4984H-27.8066L-27.1302 34.3293L-22.7331 33.1454L-21.0419 32.9763L-21.3802 33.1454L-22.9022 33.3145L-27.7221 34.7521L-28.314 35.1749L-28.8636 37.7042L-31.2733 44.5532L-34.0532 46.4554L-35.111 47.4322L-34.621 49.5804L-33.4883 50.939L-32.2504 51.5253L-30.0086 51.2428L-28.3903 50.2966L-26.236 49.7215L-25.2529 48.8217L-24.2258 48.2705L-23.8348 48.9635L-25.1566 49.5855L-26.4699 50.4089L-28.9126 51.1047L-27.1562 51.2545L-25.3628 51.0285L-19.6791 46.4661L-12.9242 44.6615L-14.2772 41.2631L-14.3618 40.5021L-16.814 41.2631V41.094L-14.7845 40.4175L-14.3618 39.9102L-14.6154 38.5572L-16.6448 37.7116L-17.1522 37.3734L-14.4463 38.3881L-14.2772 38.7263L-12.9242 37.7116L-12.7551 36.5278L-12.586 36.6969L-12.7551 37.8807L-13.2625 38.219L-14.1081 38.8955V39.4028L-13.6007 41.4322L-11.4022 44.5917L-4.56097 47.294L1.21339 46.2628L3.02432 44.8369L2.73557 42.5453L1.71759 39.6877L0.893181 33.145Z" fill="#4D2D1F"/>
      <path d="M4.55904 33.5376L1.41946 33.7475C1.48707 34.0896 1.64165 34.8129 1.71917 34.9687C1.81606 35.1636 2.49299 35.2525 2.65105 35.1077C2.80912 34.963 4.08836 35.0284 4.28764 34.9983C4.44707 34.9743 5.11711 35.1945 5.43221 35.3076C5.62671 35.5407 6.03665 36.0187 6.12038 36.0668C6.20412 36.1149 6.74982 36.282 7.01221 36.3595L6.9352 35.2072C6.92626 35.0736 7.13029 34.6126 7.23342 34.3988C7.28087 34.1049 7.38022 33.4832 7.39801 33.3478C7.41579 33.2124 6.99492 33.0057 6.78226 32.9193L4.55904 33.5376Z" fill="#4D2D1F"/>
      <path d="M-61.0829 32.0826L-64.1162 32.9194C-63.9812 33.241 -63.6843 33.9184 -63.577 34.0555C-63.4429 34.2268 -62.762 34.1779 -62.6362 34.0043C-62.5105 33.8307 -61.2442 33.6376 -61.0551 33.568C-60.9037 33.5124 -60.2031 33.5934 -59.8717 33.6409C-59.6343 33.8301 -59.1366 34.2159 -59.0449 34.2462C-58.9532 34.2765 -58.3851 34.3304 -58.1125 34.3536L-58.4196 33.2403C-58.4552 33.1112 -58.348 32.6187 -58.29 32.3885C-58.3026 32.091 -58.3303 31.4621 -58.3401 31.3259C-58.3499 31.1897 -58.8037 31.0718 -59.0294 31.0299L-61.0829 32.0826Z" fill="#4D2D1F"/>
      <path d="M-32.8407 15.111C-30.6698 15.4178 -30.0902 17.7504 -30.0718 18.8783L-33.3114 21.9519L-34.2812 23.761L-28.9839 23.0935C-27.9969 22.9692 -28.0077 23.6565 -28.3626 23.7406L-29.4918 30.1752L-32.0518 31.9486L-29.9595 37.9772L-31.0307 40.0522L-33.5826 43.7645L-39.8457 46.0045L-42.6119 47.0784L-46.4521 45.3861L-49.7026 41.6795L-54.0213 41.0091L-56.2363 36.8178L-56.7908 32.4173L-58.6249 29.3757L-62.4098 31.0672L-64.7026 30.1415L-65.8488 27.7387L-65.2278 25.9735L-66.2087 24.8825L-67.4862 26.258L-68.798 26.4233L-68.9487 25.2277L-66.3887 23.4544L-70.963 24.6381L-70.301 22.2604L-61.2393 20.1402L-53.6547 17.0083L-41.5746 14.8789C-39.5679 14.8284 -35.0117 14.8043 -32.8407 15.111Z" fill="#4D2D1F"/>
      <path d="M-47.899 45.4168L-51.0593 42.5592L-54.8319 44.2154L-55.3716 46.3584L-53.8862 47.4364L-49.0405 47.7368L-46.9338 49.4619L-42.8621 48.0379L-46.2009 47.379L-47.899 45.4168Z" fill="#4D2D1F"/>
      <path d="M-57.8804 39.0326L-57.8597 36.9213L-56.8921 37.103L-56.181 38.1943L-55.9843 39.7552L-57.1467 39.9017L-57.8804 39.0326Z" fill="#4D2D1F"/>
      <path d="M-56.1717 40.6593L-55.9558 40.2546L-55.0836 40.1991L-54.6964 40.4175L-54.5273 40.9249L-55.3729 41.094L-56.1717 40.6593Z" fill="#4D2D1F"/>
      <path d="M-41.9658 48.1005L-41.7499 47.6958L-40.8777 47.6403L-40.326 47.7822L-40.2908 48.0616L-41.2302 48.7555L-41.9658 48.1005Z" fill="#4D2D1F"/>
      <path d="M-38.1029 57.9803L-37.2311 56.3461L-33.7093 56.1218L-31.4818 56.6948L-31.3396 57.8232L-35.1326 60.6252L-38.1029 57.9803Z" fill="#4D2D1F"/>
      <path d="M-40.1908 13.9457L-44.143 14.4437L-44.3376 12.8993L-40.9409 11.2061L-36.7732 12.4185L-37.1077 14.1813L-40.1908 13.9457Z" fill="#4D2D1F"/>
      <path d="M-35.8293 11.7428L-36.1553 13.707L-33.3797 13.779L-33.0817 12.7968L-32.6757 11.8684L-30.5984 11.0837L-30.9559 10.6564L-31.654 10.0696L-34.2777 10.4002L-35.8293 11.7428Z" fill="#4D2D1F"/>
      <path d="M6.71516 46.3415L7.04123 44.3773L4.26557 44.3053L3.96759 45.2876L3.56162 46.2159L1.48434 47.0006L1.84183 47.4279L2.53994 48.0148L5.16366 47.6842L6.71516 46.3415Z" fill="#4D2D1F"/>
      <path d="M15.1711 66.2974L14.8111 65.2434L13.6273 65.1091L12.6126 65.6165L11.767 65.9547L10.5832 66.6312L10.2978 67.3838L10.9959 67.9706L13.6196 67.64L15.1711 66.2974Z" fill="#4D2D1F"/>
      <path d="M8.89201 68.8297L9.06113 67.9841H8.20781L7.36994 68.3223L6.69347 68.4915L5.17142 68.6606L4.88598 69.4132L5.58409 70L8.04642 69.3371L8.89201 68.8297Z" fill="#4D2D1F"/>
      <path d="M1.95816 68.8297L3.98758 69.3371L2.46552 69.6753H1.11256L1.95816 68.8297Z" fill="#4D2D1F"/>
      <path d="M-0.747734 68.6606L0.0978546 69.3371H-1.4242L-2.43891 69.6753V68.8297L-0.747734 68.6606Z" fill="#4D2D1F"/>
      <path d="M-4.80657 67.9841L-3.45362 68.4915L-4.63745 68.6606L-5.48304 68.9988L-5.31393 68.3223L-4.80657 67.9841Z" fill="#4D2D1F"/>
      <path d="M-26.9025 11.7649L-28.9934 11.3705L-27.8438 10.8545L-26.3033 11.0315L-26.9025 11.7649Z" fill="#4D2D1F"/>
      <path d="M-71.082 35.0003L-64.9221 35.3919L-64.1909 36.3323L-65.4513 37.5422L-65.591 38.8296L-65.0999 40.1291L-62.7649 40.1054L-60.9568 41.6228L-63.5401 42.5992L-66.1177 41.9809L-66.9788 42.3064L-66.4521 43.6998C-65.9067 44.2749 -64.7508 45.5975 -64.4904 46.2864C-64.2301 46.9753 -64.7115 47.4375 -64.9847 47.5825L-66.1589 48.0263L-68.683 46.8868L-69.4581 44.8359L-71.2842 43.9336L-73.0532 43.135L-74.5946 40.9978L-75.4881 38.6337L-76.7965 37.1601L-76.8668 34.9858L-77 32.6923L-74.6593 31.074L-71.082 35.0003Z" fill="#4D2D1F"/>
      <path d="M31.723 51.9179L33.1665 55.6864L33.8976 56.6267L32.6372 57.8367L32.4976 59.1241L32.9887 60.4235L35.3237 60.3999L35.7227 62.065V62.4498L34.5485 62.8936L33.8976 64.228H33.5981L33.8976 65.1303C34.443 65.7055 33.3378 65.892 33.5981 66.5808C33.8585 67.2697 33.3771 67.732 33.1039 67.877L31.9297 68.3208L29.4056 67.1813L28.6304 65.1303L26.8043 64.228L25.1274 65.1303L23.4292 66.5808L21.7451 67.1813L20.0539 67.4767L18.7009 67.6459L17.348 67.1813L16.3333 65.4473L16.5024 63.9253L16.8406 62.065L17.8553 61.2194L18.87 60.3999L21.2921 57.4545L21.2218 55.2803L21.0886 52.9867L23.4292 51.3685L31.723 51.9179Z" fill="#4D2D1F"/>
      <path d="M-62.7058 47.079L-64.4985 43.9454L-62.7763 43.2945L-60.9659 44.2027L-59.3711 45.8186L-58.3533 48.5115L-61.1401 49.5647L-62.7058 47.079Z" fill="#4D2D1F"/>
      <path d="M-8.42757 12.5916L-10.606 9.76213L-10.765 8.50008L-6.79623 8L-4.52511 10.0924L-2.0707 10.6941L2.97746 10.058L4.90689 10.9114L3.24947 12.2168L1.94077 13.4782L-1.66268 13.9322L-4.6881 13.2169L-8.42757 12.5916Z" fill="#4D2D1F"/>
      <path d="M-9.71098 50.776L-16.4757 47.8588L-12.586 47.859L-11.3392 46.8333H-10.7952L-6.15949 47.859L-4.43833 49.2533L0.609825 48.6172L1.45083 52.4915L-0.834877 52.4915L-2.60801 53.1017H-4.97566L-7.05573 51.7762L-9.71098 50.776Z" fill="#4D2D1F"/>
      <path d="M-3.54943 16.3631L-5.93416 14.8417L-4.0071 15.4086L-2.52459 15.6604L-0.930435 15.4595L0.153664 15.8965L2.5615 15.5931L3.07156 14.9553L5.16862 15.2646L5.58692 16.3084L2.5615 15.5931L0.153664 15.8965L-3.54943 16.3631Z" fill="#4D2D1F"/>
      <path d="M-53.9664 15.7373L-51.1482 15.1225L-52.324 14.0211L-55.8685 14.4351L-56.6469 14.3217L-57.3975 15.7373L-56.6469 16.9423L-53.9664 15.7373Z" fill="#4D2D1F"/>
      <path d="M-45.3691 11.559L-44.164 11.241L-44.3816 10.8393L-44.7498 10.3037V9.76814H-45.3691L-46.5909 10.6217L-45.3691 11.559Z" fill="#4D2D1F"/>
    </g>
    <rect x="20.0938" y="22.125" width="0.81249" height="4.87494" fill="#FF7926"/>
    <rect x="22.125" y="20.9062" width="0.81249" height="4.87494" transform="rotate(-90 22.125 20.9062)" fill="#FF7926"/>
    <rect x="20.0938" y="14" width="0.81249" height="4.87494" fill="#FF7926"/>
    <rect x="14" y="20.9062" width="0.81249" height="4.87494" transform="rotate(-90 14 20.9062)" fill="#FF7926"/>
  </g>
  <rect x="0.5" y="0.5" width="39" height="39" stroke="#FF7926" stroke-opacity="0.4"/>
  <defs>
    <clipPath id="clip0_18373_583">
      <rect width="40" height="40" fill="white"/>
    </clipPath>
  </defs>
</svg>